<?xml version="1.0" standalone="no"?>
<!DOCTYPE svg PUBLIC "-//W3C//DTD SVG 20010904//EN"
 "http://www.w3.org/TR/2001/REC-SVG-20010904/DTD/svg10.dtd">
<svg version="1.0" xmlns="http://www.w3.org/2000/svg"
 width="2000.000000pt" height="2000.000000pt" viewBox="0 0 2000.000000 2000.000000"
 preserveAspectRatio="xMidYMid meet">

<g transform="translate(0.000000,2000.000000) scale(0.100000,-0.100000)"
fill="#000000" stroke="none">
<path d="M8740 16974 c-302 -19 -587 -53 -805 -94 -680 -130 -1264 -324 -1837
-611 -352 -176 -738 -415 -1043 -644 -343 -258 -709 -593 -978 -895 -66 -74
-125 -141 -132 -149 -11 -11 -64 -4 -331 44 -391 69 -910 164 -944 172 -14 3
-22 3 -19 -1 4 -4 1040 -348 2303 -765 l2295 -758 93 68 c346 254 812 455
1278 554 235 49 342 59 650 58 299 0 435 -12 642 -54 57 -12 114 -23 128 -26
190 -37 546 -177 756 -297 712 -407 1216 -883 1557 -1471 64 -110 177 -350
220 -465 20 -52 39 -103 43 -113 3 -10 18 -24 33 -31 31 -16 3513 -1166 3530
-1166 21 0 14 186 -20 520 -139 1389 -709 2702 -1643 3790 -123 143 -452 476
-611 619 -642 576 -1417 1037 -2220 1323 -799 284 -1574 411 -2482 407 -147
-1 -356 -7 -463 -15z"/>
<path d="M2736 12532 c-55 -152 -115 -328 -136 -402 -13 -41 -29 -94 -36 -118
-24 -73 -101 -391 -128 -522 -96 -476 -129 -817 -129 -1335 0 -382 8 -527 49
-855 169 -1367 763 -2726 1663 -3810 760 -915 1713 -1616 2765 -2034 216 -86
277 -108 466 -168 306 -96 652 -178 915 -217 464 -69 622 -81 1098 -81 403 0
658 14 917 50 36 5 103 14 150 20 340 47 735 139 1083 254 264 88 368 128 611
238 59 27 114 47 121 44 7 -2 163 -134 346 -293 182 -158 340 -294 349 -300
14 -10 385 -13 1675 -13 912 -1 1659 1 1661 3 4 4 10 -1 -1188 1171 -558 546
-835 824 -830 832 4 7 45 54 92 105 188 205 406 477 570 714 46 66 87 124 90
128 9 10 40 2 185 -51 61 -22 423 -153 805 -291 382 -139 1044 -378 1470 -532
426 -154 799 -289 828 -300 28 -10 77 -28 107 -39 30 -11 79 -29 108 -39 28
-11 192 -70 362 -131 171 -61 366 -131 435 -157 69 -25 175 -63 235 -85 61
-22 144 -53 185 -68 146 -55 271 -100 278 -100 7 1 -306 156 -673 335 -93 45
-422 208 -730 360 -308 153 -654 324 -770 380 -115 57 -461 227 -769 379 -307
152 -560 276 -561 276 -2 0 -335 165 -741 366 -1195 592 -2347 1162 -3179
1570 -82 41 -155 74 -162 74 -7 0 -24 -21 -39 -47 -81 -141 -299 -463 -324
-478 -4 -3 -95 86 -201 198 -394 412 -902 927 -915 927 -7 0 -62 -30 -121 -67
-173 -106 -1172 -729 -1488 -927 -159 -101 -329 -206 -377 -236 -49 -29 -88
-57 -88 -62 0 -5 219 -237 488 -515 268 -278 493 -515 501 -526 20 -28 5 -34
-108 -41 -53 -4 -132 -11 -176 -17 -250 -29 -698 6 -957 76 -32 8 -82 21 -112
29 -90 24 -312 100 -451 155 -968 385 -1718 1170 -2087 2186 -171 470 -251
947 -250 1480 1 360 34 652 109 987 14 65 24 120 22 122 -2 2 -636 315 -1409
696 -773 381 -1444 712 -1491 735 l-86 44 -27 -77z"/>
</g>
</svg>
