<svg xmlns="http://www.w3.org/2000/svg" width="2000" height="2000"><path fill="#fdfdfd" d="M350 686h50v1l18 1v1l16 1v1l9 1v1l7 1v1l7 1v1l6 1v1l3.813.313c3.828.313 3.828.313 5.613 2.171 2.181 2.1 3.977 2.091 6.949 2.453 4.688.723 7.072 1.833 10.625 5.063h4v2l8 2v2h3v2l1.715.414c2.307.592 4.576 1.246 6.848 1.961.764.235 1.528.47 2.316.71 2.291.988 3.448 2.097 5.121 3.915 2.017 1.134 2.017 1.134 4 2l2 1v2l1.688.313c3.746 1.113 6.58 2.466 8.625 5.875L538 737h4v2l3 1c3.86 2.433 7.576 4.979 11 8v2l1.75.875L560 752l2.188 1c1.812 1 1.812 1 2.812 3l2 1-1 2 6 1v2h2l.25 1.875c.563 2.31.563 2.31 2.813 3.375L579 768v2h2v2l2 1c3.645 2.617 5.985 4.97 8 9v2l5 1 1 6h2q1.53 1.977 3 4l2 1c4.36 7.003 4.36 7.003 5 11h2c2.647 2.647 3.6 5.562 5 9h3l1 4h1l1 9h2c2 3 2 3 2 6h2v4h2v4h2c1.5 2.25 1.5 2.25 3 5l1.25 2.125C637 852 637 852 636 855h2v5h2l3 7h1l.148 1.793c.504 5.32.957 9.857 4.414 14.144 1.83 2.626 2.08 4.918 2.438 8.063h1l.332 3.516c.81 8.129 1.81 15.893 4.012 23.785.874 3.597 1.153 7.146 1.347 10.836L658 931l2 1-.048 1.737c-.578 12.835-.578 12.835 1.548 25.388 3.603 12.044 1.825 25.003-.773 37.07-.943 4.934-1.224 9.805-1.418 14.817-.309 2.988-.309 2.988-1.266 5.33-1.083 2.76-1.594 5.257-2.043 8.185l-.5 3.15-.5 3.26c-1.882 12.224-1.882 12.224-4 18.063-.433 2.28-.433 2.28-.625 4.375L650 1057h-1l-1 5h-1l-3 14h-2l-.375 2.813C641 1082 641 1082 639 1085c-2.276 7.759-2.026 15.056-1 23h2l1.438 2.938c4.362 7.611 10.876 13.071 18.562 17.062l2.563 2.063c2.693 2.14 5.34 3.436 8.437 4.937l1.78.88c1.88.928 3.767 1.837 5.658 2.745l1.908.945c4.261 2.032 7.95 2.98 12.654 3.43 1.697-5.861.068-10.479-2-16l-1.031-1.86c-1.368-3.023-1.701-5.986-2.157-9.265l-.542-3.758C687 1109 687 1109 688 1107h-2c-1.345-9.057-2.16-17.958-2.09-27.121l.012-2.871c.06-10.984.283-21.964.515-32.946a32158 32158 0 0 0 .354-17.148c.177-8.795.308-17.59.428-26.387q.082-5.67.167-11.343.051-3.672.093-7.345c.039-3.415.09-6.83.142-10.245l.025-3.083.051-2.833.031-2.459c.305-2.492.917-4.11 2.272-6.219 2.515-.86 4.22-1.205 6.809-.525 2.669.64 5.133.688 7.878.73l3.457.06 3.715.051 3.817.063q5.01.082 10.022.153 5.118.077 10.236.161 10.032.161 20.066.307v-2q2.969-.04 5.938-.062l3.34-.036C766 956 766 956 767 957c.108 1.594.147 3.192.158 4.79l.03 3.14.017 3.475.03 3.635q.04 4.95.068 9.899.035 5.166.076 10.334.074 9.79.138 19.581.076 11.144.16 22.288.17 22.929.323 45.858h1v14h2l.188 2.188c.622 3.005.622 3.005 3.187 5.187 2.385 2.385 3.073 3.338 4.188 6.313 1.106 3.312 1.106 3.312 3.312 4.687 2.177.685 2.177.685 4.688 1.063 2.437.562 2.437.562 3.812 2.062 2.528 2.334 5.3 2.186 8.625 2.5v1h16v-1l2.688-.25c3.787-.857 5.353-2.31 8.312-4.75l3-.875c4.58-1.717 6.663-5.052 9.25-9.062.916-2.26.916-2.26 1.125-5.626L840 1094l2.023-1.297c2.322-1.615 2.322-1.615 2.368-4.84l-.141-3.55-.11-3.575L844 1078h1c.937-12.172 1.148-24.266 1.133-36.469l.003-5.802q.002-6.042-.006-12.082a6725 6725 0 0 1 .004-15.35q.005-5.979 0-11.958 0-2.827.002-5.654.003-3.976-.007-7.953l.007-2.271c-.03-7.872-.642-15.554-1.136-23.461h81v150h-2l-1 8h-1l-1 7h-2c.03 1.67.03 1.67.063 3.375C919 1129 919 1129 918 1131c-.04 2-.043 4 0 6h-2l-1 2-2-1-3 12h-2v2h-2v2h-2v2h-2l-.875 1.875C900 1160 900 1160 898 1162h-4l-.187 1.813c-1.173 3.156-2.832 3.697-5.813 5.187a263 263 0 0 1-7 3l-2 1-1 3c-4.43 1.65-8.29 2.23-13 2v1l-2.812.375c-3.327.44-3.327.44-6.188 2.625-8.944 3.385-16.674 4.402-26.113 4.043L827 1186l-1 1c-6.628 1.023-13.238 1.297-19.934 1.518-5.297.227-9.947 1.109-15.066 2.482-3.5.125-3.5.125-6 0v2l3.625-.125c3.81 0 6.84.61 10.375 2.125 2 2 2 2 2 6 3.122 1.687 6.24 2.71 9.625 3.75 5.13 1.84 5.13 1.84 7.125 5.188.244 2.984-.103 5.167-.75 8.062-14.09.451-14.09.451-19.375-4-1.625-2-1.625-2-1.625-4l-2.852.105-3.773.082-3.727.106c-3.933-.316-6.23-1.404-9.648-3.293a100 100 0 0 0-5 0l-2.28-.98c-3.072-1.152-5.39-1.274-8.665-1.279l-3.563-.019-3.832.012-3.98-.005q-4.176-.005-8.35.01c-3.527.012-7.053.005-10.579-.007q-4.118-.009-8.234 0-2.88.001-5.759-.01c-17.891-.019-17.891-.019-33.758 7.278-2.14 2.301-3.607 4.215-5 7h-2l-2 6h-2v6h-2l-.25 3.063c-.423 3.104-.956 4.263-2.719 7.062-2.62 4.413-2.913 8.773-3.281 13.813l-.234 2.65A563 563 0 0 0 662 1264q-27.03.07-54.06.104-12.55.014-25.1.047-10.94.03-21.88.037-5.792.003-11.583.023-5.454.02-10.909.015c-1.967.001-3.933.012-5.9.023l-3.57-.008-3.089.005c-3.256-.275-5.896-.99-8.909-2.246-.875-2.125-.875-2.125-1-4l-3.312-.687c-4.322-1.539-4.543-2.489-6.688-6.313-3.067-1.826-3.067-1.826-6-3v-2h-2v-2h-2v-2h-6v-2c-2.688.46-5.036 1.015-7.562 2.063C480 1243 480 1243 476 1243v2h-4v2h-6v2l-2.59.621-3.348.816-3.34.81c-2.616.483-2.616.483-3.722 1.753-2 .04-4 .043-6 0v2l-1.934.184-2.503.254c-.824.08-1.648.162-2.497.246-2.053.105-2.053.105-3.066 1.316-1.682.233-3.371.413-5.062.563l-2.786.253L427 1258v1l-11 1v1l-12 1v1h-56v-1l-14-1v-1l-7-1v-1l-1.934-.184-2.503-.254c-.824-.08-1.648-.162-2.497-.246C318 1257 318 1257 317 1256a100 100 0 0 0-5-.562l-2.75-.254c-1.623-.136-1.623-.136-3.25-.184-1.484-.22-2.963-.476-4.437-.75l-2.434-.422c-2.129-.828-2.129-.828-3.414-2.906L295 1249c-1.423.03-1.423.03-2.875.063C289 1249 289 1249 287 1248a62 62 0 0 0-4.125-.062L279 1248v-2l-1.812-.375C275 1245 275 1245 272 1243l1-1-2.266-.332-2.984-.48-2.953-.458c-2.969-.775-4.449-1.812-6.797-3.73-1.885-.961-1.885-.961-3.75-1.687L251 1234v-1l-2.187-.187c-2.813-.813-2.813-.813-5.125-3.188-3.311-3.234-6.377-4.21-10.688-5.625-2.437-1-2.437-1-4-2l-1-3-2-1v-2l-3.312-.25c-4.293-.873-4.28-1.439-6.688-4.75-3.59-1.288-3.59-1.288-7-2l-1-5-1.875-.375C204 1203 204 1203 202 1201h-3v-2l-2-1-1.375-2.5c-1.325-2.68-1.325-2.68-3.625-2.937l-2-.563-1.437-3-1.563-3-2.5-.5-2.5-.5c-3-4.862-3-4.862-3-8l-6-1v-5h-2v-2h-2v-2l-3 1-1-5h-2v-3h-4l-.75-1.75c-1.183-2.372-1.183-2.372-3.312-4.312C153 1152 153 1152 152 1149h-2c-1.24-2.974-2.3-5.853-3-9h-2c-2.54-2.614-3.923-4.129-4.25-7.812L141 1130l-1.875-.375C137 1129 137 1129 135 1127a65 65 0 0 1-1.437-4.312c-1.136-3.556-2.315-6.658-4.563-9.688h-2v-2h-2v-5h-2l1-5-3 1 1-5-3 1c-1.899-5.57-1.899-5.57-2.5-8.125-.814-3.052-2.122-5.39-4.062-7.875-2.77-3.853-2.816-8.378-3.438-13h-1l-.312-2.312c-.422-2.705-.422-2.705-2.188-4-2.485-2.797-2.2-6.03-2.5-9.688h-1l-.367-3.246-.508-4.191-.238-2.143c-.226-1.817-.55-3.62-.887-5.42l-2-1 .125-2.75c.012-5.848-.492-12.983-3.125-18.25-1.708-8.22-2.313-16.45-2.658-24.818-.182-4.297-.182-4.297-.85-8.537-.563-3.027-.622-5.856-.625-8.934l-.004-3.602.012-3.734-.012-3.758.004-3.594.004-3.283C91 953 91 953 92 950c.134-1.374.223-2.753.281-4.133l.114-2.445.105-2.547c.662-15.54.662-15.54 2.013-20.917.755-3.038.847-6.09 1.05-9.208l.253-3.828L96 904h1l.375-2.75c.546-2.84 1.198-4.776 2.625-7.25h2l-.324-2.125c-.84-6.652-.642-10.838 2.324-16.875l1.688-1.937c2.138-3.361 1.721-7.181 1.312-11.063l-1-1c-.04-2-.043-4 0-6h-2l-.586-1.793A957 957 0 0 0 101 846l-1-3-1-2-3-1v-3h-2c-1.656-1.934-1.656-1.934-3.5-4.437-2.3-3.312-2.3-3.312-5.5-5.563v-2h-2v-2h-2c-4.767-4.302-4.767-4.302-6-8h-2l-.68-1.773c-1.697-2.864-3.662-4.052-6.445-5.852A88 88 0 0 1 61 804v-2l-6-2v-2l-6-2v-2l-2.223-.316c-3.012-.742-4.723-1.805-7.215-3.621-3.491-2.43-6.513-3.74-10.562-5.063a198 198 0 0 1-4.937-3c-4.011-2.488-7.464-4-12.063-5v-2l-8-2v-2H0v-14c14.063 1.607 14.063 1.607 17.625 4 7.875 4.667 18.231 4.304 27.201 5.176 7.2.739 14.14 2.103 21.174 3.824v2h8v2l2.48-.07c14.216-.21 28.356.99 42.52 2.07v1l8 1v1l10 1v1l9 1v1h12l1-2a179 179 0 0 1 4-4c2.562-2.498 4.913-4.884 7.063-7.75 2.025-2.352 2.912-2.926 5.937-3.25v-2h2v-2h2l.813-1.937C182 758 182 758 185 757l2-1 .25-1.937L188 752a503 503 0 0 1 6-2 283 283 0 0 0 5-5l2.75-1.062L204 743l.438-1.875c.916-3.462 3.59-4.377 6.562-6.125a89 89 0 0 1 4-2l2.25-1.125L219 731v-2l8-2v-2h3v-2h3v-2l3.438-.812L240 719l1-3h3v-2c2.741-1.163 5.355-2.089 8.25-2.812 3.196-1.013 5.261-2.031 8.063-3.75 4.789-2.808 9.204-3.312 14.687-3.438v-2c3.75-1.125 3.75-1.125 6 0v-2q3.311-.974 6.625-1.937l3.727-1.09A84 84 0 0 1 301 695v-1l8-1v-1h7v-2l16-1v-1l18-1zm0 132v1l-7 1v1l-7 1v1l-1.898.367-2.477.508-2.46.492c-2.352.5-2.352.5-4.165 2.633-1.937.563-1.937.563-4 1l-3 1v3l-1.934.988-2.503 1.324-2.497 1.301C308.694 836.9 308.694 836.9 308 840h2v2h2l.813 2.313c1.138 2.577 2.001 3.957 4.187 5.687h2v2l6 2v2h2v2h3v2c4.97 5.12 11.248 7.498 17.852 9.824C351 871 351 871 353.836 872.488c3.953 1.889 7.932 2.93 12.164 4.012 5.372 1.374 10.058 2.914 15 5.5 1.328.353 2.661.69 4 1a81 81 0 0 1 3.625 1.875c3.869 1.992 7.743 3.227 11.922 4.406a88 88 0 0 1 6.703 2.282l1.95.742q2.43.94 4.863 1.883c3.409.943 6.416.953 9.937.812v2h8v2c9.735 2.1 19.104 2.211 29 2v2q7.366.251 14.734.482 2.505.08 5.01.166 3.604.122 7.21.23l2.257.083c3.424.098 6.52.148 9.789-.961v-8h-2l.188-2.375L498 890l-3-2c-1.168-2.164-1.168-2.164-2.187-4.625l-1.043-2.477L491 879h-2v-2h-2l-1-4h-2l-1-7-1.812-.125c-3.298-1.319-3.778-3.735-5.188-6.875l-2-2h-3l-1-2h-2l-1-2h-2v-4h-3v-2h-5l-1-2-1-1 3-1h-3v-2h-3v-2h-3l-1-2h-2v-2h-3v-2h-5l-1-2-5 1-.312-2.375c-.464-2.955-.464-2.955-3.688-4.625a87 87 0 0 0-5.687-1.125l-3.012-.508L417 823v-1l-6-1v-1l-8-1v-1l-2.59-.184-3.348-.254c-1.102-.08-2.204-.162-3.34-.246C391 817 391 817 390 816c-4.431-.258-8.875-.185-13.312-.187l-3.729-.038c-7.857-.012-15.26.652-22.959 2.225m83 11 1 2Zm51 39 1 2Zm-381 15 1 3Zm131 56v6h1v-6zm4 4v2h-2v4h-2v6l-1-7h-1v51l4 1v19h1l1 6h4v4h2l.148 3.43.227 4.445c.03.746.062 1.493.094 2.262.087 4.398.087 4.398 2.531 7.863v2h5l-.062 2.25c.075 3.311.584 5.795 2.062 8.75l2-1 1 4h2l2 8h2v2l5 1 1 7 5 1v2h2l1 5 6 1 2 7 2.375.25c2.625.75 2.625.75 3.938 2.813L292 1102h2v2c3.371 1.498 5.204 2 9 2l.375 1.875c.497 2.316.497 2.316 2.625 4.125h4v2l7 3v1l5 1v1h5v2h6v2h6v2h6l1 2c3.44 1.037 7.022 1.526 10.563 2.125l3.152.538c11.116 1.787 22.408 2.963 33.285-.663v-2l-10-1 .688-2.687c.561-3.277.561-3.277-.75-6-2.332-2.783-4.665-3.819-7.938-5.313l-1-2h-2v-2l-1.875-.75c-2.476-1.456-3.076-2.628-4.125-5.25h-2v-2c-1.456-1.476-1.456-1.476-3.312-2.937-1.865-1.53-3.632-3.004-5.293-4.754-1.32-1.537-1.32-1.537-3.395-1.309 1.875-7.75 1.875-7.75 3-10 2.478-1.097 5.005-1.984 7.555-2.902 2.453-1.102 3.599-2.21 5.445-4.098l3.438-.875c4.143-1.309 5.072-2.69 7.562-6.125 2.25-1.312 2.25-1.312 4-2v-2l6-1v-2h2l1-2c1.742-1 1.742-1 3.875-2 2.566-1.212 4.744-2.413 7.125-4v-2l5-2v-2l1.75-.375c2.273-.631 4.175-1.514 6.25-2.625v-3h2v-2l1.875-.375c2.316-.497 2.316-.497 4.125-2.625v-3h-2v-6q-9.489-5.023-19-10l-3.477-1.824c-6.038-3.1-12.143-5.604-18.507-7.957-2.677-1.082-4.994-2.287-7.454-3.782-4.788-2.828-9.868-4.085-15.23-5.445-3.366-1.002-6.207-2.408-9.332-3.992a90 90 0 0 0-5.187-1.375c-5.046-1.302-9.543-3.192-14.239-5.43a81 81 0 0 0-6.949-2.82c-3.172-1.203-5.736-2.642-8.625-4.375h-3v-2h-4v-2c-2.906-1.257-4.796-2-8-2v-2a1458 1458 0 0 0-7.312-4l-2.092-1.156C285.533 964.6 285.533 964.6 281 964v-2h-3v-2l-2.062-.687c-2.927-1.308-5.215-2.98-7.778-4.88C262.066 950.39 253.463 945 246 945v-2zm-8 27v10h1v-10zm4 32v8h1v-8zm6 25 1 4Zm449 78v6h1v-6zm2 11 1 3Zm2 6v5h1v-5zm2 6 1 3Zm-545 17 1 2Zm10 12 1 2Zm685 24v1h7v-1zm-14 2v1h6v-1zm-28 2v1h6v-1z"/><path d="M112 869c5.799 1.673 10.962 4.39 16.313 7.125 8 4.048 16.036 7.976 24.18 11.73 6.903 3.24 13.693 6.72 20.507 10.145 30.369 15.268 30.369 15.268 61 30l-.4 2.165c-2.183 11.888-4.017 23.75-4.6 35.835l-.2 3.797c-1.562 44.797 14.926 86.716 45.2 119.203l2.047 2.246c18.667 19.684 45.69 32.885 71.953 38.754l2.397.54c9.596 1.895 19.12 1.684 28.853 1.585q2.592-.016 5.184-.027 6.283-.035 12.566-.098c-5.201-6.152-10.76-11.852-16.5-17.5-5.191-5.109-10.25-10.24-14.995-15.768-1.89-2.174-3.888-4.214-5.942-6.232l-2.06-2.031L356 1089c2.324-2.523 4.786-4.246 7.7-6.047l2.876-1.787 3.111-1.916 6.575-4.078 3.4-2.104c5.122-3.173 10.23-6.371 15.338-9.568l5.938-3.71 2.992-1.871 9.632-6.02 3.266-2.042c8.985-5.615 8.985-5.615 11.664-7.276a173 173 0 0 0 4.828-3.154l2.118-1.42 1.808-1.253c1.754-.754 1.754-.754 3.667-.669 2.972 1.303 4.765 3.24 7.044 5.544l1.412 1.418q1.48 1.49 2.948 2.988a757 757 0 0 0 4.443 4.49c4.71 4.75 9.28 9.577 13.638 14.654 2.708 3.078 5.62 5.945 8.54 8.821l1.783 1.77q2.136 2.117 4.279 4.23c3.45-1.15 3.79-1.782 5.664-4.746l1.461-2.287 1.5-2.405 1.523-2.392c2.566-4.005 2.566-4.005 4.852-8.17 5.384 1.594 10.19 3.975 15.176 6.508l2.677 1.346q4.231 2.131 8.46 4.271 5.523 2.79 11.05 5.57l2.748 1.382a728 728 0 0 0 18.824 9.071c6.738 3.145 13.381 6.467 20.018 9.819 5.784 2.92 11.58 5.819 17.371 8.723q2.22 1.113 4.439 2.23a1388 1388 0 0 0 27.428 13.424c11.81 5.62 23.503 11.462 35.184 17.343 11.15 5.614 22.295 11.214 33.612 16.485 6.7 3.128 13.304 6.431 19.903 9.764 6.2 3.128 12.41 6.234 18.619 9.346q2.426 1.216 4.852 2.436c9.232 4.64 18.486 9.212 27.856 13.57 6.644 3.09 13.188 6.375 19.729 9.677 3.68 1.854 7.367 3.694 11.054 5.535l7 3.5c-4.238 1.413-7.155-.256-11.16-1.77l-2.532-.93q-2.74-1.01-5.477-2.032c-3.954-1.476-7.916-2.933-11.877-4.39q-3.149-1.16-6.294-2.322c-10.486-3.872-21.003-7.656-31.524-11.43a11323 11323 0 0 1-53.54-19.366 5163 5163 0 0 0-29.373-10.623l-2.658-.951a6745 6745 0 0 0-12.357-4.408c-8.575-3.058-17.088-6.236-25.542-9.617-3.718-1.592-3.718-1.592-7.666-2.161-1.458 1.93-2.8 3.857-4.125 5.875-7.468 11.06-16.159 21.043-24.875 31.125 1.468 3.388 3.35 5.599 5.956 8.198l2.469 2.48 2.677 2.654 2.758 2.758q2.894 2.89 5.796 5.772 3.688 3.664 7.362 7.342 3.539 3.536 7.084 7.066l2.64 2.636c4.34 4.307 8.748 8.456 13.382 12.444 3.128 2.752 6.061 5.692 9.001 8.642l1.916 1.914q1.978 1.977 3.953 3.957 3.039 3.045 6.088 6.082l3.856 3.86 1.846 1.84c4.216 4.24 4.216 4.24 4.216 5.355-17.525.258-35.049.451-52.575.57-8.139.057-16.276.134-24.414.26q-10.647.166-21.293.205c-3.756.014-7.508.048-11.263.128-25.915.535-25.915.535-32.545-4.933-2.205-2.236-4.036-4.714-5.91-7.23-1.925-1.769-3.93-3.331-6-4.937-2.563-2.041-4.833-3.864-6.937-6.38-1.971-1.974-1.971-1.974-4.79-1.66-4.06 1.212-7.795 2.857-11.648 4.602C435.538 1260.206 380.357 1265.709 332 1257l-2.955-.52c-46.632-8.42-89.467-28.424-126.045-58.48l-1.983-1.628c-13.002-10.77-25.538-22.455-35.966-35.77a136 136 0 0 0-4.32-5.204c-26.973-30.938-47.337-71.817-57.26-111.522a312 312 0 0 0-1.295-4.95c-1.623-6.158-2.949-12.379-4.239-18.613l-.492-2.318c-3.216-15.947-3.818-31.71-3.757-47.933l.006-3.141C93.803 934.297 97.15 898.7 112 869"/><path fill="#38b6ff" d="m1682.438 804.75 3.225-.028c9.567.037 19.273 1.055 28.337 4.278l1 2h5v2l2.137-.187c3.554.232 5.606 1.412 8.676 3.187l2.957 1.688L1736 819v2l7 1c.112 8.16-1.936 13.29-6.285 20.129-1.948 3.26-3.099 6.39-4.11 10.031C1732 854 1732 854 1730 857h-2v3h-2v6h-2l-.437 2.313C1723 871 1723 871 1722 874h-2l-1 7c-1.937.563-1.937.563-4 1l-1-1-3.25-.375c-3.75-.625-3.75-.625-5.871-2.121-4.156-2.171-8.065-2.07-12.691-2.192l-2.678-.103c-2.17-.082-4.34-.147-6.51-.209v2l-3 1a396 396 0 0 0-3 5h-2v5h-2l.035 2.336c.01 1.003.018 2.006.027 3.039l.036 3.023C1673 900 1673 900 1672 902a80 80 0 0 0-.13 4.753l-.009 2.994.006 3.245-.003 3.326q0 3.487.006 6.975c.005 3.56 0 7.12-.007 10.68q0 3.384.004 6.77l-.006 3.232.01 3.013.002 2.646c.121 2.263.547 4.185 1.127 6.366l1.879-.014q22.62-.166 45.243-.245c7.293-.026 14.586-.061 21.88-.118q9.534-.076 19.069-.093c3.366-.007 6.731-.022 10.097-.059 3.757-.036 7.513-.041 11.27-.039l3.386-.054c7.52.05 7.52.05 10.883 2.982 1.385 2.827 1.648 4.535 1.293 7.64h2v4h2v4h2v4h2v3h2q1.725 3.372 3.438 6.75l.986 1.922c1.547 3.062 2.968 5.934 3.576 9.328h2l.813 1.66c2.034 4.117 4.101 8.207 6.3 12.238l1.1 2.024q1.09 1.997 2.195 3.986c2.592 4.76 2.592 4.76 2.592 8.092h2a978 978 0 0 1 3 5.813l1.688 3.269C1839 1039 1839 1039 1839 1042h2v4h2v4h2v4h2c2 3 2 3 2 7l2-1 1-3h2l.875-3.25c.853-2.844 1.689-5.185 3.125-7.75h2v-4h2l2-9h2l.438-2.312C1867 1028 1867 1028 1868 1025h2v-4h2l-.125-2.187c.134-3.02.877-5.082 2.125-7.813h2l.3-1.535c.976-3.44 2.437-6.643 3.888-9.903l.944-2.138c7.227-16.307 7.227-16.307 11.055-23.674 2.089-4.09 3.474-8.367 4.813-12.75h2l2-5c5.164-.864 10.144-1.117 15.382-1.038l2.447.025c2.647.027 5.294.063 7.94.099l5.539.064q5.785.069 11.572.147 7.426.098 14.853.178 5.709.065 11.419.139 2.74.034 5.48.065 3.816.043 7.633.1l2.297.022c5.21.085 5.21.085 7.438 1.199v2h-2l-.437 2.813C1990 965 1990 965 1989 968h-2l-.937 2.875C1985 974 1985 974 1984 976h-2v4h-2l-2 7h-2l-.312 1.563c-.93 3.297-2.302 6.303-3.688 9.437h-2l-.34 2.168c-.705 3.023-1.793 5.395-3.223 8.144l-1.378 2.676L1964 1013h-2l-.312 2.063c-.835 3.566-2.183 6.6-3.688 9.937h-2v3h-2l-.312 2.063c-.835 3.566-2.183 6.6-3.688 9.937h-2v4h-2l-.25 2c-1.252 5.007-3.75 9.37-6.437 13.75-1.24 2.125-1.868 3.846-2.313 6.25h-2v4h-2v3h-2v4h-2v4h-2v4h-2l-.34 1.64c-.8 2.86-1.972 5.417-3.223 8.11l-1.378 2.984L1919 1100h-2l-.371 1.734c-.66 2.377-1.561 4.324-2.691 6.516l-1.356 2.66L1911 1114a900 900 0 0 0-15 31h-2v3h-2v4h-2v4h-2l-.437 1.813c-.45 1.749-.992 3.474-1.563 5.187h-2v4h-2v4h-2v4h-2l-.34 1.64c-.8 2.86-1.972 5.417-3.223 8.11l-1.378 2.984L1872 1190h-2l-.393 1.779c-.96 3.51-2.754 6.628-4.42 9.846-3.065 6.011-5.868 12.029-8.187 18.375h-2l-.437 1.813c-.45 1.749-.992 3.474-1.563 5.187h-2v4h-2v4h-2v4h-2l-.437 1.75L1843 1247h-2v4h-2v3h-2v3h-2l-.437 2.313C1834 1262 1834 1262 1833 1265h-2l-.371 1.64c-.739 2.773-1.698 5.419-2.691 8.11l-1.098 2.984-.84 2.266h-2v3c-1.545 2.16-1.545 2.16-4 4-3.301.474-3.301.474-7.275.438l-2.2-.003c-2.394-.008-4.787-.044-7.181-.08q-2.5-.015-4.999-.024c-4.385-.02-8.77-.065-13.154-.115-7.017-.075-14.036-.113-21.054-.155q-3.675-.029-7.351-.072l-4.51-.039-3.975-.043c-2.695.076-4.75.335-7.301 1.093a85 85 0 0 1-4.75.063L1732 1288v-11l3-1v-3h2v-4h2v-4h2v-4h2v-4h2l.402-1.734c.592-2.243 1.33-4.352 2.16-6.516l.817-2.14.621-1.61h2l.75-2.437c1.51-4.306 3.352-8.417 5.25-12.563h2l.719-2.402c1.62-4.55 3.678-8.817 5.781-13.16 3.466-7.124 3.466-7.124 6.5-14.438h2v-3h2l.41-1.746c.567-2.165 1.248-4.22 2.027-6.316l.747-2.036C1780 1185 1780 1185 1782 1182h2v-3h2l-.125-2.25c.129-2.838.696-4.338 2.125-6.75h2v-3h2l.313-1.562c1.15-4.078 2.701-7.908 4.996-11.47 3.922-6.133 4.903-11.736 3.691-18.968a90 90 0 0 0-3-5v-2l-3-1c-.95-1.742-.95-1.742-1.687-3.875l-.762-2.117C1792 1119 1792 1119 1792 1116h-2v-2l-3-1c-1.747-3.493-3-6.068-3-10h-2v-3h-2l-1.312-3.75c-1.186-3.202-2.588-5.55-4.688-8.25v-3h-2l-.734-1.828c-2.02-5.004-2.02-5.004-5.329-9.172-2.573-2.657-3.109-5.347-4.16-8.84-1.039-2.888-2.832-4.802-4.777-7.16-4-7.672-4-7.672-4-12h-2v-2h-2c-1.765-3.088-2-4.233-2-8h-2v-3h-2v-3h-2v-3h-2l-2-9h-2v-2h-2v-2h-2c-1.772-2.657-2.353-3.904-3-6.875-.74-3.185-1.686-6.12-3-9.125l-1 2h-2l.07 3.36q.029 2.194.055 4.39l.05 2.21c.037 3.96-.243 6.605-2.175 10.04l-1.726-.007q-8.88-.032-17.763-.048-3.315-.008-6.631-.02c-3.175-.013-6.35-.018-9.525-.023l-3.002-.015h-2.79l-2.456-.007c-2.3.039-2.3.039-5.107 1.12l.038 3.288a62255 62255 0 0 1 .498 44.718c.318 28.948.598 57.89.427 86.84l-.013 2.972q-.011 2.662-.038 5.326c-.12 4.059-.12 4.059 1.088 7.856.04 2 .043 4 0 6q-2.988.57-6 1l-1-1c-2.228-.119-4.46-.167-6.691-.19l-2.119-.025a1636 1636 0 0 0-4.569-.045q-3.611-.033-7.222-.077-7.668-.088-15.336-.163c-5.919-.06-11.837-.121-17.755-.192a2807 2807 0 0 0-7.13-.068l-4.357-.05-3.854-.039C1594 1177 1594 1177 1592 1176l1-3c.092-2.067.122-4.138.12-6.207l.004-3.94-.01-4.33v-4.553q-.001-6.186-.013-12.371-.007-6.462-.008-12.925-.005-12.24-.021-24.479-.015-13.934-.022-27.867-.016-28.665-.05-57.328l-2.83.108q-5.18.193-10.36.374-2.245.08-4.49.166-3.22.122-6.441.23l-3.92.144C1562 1020 1562 1020 1561 1019a115 115 0 0 1-.114-5.805v-3.761l.016-4.094.005-4.166q.006-5.491.024-10.984.014-5.6.02-11.2.016-10.995.049-21.99c2.766-1.383 5.01-1.112 8.102-1.098l3.671.01 3.852.025 3.875.014q4.75.018 9.5.049c1.898-3.22 2.254-5.609 2.271-9.325l.031-3.23.007-3.488.076-7.385q.042-5.791.071-11.583c.084-14.305.332-28.016 3.544-41.989l1.098-5.387q.476-2.151.965-4.3l.486-2.217c.925-4.127 2.036-8.103 3.451-12.096h2l.313-1.562c1.678-5.952 4.558-11.15 7.687-16.438h2v-3h2l.75-1.687c1.48-2.737 3.185-4.99 5.25-7.313h2v-2h3v-2h3v-2l5-2v-2a418 418 0 0 1 3.813-2l2.144-1.125C1643 811 1643 811 1646 811v-2c3.779-2.354 7.792-2.685 12.125-3.125l2.473-.253c7.276-.661 14.536-.837 21.84-.872"/><path d="M371.832 690.554c3.834.008 7.668-.02 11.502-.052 22.942-.064 45.503 2.46 67.666 8.498l1.932.501c41.947 10.926 80.95 32.118 112.834 61.448a256 256 0 0 0 6.359 5.613C622.155 810.252 652.293 878.722 658 944c.309 5.681.296 11.317 0 17-15.66-3.076-30.844-8.901-45.957-13.953l-5.993-2q-7.844-2.616-15.686-5.236a38188 38188 0 0 0-18.807-6.275q-7.56-2.518-15.111-5.068c-8.375-2.825-16.738-5.605-25.237-8.036q-1.92-.568-3.84-1.139a183 183 0 0 0-6.733-1.84c-4.41-1.317-6.871-2.202-9.328-6.222-1.28-3.044-2.31-6.085-3.308-9.231-16.196-35.996-47.306-64.483-84-79-26.147-9.826-54.983-11.247-82-4l-2.141.551c-11.988 3.147-23.422 8.013-33.695 15l-1.87 1.268c-1.69 1.171-3.352 2.38-5.013 3.591-6.7 3.246-14.157-.142-20.816-2.437l-2.77-.933q-4.381-1.48-8.758-2.978a8210 8210 0 0 0-11.347-3.84l-2.99-1.011c-8.123-2.739-16.277-5.377-24.44-7.996a2941 2941 0 0 1-35.36-11.596q-8.747-2.923-17.493-5.853-7.637-2.558-15.276-5.11l-2.142-.716a2789 2789 0 0 0-36.183-11.794l-3.65-1.167-3.19-1.016A124 124 0 0 1 107 780c3.649-1.216 5.408-.689 9.152.11l3.765.787 1.99.425c2.04.43 4.084.84 6.13 1.244 6.028 1.192 12.023 2.418 17.975 3.961 7.96 2.174 7.96 2.174 15.74.555 3.565-2.83 6.103-6.408 8.73-10.087 2.705-3.555 5.898-6.621 9.08-9.745l1.945-1.934c5.22-5.152 10.666-9.858 16.493-14.316l1.72-1.345c32.45-25.373 69.496-43.37 109.655-52.718l2.996-.736c19.662-4.593 39.32-5.715 59.46-5.647M1300 811h73v2l5 1v216h2l.375-2.75c.558-2.902.981-4.828 2.625-7.25 2.993-1.995 4.23-2 8-2v-2h2l2-6h4v-2h2v-3h2v-2h2v-2h2v-2h2l1-5 3 1v-2h2v-2h2l.813-1.75c1.226-2.324 2.435-4.288 4.187-6.25h3l.25-1.75c.968-2.904 2.437-4.287 4.75-6.25h2l1-4h3l.813-1.75c1.247-2.363 2.362-4.29 4.187-6.25 2.625-.625 2.625-.625 5-1l1-2c2.395-2.994 4.273-3.43 8-4a107 107 0 0 1 5.3-.098l2.96.01 3.053.025 3.11.014q3.79.018 7.577.049v2h41v-2q6.885-.037 13.77-.055 2.34-.008 4.678-.02c2.25-.013 4.498-.018 6.747-.023l2.094-.015c4.01 0 7.776.34 11.711 1.113v2h-4v2h-2l-1 4-4 1v2c-3 2-3 2-6 2v2h-2l-.125 1.688c-1.507 3.982-5.135 6.442-8.875 8.312v2h-2l-1 2-2 1-1.375 2.375c-1.647 2.66-2.98 4.003-5.625 5.625h-2l-1 3-3 1v2h-2v2h-2v2h-2v2h-2v2h-2v2h-2l-1 4h-3l-1 4h-3v2c-1.61 1.586-1.61 1.586-3.75 3.375-3.883 3.307-7.405 6.358-10.25 10.625l-3 1-1 3c-1.437 1.688-1.437 1.688-3 3h-2v2h-2v2h-2v2h-2v2h-2v2h-2v2h-2v2h-2v2h-2l1 7-2 1 1 3h2v2h2v2h3l1 4h2v2l2.438.813L1467 1081l1 3h2c2.125 1.875 2.125 1.875 4 4v2h2v2h2v2h2v2h2v2h2v2h2v2h2v2l3 1c1.188 2.563 1.188 2.563 2 5h2v2h3l1 4h2v2l2.438.75c2.562 1.25 2.562 1.25 3.374 3.375L1507 1124h2v2l2.438.813L1514 1128l1 3h2l2 4h2v2h2v2h2v2h2v2l1.875.75c2.125 1.25 2.125 1.25 3.063 3.25 1.463 2.755 3.216 2.89 6.062 4 3 3.31 3 3.31 3 6h2v2l1.688.75c2.736 1.48 4.989 3.185 7.312 5.25v2l1.688.188c3.385 1.189 5.06 3.06 7.312 5.812.375 2.75.375 2.75 0 5-1 1-1 1-4.16 1.098l-3.902-.035-3.91-.028L1546 1179v-2l-89 1-1-7-7-1-1-6-3.25-.625c-4.525-1.66-5.317-3.348-7.75-7.375l-2.187-1-1.813-1c-.75-3.125-.75-3.125-1-6h-4v-2h-2l-.312-1.937L1425 1142l-3-1a178 178 0 0 1-4-2v-2h-2l-1-5-5-1-1-5h-2v-2l-5-1-1-6h-2v-2h-4l-2-6-3.75-.187c-3.208-.42-4.122-.704-6.687-2.876-2.011-3.78-2.274-6.68-2.563-10.937h-2q.126 15.347.288 30.694.076 7.125.134 14.252.056 6.876.136 13.752.029 2.625.045 5.249c.017 2.449.046 4.898.078 7.347l.007 2.195c.06 3.658.303 6.398 2.312 9.511-4.96 1.323-9.911 1.089-15 1v-1l-60-1v2h-6l-1-9-2 4c-.89-9.164-1.097-18.22-.963-27.42.065-6.89-.21-13.74-.53-20.62-.555-12.315-.66-24.611-.637-36.939.005-3.491 0-6.983-.007-10.474-.004-13.595.279-27.16.747-40.746.573-17.047.73-34.101.922-51.156q.079-6.74.161-13.48.159-13.083.307-26.165h1l1 63zm42 1v1h28v-1zM690 961h74l.113 24.523q.05 8.725.11 17.449c.049 7.512.094 15.024.123 22.537q.04 9.891.117 19.782.025 3.755.035 7.508c-.655 30.813-.655 30.813 11.967 57.924 10.027 9.007 20.845 11.045 33.984 10.62 9.359-.55 18.459-2.895 25.653-9.179 11.231-12.803 12.014-31.545 12.103-47.742l.03-3.403q.047-5.528.081-11.054l.063-7.697q.074-9.068.138-18.135.084-11.348.176-22.694c.109-13.48.207-26.96.307-40.439h74c.04 33.12.04 33.12.049 47.047q.008 14.399.026 28.797.015 10.488.02 20.977 0 5.547.01 11.094c.009 4.14.009 8.281.009 12.422l.01 3.666c-.012 10.234-.385 20.394-2.812 30.372l-.524 2.17c-5.05 19.823-15.935 36.77-33.226 47.892-6.277 3.614-12.707 6.259-19.562 8.563l-3.074 1.086c-9.113 3.041-18.427 4.642-27.926 5.914l-2.11.297c-8.057.977-16.16.89-24.263.888-2.528.002-5.055.02-7.582.04-14.838.052-29.9-.589-44.295-4.475l-2.494-.653c-20.61-5.592-39.998-15.862-51.248-34.764-4.257-7.477-7.54-15.115-9.883-23.396l-.579-2.03c-3.07-11.78-3.846-23.792-3.773-35.91v-3.968c-.002-3.536.01-7.072.024-10.608.013-3.716.014-7.431.016-11.147.006-7.012.023-14.024.043-21.036.027-9.492.037-18.984.049-28.476.019-14.92.059-29.841.095-44.762"/><path fill="#39b6ff" d="M3 765c4.557.69 8.587 2.367 12.813 4.125 10.3 4.2 20.704 8.108 31.124 12l13.215 4.938c8.854 3.31 17.696 6.65 26.536 10l2.312.876q4.618 1.748 9.235 3.498 7.632 2.892 15.265 5.778a58633 58633 0 0 1 61.305 23.229 50415 50415 0 0 0 49.949 18.923q15.114 5.718 30.222 11.452Q269.735 865.417 284.5 871q18.238 6.899 36.469 13.816 14.763 5.6 29.531 11.184 18.238 6.899 36.469 13.816 14.763 5.6 29.531 11.184 18.238 6.899 36.469 13.816 14.763 5.6 29.531 11.184 18.238 6.899 36.469 13.816 14.763 5.6 29.531 11.184 22.006 8.325 44.004 16.673 7.18 2.726 14.36 5.447 3.602 1.367 7.201 2.74a1118 1118 0 0 0 17.091 6.382c2.714.985 5.424 1.982 8.133 2.98q1.949.71 3.902 1.405c1.801.64 3.594 1.3 5.387 1.963l3.107 1.12c2.315 1.29 2.315 1.29 3.2 3.113.137 2.603-.158 4.847-.635 7.411l-.583 3.142-.667 3.374-.688 3.505C647.75 1052.663 640.444 1074.19 631 1095c-5.624-1.586-10.377-4.283-15.437-7.125-9.334-5.169-18.761-10.126-28.25-15l-9.972-5.126a1837 1837 0 0 1-30.626-16.128l-6.965-3.746-1.778-.957c-10.216-5.49-20.507-10.827-30.826-16.12a1062 1062 0 0 1-27.79-14.79 403 403 0 0 0-16.818-8.72c-6.951-3.437-13.771-7.118-20.6-10.788l-1.865-1.001q-7.274-3.911-14.543-7.83c-6.523-3.514-13.071-6.955-19.717-10.231-7.425-3.666-14.712-7.573-22-11.5a1834 1834 0 0 0-29.875-15.75l-1.858-.957-3.654-1.883a2224 2224 0 0 1-20.536-10.717 1879 1879 0 0 0-12.386-6.486c-9.702-5.036-19.362-10.13-28.942-15.395-6.01-3.303-12.028-6.545-18.187-9.562-7.576-3.713-15.006-7.695-22.437-11.688l-1.865-1.001q-7.274-3.911-14.543-7.83c-6.63-3.571-13.285-7.072-20.03-10.419-15.347-7.616-30.474-15.646-45.497-23.88-11.372-6.23-22.81-12.326-34.44-18.058-7.908-3.902-15.656-8.094-23.417-12.278-9.619-5.183-19.299-10.235-29.021-15.221-8.644-4.435-17.25-8.92-25.75-13.625C35.469 782.384 19.195 774.257 3 766z"/><path d="M1180 952h40v1l12 1v1l3.563.313c2.99.359 5.397.976 8.124 2.25 3.153 1.367 4.947 1.743 8.313 1.437v3l1.938.375L1257 963l2.266.371 2.421.442 2.325.394c1.988.793 1.988.793 2.945 2.805L1268 969c2.555.812 2.555.812 5 1q.039 2.875.063 5.75l.035 3.234c-.16 4.914-1.369 7.922-4.098 12.016l-1.504 1.344c-1.89 2.091-2.344 3.88-3.059 6.593-1.667 6.248-1.667 6.248-3.437 9.063l-3 1c-1.622 3.243-2.363 6.45-3 10-.325 1.335-.655 2.67-1 4l-5 1 1 3c-3.288 2.329-6.14 2.148-10.043 1.555-2.896-.821-4.736-2.58-6.957-4.555-2.182-.778-2.182-.778-4-1v-2h-8v-1c-3.917-.087-7.833-.14-11.75-.187l-3.367-.077-3.242-.029-2.984-.048c-3.094.397-4.3 1.37-6.657 3.341l-3.187 1-2.813 1-1 3c-2.066.73-2.066.73-4.562 1.188l-2.504.48-1.934.332 1 3a91 91 0 0 1-4 4h-2c-1.665 3.924-2.872 7.891-4 12l-1-3h-2v4h-2l.063 3.438C1163 1057 1163 1057 1162 1058a197 197 0 0 0-.25 9l-.062 2.504c-.034 5.32.727 9.61 2.646 14.58.821 2.363.906 4.435.666 6.916h2v3h2v3l4 1v4h2v2l3 1c3.338 1.791 4.861 2.792 7 6 2.752 2.123 2.752 2.123 5.438 2.438 2.562.562 2.562.562 4.312 2.062 3.458 2.305 7.175 2.247 11.25 2.5v1h8v-1l2.266-.113 2.984-.2 2.953-.175c3.12-.571 4.366-1.551 6.797-3.512 2.36-.95 2.36-.95 4.75-1.687l2.422-.762L1238 1111v-1l2.75-.437c2.465-.427 4.838-.914 7.25-1.563l1 4 5 1c1.806 4.462 2.117 7.31 1 12h2l.875 1.875c1.062 2.258 1.062 2.258 3.125 4.125 2.388 3.581 2.162 6.788 2 11h2l1.25 2.75c1.498 3.245 1.498 3.245 3.797 5.016 2.65 3.032 2.683 5.255 2.953 9.234l.313 3.688c-.313 3.312-.313 3.312-2.016 5.703-2.539 1.778-3.983 2.179-7.047 2.359l-2.422.172-1.828.078v2c-3.265 1.884-6.281 2.493-10 3v1h-8v2h-8v2l-5 1v1l-12 1v1h-37v-1l-10-1v-1l-6-1v-1l-6-1v-1l-5-1v-2l-2.375.625-2.625.375c-2-2-2-2-3-5l-3.75-.375c-3.126-.382-5.539-.93-8.25-2.625v-2h-4l-1-4h-2v-2l-3 1-1-3h-2v-3l-7-2-1-5-2.875-.812C1106 1146 1106 1146 1104 1143v-3l-2.312-.625c-3.518-1.8-4.11-3.843-5.688-7.375l-2-1v-2h-2c-.676-1.412-1.34-2.83-2-4.25l-1.125-2.39C1088 1120 1088 1120 1088 1116l-4-1v-4h-2c-.84-4.353-1.108-8.444-1.062-12.875l.027-3.492.035-2.633h-2l-1-10h-2v-27h2l.184-2.152.254-2.785c.08-.917.162-1.834.246-2.778C1079 1045 1079 1045 1080 1044c.4-2.855.752-5.697 1.063-8.562l.275-2.444q.336-2.996.662-5.994h2l.75-2.375c4.934-14.31 4.934-14.31 9.25-18.625h2l2-6h2l1-4h2l.625-1.625c1.908-3.295 4.423-5.969 7.375-8.375h2v-2a124 124 0 0 1 6-4c4.595-2.878 4.595-2.878 8-7h2l1-2h4l1-4h2v-2l2.555-.84 3.32-1.097 3.305-1.09c2.728-.872 2.728-.872 4.82-1.973l1-3 18-2v-1l10-1zm89 33 1 2Zm-6 11 1 2Zm-2 4 1 2Zm-57 17v1h11v-1zm47 3 1 2Zm-21 1 4 1Zm-63 21 1 3Z"/><path fill="#020202" d="M1044 956c2.666 3.935 2.275 8.19 2.247 12.75l.008 2.706c.005 2.998-.003 5.996-.012 8.994q.001 3.22.006 6.44c.005 5.835-.003 11.669-.013 17.503-.01 6.096-.007 12.192-.007 18.288q-.002 15.353-.023 30.705-.023 17.775-.02 35.552 0 17.074-.013 34.147-.006 7.28-.006 14.559-.002 8.56-.017 17.12a3773 3773 0 0 0-.004 6.303q0 4.281-.012 8.564l.004 2.553c-.024 5.702-.024 5.702-1.138 6.816a92 92 0 0 1-5.062.063l-2.786-.028L1035 1179v-1h-57v1q-2.125.04-4.25.063l-2.39.035c-2.267-.094-4.189-.466-6.36-1.098-.824-2.867-1.11-5.36-1.053-8.338l.04-2.569.064-2.75.057-2.846q.063-2.975.134-5.95c.07-3.035.125-6.07.178-9.106l.13-5.785.045-2.75.07-2.568.05-2.251c.285-2.087.285-2.087 1.288-3.789 1.36-3.137 1.243-5.74 1.238-9.157l.005-2.09c.003-2.309-.008-4.618-.019-6.927v-4.967a4173 4173 0 0 0-.024-13.487c-.013-4.698-.014-9.395-.016-14.093-.006-8.897-.023-17.793-.043-26.69-.022-10.127-.033-20.255-.043-30.384Q967.068 990.252 967 959h2v-2l2.479.007q11.565.03 23.13.045 5.946.007 11.891.023 5.738.016 11.476.02 2.19.003 4.378.01 3.067.01 6.133.009l3.526.006c4.13-.166 7.812-1.236 11.987-1.12"/><path fill="#010101" d="M1000 823h12v1l7 1v1l5 1v2h5v2l6 1v3h2v2l1.813.25c2.837.973 3.684 2.194 5.187 4.75v3h2c2 2 2 2 2 6h2c2.024 3.035 2.321 4.194 2.625 7.688l.227 2.449L1053 863h1q.04 3.969.063 7.938l.025 2.287A183 183 0 0 1 1054 879l-1 1a70 70 0 0 0-.562 4.063L1052 888h-2v6l-4 1v3h-2l-.312 1.938L1043 902l-3 1v2h-2v2h-2v3c-6.625 3-6.625 3-10 3v2h-5v2l-2.012.184c-5.523.516-5.523.516-10.988 1.441-2 .375-2 .375-4-.625a121 121 0 0 0-5.125-.562l-2.758-.254L994 917v-2h-5v-2l-1.625-.375L985 912l-3.125-.812C979 910 979 910 977.625 907.875L977 906h-2v-2l-4-1-.25-1.812c-1.168-3.408-3.634-4.63-6.75-6.188-.594-2.649-.742-5.292-1-8h-2v-8l-2 2v-10h-2v-2h2v-6l1 4h2l-.625-3.562c-.564-4.338.175-7.343 1.625-11.438h2v-6h2v-2l3-1c1.219-2.504 1.219-2.504 2-5h3l2-4h2v-2l6-1v-2h4v-2c5.292-3.077 5.292-3.077 8.875-2.687L1000 825z"/><path fill="#f9fcff" d="m1682.438 804.75 3.225-.028c9.567.037 19.273 1.055 28.337 4.278l1 2h5v2l2.137-.187c3.554.232 5.606 1.412 8.676 3.187l2.957 1.688L1736 819v2l7 1c.112 8.16-1.936 13.29-6.285 20.129-1.948 3.26-3.099 6.39-4.11 10.031C1732 854 1732 854 1730 857h-2v3h-2v6h-2l-.437 2.313C1723 871 1723 871 1722 874h-2l-1 7c-1.937.563-1.937.563-4 1l-1-1-3.25-.375c-3.75-.625-3.75-.625-5.871-2.121-4.156-2.171-8.065-2.07-12.691-2.192l-2.678-.103c-2.17-.082-4.34-.147-6.51-.209v2l-3 1a396 396 0 0 0-3 5h-2v5h-2l.035 2.336c.01 1.003.018 2.006.027 3.039l.036 3.023C1673 900 1673 900 1672 902a80 80 0 0 0-.13 4.753l-.009 2.994.006 3.245-.003 3.326q0 3.487.006 6.975c.005 3.56 0 7.12-.007 10.68q0 3.384.004 6.77l-.006 3.232.01 3.013.002 2.646c.121 2.263.547 4.185 1.127 6.366l1.879-.014q22.62-.166 45.243-.245c7.293-.026 14.586-.061 21.88-.118q9.534-.076 19.069-.093c3.366-.007 6.731-.022 10.097-.059 3.757-.036 7.513-.041 11.27-.039l3.386-.054c7.52.05 7.52.05 10.883 2.982 1.385 2.827 1.648 4.535 1.293 7.64h2v4h2v4h2v4h2v3h2q1.725 3.372 3.438 6.75l.986 1.922c1.547 3.062 2.968 5.934 3.576 9.328h2l.813 1.66c2.034 4.117 4.101 8.207 6.3 12.238l1.1 2.024q1.09 1.997 2.195 3.986c2.592 4.76 2.592 4.76 2.592 8.092h2a978 978 0 0 1 3 5.813l1.688 3.269C1839 1039 1839 1039 1839 1042h2v4h2v4h2v4h2c2 3 2 3 2 7l2-1 1-3h2l.875-3.25c.853-2.844 1.689-5.185 3.125-7.75h2v-4h2l2-9h2l.438-2.312C1867 1028 1867 1028 1868 1025h2v-4h2l-.125-2.187c.134-3.02.877-5.082 2.125-7.813h2l.3-1.535c.976-3.44 2.437-6.643 3.888-9.903l.944-2.138c7.227-16.307 7.227-16.307 11.055-23.674 2.089-4.09 3.474-8.367 4.813-12.75h2l2-5c5.164-.864 10.144-1.117 15.382-1.038l2.447.025c2.647.027 5.294.063 7.94.099l5.539.064q5.785.069 11.572.147 7.426.098 14.853.178 5.709.065 11.419.139 2.74.034 5.48.065 3.816.043 7.633.1l2.297.022c5.21.085 5.21.085 7.438 1.199v2h-2l-.437 2.813C1990 965 1990 965 1989 968h-2l-.937 2.875C1985 974 1985 974 1984 976h-2v4h-2l-2 7h-2l-.312 1.563c-.93 3.297-2.302 6.303-3.688 9.437h-2l-.34 2.168c-.705 3.023-1.793 5.395-3.223 8.144l-1.378 2.676L1964 1013h-2l-.312 2.063c-.835 3.566-2.183 6.6-3.688 9.937h-2v3h-2l-.312 2.063c-.835 3.566-2.183 6.6-3.688 9.937h-2v4h-2l-.25 2c-1.252 5.007-3.75 9.37-6.437 13.75-1.24 2.125-1.868 3.846-2.313 6.25h-2v4h-2v3h-2v4h-2v4h-2v4h-2l-.34 1.64c-.8 2.86-1.972 5.417-3.223 8.11l-1.378 2.984L1919 1100h-2l-.371 1.734c-.66 2.377-1.561 4.324-2.691 6.516l-1.356 2.66L1911 1114a900 900 0 0 0-15 31h-2v3h-2v4h-2v4h-2l-.437 1.813c-.45 1.749-.992 3.474-1.563 5.187h-2v4h-2v4h-2v4h-2l-.34 1.64c-.8 2.86-1.972 5.417-3.223 8.11l-1.378 2.984L1872 1190h-2l-.393 1.779c-.96 3.51-2.754 6.628-4.42 9.846-3.065 6.011-5.868 12.029-8.187 18.375h-2l-.437 1.813c-.45 1.749-.992 3.474-1.563 5.187h-2v4h-2v4h-2v4h-2l-.437 1.75L1843 1247h-2v4h-2v3h-2v3h-2l-.437 2.313C1834 1262 1834 1262 1833 1265h-2l-.371 1.64c-.739 2.773-1.698 5.419-2.691 8.11l-1.098 2.984-.84 2.266h-2v3c-1.545 2.16-1.545 2.16-4 4-3.301.474-3.301.474-7.275.438l-2.2-.003c-2.394-.008-4.787-.044-7.181-.08q-2.5-.015-4.999-.024c-4.385-.02-8.77-.065-13.154-.115-7.017-.075-14.036-.113-21.054-.155q-3.675-.029-7.351-.072l-4.51-.039-3.975-.043c-2.695.076-4.75.335-7.301 1.093a85 85 0 0 1-4.75.063L1732 1288v-11l3-1v-3h2v-4h2v-4h2v-4h2v-4h2l.402-1.734c.592-2.243 1.33-4.352 2.16-6.516l.817-2.14.621-1.61h2l.75-2.437c1.51-4.306 3.352-8.417 5.25-12.563h2l.719-2.402c1.62-4.55 3.678-8.817 5.781-13.16 3.466-7.124 3.466-7.124 6.5-14.438h2v-3h2l.41-1.746c.567-2.165 1.248-4.22 2.027-6.316l.747-2.036C1780 1185 1780 1185 1782 1182h2v-3h2l-.125-2.25c.129-2.838.696-4.338 2.125-6.75h2v-3h2l.313-1.562c1.15-4.078 2.701-7.908 4.996-11.47 3.922-6.133 4.903-11.736 3.691-18.968a90 90 0 0 0-3-5v-2l-3-1c-.95-1.742-.95-1.742-1.687-3.875l-.762-2.117C1792 1119 1792 1119 1792 1116h-2v-2l-3-1c-1.747-3.493-3-6.068-3-10h-2v-3h-2l-1.312-3.75c-1.186-3.202-2.588-5.55-4.688-8.25v-3h-2l-.734-1.828c-2.02-5.004-2.02-5.004-5.329-9.172-2.573-2.657-3.109-5.347-4.16-8.84-1.039-2.888-2.832-4.802-4.777-7.16-4-7.672-4-7.672-4-12h-2v-2h-2c-1.765-3.088-2-4.233-2-8h-2v-3h-2v-3h-2v-3h-2l-2-9h-2v-2h-2v-2h-2c-1.772-2.657-2.353-3.904-3-6.875-.74-3.185-1.686-6.12-3-9.125l-1 2h-2l.07 3.36q.029 2.194.055 4.39l.05 2.21c.037 3.96-.243 6.605-2.175 10.04l-1.726-.007q-8.88-.032-17.763-.048-3.315-.008-6.631-.02c-3.175-.013-6.35-.018-9.525-.023l-3.002-.015h-2.79l-2.456-.007c-2.3.039-2.3.039-5.107 1.12l.038 3.288a62255 62255 0 0 1 .498 44.718c.318 28.948.598 57.89.427 86.84l-.013 2.972q-.011 2.662-.038 5.326c-.12 4.059-.12 4.059 1.088 7.856.04 2 .043 4 0 6q-2.988.57-6 1l-1-1c-2.228-.119-4.46-.167-6.691-.19l-2.119-.025a1636 1636 0 0 0-4.569-.045q-3.611-.033-7.222-.077-7.668-.088-15.336-.163c-5.919-.06-11.837-.121-17.755-.192a2807 2807 0 0 0-7.13-.068l-4.357-.05-3.854-.039C1594 1177 1594 1177 1592 1176l1-3c.092-2.067.122-4.138.12-6.207l.004-3.94-.01-4.33v-4.553q-.001-6.186-.013-12.371-.007-6.462-.008-12.925-.005-12.24-.021-24.479-.015-13.934-.022-27.867-.016-28.665-.05-57.328l-2.83.108q-5.18.193-10.36.374-2.245.08-4.49.166-3.22.122-6.441.23l-3.92.144C1562 1020 1562 1020 1561 1019a115 115 0 0 1-.114-5.805v-3.761l.016-4.094.005-4.166q.006-5.491.024-10.984.014-5.6.02-11.2.016-10.995.049-21.99c2.766-1.383 5.01-1.112 8.102-1.098l3.671.01 3.852.025 3.875.014q4.75.018 9.5.049c1.898-3.22 2.254-5.609 2.271-9.325l.031-3.23.007-3.488.076-7.385q.042-5.791.071-11.583c.084-14.305.332-28.016 3.544-41.989l1.098-5.387q.476-2.151.965-4.3l.486-2.217c.925-4.127 2.036-8.103 3.451-12.096h2l.313-1.562c1.678-5.952 4.558-11.15 7.687-16.438h2v-3h2l.75-1.687c1.48-2.737 3.185-4.99 5.25-7.313h2v-2h3v-2h3v-2l5-2v-2a418 418 0 0 1 3.813-2l2.144-1.125C1643 811 1643 811 1646 811v-2c3.779-2.354 7.792-2.685 12.125-3.125l2.473-.253c7.276-.661 14.536-.837 21.84-.872M1656 811l-2.848.879c-11.494 3.864-20.585 9.554-29.152 18.121l-2.121 2.121c-24.89 26.442-27.427 62.681-27.085 97.066.031 3.487.045 6.974.06 10.461.03 6.785.088 13.568.146 20.352h-31v57h31v158h74v-159h50l1-31 5.75 10.688c4.748 8.79 9.603 17.509 14.59 26.167 4.102 7.135 8.11 14.32 12.098 21.52 4.673 8.437 9.37 16.859 14.124 25.25a5184 5184 0 0 1 13.376 23.75l1.744 3.116q4.557 8.144 9.103 16.294l1.885 3.376q1.77 3.17 3.537 6.342l1.637 2.93 1.57 2.82c2.067 3.58 4.31 7.038 6.6 10.478 1.26 2.897.925 4.29-.014 7.269-.81 1.883-.81 1.883-1.793 3.695l-1.138 2.126c-.415.76-.83 1.52-1.256 2.304q-1.371 2.557-2.739 5.117l-1.498 2.796c-2.863 5.38-5.653 10.798-8.451 16.212a12345 12345 0 0 1-20.584 39.543l-4.416 8.457-1.48 2.836a9150 9150 0 0 0-13.543 26.09 2273 2273 0 0 1-12.259 23.354c-1.958 3.084-1.958 3.084-2.843 6.47h86l19-37c5.313-10.125 5.313-10.125 7.55-14.352 3.188-6.03 6.315-12.09 9.45-18.148 4.36-8.423 8.742-16.832 13.172-25.219 3.644-6.909 7.237-13.844 10.828-20.781 4.36-8.423 8.742-16.832 13.172-25.219 3.644-6.909 7.237-13.844 10.828-20.781 4.36-8.423 8.742-16.832 13.172-25.219 3.644-6.909 7.237-13.844 10.828-20.781 4.36-8.423 8.742-16.832 13.172-25.219 3.644-6.909 7.237-13.844 10.828-20.781a3367 3367 0 0 1 13.16-25.197c2.485-4.707 4.945-9.427 7.39-14.155l.941-1.817a7092 7092 0 0 0 4.6-8.907c2.913-5.636 5.867-11.225 9.05-16.713 1.008-1.69 1.008-1.69.859-3.711h-85c-6.14 12.216-6.14 12.216-12.078 24.523l-1.01 2.139a149543.661 149543.661 0 0 1-5.407 11.477c-6.833 14.51-13.558 29.07-20.242 43.65q-2.25 4.906-4.512 9.808-.87 1.887-1.733 3.777-1.195 2.611-2.4 5.22l-1.388 3.021C1853 1066 1853 1066 1851 1068l-1.187-2.221c-7.083-13.255-14.18-26.502-21.392-39.688A5052 5052 0 0 1 1817.5 1006l-6.5-12-1.628-3.006q-2.37-4.374-4.747-8.744l-1.404-2.594a147 147 0 0 0-2.759-4.852C1799 972 1799 972 1798.16 968.914c-1.355-3.846-2.702-6.697-6.16-8.914-8.193-2.211-17.147-1.432-25.547-1.217-3.428.076-6.857.082-10.286.097-6.486.037-12.969.135-19.453.256-7.386.134-14.771.2-22.157.26-15.187.125-30.372.336-45.557.604q.14-11.633.317-23.267.057-3.951.105-7.902c.046-3.803.104-7.606.164-11.41l.035-3.523c.205-11.57.495-27.268 9.379-35.898 7.432-4.43 16.27-4.1 24.563-2.125C1707 877 1707 877 1709.75 878.188c2.692.972 3.622.887 6.25-.188 1.501-1.945 1.501-1.945 2.673-4.456l1.465-2.873 1.538-3.128 1.604-3.196q1.676-3.35 3.33-6.71c1.695-3.434 3.417-6.853 5.142-10.272q1.621-3.254 3.236-6.51l1.569-3.11 1.417-2.9 1.262-2.548c.873-2.623.828-3.77-.236-6.297-17.43-14.99-45.566-19.229-67.728-18.173-5.286.402-10.232 1.58-15.272 3.173"/><path fill="#f7f7f7" d="M1300 811h73v2l5 1v216h2l.375-2.75c.558-2.902.981-4.828 2.625-7.25 2.993-1.995 4.23-2 8-2v-2h2l2-6h4v-2h2v-3h2v-2h2v-2h2v-2h2l1-5 3 1v-2h2v-2h2l.813-1.75c1.226-2.324 2.435-4.288 4.187-6.25h3l.25-1.75c.968-2.904 2.437-4.287 4.75-6.25h2l1-4h3l.813-1.75c1.247-2.363 2.362-4.29 4.187-6.25 2.625-.625 2.625-.625 5-1l1-2c2.395-2.994 4.273-3.43 8-4a107 107 0 0 1 5.3-.098l2.96.01 3.053.025 3.11.014q3.79.018 7.577.049v2h41v-2q6.885-.037 13.77-.055 2.34-.008 4.678-.02c2.25-.013 4.498-.018 6.747-.023l2.094-.015c4.01 0 7.776.34 11.711 1.113v2h-4v2h-2l-1 4-4 1v2c-3 2-3 2-6 2v2h-2l-.125 1.688c-1.507 3.982-5.135 6.442-8.875 8.312v2h-2l-1 2-2 1-1.375 2.375c-1.647 2.66-2.98 4.003-5.625 5.625h-2l-1 3-3 1v2h-2v2h-2v2h-2v2h-2v2h-2v2h-2l-1 4h-3l-1 4h-3v2c-1.61 1.586-1.61 1.586-3.75 3.375-3.883 3.307-7.405 6.358-10.25 10.625l-3 1-1 3c-1.437 1.688-1.437 1.688-3 3h-2v2h-2v2h-2v2h-2v2h-2v2h-2v2h-2v2h-2v2h-2l1 7-2 1 1 3h2v2h2v2h3l1 4h2v2l2.438.813L1467 1081l1 3h2c2.125 1.875 2.125 1.875 4 4v2h2v2h2v2h2v2h2v2h2v2h2v2h2v2l3 1c1.188 2.563 1.188 2.563 2 5h2v2h3l1 4h2v2l2.438.75c2.562 1.25 2.562 1.25 3.374 3.375L1507 1124h2v2l2.438.813L1514 1128l1 3h2l2 4h2v2h2v2h2v2h2v2l1.875.75c2.125 1.25 2.125 1.25 3.063 3.25 1.463 2.755 3.216 2.89 6.062 4 3 3.31 3 3.31 3 6h2v2l1.688.75c2.736 1.48 4.989 3.185 7.312 5.25v2l1.688.188c3.385 1.189 5.06 3.06 7.312 5.812.375 2.75.375 2.75 0 5-1 1-1 1-4.16 1.098l-3.902-.035-3.91-.028L1546 1179v-2l-89 1-1-7-7-1-1-6-3.25-.625c-4.525-1.66-5.317-3.348-7.75-7.375l-2.187-1-1.813-1c-.75-3.125-.75-3.125-1-6h-4v-2h-2l-.312-1.937L1425 1142l-3-1a178 178 0 0 1-4-2v-2h-2l-1-5-5-1-1-5h-2v-2l-5-1-1-6h-2v-2h-4l-2-6-3.75-.187c-3.208-.42-4.122-.704-6.687-2.876-2.011-3.78-2.274-6.68-2.563-10.937h-2q.126 15.347.288 30.694.076 7.125.134 14.252.056 6.876.136 13.752.029 2.625.045 5.249c.017 2.449.046 4.898.078 7.347l.007 2.195c.06 3.658.303 6.398 2.312 9.511-4.96 1.323-9.911 1.089-15 1v-1l-60-1v2h-6l-1-9-2 4c-.89-9.164-1.097-18.22-.963-27.42.065-6.89-.21-13.74-.53-20.62-.555-12.315-.66-24.611-.637-36.939.005-3.491 0-6.983-.007-10.474-.004-13.595.279-27.16.747-40.746.573-17.047.73-34.101.922-51.156q.079-6.74.161-13.48.159-13.083.307-26.165h1l1 63zm42 1v1h28v-1zm-40 3v361h74l1-85 15.254 18.594c6.956 8.105 14.075 16.049 21.309 23.906l1.407 1.532c21.988 23.887 42.94 44.853 77.145 46.802 7.597.275 15.118.001 22.697-.522l3.222-.22A348 348 0 0 0 1557 1176c-5.06-6.129-10.594-11.696-16.244-17.278l-3.081-3.058a8632 8632 0 0 0-6.6-6.542 6837 6837 0 0 1-10.423-10.351l-5.378-5.35a14639 14639 0 0 0-24.245-24.07 6619 6619 0 0 1-16.388-16.28 2276 2276 0 0 0-8.67-8.602q-4.079-4.024-8.128-8.079a471 471 0 0 0-2.996-2.96 437 437 0 0 1-4.06-4.048l-2.303-2.285c-1.484-2.097-1.484-2.097-1.463-4.106 1.262-2.566 2.827-4.204 4.858-6.224l2.528-2.536 2.794-2.757q1.465-1.46 2.927-2.923c2.648-2.645 5.305-5.28 7.964-7.915 2.778-2.755 5.547-5.519 8.316-8.282q7.871-7.847 15.757-15.678c9.423-9.361 18.833-18.734 28.241-28.11a7982 7982 0 0 1 9.923-9.87 7404 7404 0 0 0 6.156-6.122q2.12-2.108 4.243-4.211l2.52-2.511 2.209-2.194c1.657-1.402 1.657-1.402 1.543-2.658a400 400 0 0 0-34.16-3.782c-5.346-.372-10.599-.86-15.89-1.725-18.824-2.827-26.278.308-46.95 5.507l-73 73-1-219z"/><path fill="#f6f6f6" d="M1180 952h40v1l12 1v1l3.563.313c2.99.359 5.397.976 8.124 2.25 3.153 1.367 4.947 1.743 8.313 1.437v3l1.938.375L1257 963l2.266.371 2.421.442 2.325.394c1.988.793 1.988.793 2.945 2.805L1268 969c2.555.812 2.555.812 5 1q.039 2.875.063 5.75l.035 3.234c-.16 4.914-1.369 7.922-4.098 12.016l-1.504 1.344c-1.89 2.091-2.344 3.88-3.059 6.593-1.667 6.248-1.667 6.248-3.437 9.063l-3 1c-1.622 3.243-2.363 6.45-3 10-.325 1.335-.655 2.67-1 4l-5 1 1 3c-3.288 2.329-6.14 2.148-10.043 1.555-2.896-.821-4.736-2.58-6.957-4.555-2.182-.778-2.182-.778-4-1v-2h-8v-1c-3.917-.087-7.833-.14-11.75-.187l-3.367-.077-3.242-.029-2.984-.048c-3.094.397-4.3 1.37-6.657 3.341l-3.187 1-2.813 1-1 3c-2.066.73-2.066.73-4.562 1.188l-2.504.48-1.934.332 1 3a91 91 0 0 1-4 4h-2c-1.665 3.924-2.872 7.891-4 12l-1-3h-2v4h-2l.063 3.438C1163 1057 1163 1057 1162 1058a197 197 0 0 0-.25 9l-.062 2.504c-.034 5.32.727 9.61 2.646 14.58.821 2.363.906 4.435.666 6.916h2v3h2v3l4 1v4h2v2l3 1c3.338 1.791 4.861 2.792 7 6 2.752 2.123 2.752 2.123 5.438 2.438 2.562.562 2.562.562 4.312 2.062 3.458 2.305 7.175 2.247 11.25 2.5v1h8v-1l2.266-.113 2.984-.2 2.953-.175c3.12-.571 4.366-1.551 6.797-3.512 2.36-.95 2.36-.95 4.75-1.687l2.422-.762L1238 1111v-1l2.75-.437c2.465-.427 4.838-.914 7.25-1.563l1 4 5 1c1.806 4.462 2.117 7.31 1 12h2l.875 1.875c1.062 2.258 1.062 2.258 3.125 4.125 2.388 3.581 2.162 6.788 2 11h2l1.25 2.75c1.498 3.245 1.498 3.245 3.797 5.016 2.65 3.032 2.683 5.255 2.953 9.234l.313 3.688c-.313 3.312-.313 3.312-2.016 5.703-2.539 1.778-3.983 2.179-7.047 2.359l-2.422.172-1.828.078v2c-3.265 1.884-6.281 2.493-10 3v1h-8v2h-8v2l-5 1v1l-12 1v1h-37v-1l-10-1v-1l-6-1v-1l-6-1v-1l-5-1v-2l-2.375.625-2.625.375c-2-2-2-2-3-5l-3.75-.375c-3.126-.382-5.539-.93-8.25-2.625v-2h-4l-1-4h-2v-2l-3 1-1-3h-2v-3l-7-2-1-5-2.875-.812C1106 1146 1106 1146 1104 1143v-3l-2.312-.625c-3.518-1.8-4.11-3.843-5.688-7.375l-2-1v-2h-2c-.676-1.412-1.34-2.83-2-4.25l-1.125-2.39C1088 1120 1088 1120 1088 1116l-4-1v-4h-2c-.84-4.353-1.108-8.444-1.062-12.875l.027-3.492.035-2.633h-2l-1-10h-2v-27h2l.184-2.152.254-2.785c.08-.917.162-1.834.246-2.778C1079 1045 1079 1045 1080 1044c.4-2.855.752-5.697 1.063-8.562l.275-2.444q.336-2.996.662-5.994h2l.75-2.375c4.934-14.31 4.934-14.31 9.25-18.625h2l2-6h2l1-4h2l.625-1.625c1.908-3.295 4.423-5.969 7.375-8.375h2v-2a124 124 0 0 1 6-4c4.595-2.878 4.595-2.878 8-7h2l1-2h4l1-4h2v-2l2.555-.84 3.32-1.097 3.305-1.09c2.728-.872 2.728-.872 4.82-1.973l1-3 18-2v-1l10-1zm-21.437 9.125-2.399.905c-12.797 5.004-23.925 11.79-34.164 20.97l-2.988 2.59c-20.063 17.613-35.341 41.424-38.012 68.41-.975 15.791-1.551 31.974 4 47l.682 1.917c8.82 24.606 24.796 44.349 46.318 59.083l3.047 2.086c11.926 7.743 25.006 13.103 38.953 15.914l2.12.506c22.868 5.17 47.753 1.073 69.943-5.256l3.351-.941c7.91-2.39 14.626-5.877 21.586-10.309-.555-4.883-2.12-8.775-4.352-13.094l-1.021-2.026c-1.077-2.13-2.164-4.255-3.252-6.38q-1.062-2.093-2.121-4.187a3602 3602 0 0 0-4.192-8.254c-3.055-6.003-6.059-12.03-9.062-18.059-5.376 1.772-10.618 3.79-15.879 5.879-11.26 4.045-27.916 4.511-39.059-.004A85 85 0 0 1 1187 1115l-2.39-1.316c-13.253-7.911-20.026-20.471-23.88-34.973-2.823-14.342.178-27.545 7.45-40.078 8.41-12.164 20.376-19.79 34.82-22.633 14.159-1.182 26.166 1.188 39 7q2.497 1.007 5 2a4861 4861 0 0 0 10.309-20.288 2064 2064 0 0 1 3.513-6.902c1.686-3.301 3.357-6.61 5.026-9.92l1.606-3.118 1.456-2.912 1.3-2.557c.898-2.619.819-3.763-.21-6.303-15.409-15.289-46.667-18.375-67.035-18.316-2.264.003-4.527-.02-6.791-.045-13.048-.059-25.346 1.804-37.611 6.486M1269 985l1 2Zm-6 11 1 2Zm-2 4 1 2Zm-57 17v1h11v-1zm47 3 1 2Zm-21 1 4 1Zm-63 21 1 3Z"/><path fill="#f1f1f1" d="M689 956c1.813.234 3.625.472 5.436.722 5.25.569 10.538.521 15.814.594l3.8.063q4.961.081 9.922.153 5.078.077 10.157.161 9.936.16 19.871.307v-2q2.969-.04 5.938-.062l3.34-.036C766 956 766 956 767 957c.108 1.594.147 3.192.158 4.79l.03 3.14.017 3.475.03 3.635q.04 4.95.068 9.899.035 5.166.076 10.334.074 9.79.138 19.581.076 11.144.16 22.288.17 22.929.323 45.858h1v14h2l.188 2.188c.622 3.005.622 3.005 3.187 5.187 2.385 2.385 3.073 3.338 4.188 6.313 1.106 3.312 1.106 3.312 3.312 4.687 2.177.685 2.177.685 4.688 1.063 2.437.562 2.437.562 3.812 2.062 2.528 2.334 5.3 2.186 8.625 2.5v1h16v-1l2.688-.25c3.787-.857 5.353-2.31 8.312-4.75l3-.875c4.58-1.717 6.663-5.052 9.25-9.062.916-2.26.916-2.26 1.125-5.626L840 1094l2.023-1.297c2.322-1.615 2.322-1.615 2.368-4.84l-.141-3.55-.11-3.575L844 1078h1c.937-12.172 1.148-24.266 1.133-36.469l.003-5.802q.002-6.042-.006-12.082a6725 6725 0 0 1 .004-15.35q.005-5.979 0-11.958 0-2.827.002-5.654.003-3.976-.007-7.953l.007-2.271c-.03-7.872-.642-15.554-1.136-23.461h81v4h-2v123h-1V961h-74l.07 24.629q.018 8.746.03 17.494.016 11.306.05 22.612.034 9.92.04 19.84.005 3.771.021 7.542c.192 46.18.192 46.18-13.211 59.883-7.81 7.83-19.662 9.377-30.25 9.438-10.82-.164-20.11-2.591-28.75-9.438-2.488-2.787-4.283-5.69-6-9l-1.145-2.168c-7.458-16.23-6.261-35.364-6.148-52.746q.009-3.829.013-7.658c.01-5.981.034-11.962.064-17.943.037-7.495.053-14.99.07-22.485.029-13.333.089-26.667.146-40h-74l.324 31.613q.092 9.893.178 19.783c.09 10.476.184 20.952.297 31.427q.125 11.442.214 22.885.047 6.06.119 12.121.07 5.701.1 11.403.016 2.096.048 4.19c.028 1.905.036 3.809.043 5.712l.03 3.232c-.398 2.967-1.016 3.844-3.353 5.634v-2h-2c-1.345-9.057-2.16-17.958-2.09-27.121l.012-2.871c.06-10.984.283-21.964.515-32.946a32158 32158 0 0 0 .354-17.148c.177-8.795.308-17.59.428-26.387q.082-5.67.167-11.343.051-3.672.093-7.345c.039-3.415.09-6.83.142-10.245l.025-3.083.051-2.833.031-2.459c.348-2.841 1.223-5.17 3.272-7.219"/><path fill="#f3f3f3" d="m94 931 2 1-.21 2.256c-.874 10.54-1.01 21.046-1.03 31.617-.01 3.028-.041 6.055-.073 9.082C94.315 1044.381 123.91 1113.693 170 1165l1.414 1.584c9.821 10.984 19.991 21.292 31.586 30.416q1.64 1.325 3.277 2.652c47.237 38.062 106.964 59.871 167.723 59.723h2.46c24.853-.064 49.465-3.105 73.54-9.375l2.553-.663c11.146-2.97 21.737-6.872 32.291-11.53l2.656-1.147 2.344-1.043c2.528-.724 3.725-.573 6.156.383a97 97 0 0 1 5.563 5c4.885 4.62 9.904 8.927 15.16 13.125C519 1256 519 1256 520.297 1257.592c2.415 1.996 4.12 1.792 7.227 1.807l3.48.038 3.821-.005 4.02.031c3.641.028 7.281.037 10.922.043 3.803.01 7.607.036 11.41.06 7.204.044 14.408.072 21.611.095 8.2.027 16.401.071 24.602.117 16.87.093 33.74.164 50.61.222v1l-2.113.013q-25.439.155-50.876.326-12.302.085-24.604.158-10.721.065-21.442.14-5.678.04-11.355.072-5.344.03-10.687.071-2.897.02-5.795.032l-3.484.03-3.028.02A27.2 27.2 0 0 0 518 1263l-.562-2.375L516 1258a772 772 0 0 0-7-2 99 99 0 0 1-3-5c-3.067-1.826-3.067-1.826-6-3v-2h-2v-2h-2v-2h-6v-2c-2.688.46-5.036 1.015-7.562 2.063C480 1243 480 1243 476 1243v2h-4v2h-6v2l-2.59.621-3.348.816-3.34.81c-2.616.483-2.616.483-3.722 1.753-2 .04-4 .043-6 0v2l-1.934.184-2.503.254c-.824.08-1.648.162-2.497.246-2.053.105-2.053.105-3.066 1.316-1.682.233-3.371.413-5.062.563l-2.786.253L427 1258v1l-11 1v1l-12 1v1h-56v-1l-14-1v-1l-7-1v-1l-1.934-.184-2.503-.254c-.824-.08-1.648-.162-2.497-.246C318 1257 318 1257 317 1256a100 100 0 0 0-5-.562l-2.75-.254c-1.623-.136-1.623-.136-3.25-.184-1.484-.22-2.963-.476-4.437-.75l-2.434-.422c-2.129-.828-2.129-.828-3.414-2.906L295 1249c-1.423.03-1.423.03-2.875.063C289 1249 289 1249 287 1248a62 62 0 0 0-4.125-.062L279 1248v-2l-1.812-.375C275 1245 275 1245 272 1243l1-1-2.266-.332-2.984-.48-2.953-.458c-2.969-.775-4.449-1.812-6.797-3.73-1.885-.961-1.885-.961-3.75-1.687L251 1234v-1l-2.187-.187c-2.813-.813-2.813-.813-5.125-3.188-3.311-3.234-6.377-4.21-10.688-5.625-2.437-1-2.437-1-4-2l-1-3-2-1v-2l-3.312-.25c-4.293-.873-4.28-1.439-6.688-4.75-3.59-1.288-3.59-1.288-7-2l-1-5-1.875-.375C204 1203 204 1203 202 1201h-3v-2l-2-1-1.375-2.5c-1.325-2.68-1.325-2.68-3.625-2.937l-2-.563-1.437-3-1.563-3-2.5-.5-2.5-.5c-3-4.862-3-4.862-3-8l-6-1v-5h-2v-2h-2v-2l-3 1-1-5h-2v-3h-4l-.75-1.75c-1.183-2.372-1.183-2.372-3.312-4.312C153 1152 153 1152 152 1149h-2c-1.24-2.974-2.3-5.853-3-9h-2c-2.54-2.614-3.923-4.129-4.25-7.812L141 1130l-1.875-.375C137 1129 137 1129 135 1127a65 65 0 0 1-1.437-4.312c-1.136-3.556-2.315-6.658-4.563-9.688h-2v-2h-2v-5h-2l1-5-3 1 1-5-3 1c-1.899-5.57-1.899-5.57-2.5-8.125-.814-3.052-2.122-5.39-4.062-7.875-2.77-3.853-2.816-8.378-3.438-13h-1l-.312-2.312c-.422-2.705-.422-2.705-2.188-4-2.485-2.797-2.2-6.03-2.5-9.688h-1l-.367-3.246-.508-4.191-.238-2.143c-.226-1.817-.55-3.62-.887-5.42l-2-1 .125-2.75c.012-5.848-.492-12.983-3.125-18.25-1.708-8.22-2.313-16.45-2.658-24.818-.182-4.297-.182-4.297-.85-8.537-.563-3.027-.622-5.856-.625-8.934l-.004-3.602.012-3.734-.012-3.758.004-3.594.004-3.283C91 953 91 953 92 950c.134-1.395.223-2.795.281-4.195l.114-2.418.21-5.047C92.9 932.1 92.9 932.1 94 931m56 214 1 2Zm10 12 1 2Z"/><path fill="#e7e7e7" d="M1451 960h97c-1.042 4.167-2.144 5.892-5 9l-3 1v2h-2l-.125 1.688c-1.507 3.982-5.135 6.442-8.875 8.312v2h-2l-1 2-2 1-1.375 2.375c-1.647 2.66-2.98 4.003-5.625 5.625h-2l-1 3-3 1v2h-2v2h-2v2h-2v2h-2v2h-2v2h-2l-1 4h-3l-1 4h-3v2c-1.61 1.586-1.61 1.586-3.75 3.375-3.883 3.307-7.405 6.358-10.25 10.625l-3 1-1 3c-1.437 1.688-1.437 1.688-3 3h-2v2h-2v2h-2v2h-2v2h-2v2h-2v2h-2v2h-2v2h-2l1 7-2 1 1 3h2v2h2v2h3l1 4h2v2l2.438.813L1467 1081l1 3h2c2.125 1.875 2.125 1.875 4 4v2h2v2h2v2h2v2h2v2h2v2h2v2h2v2l3 1c1.188 2.563 1.188 2.563 2 5h2v2h3l1 4h2v2l2.438.75c2.562 1.25 2.562 1.25 3.374 3.375L1507 1124h2v2l2.438.813L1514 1128l1 3h2l2 4h2v2h2v2h2v2h2v2l1.875.75c2.125 1.25 2.125 1.25 3.063 3.25 1.463 2.755 3.216 2.89 6.062 4 3 3.31 3 3.31 3 6h2v2l1.688.75c2.736 1.48 4.989 3.185 7.312 5.25v2l1.688.188c3.385 1.189 5.06 3.06 7.312 5.812.375 2.75.375 2.75 0 5-1 1-1 1-4.16 1.098l-3.902-.035-3.91-.028L1546 1179v-2l-89 1-1-7-7-1-1-6-3.25-.625c-4.525-1.66-5.317-3.348-7.75-7.375l-2.187-1-1.813-1c-.75-3.125-.75-3.125-1-6h-4v-2h-2l-.312-1.937L1425 1142l-3-1a178 178 0 0 1-4-2v-2h-2l-1-5-5-1-1-5h-2v-2l-5-1-1-6h-2v-2h-4l-2-6-3.75-.187c-3.208-.42-4.122-.704-6.687-2.876-2.011-3.78-2.274-6.68-2.563-10.937h-3v81h-1v-86c7.863 6.74 7.863 6.74 10.208 9.72l1.632 2.04 1.715 2.173c37.936 49.872 37.936 49.872 91.983 75.748 24.753 2.34 50.05-.408 74.462-4.681a27490.417 27490.417 0 0 1-43.078-42.82 11970 11970 0 0 0-20-19.881 7377 7377 0 0 1-17.422-17.329 2686 2686 0 0 0-9.234-9.176 1708 1708 0 0 1-8.675-8.637 539 539 0 0 0-3.199-3.169 500 500 0 0 1-4.336-4.331l-2.461-2.447c-1.595-2.21-1.595-2.21-1.59-4.236 1.282-2.542 2.853-4.2 4.874-6.213l2.528-2.541 2.794-2.762q1.465-1.462 2.927-2.928c2.648-2.649 5.305-5.288 7.964-7.927 2.778-2.758 5.547-5.525 8.316-8.292q7.871-7.854 15.757-15.692c7.103-7.063 14.194-14.138 21.285-21.212 11.174-11.145 22.363-22.275 33.55-33.407l-95-1z"/><path fill="#f8f8f8" d="M1044 956c2.666 3.935 2.275 8.19 2.247 12.75l.008 2.706c.005 2.998-.003 5.996-.012 8.994q.001 3.22.006 6.44c.005 5.835-.003 11.669-.013 17.503-.01 6.096-.007 12.192-.007 18.288q-.002 15.353-.023 30.705-.023 17.775-.02 35.552 0 17.074-.013 34.147-.006 7.28-.006 14.559-.002 8.56-.017 17.12a3773 3773 0 0 0-.004 6.303q0 4.281-.012 8.564l.004 2.553c-.024 5.702-.024 5.702-1.138 6.816a92 92 0 0 1-5.062.063l-2.786-.028L1035 1179v-1h-57v1q-2.125.04-4.25.063l-2.39.035c-2.267-.094-4.189-.466-6.36-1.098-.824-2.867-1.11-5.36-1.053-8.338l.04-2.569.064-2.75.057-2.846q.063-2.975.134-5.95c.07-3.035.125-6.07.178-9.106l.13-5.785.045-2.75.07-2.568.05-2.251c.285-2.087.285-2.087 1.288-3.789 1.36-3.137 1.243-5.74 1.238-9.157l.005-2.09c.003-2.309-.008-4.618-.019-6.927v-4.967a4173 4173 0 0 0-.024-13.487c-.013-4.698-.014-9.395-.016-14.093-.006-8.897-.023-17.793-.043-26.69-.022-10.127-.033-20.255-.043-30.384Q967.068 990.252 967 959h2v-2l2.479.007q11.565.03 23.13.045 5.946.007 11.891.023 5.738.016 11.476.02 2.19.003 4.378.01 3.067.01 6.133.009l3.526.006c4.13-.166 7.812-1.236 11.987-1.12m-75 5v215h75V961z"/><path fill="#f9f9f9" d="M231 949h1l1 41h1v10h2c.774 4.064 1.098 7.864 1 12h1l.184 1.828.254 2.422c.08.789.162 1.578.246 2.39.292 2.184.737 4.237 1.316 6.36h2v4h2c1.19 5.38 2.292 10.453 2 16h2l-1 4 3-1 2 1c.603 2.24.956 4.486 1.34 6.773.75 2.53 1.763 3.46 3.66 5.227v2l3-1 1 9h2v2l5 1 .938 2.875c.936 2.986.936 2.986 2.062 5.125h3v2h2l1 5 6 1 .625 2.875L285 1096c1.979.727 3.98 1.398 6 2 .875 2.125.875 2.125 1 4h2v2l9 2v2l1.813.875C307 1110 307 1110 310 1112v2l2.813-.187c3.737.22 3.736.687 6.187 3.187 2.03.986 2.03.986 4.188 1.688.715.25 1.43.502 2.167.761L327 1120v2l7-1v2h6v2h6v3l3.035-.094c4.012.095 7.49.729 11.402 1.594 13.518 2.804 13.518 2.804 26.563.5 2-.04 4-.043 6 0v-2l-10-1 .125-2.75c-.138-3.98-.138-3.98-2.125-7.25l-3.062-1-2.938-1c-.875-2.125-.875-2.125-1-4h-2v-2l-1.875-.187C368 1108 368 1108 366.75 1105.437L366 1103h-2l1-5c3.389 2.645 6.326 5.279 9.094 8.57 5.155 5.966 10.854 11.388 16.494 16.89l2.502 2.47 2.277 2.226C397 1130 397 1130 397 1132c-17.304 2.105-36.118 2.843-53-2l-2.442-.7c-12.153-3.59-23.493-8.136-34.558-14.3l-1.928-1.054c-36.336-20.034-59.674-54.739-71.245-93.954-4.857-17.513-6.624-35.864-5.827-53.992l.164-3.855c.553-9.229.553-9.229 2.836-13.145m-1 21v10h1v-10zm4 32v8h1v-8zm6 25 1 4Z"/><path fill="#fff" d="M1297 947h1l1 64 2-1v166h76v-81h1l.025 2.972q.116 13.86.263 27.722.076 7.125.134 14.252.056 6.876.136 13.752.029 2.625.045 5.249c.017 2.449.046 4.898.078 7.347l.007 2.195c.06 3.658.303 6.398 2.312 9.511-4.96 1.323-9.911 1.089-15 1v-1l-60-1v2h-6l-1-9-2 4c-.89-9.164-1.097-18.22-.963-27.42.065-6.89-.21-13.74-.53-20.62-.555-12.315-.66-24.611-.637-36.939.005-3.491 0-6.983-.007-10.474-.004-13.595.279-27.16.747-40.746.573-17.047.73-34.101.922-51.156q.079-6.74.161-13.48.159-13.083.307-26.165"/><path fill="#f6f6f6" d="M1000 823h12v1l7 1v1l5 1v2h5v2l6 1v3h2v2l1.813.25c2.837.973 3.684 2.194 5.187 4.75v3h2c2 2 2 2 2 6h2c2.024 3.035 2.321 4.194 2.625 7.688l.227 2.449L1053 863h1q.04 3.969.063 7.938l.025 2.287A183 183 0 0 1 1054 879l-1 1a70 70 0 0 0-.562 4.063L1052 888h-2v6l-4 1v3h-2l-.312 1.938L1043 902l-3 1v2h-2v2h-2v3c-6.625 3-6.625 3-10 3v2h-5v2l-2.012.184c-5.523.516-5.523.516-10.988 1.441-2 .375-2 .375-4-.625a121 121 0 0 0-5.125-.562l-2.758-.254L994 917v-2h-5v-2l-1.625-.375L985 912l-3.125-.812C979 910 979 910 977.625 907.875L977 906h-2v-2l-4-1-.25-1.812c-1.168-3.408-3.634-4.63-6.75-6.188-.594-2.649-.742-5.292-1-8h-2v-8l-2 2v-10h-2v-2h2v-6l1 4h2l-.625-3.562c-.564-4.338.175-7.343 1.625-11.438h2v-6h2v-2l3-1c1.219-2.504 1.219-2.504 2-5h3l2-4h2v-2l6-1v-2h4v-2c5.292-3.077 5.292-3.077 8.875-2.687L1000 825zm-30 25c-6.984 10.149-7.352 22.11-6 34 2.422 11.085 9.298 19.896 18.438 26.313 6.91 4.274 13.387 7.29 21.562 7.687l2.008.191c10.845.62 21.112-3.247 29.52-9.921 7.84-7.197 14.74-16.455 15.649-27.401.448-16.692-1.594-26.465-13.138-38.998-8.68-8.502-18.67-12.425-30.664-12.558-15.896.288-27.9 8.225-37.375 20.687M1218 1015v1h-14l1 3-3.75.313c-3.639.446-5.413 1.323-8.25 3.687l-3.187 1-2.813 1-1 3c-2.066.73-2.066.73-4.562 1.188l-2.504.48-1.934.332 1 3a91 91 0 0 1-4 4h-2c-1.665 3.924-2.872 7.891-4 12l-1-3h-2v4h-2l.063 3.438C1163 1057 1163 1057 1162 1058a197 197 0 0 0-.25 9l-.062 2.504c-.034 5.32.727 9.61 2.646 14.58.821 2.363.906 4.435.666 6.916h2v3h2v3l4 1v4h2v2l3 1c3.338 1.791 4.861 2.792 7 6 2.752 2.123 2.752 2.123 5.438 2.438 2.562.562 2.562.562 4.312 2.062 3.458 2.305 7.175 2.247 11.25 2.5v1h8v-1l2.266-.113 2.984-.2 2.953-.175c3.12-.571 4.366-1.551 6.797-3.512 2.36-.95 2.36-.95 4.75-1.687l2.422-.762L1238 1111v-1l2.75-.437c2.465-.427 4.838-.914 7.25-1.563l1 4 5 1c1.806 4.462 2.117 7.31 1 12h2l.875 1.875c1.062 2.258 1.062 2.258 3.125 4.125 2.388 3.581 2.162 6.788 2 11h2l1.25 2.75c1.498 3.245 1.498 3.245 3.797 5.016 2.65 3.032 2.683 5.255 2.953 9.234l.313 3.688c-.313 3.312-.313 3.312-2.016 5.703-2.539 1.778-3.983 2.179-7.047 2.359l-2.422.172-1.828.078v2c-3.265 1.884-6.281 2.493-10 3v1h-8v2h-8v2h-13v-1l3.418-.629c9.085-1.748 17.916-3.908 26.707-6.809l2.579-.836c5.817-1.978 11.024-4.577 16.296-7.726-.553-4.903-2.14-8.798-4.387-13.129-.34-.67-.679-1.342-1.028-2.033q-1.628-3.206-3.273-6.4a4321 4321 0 0 1-4.261-8.38l-1.045-2.053c-3.169-6.26-6.125-12.607-9.006-19.005-5.376 1.772-10.618 3.79-15.879 5.879-11.26 4.045-27.916 4.511-39.059-.004-2.664-1.39-2.664-1.39-5.062-2.875l-2.46-1.422c-13.265-8.196-20.88-20.306-24.657-35.234-3.192-14.404-.09-28.013 7.23-40.645 12.39-17.725 29.837-24.747 50.887-23.699m-51 27 1 3Z"/><path fill="#e2f4ff" d="M1719 984c3.076 3.076 5.543 5.865 7 10-.75 3.438-.75 3.438-2 6h-2l.07 3.36q.029 2.194.055 4.39l.05 2.21c.037 3.96-.243 6.605-2.175 10.04l-1.726-.007q-8.88-.032-17.763-.048-3.315-.008-6.631-.02c-3.175-.013-6.35-.018-9.525-.023l-3.002-.015h-2.79l-2.456-.007c-2.3.039-2.3.039-5.107 1.12l.038 3.382q.18 16.074.353 32.148.09 8.256.182 16.512c.237 21.08.472 42.162.515 63.244q.006 2.439.016 4.878c.096 23.856.096 23.856-2.104 33.836h-1v-159h50z"/><path fill="#e9e9e9" d="M845 957h81v4h-2v123h-1V961h-74v108c-3.385-3.385-3.346-4.512-3.362-9.097l.037-2.527.004-2.672c.007-2.926.035-5.852.063-8.778q.012-3.064.02-6.128c.017-5.394.052-10.788.09-16.183.06-8.587.094-17.174.126-25.76q.022-4.47.058-8.94l.03-5.61.025-2.446c.03-8.02-.587-15.787-1.091-23.859"/><path fill="#dadada" d="M1451 960h97c-1.042 4.167-2.144 5.892-5 9l-3 1v2h-2l-.125 1.688c-1.507 3.982-5.135 6.442-8.875 8.312v2h-2l-1 2-2 1-1.375 2.375c-1.647 2.66-2.98 4.003-5.625 5.625h-2l-1 3-3 1v2h-2v2h-2v2h-2v2h-2v2h-2v2h-2l-1 4h-3l-1 4h-3v2c-1.61 1.586-1.61 1.586-3.75 3.375-3.883 3.307-7.405 6.358-10.25 10.625l-3 1-1 3c-1.437 1.688-1.437 1.688-3 3h-2v2h-2v2h-2v2h-2v2h-2v2h-2v2h-2v2h-2v2h-2l1 7-2 1 1 3h2v2h2v2h3l1 4h2v2l2.438.813L1467 1081l1 3h2c2.125 1.875 2.125 1.875 4 4v2h2v2h2v2h2v2h2v2h2v2h2v2h2v2l3 1c1.188 2.563 1.188 2.563 2 5h2v2h3l1 4h2v2l2.438.75c2.562 1.25 2.562 1.25 3.374 3.375L1507 1124h2v2l2.438.813L1514 1128l1 3h2l1 5a218 218 0 0 1-13.777-12.584l-1.93-1.905q-3.12-3.084-6.23-6.175l-2.158-2.141q-5.634-5.595-11.259-11.199a2996 2996 0 0 0-9.335-9.253q-5.658-5.587-11.287-11.205a1009 1009 0 0 0-4.306-4.26 863 863 0 0 1-5.976-5.952l-1.82-1.77c-1.622-1.648-1.622-1.648-3.922-4.556.225-3.787 2.278-5.649 4.879-8.24l2.528-2.54 2.794-2.762q1.465-1.462 2.927-2.928c2.648-2.649 5.305-5.288 7.964-7.927 2.778-2.758 5.547-5.525 8.316-8.292q7.871-7.854 15.757-15.692c7.103-7.063 14.194-14.138 21.285-21.212 11.174-11.145 22.363-22.275 33.55-33.407l-95-1z"/><path fill="#f7f7f7" d="M924 961h1l1 146h-2l-1 8h-1l-1 7h-2l.063 3.375C919 1129 919 1129 918 1131c-.04 2-.043 4 0 6h-2l-1 2-2-1-3 12h-2v2h-2v2h-2v2h-2l-.875 1.875C900 1160 900 1160 898 1162h-4l-.187 1.813c-1.173 3.156-2.832 3.697-5.813 5.187a263 263 0 0 1-7 3l-2 1-1 3c-4.43 1.65-8.29 2.23-13 2v1l-2.812.375c-3.327.44-3.327.44-6.188 2.625-2.437.813-2.437.813-5 1-2.312-1.437-2.312-1.437-4-3l1-2a117 117 0 0 1 7.188-1.812c17.444-4.147 31.96-10.403 44.812-23.188l1.895-1.79c13.586-13.923 18.607-35.791 20.204-54.513l.255-2.983c1.008-12.94 1.003-25.895 1.06-38.866q.027-4.088.059-8.175.068-9.555.116-19.111c.039-7.27.088-14.54.138-21.81q.153-22.377.273-44.752"/><path fill="#fff" d="M968 965h1v211h67v1l-58 1v1q-2.125.04-4.25.063l-2.39.035c-2.267-.094-4.189-.466-6.36-1.098-.824-2.867-1.11-5.36-1.053-8.338l.04-2.569.064-2.75.057-2.846q.063-2.975.134-5.95c.07-3.035.125-6.07.178-9.106l.13-5.785.045-2.75.07-2.568.05-2.251c.285-2.087.285-2.087 1.288-3.806 1.335-3.055 1.24-5.535 1.23-8.867l.004-2.001c0-2.21-.013-4.42-.026-6.63l-.004-4.756a3120 3120 0 0 0-.026-10.236c-.022-5.39-.03-10.78-.037-16.17q-.018-12.78-.057-25.56a32434 32434 0 0 1-.1-45.815q-.013-8.046-.04-16.091-.016-4.992-.024-9.984-.005-2.325-.015-4.648-.014-3.16-.015-6.317l-.01-3.58C967 966 967 966 968 965"/><path fill="#eee" d="M365 1098c3.389 2.645 6.326 5.279 9.094 8.57 5.155 5.966 10.854 11.388 16.494 16.89l2.502 2.47 2.277 2.226C397 1130 397 1130 397 1132c-29.455 3.583-56.148-.534-83-13v-3c4.198-.35 5.775.399 9 3 2.147.705 2.147.705 4 1v2l7-1v2h6v2h6v3c1.002-.03 2.003-.062 3.035-.094 4.012.095 7.49.729 11.402 1.594 13.518 2.804 13.518 2.804 26.563.5 2-.04 4-.043 6 0v-2l-10-1 .125-2.75c-.138-3.98-.138-3.98-2.125-7.25l-3.062-1-2.938-1c-.875-2.125-.875-2.125-1-4h-2v-2l-1.875-.187C368 1108 368 1108 366.75 1105.437L366 1103h-2z"/><path fill="#f6f6f6" d="m613 815 1.875 1.063L617 817l2-1 1 4h1l1 9h2c2 3 2 3 2 6h2v4h2v4h2c1.5 2.25 1.5 2.25 3 5l1.25 2.125C637 852 637 852 636 855h2v5h2l3 7h1l.148 1.793c.504 5.32.957 9.857 4.414 14.144 1.83 2.626 2.08 4.918 2.438 8.063h1l.332 3.516c.81 8.129 1.81 15.893 4.012 23.785.874 3.597 1.153 7.146 1.347 10.836L658 931l2 1-1 21h-1l-.272-2.509c-5.147-46.49-16.896-92.44-43.583-131.628C613 817 613 817 613 815"/><path fill="#f7f7f7" d="m1518 1134 3 1v2h2v2h2v2h2v2l1.875.75c2.125 1.25 2.125 1.25 3.063 3.25 1.463 2.755 3.216 2.89 6.062 4 3 3.31 3 3.31 3 6h2v2l1.688.75c2.736 1.48 4.989 3.185 7.312 5.25v2l1.688.188c3.385 1.189 5.06 3.06 7.312 5.812.375 2.75.375 2.75 0 5-1 1-1 1-4.16 1.098l-3.902-.035-3.91-.028L1546 1179v-2h-84v-1l94-1c-12.498-12.379-12.498-12.379-25.012-24.741q-2.339-2.325-4.676-4.654l-2.486-2.44-2.338-2.336-2.045-2.026C1518 1137 1518 1137 1518 1134"/><path fill="#ececec" d="m1051 861 3 2c.248 2.772.327 5.299.25 8.063l-.016 2.26c-.08 5.523-.08 5.523-1.234 6.677a70 70 0 0 0-.562 4.063L1052 888h-2v6l-4 1v3h-2l-.312 1.938L1043 902l-3 1v2h-2v2h-2v3c-6.625 3-6.625 3-10 3v2h-5v2l-2.012.184c-5.523.516-5.523.516-10.988 1.441-2 .375-2 .375-4-.625a121 121 0 0 0-5.125-.562l-2.758-.254L994 917v-2h-5v-2l-1.625-.375L985 912l-3.125-.75C979 910 979 910 977.625 907.375L977 905c3.405.624 5.578 1.93 8.375 3.938 5.968 4.069 11.45 5.492 18.625 6.062l2.02.2c10.902.586 21.123-3.286 29.574-9.997 8.406-7.697 14.205-17.434 14.722-28.969l.127-2.695.12-2.789.13-2.836q.159-3.457.307-6.914"/><path fill="#e6e6e6" d="m1450 1060 3 2v3l-2 1 1 3h2v2h2v2h3l1 4h2v2l2.438.813L1467 1081l1 3h2c2.125 1.875 2.125 1.875 4 4v2h2v2h2v2h2v2h2v2h2v2h2v2h2v2l3 1c1.188 2.563 1.188 2.563 2 5h2v2h3l1 4h2v2l2.438.75c2.562 1.25 2.562 1.25 3.374 3.375L1507 1124h2v2l2.438.813L1514 1128l1 3h2l1 5a217 217 0 0 1-13.686-12.493l-1.9-1.874q-3.07-3.035-6.133-6.078l-2.124-2.108a9537 9537 0 0 1-11.084-11.024q-4.584-4.564-9.19-9.107a2753 2753 0 0 1-11.11-11.03 977 977 0 0 0-4.24-4.194 836 836 0 0 1-5.883-5.858l-1.79-1.741c-1.598-1.623-1.598-1.623-3.86-4.493.337-2.96.851-3.851 3-6"/><path fill="#f4f4f4" d="M1218 1015v1h-14l1 3-3.75.313c-3.639.446-5.413 1.323-8.25 3.687l-3.187 1-2.813 1-1 3c-2.066.73-2.066.73-4.562 1.188l-2.504.48-1.934.332 1 3a91 91 0 0 1-4 4h-2c-1.665 3.924-2.872 7.891-4 12l-1-3h-2v4h-2l.063 3.438C1163 1057 1163 1057 1162 1058a60 60 0 0 0-.133 4.184l-.004 2.56.012 2.694-.012 2.681.004 2.565.004 2.36c.008 2.036.008 2.036 1.129 3.956.04 2.333.043 4.667 0 7-5.584-8.376-5.204-19.918-3.312-29.473 4.238-14.816 12.149-26.513 25.187-34.965 10.886-5.914 20.991-7.166 33.125-6.562m-51 27 1 3Z"/><path fill="#e1e1e1" d="m374.938 813.813 3.63.002c23.552.162 23.552.162 30.432 4.185q-4.47.04-8.937.063l-2.577.025-2.45.01-2.27.016C391 818 391 818 390 817c-4.452-.258-8.916-.185-13.375-.187l-3.754-.038c-12.479-.66-12.479-.66-23.47 3.756L348 822c-3.187.688-3.187.688-6 1v1l-3.21.367-4.165.508-2.117.238c-4.199.44-4.199.44-7.508 2.887-2.625-.375-2.625-.375-5-1 2.636-2.636 5.634-3.597 9.063-4.875l2.132-.798c14.264-5.16 28.59-7.525 43.743-7.514"/><path fill="#f3f3f3" d="M402 817c24.902-.384 50.608 19.03 69 34-2.862 1.43-4.934.6-8 0l-1-4-3 1c-2.187-.937-2.187-.937-4-2v-5h-3v-2l-3 1-1-3h-2v-2h-3v-2l-2.437.063C438 833 438 833 437 832a100 100 0 0 0-5 0v-2l-2-1 1-1c-3.657-2.438-6.933-2.672-11.187-3.125l-2.272-.262A871 871 0 0 0 412 824v-1l-6-1v-1l-10-1v-1l6-1zm31 12 1 2Z"/><path fill="#dedede" d="m485 1238 2 1c-2.27 2.27-3.974 2.991-7 4h-4v2h-4v2h-6v2l-2.59.621-3.348.816-3.34.81c-2.616.483-2.616.483-3.722 1.753-2 .04-4 .043-6 0v2l-1.934.184-2.503.254-2.497.246c-2.053.105-2.053.105-3.066 1.316-1.682.233-3.371.413-5.062.563l-2.786.253L427 1258v1l-11 1v1l-22-1v-1l2.664-.288c29.44-3.233 58.188-7.862 85.563-19.708z"/><path fill="#fcfcfc" d="m347.853 1258.978 1.954.03q3.158.05 6.314.113l4.41.072q5.772.094 11.545.202 5.902.104 11.805.2 11.56.195 23.119.405c-1.754 2.24-2.624 2.945-5.487 3.36l-2.994-.02h-3.397l-3.665-.047-3.754-.013q-4.935-.022-9.868-.074c-3.359-.03-6.717-.044-10.075-.06A4334 4334 0 0 1 348 1263v-1l-14-1v-1c4.682-.76 9.113-1.104 13.853-1.022"/><path fill="#f9f9f9" d="M1204 1016c3.167-.059 6.333-.094 9.5-.125.887-.017 1.774-.034 2.688-.05 7.643-.057 14.01 1.27 21.124 4.175l2.489 1c2.199 1 2.199 1 5.199 3h4l1 3c-3.288 2.329-6.14 2.148-10.043 1.555-2.896-.821-4.736-2.58-6.957-4.555-2.182-.778-2.182-.778-4-1v-2h-8v-1l-16-1zm26 5 4 1Z"/><path fill="#e3e3e3" d="m94 931 2 1-.214 2.232c-.908 10.75-.938 21.463-.916 32.246q.005 4.722-.007 9.444c-.008 14.566-.008 14.566 1.137 29.078l-3-2a89 89 0 0 1-.625-8.812q-.077-2.417-.164-4.833l-.053-2.167c-.111-2.235-.111-2.235-.663-4.567-.57-3.018-.625-5.839-.628-8.91l-.004-3.602.012-3.734-.012-3.758.004-3.594.004-3.283C91 953 91 953 92 950c.134-1.395.223-2.795.281-4.195l.114-2.418.21-5.047C92.9 932.1 92.9 932.1 94 931"/><path fill="#f7f7f7" d="M295 1249c8.333 1.09 16.479 2.72 24.688 4.5 10.071 2.17 20.05 3.632 30.312 4.5v1h-23v-1l-1.934-.184-2.503-.254c-.824-.08-1.648-.162-2.497-.246C318 1257 318 1257 317 1256a100 100 0 0 0-5-.562l-2.75-.254c-1.623-.136-1.623-.136-3.25-.184-1.484-.22-2.963-.476-4.437-.75l-2.434-.422c-2.129-.828-2.129-.828-3.414-2.906z"/><path fill="#ececec" d="m94 1004 2 1c.714 2.753.714 2.753 1.367 6.422l.366 1.987c.39 2.112.767 4.226 1.142 6.341 1.624 9.137 3.436 17.945 6.36 26.782C106 1049 106 1049 106 1051h-2l-2 2-.367-3.246-.508-4.191-.238-2.143c-.226-1.817-.55-3.62-.887-5.42l-2-1 .125-2.75c.012-5.848-.492-12.983-3.125-18.25-.229-2.037-.41-4.08-.562-6.125l-.254-3.32z"/><path fill="#f5f5f5" d="M438 830c4.346.923 7.723 3.087 11.438 5.438l2.12 1.331c6.803 4.34 13.16 9.176 19.442 14.231-2.862 1.43-4.934.6-8 0l-1-4-3 1c-2.187-.937-2.187-.937-4-2v-5h-3v-2l-3 1-1-3h-2v-2h-3v-2h-5z"/><path fill="#ededed" d="m1266 1166 2 1c-1.75 2-1.75 2-4 4h-4v2c-3.265 1.884-6.281 2.493-10 3v1h-8v2h-8v2h-13v-1l3.418-.629c9.184-1.769 18.08-3.974 26.957-6.934l2.68-.886c4.338-1.487 8.01-3.173 11.945-5.551"/><path fill="#f8f8f8" d="m98 898 2 3h2l-2.437 12.688-.698 3.63-.674 3.506-.618 3.222Q96.8 928.026 96 932l-2-1v-13h1l1-14h1z"/><path fill="#f4f4f4" d="M351 819c-1.974 2.523-2.967 2.993-6.187 3.688L342 823v1l-3.21.367-4.165.508-2.117.238c-4.199.44-4.199.44-7.508 2.887-2.625-.375-2.625-.375-5-1 2.758-2.758 6.038-3.725 9.625-5.062l2.082-.815c6.315-2.375 12.605-4.004 19.293-2.123"/><path fill="#dadada" d="M231 949h1v22l-3-1v14h-1c-.296-29.345-.296-29.345 3-35"/><path fill="#f4f4f4" d="M347 1128c3.979.405 7.921.807 11.86 1.512 9.43 1.687 18.6 1.68 28.14 1.488v2c-4.25.059-8.5.094-12.75.125l-3.598.05c-7.76.043-15.046-.624-22.652-2.175z"/><path fill="#ececec" d="M1235.688 955.688c4.27.085 7.43 1.554 11.312 3.312 2.793.254 2.793.254 5 0v3l5 1v3l-1.94-.627q-4.373-1.409-8.747-2.81l-3.053-.987-2.96-.947-2.713-.873c-2.515-.735-5.01-1.283-7.587-1.756 2-2 2-2 5.688-2.312"/><path fill="#d9d9d9" d="m1164 1048 1 2h-2l.063 3.438C1163 1057 1163 1057 1162 1058a60 60 0 0 0-.133 4.184l-.004 2.56.012 2.694-.012 2.681.004 2.565.004 2.36c.008 2.036.008 2.036 1.129 3.956.04 2.333.043 4.667 0 7-5.57-8.354-5.107-19.822-3.395-29.379.675-2.627 1.322-5.13 2.395-7.621z"/><path fill="#f2f2f2" d="M1179 1028v2h-2l1 3a91 91 0 0 1-4 4h-2c-1.665 3.924-2.872 7.891-4 12l-1-3h-2l-1 3-1-2c2.342-5.821 8.654-19 16-19m-12 14 1 3Z"/><path fill="#f6f6f6" d="m1547 960 1 3c-4.105 5.702-4.105 5.702-8 7v2h-2l-.125 1.688c-1.507 3.982-5.135 6.442-8.875 8.312v2h-2l-1 2-2-2 2.004-1.988q3.673-3.648 7.34-7.302l3.181-3.16q2.285-2.269 4.565-4.542l2.777-2.761c2.159-2.055 2.159-2.055 3.133-4.247"/><path fill="#eaf7ff" d="M1687.977 873.734c10.057.043 17.702 1.604 27.023 5.266v1c-7.444.379-7.444.379-10.156-1.469-4.13-2.223-8.033-2.098-12.657-2.218l-2.677-.104c-2.17-.082-4.34-.147-6.51-.209 2-2 2-2 4.977-2.266"/><path fill="#f3f3f3" d="M1254 1125h3l.875 1.875c1.062 2.258 1.062 2.258 3.125 4.125 2.388 3.581 2.162 6.788 2 11h2v4h-2c-1.51-2.933-3.006-5.872-4.5-8.812l-1.3-2.526-1.231-2.432-1.143-2.237C1254 1128 1254 1128 1254 1125"/><path fill="#e7e7e7" d="M977 905c3.405.624 5.578 1.93 8.375 3.938 6.06 4.132 11.436 5.318 18.625 6.062-3.402 2.094-6.053 2.18-10 2v-2h-5v-2l-1.625-.375L985 912l-3.125-.75C979 910 979 910 977.625 907.375z"/><path fill="#f1f1f1" d="m847 1068 2 1a2689 2689 0 0 1-.437 7.625l-.12 2.16c-.246 4.133-.678 8.138-1.443 12.215-2.108-3.162-2.338-4.507-2.625-8.187l-.227-2.731L844 1078h1l.184-1.934.254-2.504c.08-.823.162-1.647.246-2.496C846 1069 846 1069 847 1068"/><path fill="#eee" d="M1165 1178c6.44.623 12.676 1.64 19 3v2h-14v-1l-6-1z"/><path fill="#dadada" d="m320 1254 3.77.621c8.725 1.42 17.399 2.803 26.23 3.379v1h-23v-1l-2.937-.875C321 1256 321 1256 320 1254"/><path fill="#ddd" d="m1246 1176-4 1v2h-8v2h-13v-1l1.697-.351q3.808-.792 7.616-1.586l2.67-.553 2.568-.537 2.364-.492c5.632-1.299 5.632-1.299 8.085-.481"/><path fill="#ededed" d="M161 1157c3.387 1.439 5.36 3.221 7.75 6l1.86 2.125C172 1167 172 1167 172 1169h-3v-2l-3 1-1-5h-2v-3l-4-1h2zM903 1150l2 1-1.937 1.688c-2.296 2.573-2.538 3.987-3.063 7.312l-2 2h-4l-1 2c0-3.719.86-4.318 3.313-7l1.863-2.062c1.58-1.678 3.182-3.321 4.824-4.938"/><path fill="#f5f5f5" d="M768 1080h1v14h2v5h-2c-2.402-4.804-2.611-9.731-3-15h2z"/><path fill="#ececec" d="M651 891h1c.748 7.026 1.138 13.934 1 21h-1q-.757-3.374-1.5-6.75l-.844-3.797C649 898 649 898 649 894h2z"/><path fill="#4c4c4c" d="M107 779q3.094.467 6.188.938l3.48.527c2.795.449 5.561.956 8.332 1.535l1 4c-6.487-1.681-12.768-3.53-19-6z"/><path fill="#cecece" d="M815 1118h7v2c-5.623 1.917-10.524 2.249-16.437 2.125l-2.506-.027c-2.02-.024-4.038-.06-6.057-.098v-1l17-1z"/><path fill="#ececec" d="M132 1113c7 8.448 7 8.448 7 12h-2l-2 2c-3.444-9.41-3.444-9.41-3-14"/><path fill="#c4c4c4" d="m1210.75 1014.938 2.113.013q2.57.02 5.137.049v1h-14l1 3h-9c4.614-4.614 8.452-4.14 14.75-4.062"/><path fill="#fcfcfc" d="M791 1118h8v1l15 1v1c-3.27.029-6.542.047-9.812.063l-2.815.025-2.705.01-2.491.016C794 1121 794 1121 791 1120z"/><path fill="#323232" d="m791 1203 15 7c-3.982 1.327-6.448 0-10.187-1.437l-1.983-.737c-1.613-.6-3.222-1.212-4.83-1.826l2-1z"/><path fill="#fbfbfb" d="M1179 1028v2h-2l1 3-4 4-4-2a517 517 0 0 1 3.375-3.5l1.898-1.969C1177 1028 1177 1028 1179 1028"/><path fill="#fcfcfc" d="m1047 847 1 4h2c2.43 3.644 2.162 5.712 2 10h-2a336 336 0 0 1-2.062-4.75l-1.16-2.672c-.824-2.73-.755-3.947.222-6.578"/><path fill="#e6e6e6" d="M460 843q1.909 1.402 3.813 2.813l2.144 1.582A46.6 46.6 0 0 1 471 852c-5.5.367-5.5.367-7.875-1.375C462 849 462 849 462 847l-2-1z"/><path fill="#dbdbdb" d="m334 821-1 3a127 127 0 0 1-6 2l-2 2c-2.625-.375-2.625-.375-5-1 2.256-2.256 4.046-2.966 7-4.125l2.688-1.07C332 821 332 821 334 821"/><path fill="#f2f2f2" d="M641 864c1.5 1 1.5 1 3 3 .273 2.718.135 5.257 0 8l-2 1a480 480 0 0 1-1.5-3.812l-.844-2.145C639 868 639 868 639 865z"/><path fill="#f5f5f5" d="m1450 1060 3 2v3c-2 1.688-2 1.688-4 3l-2-2c.367-2.935.864-3.864 3-6"/><path fill="#eee" d="m98 898 2 3h2l-2 11c-2.28-3.42-2.22-4.682-2.125-8.687l.055-3.012z"/><path fill="#f7f7f7" d="M431 827c5.75.75 5.75.75 8 3-2 2-2 2-4.625 2.125L432 832v-2l-2-1zm2 2 1 2Z"/><path fill="#fff" d="M1000 916h15c-4.734 2.367-7.163 3.52-12.312 2.063L1000 917z"/><path fill="#f8f8f8" d="m263 1235 2 2-5 2-2-2a89 89 0 0 0-4-2c3.52-1.173 5.425-.837 9 0"/><path fill="#e9e9e9" d="M438 830c4.194.671 7.403 2.856 11 5l-1 2h-2v-2h-3v-2h-5z"/><path fill="#fff" d="m906 1148 2 1v3h-2v2h-2v2h-2l-1 2-1-3c1.215-1.824 1.215-1.824 2.938-3.687l1.714-1.887z"/><path fill="#ececec" d="M1254 1125h3c1.858 3.135 2.201 5.375 2 9h-2c-3-5.625-3-5.625-3-9"/><path fill="#e6e6e6" d="m1025 914-4 1v2c-2.875.125-2.875.125-6 0l-2-2c8.036-2.277 8.036-2.277 12-1"/><path fill="#e3e3e3" d="M920 1110h1v12h-2l-1 2z"/><path fill="#e8e8e8" d="m1165 1178 9 1c-2 2-2 2-3.945 2.195L1164 1181z"/><path fill="#eaeaea" d="m863 1176-1 2 3 1h-9l1-3c2.575-.997 3.49-1.255 6 0"/><path fill="#eee" d="M1225 1116h7l-1 3-6 1z"/><path fill="#e4e4e4" d="M1255 1007h2v6l-5 2c1.875-5.75 1.875-5.75 3-8"/><path fill="#ededed" d="M977 905c3.342.597 5.464 1.736 8 4v2c-2.875-.187-2.875-.187-6-1-1.375-2.562-1.375-2.562-2-5"/><path fill="#f6f6f6" d="m273 1241 7 1-4 3-4-2z"/><path fill="#e6e6e6" d="m233 1219 7 4v1h-7z"/><path fill="#eaf7ff" d="M1910 1109h3c-1.27 3.914-2.512 5.79-6 8 1.875-5.75 1.875-5.75 3-8"/><path fill="#fdfdfd" d="M104 1051h2c.688 2.75.688 2.75 1 6l-3 4z"/><path fill="#e7e7e7" d="m1195 1017 2 1v3h-7v-2c2.375-1.062 2.375-1.062 5-2"/><path fill="#e1e1e1" d="m985 910 9 3-2 2h-3v-2l-4-1z"/><path fill="#e7e7e7" d="M1253 1174c-1.187 1.5-1.187 1.5-3 3-2.687.188-2.687.188-5 0l1-3c2.944-1.178 3.9-1.033 7 0"/><path fill="#f0f0f0" d="M917 1124h2v5l-4 2z"/><path fill="#eaeaea" d="M1263 991h2v7l-1-2-3 1z"/><path fill="#fff" d="M1297 926h1v17h-1zM1471 1178h6v1h-6zM1191 950h6v1h-6zM1379 814h2l-1 3zM924 1109h2v2h-2zM1077 1084l1 4ZM844 1070l1 4ZM352 819l3 1ZM385 817l3 1Z"/></svg>