<?xml version="1.0" encoding="UTF-8"?>
<svg version="1.1" xmlns="http://www.w3.org/2000/svg" width="424" height="135">
<path d="M0 0 C2.20724442 0.00853159 4.41190318 -0.02044902 6.61889648 -0.05200195 C34.32926555 -0.18669528 57.73868896 11.69248904 77.24633789 30.89624023 C85.05335892 38.85579631 85.05335892 38.85579631 85.77319336 43.44604492 C82.42794387 42.33096176 81.93097643 41.6331255 79.83569336 38.94604492 C66.41660506 23.31839834 46.80686861 16.40415206 26.77319336 14.44604492 C4.34640725 13.25726523 -17.42945615 18.24620849 -38.22680664 26.44604492 C-35.45921196 30.64733285 -35.45921196 30.64733285 -32.47680664 34.69604492 C-31.22680664 36.44604492 -31.22680664 36.44604492 -31.22680664 38.44604492 C-55.87588337 41.92230841 -80.52792618 45.34091538 -105.22680664 48.44604492 C-104.64384986 45.08512004 -103.61352841 43.46647919 -101.19506836 41.08959961 C-100.55705292 40.45503845 -99.91903748 39.82047729 -99.26168823 39.16668701 C-98.21961716 38.1525473 -98.21961716 38.1525473 -97.15649414 37.11791992 C-96.44204132 36.41008362 -95.7275885 35.70224731 -94.9914856 34.97296143 C-92.70190357 32.70679243 -90.40244778 30.45098115 -88.10180664 28.19604492 C-85.82427193 25.95376467 -83.54894538 23.70930962 -81.27639771 21.4619751 C-79.86273925 20.06506002 -78.44599643 18.67125659 -77.02560425 17.28118896 C-73.0566898 13.37123234 -69.30199211 9.34641641 -65.67678833 5.11505127 C-64.57579907 3.84775384 -63.41386606 2.63310434 -62.22680664 1.44604492 C-61.23680664 1.44604492 -60.24680664 1.44604492 -59.22680664 1.44604492 C-57.40258789 3.41479492 -57.40258789 3.41479492 -55.53930664 5.94604492 C-54.91668945 6.78135742 -54.29407227 7.61666992 -53.65258789 8.47729492 C-53.18208008 9.12698242 -52.71157227 9.77666992 -52.22680664 10.44604492 C-51.67444336 10.24970459 -51.12208008 10.05336426 -50.55297852 9.85107422 C-47.94834555 8.93314071 -45.33772911 8.03342597 -42.72680664 7.13354492 C-41.85926758 6.82481445 -40.99172852 6.51608398 -40.09790039 6.19799805 C-26.87757707 1.68026166 -13.90691377 -0.0814528 0 0 Z " fill="#9DBD1A" transform="translate(105.226806640625,-0.446044921875)"/>
<path d="M0 0 C-0.57730939 3.13903723 -1.39229431 4.7617123 -3.66455078 6.98925781 C-4.50144943 7.82097504 -4.50144943 7.82097504 -5.35525513 8.66949463 C-5.96247406 9.25809265 -6.56969299 9.84669067 -7.1953125 10.453125 C-7.82098114 11.07217712 -8.44664978 11.69122925 -9.09127808 12.32904053 C-11.09554852 14.3099153 -13.10965812 16.28039569 -15.125 18.25 C-17.75636537 20.83474167 -20.3834732 23.42375073 -23.0078125 26.015625 C-23.63506226 26.634375 -24.26231201 27.253125 -24.90856934 27.890625 C-28.65647612 31.60717589 -32.27711192 35.38219395 -35.67431641 39.42675781 C-37.96898549 42.14993416 -40.36266318 44.60242108 -43 47 C-43.99 47 -44.98 47 -46 47 C-47.60546875 45.25 -47.60546875 45.25 -49.1875 43 C-49.71730469 42.2575 -50.24710938 41.515 -50.79296875 40.75 C-51.19128906 40.1725 -51.58960938 39.595 -52 39 C-57.14282301 40.0459979 -62.07094314 41.31306566 -67.0625 42.9375 C-80.34299448 47.06172001 -93.11749976 48.56011903 -106.9375 48.4375 C-107.68046326 48.43412628 -108.42342651 48.43075256 -109.18890381 48.42727661 C-141.18790597 48.21705666 -163.5279111 35.53317368 -185.87109375 13.26171875 C-191 7.81284404 -191 7.81284404 -191 5 C-187.7405115 6.38986847 -186.04511325 7.91215416 -183.875 10.6875 C-171.04597946 25.75002305 -150.09678049 32.3113109 -131 34 C-109.04869994 35.390249 -87.3435908 29.87493837 -67 22 C-68.57513866 19.24350734 -70.17905786 16.78001463 -72.1875 14.3125 C-74 12 -74 12 -74 10 C-60.57584884 8.12402116 -47.15133276 6.2506725 -33.72644043 4.38000488 C-31.20073323 4.02797773 -28.67506735 3.67565587 -26.14941406 3.32324219 C-22.07901398 2.7554402 -18.00829212 2.18998444 -13.9375 1.625 C-12.14082886 1.37411621 -12.14082886 1.37411621 -10.30786133 1.11816406 C-9.22529053 0.96831055 -8.14271973 0.81845703 -7.02734375 0.6640625 C-6.09656006 0.53467285 -5.16577637 0.4052832 -4.20678711 0.27197266 C-2 0 -2 0 0 0 Z " fill="#195125" transform="translate(424,87)"/>
<path d="M0 0 C3.2890625 0.56640625 3.2890625 0.56640625 4.74707031 2.05126953 C6.24687161 4.19061469 7.59379174 6.3743761 8.9140625 8.62890625 C9.378125 9.38107422 9.8421875 10.13324219 10.3203125 10.90820312 C13.07729134 15.40581691 15.67091985 19.98465662 18.2890625 24.56640625 C18.2890625 16.64640625 18.2890625 8.72640625 18.2890625 0.56640625 C20.2690625 0.56640625 22.2490625 0.56640625 24.2890625 0.56640625 C24.2890625 12.44640625 24.2890625 24.32640625 24.2890625 36.56640625 C22.3090625 36.56640625 20.3290625 36.56640625 18.2890625 36.56640625 C16.33862305 34.57861328 16.33862305 34.57861328 14.67578125 31.82421875 C14.06798828 30.84066406 13.46019531 29.85710937 12.83398438 28.84375 C12.22103516 27.80347656 11.60808594 26.76320313 10.9765625 25.69140625 C10.34427734 24.65886719 9.71199219 23.62632813 9.06054688 22.5625 C4.76520647 15.5186942 4.76520647 15.5186942 3.2890625 12.56640625 C2.9590625 20.48640625 2.6290625 28.40640625 2.2890625 36.56640625 C0.6390625 36.56640625 -1.0109375 36.56640625 -2.7109375 36.56640625 C-4.4438673 34.83347645 -3.83913796 32.60426289 -3.84988403 30.29492188 C-3.8478598 29.55951172 -3.84583557 28.82410156 -3.84375 28.06640625 C-3.84470673 27.31552734 -3.84566345 26.56464844 -3.84664917 25.79101562 C-3.84733088 24.20051998 -3.84547722 22.61002158 -3.84130859 21.01953125 C-3.83596017 18.5767597 -3.84125384 16.13417204 -3.84765625 13.69140625 C-3.84699547 12.14973918 -3.8457143 10.60807222 -3.84375 9.06640625 C-3.84577423 8.33099609 -3.84779846 7.59558594 -3.84988403 6.83789062 C-3.82178089 0.79849889 -3.82178089 0.79849889 0 0 Z " fill="#195125" transform="translate(259.7109375,50.43359375)"/>
<path d="M0 0 C1.1446875 -0.00257812 2.289375 -0.00515625 3.46875 -0.0078125 C6.5 0.125 6.5 0.125 9.5 1.125 C9.17 2.775 8.84 4.425 8.5 6.125 C7.63117188 6.07859375 6.76234375 6.0321875 5.8671875 5.984375 C-1.44874608 5.49499523 -1.44874608 5.49499523 -8.1875 7.8125 C-11.27601662 10.90101662 -12.47102639 12.85264093 -12.52734375 17.26953125 C-12.29275535 20.89662882 -11.67490616 23.73354336 -10.1875 27.0625 C-5.85730601 30.38567213 -0.82570561 30.56395869 4.5 31.125 C4.5 27.825 4.5 24.525 4.5 21.125 C2.19 21.125 -0.12 21.125 -2.5 21.125 C-2.5 19.475 -2.5 17.825 -2.5 16.125 C1.79 16.125 6.08 16.125 10.5 16.125 C10.5 22.065 10.5 28.005 10.5 34.125 C6.2982662 36.2258669 4.23268799 36.42263649 -0.375 36.4375 C-1.56867188 36.45425781 -2.76234375 36.47101563 -3.9921875 36.48828125 C-9.03955649 35.96555818 -12.31383813 34.41000869 -15.75 30.6875 C-19.77719562 24.79053499 -20.13915483 20.20724786 -19.5 13.125 C-17.75230248 7.67629596 -14.10721838 4.33958192 -9.5 1.125 C-6.13849548 0.00449849 -3.53713274 -0.00796652 0 0 Z " fill="#195125" transform="translate(307.5,50.875)"/>
<path d="M0 0 C1.98 0 3.96 0 6 0 C6 4.62 6 9.24 6 14 C10.95 14 15.9 14 21 14 C21 9.38 21 4.76 21 0 C22.98 0 24.96 0 27 0 C27 11.88 27 23.76 27 36 C25.02 36 23.04 36 21 36 C21 30.72 21 25.44 21 20 C16.05 20 11.1 20 6 20 C6 25.28 6 30.56 6 36 C4.02 36 2.04 36 0 36 C0 24.12 0 12.24 0 0 Z " fill="#195125" transform="translate(192,51)"/>
<path d="M0 0 C1.134375 0.020625 2.26875 0.04125 3.4375 0.0625 C4.8516373 4.06150424 6.2571465 8.0634088 7.6550293 12.06811523 C8.13090708 13.42765078 8.6090584 14.78639289 9.08959961 16.14428711 C9.78330455 18.10582247 10.46855188 20.07014647 11.15234375 22.03515625 C11.56605225 23.21343994 11.97976074 24.39172363 12.40600586 25.60571289 C13.44737445 29.09559169 14.01590692 32.44970958 14.4375 36.0625 C12.4575 36.0625 10.4775 36.0625 8.4375 36.0625 C7.93134702 34.79410474 7.43280901 33.52266898 6.9375 32.25 C6.6590625 31.54230469 6.380625 30.83460937 6.09375 30.10546875 C5.4375 28.0625 5.4375 28.0625 5.4375 25.0625 C1.8075 25.3925 -1.8225 25.7225 -5.5625 26.0625 C-6.8825 29.3625 -8.2025 32.6625 -9.5625 36.0625 C-11.5425 36.0625 -13.5225 36.0625 -15.5625 36.0625 C-13.48325241 28.08112841 -11.06258387 20.25505747 -8.4375 12.4375 C-8.07785156 11.35082031 -7.71820313 10.26414062 -7.34765625 9.14453125 C-6.83138672 7.59958984 -6.83138672 7.59958984 -6.3046875 6.0234375 C-5.9938623 5.09321777 -5.68303711 4.16299805 -5.36279297 3.20458984 C-4.05470185 -0.29668882 -4.0563476 0.07116399 0 0 Z M-0.5625 9.0625 C-1.23124384 10.70749042 -1.89744074 12.35351648 -2.5625 14 C-2.93375 14.91652344 -3.305 15.83304688 -3.6875 16.77734375 C-4.622098 18.81032158 -4.622098 18.81032158 -4.5625 20.0625 C-1.9225 20.0625 0.7175 20.0625 3.4375 20.0625 C2.4475 16.4325 1.4575 12.8025 0.4375 9.0625 C0.1075 9.0625 -0.2225 9.0625 -0.5625 9.0625 Z " fill="#195125" transform="translate(238.5625,50.9375)"/>
<path d="M0 0 C1.134375 0.020625 2.26875 0.04125 3.4375 0.0625 C5.00982761 4.7053523 6.57624495 9.35014033 8.13720703 13.99682617 C8.66911236 15.5774515 9.20263164 17.15753465 9.73779297 18.73706055 C10.50652737 21.00689505 11.26944572 23.27861294 12.03125 25.55078125 C12.27186157 26.25713211 12.51247314 26.96348297 12.76037598 27.6912384 C13.73338092 30.60925212 14.4375 32.9638002 14.4375 36.0625 C12.4575 36.0625 10.4775 36.0625 8.4375 36.0625 C7.93134702 34.79410474 7.43280901 33.52266898 6.9375 32.25 C6.6590625 31.54230469 6.380625 30.83460937 6.09375 30.10546875 C5.4375 28.0625 5.4375 28.0625 5.4375 25.0625 C1.4775 25.0625 -2.4825 25.0625 -6.5625 25.0625 C-6.871875 26.50625 -7.18125 27.95 -7.5 29.4375 C-8.01733647 31.85173686 -8.45735234 33.85220467 -9.5625 36.0625 C-11.5425 36.0625 -13.5225 36.0625 -15.5625 36.0625 C-14.83944773 31.91477353 -13.64093605 28.03954001 -12.3125 24.046875 C-12.09432617 23.39044006 -11.87615234 22.73400513 -11.65136719 22.05767822 C-11.19222963 20.6789108 -10.73159129 19.30064233 -10.26953125 17.92285156 C-9.56059468 15.80681298 -8.85813138 13.6887003 -8.15625 11.5703125 C-7.70871838 10.22903813 -7.26081488 8.88788777 -6.8125 7.546875 C-6.40515625 6.32709961 -5.9978125 5.10732422 -5.578125 3.85058594 C-4.2023157 0.07372484 -4.2023157 0.07372484 0 0 Z M-1.5625 10.0625 C-2.5525 13.3625 -3.5425 16.6625 -4.5625 20.0625 C-1.9225 20.0625 0.7175 20.0625 3.4375 20.0625 C2.4475 16.7625 1.4575 13.4625 0.4375 10.0625 C-0.2225 10.0625 -0.8825 10.0625 -1.5625 10.0625 Z " fill="#9DBD1A" transform="translate(93.5625,50.9375)"/>
<path d="M0 0 C6.6 0 13.2 0 20 0 C20 1.98 20 3.96 20 6 C15.71 6 11.42 6 7 6 C6.67 8.97 6.34 11.94 6 15 C10.62 15 15.24 15 20 15 C20 16.65 20 18.3 20 20 C15.38 20 10.76 20 6 20 C6.33 23.3 6.66 26.6 7 30 C11.62 30 16.24 30 21 30 C21 31.98 21 33.96 21 36 C14.07 36 7.14 36 0 36 C0 24.12 0 12.24 0 0 Z " fill="#195125" transform="translate(323,51)"/>
<path d="M0 0 C6.6 0 13.2 0 20 0 C20 1.98 20 3.96 20 6 C15.71 6 11.42 6 7 6 C6.67 8.97 6.34 11.94 6 15 C10.29 15 14.58 15 19 15 C19 16.65 19 18.3 19 20 C14.71 20 10.42 20 6 20 C6.33 23.3 6.66 26.6 7 30 C8.39025391 29.98259766 8.39025391 29.98259766 9.80859375 29.96484375 C11.00613281 29.95582031 12.20367187 29.94679688 13.4375 29.9375 C14.63246094 29.92589844 15.82742187 29.91429688 17.05859375 29.90234375 C20 30 20 30 21 31 C21 32.65 21 34.3 21 36 C14.07 36 7.14 36 0 36 C0 24.12 0 12.24 0 0 Z " fill="#9DBD1A" transform="translate(56,51)"/>
<path d="M0 0 C1.8359375 1.52734375 1.8359375 1.52734375 3 3 C2.34 4.32 1.68 5.64 1 7 C0.01 6.67 -0.98 6.34 -2 6 C-5.58343976 5.83322718 -5.58343976 5.83322718 -9 6 C-10.29633621 7.06645115 -10.29633621 7.06645115 -10.0625 9.5625 C-10.041875 10.366875 -10.02125 11.17125 -10 12 C-8.86111328 12.58007812 -8.86111328 12.58007812 -7.69921875 13.171875 C-6.70535156 13.69265625 -5.71148437 14.2134375 -4.6875 14.75 C-3.70136719 15.26046875 -2.71523437 15.7709375 -1.69921875 16.296875 C1.00136145 18.00085904 2.41405669 19.25386998 4 22 C4.37025936 26.1469048 4.56203933 29.58394756 2 33 C-1.80543967 35.75100168 -4.45626545 36.38855708 -9.125 36.3125 C-10.15882812 36.30863281 -11.19265625 36.30476563 -12.2578125 36.30078125 C-15 36 -15 36 -18 34 C-17.67 32.35 -17.34 30.7 -17 29 C-16.360625 29.165 -15.72125 29.33 -15.0625 29.5 C-11.02413348 30.15932515 -7.08192742 30.08003779 -3 30 C-2.66602213 27.12586875 -2.66602213 27.12586875 -3 24 C-4.76739428 22.08532287 -6.57429163 21.18758578 -8.94140625 20.14453125 C-12.58420561 18.50091091 -14.66700905 17.44072331 -17.125 14.1875 C-18.27114078 10.01227287 -17.74978078 7.93700676 -16 4 C-11.95765318 -1.0855331 -6.04916412 -1.03940746 0 0 Z " fill="#9DBD1A" transform="translate(128,51)"/>
<path d="M0 0 C0.66 0.33 1.32 0.66 2 1 C1.67 2.65 1.34 4.3 1 6 C0.27554688 5.96519531 -0.44890625 5.93039063 -1.1953125 5.89453125 C-9.0563622 5.62189354 -9.0563622 5.62189354 -16 9 C-18.49551176 12.97013235 -18.57236394 17.43003163 -18 22 C-16.44112443 26.45969838 -16.44112443 26.45969838 -12.78125 29.15625 C-9.60922944 30.11854837 -6.99554568 30.1977043 -3.6875 30.125 C-2.61886719 30.10695313 -1.55023438 30.08890625 -0.44921875 30.0703125 C0.76314453 30.03550781 0.76314453 30.03550781 2 30 C2 31.65 2 33.3 2 35 C-2.64825523 37.32412762 -8.94122076 36.41484294 -14 36 C-18.53538865 33.88869839 -21.1653623 31.09447668 -24 27 C-25.96445997 21.10662009 -25.9862696 14.37518299 -23.5 8.625 C-18.09871512 -0.4581296 -9.8179088 -0.97344705 0 0 Z " fill="#195125" transform="translate(186,51)"/>
<path d="M0 0 C2.31 0 4.62 0 7 0 C9.31 4.62 11.62 9.24 14 14 C16.31 9.38 18.62 4.76 21 0 C23.31 0 25.62 0 28 0 C26.64484293 4.72531209 24.62004048 8.27572761 21.9375 12.375 C17.21544054 20.01596082 16.81687194 27.18696235 17 36 C15.02 36 13.04 36 11 36 C11.04382813 35.13761719 11.08765625 34.27523437 11.1328125 33.38671875 C11.10819809 21.7317961 6.81151551 13.61679951 0.90209961 3.7331543 C0 2 0 2 0 0 Z " fill="#9DBD1A" transform="translate(134,51)"/>
<path d="M0 0 C0.85722656 -0.02578125 1.71445312 -0.0515625 2.59765625 -0.078125 C4.9375 0.25 4.9375 0.25 6.734375 1.44140625 C8.35754683 3.88143403 8.23812136 5.53405179 8.125 8.4375 C8.09792969 9.33855469 8.07085937 10.23960938 8.04296875 11.16796875 C8.00816406 11.85503906 7.97335937 12.54210938 7.9375 13.25 C6.9475 13.25 5.9575 13.25 4.9375 13.25 C4.6075 10.28 4.2775 7.31 3.9375 4.25 C2.9475 4.745 2.9475 4.745 1.9375 5.25 C1.47226937 7.14533342 1.47226937 7.14533342 1.3125 9.3125 C1.18875 10.611875 1.065 11.91125 0.9375 13.25 C-0.0525 13.25 -1.0425 13.25 -2.0625 13.25 C-2.3925 10.28 -2.7225 7.31 -3.0625 4.25 C-4.0525 4.25 -5.0425 4.25 -6.0625 4.25 C-6.3925 7.22 -6.7225 10.19 -7.0625 13.25 C-7.7225 13.25 -8.3825 13.25 -9.0625 13.25 C-9.0625 9.29 -9.0625 5.33 -9.0625 1.25 C-5.79537914 0.43321978 -3.31207284 0.05994702 0 0 Z " fill="#195125" transform="translate(280.0625,14.75)"/>
<path d="M0 0 C2.8125 1 2.8125 1 4.8125 4 C5.13752803 7.12026907 5.32401479 9.14747535 3.6875 11.875 C0.95997535 13.51151479 -1.06723093 13.32502803 -4.1875 13 C-7.1875 11 -7.1875 11 -8.1875 8.1875 C-8.1875 5 -8.1875 5 -6.125 2.0625 C-3.1875 0 -3.1875 0 0 0 Z M-2.1875 3 C-2.8475 3.66 -3.5075 4.32 -4.1875 5 C-2.5375 5 -0.8875 5 0.8125 5 C0.4825 4.34 0.1525 3.68 -0.1875 3 C-0.8475 3 -1.5075 3 -2.1875 3 Z M-4.1875 8 C-3.8575 8.66 -3.5275 9.32 -3.1875 10 C-1.8675 9.67 -0.5475 9.34 0.8125 9 C0.8125 8.67 0.8125 8.34 0.8125 8 C-0.8375 8 -2.4875 8 -4.1875 8 Z " fill="#195125" transform="translate(258.1875,15)"/>
<path d="M0 0 C2 2 2 2 2.3125 5.4375 C2 9 2 9 0.875 10.9375 C-1.88980433 12.50422245 -3.88188517 12.38976435 -7 12 C-8.875 10.9375 -8.875 10.9375 -10 9 C-10.4375 5.5 -10.4375 5.5 -10 2 C-7.00303875 -1.6885677 -4.34072074 -1.22672543 0 0 Z M-4 2 C-4.66 2.66 -5.32 3.32 -6 4 C-4.68 3.67 -3.36 3.34 -2 3 C-2.66 2.67 -3.32 2.34 -4 2 Z M-7 7 C-6.67 7.66 -6.34 8.32 -6 9 C-4.35 8.67 -2.7 8.34 -1 8 C-1 7.67 -1 7.34 -1 7 C-2.98 7 -4.96 7 -7 7 Z " fill="#195125" transform="translate(326,16)"/>
<path d="M0 0 C2.31282587 3.46923881 2.42478586 4.92205575 2 9 C0.875 10.875 0.875 10.875 -1 12 C-4.11811483 12.38976435 -6.11019567 12.50422245 -8.875 10.9375 C-10.66235303 7.85928089 -10.43386742 5.47093932 -10 2 C-7.01983499 -1.66789539 -4.31348256 -1.31279904 0 0 Z M-5 2 C-5.33 2.66 -5.66 3.32 -6 4 C-4.68 3.67 -3.36 3.34 -2 3 C-2.99 2.67 -3.98 2.34 -5 2 Z M-7 7 C-6.67 7.66 -6.34 8.32 -6 9 C-4.35 8.67 -2.7 8.34 -1 8 C-1 7.67 -1 7.34 -1 7 C-2.98 7 -4.96 7 -7 7 Z " fill="#195125" transform="translate(413,16)"/>
<path d="M0 0 C0 3.96 0 7.92 0 12 C-1.423125 12.061875 -2.84625 12.12375 -4.3125 12.1875 C-5.51326172 12.23970703 -5.51326172 12.23970703 -6.73828125 12.29296875 C-9 12 -9 12 -10.765625 10.70703125 C-12.8384379 7.84051468 -12.4248241 5.39859283 -12 2 C-8.76924464 -2.30767382 -4.72645809 -0.86651732 0 0 Z M-7 2 C-7.66 2.66 -8.32 3.32 -9 4 C-8.67958603 6.60280568 -8.67958603 6.60280568 -8 9 C-6.35 8.67 -4.7 8.34 -3 8 C-3.33 6.35 -3.66 4.7 -4 3 C-4.99 2.67 -5.98 2.34 -7 2 Z " fill="#195125" transform="translate(373,16)"/>
<path d="M0 0 C2.31282587 3.46923881 2.42478586 4.92205575 2 9 C0.875 10.875 0.875 10.875 -1 12 C-4.65259739 12.54400387 -6.3433886 12.43774093 -9.4375 10.375 C-11 8 -11 8 -11 4.9375 C-10 2 -10 2 -8.3125 0.0625 C-5.13778084 -1.39615475 -3.30121799 -1.00471852 0 0 Z M-5 2 C-5.99 2.99 -6.98 3.98 -8 5 C-7.34 6.32 -6.68 7.64 -6 9 C-4.68 8.67 -3.36 8.34 -2 8 C-1.67 6.68 -1.34 5.36 -1 4 C-2.32 3.34 -3.64 2.68 -5 2 Z " fill="#195125" transform="translate(300,16)"/>
<path d="M0 0 C2.8125 0.9375 2.8125 0.9375 4.8125 3.9375 C4.35966981 10.39033019 4.35966981 10.39033019 1.8125 12.9375 C-1.625 13.3125 -1.625 13.3125 -5.1875 12.9375 C-7.56216282 10.86924529 -8.07435647 9.50321765 -8.6875 6.4375 C-8.1875 3.9375 -8.1875 3.9375 -6.0625 1.5625 C-3.1875 -0.0625 -3.1875 -0.0625 0 0 Z M-2.1875 2.9375 C-3.1775 3.9275 -4.1675 4.9175 -5.1875 5.9375 C-4.5275 7.2575 -3.8675 8.5775 -3.1875 9.9375 C-1.8675 9.6075 -0.5475 9.2775 0.8125 8.9375 C1.1425 7.6175 1.4725 6.2975 1.8125 4.9375 C0.4925 4.2775 -0.8275 3.6175 -2.1875 2.9375 Z " fill="#195125" transform="translate(210.1875,15.0625)"/>
<path d="M0 0 C1 1 1 1 1.09765625 3.50390625 C1.08605469 4.51324219 1.07445312 5.52257812 1.0625 6.5625 C1.05347656 7.57441406 1.04445312 8.58632813 1.03515625 9.62890625 C1.02355469 10.41136719 1.01195312 11.19382812 1 12 C0.01 12 -0.98 12 -2 12 C-2.33 9.03 -2.66 6.06 -3 3 C-3.99 3 -4.98 3 -6 3 C-6.33 5.97 -6.66 8.94 -7 12 C-7.99 12 -8.98 12 -10 12 C-10 8.04 -10 4.08 -10 0 C-5.66473162 -0.86705368 -4.00869538 -1.11352649 0 0 Z " fill="#195125" transform="translate(226,16)"/>
<path d="M0 0 C1.26237731 2.52475462 1.09856404 4.31200466 1.0625 7.125 C1.05347656 8.03507812 1.04445313 8.94515625 1.03515625 9.8828125 C1.02355469 10.58148438 1.01195312 11.28015625 1 12 C0.01 12 -0.98 12 -2 12 C-2.33 9.03 -2.66 6.06 -3 3 C-3.99 3.33 -4.98 3.66 -6 4 C-6.33 6.64 -6.66 9.28 -7 12 C-7.99 12 -8.98 12 -10 12 C-10 8.04 -10 4.08 -10 0 C-3.95604396 -1.20879121 -3.95604396 -1.20879121 0 0 Z " fill="#195125" transform="translate(385,16)"/>
<path d="M0 0 C1.26237731 2.52475462 1.09856404 4.31200466 1.0625 7.125 C1.05347656 8.03507812 1.04445312 8.94515625 1.03515625 9.8828125 C1.02355469 10.58148438 1.01195312 11.28015625 1 12 C0.01 12 -0.98 12 -2 12 C-2.33 9.03 -2.66 6.06 -3 3 C-3.99 3.33 -4.98 3.66 -6 4 C-6.33 6.64 -6.66 9.28 -7 12 C-7.99 12 -8.98 12 -10 12 C-10 8.04 -10 4.08 -10 0 C-3.95604396 -1.20879121 -3.95604396 -1.20879121 0 0 Z " fill="#195125" transform="translate(248,16)"/>
<path d="M0 0 C0.99 0 1.98 0 3 0 C4.6875 2 4.6875 2 6 4 C6.66 2.68 7.32 1.36 8 0 C8.99 0 9.98 0 11 0 C10.37183502 3.94949704 9.1354471 7.19892028 7.4375 10.8125 C6.98246094 11.78832031 6.52742188 12.76414062 6.05859375 13.76953125 C5.70925781 14.50558594 5.35992187 15.24164063 5 16 C4.01 16 3.02 16 2 16 C2.226875 15.154375 2.45375 14.30875 2.6875 13.4375 C3.0756374 9.16798859 1.80631189 6.82938121 0 3 C0 2.01 0 1.02 0 0 Z " fill="#195125" transform="translate(329,16)"/>
<path d="M0 0 C1 1 1 1 1.09765625 3.50390625 C1.08605469 4.51324219 1.07445312 5.52257812 1.0625 6.5625 C1.05347656 7.57441406 1.04445313 8.58632813 1.03515625 9.62890625 C1.02355469 10.41136719 1.01195312 11.19382812 1 12 C0.01 12 -0.98 12 -2 12 C-2.33 9.03 -2.66 6.06 -3 3 C-3.99 3 -4.98 3 -6 3 C-6.33 5.97 -6.66 8.94 -7 12 C-7.66 12 -8.32 12 -9 12 C-9 8.04 -9 4.08 -9 0 C-5.16046631 -0.95988342 -3.67125527 -0.99223115 0 0 Z " fill="#195125" transform="translate(313,16)"/>
<path d="M0 0 C0 1.66666667 0 3.33333333 0 5 C0.309375 5.9590625 0.309375 5.9590625 0.625 6.9375 C1 9 1 9 -1 12 C-3.625 12.1875 -3.625 12.1875 -6 12 C-6 10.68 -6 9.36 -6 8 C-5.01 8 -4.02 8 -3 8 C-4.0209375 7.13375 -4.0209375 7.13375 -5.0625 6.25 C-7 4 -7 4 -6.875 1.8125 C-5.19616733 -1.66508195 -3.24665268 -0.97399581 0 0 Z " fill="#195125" transform="translate(394,16)"/>
<path d="M0 0 C1.32 0 2.64 0 4 0 C4 0.99 4 1.98 4 3 C3.34 3 2.68 3 2 3 C2 3.66 2 4.32 2 5 C2.66 5 3.32 5 4 5 C4 5.66 4 6.32 4 7 C3.34 7 2.68 7 2 7 C2 10.3 2 13.6 2 17 C1.01 17 0.02 17 -1 17 C-1.22354607 15.10590022 -1.42819951 13.2095652 -1.625 11.3125 C-1.74101562 10.25675781 -1.85703125 9.20101563 -1.9765625 8.11328125 C-2.0010326 4.86283654 -1.40852563 2.89769204 0 0 Z " fill="#195125" transform="translate(398,11)"/>
<path d="M0 0 C0.99 0 1.98 0 3 0 C3 1.32 3 2.64 3 4 C3.66 4 4.32 4 5 4 C5 4.66 5 5.32 5 6 C4.34 6 3.68 6 3 6 C3 9.3 3 12.6 3 16 C2.01 16 1.02 16 0 16 C0 12.7 0 9.4 0 6 C-0.66 6 -1.32 6 -2 6 C-2 5.34 -2 4.68 -2 4 C-1.34 4 -0.68 4 0 4 C0 2.68 0 1.36 0 0 Z " fill="#195125" transform="translate(348,12)"/>
<path d="M0 0 C0 0.66 0 1.32 0 2 C-0.99 2.66 -1.98 3.32 -3 4 C-3.57748803 5.96361864 -3.57748803 5.96361864 -3.6875 8.125 C-3.790625 9.40375 -3.89375 10.6825 -4 12 C-4.99 12 -5.98 12 -7 12 C-7 8.04 -7 4.08 -7 0 C-3 -1 -3 -1 0 0 Z " fill="#195125" transform="translate(423,16)"/>
<path d="M0 0 C0 0.66 0 1.32 0 2 C-0.99 2 -1.98 2 -3 2 C-3.33 5.3 -3.66 8.6 -4 12 C-4.99 12 -5.98 12 -7 12 C-7 8.04 -7 4.08 -7 0 C-3 -1 -3 -1 0 0 Z " fill="#195125" transform="translate(361,16)"/>
<path d="M0 0 C0.99 0 1.98 0 3 0 C3 5.28 3 10.56 3 16 C2.01 16 1.02 16 0 16 C0 10.72 0 5.44 0 0 Z " fill="#195125" transform="translate(229,12)"/>
<path d="M0 0 C0.99 0 1.98 0 3 0 C3 3.96 3 7.92 3 12 C2.01 12 1.02 12 0 12 C0 8.04 0 4.08 0 0 Z " fill="#195125" transform="translate(233,16)"/>
<path d="M0 0 C0.99 0.33 1.98 0.66 3 1 C2.67 1.99 2.34 2.98 2 4 C1.01 4 0.02 4 -1 4 C-0.67 2.68 -0.34 1.36 0 0 Z " fill="#195125" transform="translate(234,11)"/>
</svg>
