<?xml version="1.0" encoding="UTF-8"?>
<svg version="1.1" xmlns="http://www.w3.org/2000/svg" width="3000" height="3000">
<path d="M0 0 C0.70339508 -0.00175232 1.40679016 -0.00350464 2.13150024 -0.00531006 C4.43461646 -0.00967729 6.73765462 -0.0068091 9.04077148 -0.00341797 C10.65307123 -0.00409241 12.26537088 -0.0050636 13.87767029 -0.00631714 C17.24739556 -0.0077871 20.61709424 -0.00566188 23.98681641 -0.00097656 C28.29630173 0.00472489 32.60572481 0.00143463 36.91520786 -0.00454903 C40.24127162 -0.00816968 43.56732072 -0.00700921 46.89338493 -0.00442123 C48.48213648 -0.00375637 50.07088939 -0.00456493 51.65963936 -0.00690079 C53.88250357 -0.00945256 56.10526817 -0.00555148 58.328125 0 C60.22172508 0.00119339 60.22172508 0.00119339 62.15357971 0.00241089 C65.39621011 0.12190788 68.41353645 0.54070819 71.59936523 1.12939453 C73.1555016 1.19288439 74.71399461 1.21592404 76.27124023 1.19189453 C77.51454102 1.18029297 77.51454102 1.18029297 78.78295898 1.16845703 C79.62987305 1.15556641 80.47678711 1.14267578 81.34936523 1.12939453 C83.0524274 1.1039377 84.7555629 1.08288681 86.45874023 1.06689453 C87.57974121 1.04949219 87.57974121 1.04949219 88.72338867 1.03173828 C90.59936523 1.12939453 90.59936523 1.12939453 92.59936523 2.12939453 C94.01306249 2.20116492 95.43010323 2.21331903 96.84545898 2.19189453 C97.68270508 2.18416016 98.51995117 2.17642578 99.38256836 2.16845703 C101.14819421 2.14247284 102.91381921 2.11643143 104.67944336 2.09033203 C105.51797852 2.08259766 106.35651367 2.07486328 107.22045898 2.06689453 C107.98801514 2.05529297 108.75557129 2.04369141 109.54638672 2.03173828 C111.59936523 2.12939453 111.59936523 2.12939453 114.59936523 3.12939453 C116.59000963 3.27925864 118.58471914 3.37767491 120.57983398 3.44580078 C121.74321289 3.48769531 122.9065918 3.52958984 124.10522461 3.57275391 C125.92763672 3.63172852 125.92763672 3.63172852 127.78686523 3.69189453 C129.0134082 3.73507812 130.23995117 3.77826172 131.50366211 3.82275391 C134.53544905 3.92892543 137.56731838 4.03097406 140.59936523 4.12939453 C140.59936523 4.78939453 140.59936523 5.44939453 140.59936523 6.12939453 C141.55842773 5.94505859 142.51749023 5.76072266 143.50561523 5.57080078 C148.13143341 4.91113305 152.49037258 5.48075881 157.09936523 6.06689453 C162.6476031 6.74618116 167.99667994 7.20013551 173.59936523 7.12939453 C175.60572995 7.42198939 177.60650586 7.7557334 179.59936523 8.12939453 C183.355989 8.71231891 186.79122054 9.12939453 190.59936523 9.12939453 C190.59936523 9.78939453 190.59936523 10.44939453 190.59936523 11.12939453 C191.40374023 10.92314453 192.20811523 10.71689453 193.03686523 10.50439453 C196.84181785 10.1038732 199.31136792 10.66217668 202.95874023 11.58642578 C207.16422978 12.45116402 211.4019183 12.6327698 215.68139648 12.88330078 C218.14387791 13.09097994 220.22559201 13.50848805 222.59936523 14.12939453 C224.34627442 14.34378793 226.09676753 14.53047106 227.84936523 14.69189453 C228.74139648 14.77568359 229.63342773 14.85947266 230.55249023 14.94580078 C231.22795898 15.00638672 231.90342773 15.06697266 232.59936523 15.12939453 C232.59936523 15.78939453 232.59936523 16.44939453 232.59936523 17.12939453 C234.05342773 16.85095703 234.05342773 16.85095703 235.53686523 16.56689453 C237.05280273 16.35033203 237.05280273 16.35033203 238.59936523 16.12939453 C238.92936523 16.45939453 239.25936523 16.78939453 239.59936523 17.12939453 C241.94923786 17.36467226 244.30492562 17.5432587 246.66186523 17.69189453 C247.9522168 17.77568359 249.24256836 17.85947266 250.57202148 17.94580078 C252.07055664 18.03667969 252.07055664 18.03667969 253.59936523 18.12939453 C253.59936523 18.78939453 253.59936523 19.44939453 253.59936523 20.12939453 C254.68991211 20.20287109 254.68991211 20.20287109 255.80249023 20.27783203 C264.86485861 20.95170045 273.69882251 22.3202098 282.59936523 24.12939453 C282.59936523 24.78939453 282.59936523 25.44939453 282.59936523 26.12939453 C284.57936523 25.79939453 286.55936523 25.46939453 288.59936523 25.12939453 C288.59936523 25.78939453 288.59936523 26.44939453 288.59936523 27.12939453 C289.25163086 27.18998047 289.90389648 27.25056641 290.57592773 27.31298828 C295.28652741 27.76459444 299.94138161 28.27134492 304.59936523 29.12939453 C304.59936523 29.78939453 304.59936523 30.44939453 304.59936523 31.12939453 C305.66864258 31.20287109 305.66864258 31.20287109 306.75952148 31.27783203 C312.32755766 31.71248358 317.28742021 32.42957212 322.59936523 34.12939453 C324.2639238 34.47310031 325.93096492 34.8048498 327.59936523 35.12939453 C329.76810084 35.59910831 331.93468553 36.07883007 334.09936523 36.56689453 C335.20280273 36.81310547 336.30624023 37.05931641 337.44311523 37.31298828 C340.3018095 38.05242776 342.86576088 39.03331163 345.59936523 40.12939453 C347.36087803 40.54598588 349.13249657 40.92224571 350.91186523 41.25439453 C352.23637695 41.50576172 352.23637695 41.50576172 353.58764648 41.76220703 C354.25151367 41.88337891 354.91538086 42.00455078 355.59936523 42.12939453 C355.59936523 42.78939453 355.59936523 43.44939453 355.59936523 44.12939453 C356.77499023 44.25314453 357.95061523 44.37689453 359.16186523 44.50439453 C365.18871273 45.2722128 370.74203437 47.17749959 376.47436523 49.12939453 C381.48106846 50.81931451 386.4202171 52.09356491 391.59936523 53.12939453 C391.59936523 53.78939453 391.59936523 54.44939453 391.59936523 55.12939453 C392.56874023 55.23251953 393.53811523 55.33564453 394.53686523 55.44189453 C399.08530363 56.07569332 403.29353627 57.5769528 407.59936523 59.12939453 C407.59936523 59.78939453 407.59936523 60.44939453 407.59936523 61.12939453 C409.08436523 60.63439453 409.08436523 60.63439453 410.59936523 60.12939453 C412.54125977 60.5949707 412.54125977 60.5949707 414.73217773 61.42236328 C415.53913086 61.72335937 416.34608398 62.02435547 417.17749023 62.33447266 C418.01795898 62.65867187 418.85842773 62.98287109 419.72436523 63.31689453 C420.54163086 63.62175781 421.35889648 63.92662109 422.20092773 64.24072266 C426.28234051 65.78093934 430.29577452 67.41499162 434.27124023 69.21142578 C438.02519707 70.90717301 441.81859463 72.31264271 445.72436523 73.62939453 C453.00867429 76.17929141 453.00867429 76.17929141 456.16186523 78.12939453 C459.29252805 79.95087108 462.15002672 81.13727772 465.53686523 82.37939453 C471.31045404 84.53872991 476.73129156 87.09093049 482.20751953 89.89477539 C488.50039821 93.11237388 494.88451451 96.11754285 501.30493164 99.07177734 C505.06080949 100.82309134 508.3262108 102.56192018 511.59936523 105.12939453 C513.57733423 106.03226477 513.57733423 106.03226477 515.59936523 106.69189453 C518.37715045 107.6765572 521.00105796 108.72197809 523.59936523 110.12939453 C523.59936523 110.78939453 523.59936523 111.44939453 523.59936523 112.12939453 C524.43467773 112.31501953 524.43467773 112.31501953 525.28686523 112.50439453 C527.82050888 113.18916308 530.17857555 114.12073216 532.59936523 115.12939453 C532.59936523 115.78939453 532.59936523 116.44939453 532.59936523 117.12939453 C533.74405273 117.31501953 533.74405273 117.31501953 534.91186523 117.50439453 C537.59936523 118.12939453 537.59936523 118.12939453 540.59936523 120.12939453 C540.59936523 120.78939453 540.59936523 121.44939453 540.59936523 122.12939453 C542.57936523 122.45939453 544.55936523 122.78939453 546.59936523 123.12939453 C546.59936523 123.78939453 546.59936523 124.44939453 546.59936523 125.12939453 C547.68217773 125.53158203 547.68217773 125.53158203 548.78686523 125.94189453 C551.5869342 127.12414587 554.0073569 128.54890165 556.59936523 130.12939453 C558.59179012 131.14440344 560.59010719 132.14812897 562.59936523 133.12939453 C562.59936523 133.78939453 562.59936523 134.44939453 562.59936523 135.12939453 C563.50686523 135.39751953 564.41436523 135.66564453 565.34936523 135.94189453 C568.34847577 137.03772338 570.13762982 138.17698368 572.59936523 140.12939453 C573.58936523 140.45939453 574.57936523 140.78939453 575.59936523 141.12939453 C575.59936523 141.78939453 575.59936523 142.44939453 575.59936523 143.12939453 C576.25936523 143.12939453 576.91936523 143.12939453 577.59936523 143.12939453 C577.59936523 143.78939453 577.59936523 144.44939453 577.59936523 145.12939453 C579.57936523 145.45939453 581.55936523 145.78939453 583.59936523 146.12939453 C583.59936523 146.78939453 583.59936523 147.44939453 583.59936523 148.12939453 C584.25936523 148.12939453 584.91936523 148.12939453 585.59936523 148.12939453 C585.59936523 148.78939453 585.59936523 149.44939453 585.59936523 150.12939453 C586.38311523 150.43876953 587.16686523 150.74814453 587.97436523 151.06689453 C590.59936523 152.12939453 590.59936523 152.12939453 592.59936523 153.12939453 C592.59936523 153.78939453 592.59936523 154.44939453 592.59936523 155.12939453 C593.59516602 155.44650391 593.59516602 155.44650391 594.61108398 155.77001953 C598.65173328 157.60811882 601.90894134 160.1772331 605.41186523 162.87939453 C606.42216797 163.64896484 606.42216797 163.64896484 607.45288086 164.43408203 C608.81131142 165.46882914 610.16696211 166.50723609 611.51977539 167.54931641 C612.96422844 168.64681584 614.42348606 169.72499238 615.89379883 170.78759766 C616.62550293 171.31804687 617.35720703 171.84849609 618.11108398 172.39501953 C618.77970459 172.87229492 619.4483252 173.34957031 620.13720703 173.84130859 C620.61971924 174.26637695 621.10223145 174.69144531 621.59936523 175.12939453 C621.59936523 175.78939453 621.59936523 176.44939453 621.59936523 177.12939453 C622.40374023 177.29439453 623.20811523 177.45939453 624.03686523 177.62939453 C629.07373041 179.75017987 632.87292841 183.15452859 636.59936523 187.12939453 C636.59936523 187.78939453 636.59936523 188.44939453 636.59936523 189.12939453 C638.93150671 190.33567461 641.09578662 191.29486833 643.59936523 192.12939453 C643.59936523 193.11939453 643.59936523 194.10939453 643.59936523 195.12939453 C644.49655273 195.56251953 644.49655273 195.56251953 645.41186523 196.00439453 C647.59936523 197.12939453 647.59936523 197.12939453 650.59936523 199.12939453 C650.59936523 199.78939453 650.59936523 200.44939453 650.59936523 201.12939453 C651.25936523 201.12939453 651.91936523 201.12939453 652.59936523 201.12939453 C652.92936523 202.44939453 653.25936523 203.76939453 653.59936523 205.12939453 C654.25936523 205.12939453 654.91936523 205.12939453 655.59936523 205.12939453 C659.54865855 211.91620532 660.7717763 218.27578539 661.84936523 226.00439453 C662.02209961 227.12458984 662.19483398 228.24478516 662.37280273 229.39892578 C665.12369849 248.1093834 665.12369849 248.1093834 659.59936523 257.25439453 C659.21780273 257.92470703 658.83624023 258.59501953 658.44311523 259.28564453 C657.51420516 260.91123717 656.55949085 262.52204138 655.59936523 264.12939453 C654.93936523 264.12939453 654.27936523 264.12939453 653.59936523 264.12939453 C653.33124023 264.76876953 653.06311523 265.40814453 652.78686523 266.06689453 C651.59936523 268.12939453 651.59936523 268.12939453 648.59936523 269.12939453 C648.33124023 269.72751953 648.06311523 270.32564453 647.78686523 270.94189453 C645.69112769 274.80246369 642.04836879 276.55113271 638.06420898 278.14111328 C633.39266182 279.47358389 628.71841682 280.1544845 623.91186523 280.81689453 C622.98180664 280.95933594 622.05174805 281.10177734 621.09350586 281.24853516 C611.95317674 282.52172029 603.37273328 282.05385055 594.59936523 279.12939453 C594.59936523 278.46939453 594.59936523 277.80939453 594.59936523 277.12939453 C593.89424805 276.88189453 593.18913086 276.63439453 592.46264648 276.37939453 C589.23049081 274.96835795 586.63607621 273.20432193 583.78686523 271.12939453 C582.81104492 270.42814453 581.83522461 269.72689453 580.82983398 269.00439453 C580.0937793 268.38564453 579.35772461 267.76689453 578.59936523 267.12939453 C578.59936523 266.46939453 578.59936523 265.80939453 578.59936523 265.12939453 C577.93936523 265.12939453 577.27936523 265.12939453 576.59936523 265.12939453 C576.59936523 264.46939453 576.59936523 263.80939453 576.59936523 263.12939453 C575.89811523 262.90251953 575.19686523 262.67564453 574.47436523 262.44189453 C570.95946484 260.83726609 568.50188912 258.66910293 565.59936523 256.12939453 C564.17624023 255.04658203 564.17624023 255.04658203 562.72436523 253.94189453 C562.02311523 253.34376953 561.32186523 252.74564453 560.59936523 252.12939453 C560.59936523 251.46939453 560.59936523 250.80939453 560.59936523 250.12939453 C559.75374023 249.92314453 558.90811523 249.71689453 558.03686523 249.50439453 C554.29054073 248.00586473 552.04569616 246.1689201 549.11499023 243.46923828 C547.62171091 242.03334231 547.62171091 242.03334231 545.59936523 241.12939453 C545.59936523 240.46939453 545.59936523 239.80939453 545.59936523 239.12939453 C544.88006836 238.87287109 544.16077148 238.61634766 543.41967773 238.35205078 C540.43523375 237.05824058 538.09493086 235.48623847 535.47436523 233.56689453 C532.7643647 231.58587591 530.79551654 230.1947783 527.59936523 229.12939453 C527.59936523 228.46939453 527.59936523 227.80939453 527.59936523 227.12939453 C526.93936523 227.12939453 526.27936523 227.12939453 525.59936523 227.12939453 C525.59936523 226.46939453 525.59936523 225.80939453 525.59936523 225.12939453 C524.93936523 225.06751953 524.27936523 225.00564453 523.59936523 224.94189453 C519.47769774 223.82560958 515.94186022 221.79177887 512.59936523 219.12939453 C512.59936523 218.46939453 512.59936523 217.80939453 512.59936523 217.12939453 C511.75374023 216.90251953 510.90811523 216.67564453 510.03686523 216.44189453 C506.55872372 215.11387686 504.19732555 213.53435375 501.31030273 211.25048828 C499.63419976 210.00833382 499.63419976 210.00833382 497.51342773 209.66455078 C495.59936523 209.12939453 495.59936523 209.12939453 493.59936523 206.12939453 C491.75572012 204.9477847 491.75572012 204.9477847 489.66186523 204.00439453 C488.62739258 203.50552734 488.62739258 203.50552734 487.57202148 202.99658203 C485.45759345 202.03086341 485.45759345 202.03086341 482.59936523 201.12939453 C482.59936523 200.46939453 482.59936523 199.80939453 482.59936523 199.12939453 C478.14436523 197.64439453 478.14436523 197.64439453 473.59936523 196.12939453 C473.59936523 195.46939453 473.59936523 194.80939453 473.59936523 194.12939453 C472.79499023 193.88189453 471.99061523 193.63439453 471.16186523 193.37939453 C466.85612381 191.86860807 462.74572517 190.02750597 458.59936523 188.12939453 C458.59936523 187.46939453 458.59936523 186.80939453 458.59936523 186.12939453 C457.69186523 185.84064453 456.78436523 185.55189453 455.84936523 185.25439453 C453.27206594 184.36225247 451.02313059 183.34127721 448.59936523 182.12939453 C447.93936523 182.12939453 447.27936523 182.12939453 446.59936523 182.12939453 C446.59936523 181.46939453 446.59936523 180.80939453 446.59936523 180.12939453 C446.06569336 179.97083984 445.53202148 179.81228516 444.98217773 179.64892578 C439.74355903 178.00845868 435.00957112 175.90572389 430.13842773 173.38720703 C426.84861617 171.757485 423.474005 170.43289557 420.05639648 169.09814453 C414.46617236 166.89404981 409.4137858 164.74020995 404.59936523 161.12939453 C403.85686523 160.98630859 403.11436523 160.84322266 402.34936523 160.69580078 C399.28820157 160.06530542 396.71217 159.00403153 393.84936523 157.75439453 C390.23452037 156.21023191 386.65777344 154.75847517 382.91186523 153.56689453 C379.97581696 152.62840767 377.21059531 151.54572036 374.41186523 150.25439453 C369.41531911 147.96976087 364.2734981 146.1724239 359.09155273 144.35595703 C355.99827494 143.26950376 352.92294611 142.14501519 349.84936523 141.00439453 C343.01181731 138.51982043 336.10406033 136.51313969 329.06030273 134.69873047 C323.01352933 133.13584431 317.26759988 131.39085883 311.55249023 128.86376953 C309.47912553 127.95342257 309.47912553 127.95342257 306.59936523 128.12939453 C306.59936523 127.46939453 306.59936523 126.80939453 306.59936523 126.12939453 C305.44436523 126.04689453 304.28936523 125.96439453 303.09936523 125.87939453 C295.78290108 125.09255168 288.69760659 123.00193673 281.59936523 121.12939453 C281.59936523 120.46939453 281.59936523 119.80939453 281.59936523 119.12939453 C280.87749023 119.33564453 280.15561523 119.54189453 279.41186523 119.75439453 C276.01304194 120.20757097 274.74386744 119.45707324 271.59936523 118.12939453 C268.28319232 117.36922566 264.94596392 116.74023002 261.59936523 116.12939453 C261.59936523 115.46939453 261.59936523 114.80939453 261.59936523 114.12939453 C260.72538086 114.05591797 260.72538086 114.05591797 259.83374023 113.98095703 C251.33265858 113.20570116 242.96139746 111.83531003 234.59936523 110.12939453 C234.59936523 109.46939453 234.59936523 108.80939453 234.59936523 108.12939453 C233.88651367 108.06880859 233.17366211 108.00822266 232.43920898 107.94580078 C217.07134164 106.60137093 217.07134164 106.60137093 215.59936523 105.12939453 C213.93319408 105.08875621 212.26548429 105.08667353 210.59936523 105.12939453 C210.59936523 104.46939453 210.59936523 103.80939453 210.59936523 103.12939453 C207.62936523 103.62439453 207.62936523 103.62439453 204.59936523 104.12939453 C204.59936523 103.46939453 204.59936523 102.80939453 204.59936523 102.12939453 C203.93251709 102.08621094 203.26566895 102.04302734 202.57861328 101.99853516 C194.19961742 101.38449327 185.94774937 100.24868479 177.64990234 98.97265625 C175.3780855 98.62421352 173.1050471 98.28468693 170.83178711 97.94580078 C169.38574394 97.72627257 167.93977722 97.50624002 166.49389648 97.28564453 C165.19299072 97.08777344 163.89208496 96.88990234 162.55175781 96.68603516 C159.59936523 96.12939453 159.59936523 96.12939453 158.59936523 95.12939453 C156.6242665 94.91995844 154.64364841 94.76135631 152.66186523 94.62939453 C146.81944777 94.2394358 146.81944777 94.2394358 144.59936523 93.12939453 C142.66614485 92.91881682 140.72707737 92.76077528 138.78686523 92.62939453 C137.0350293 92.50371094 137.0350293 92.50371094 135.24780273 92.37548828 C132.89916156 92.21706816 130.55021585 92.063069 128.20092773 91.91455078 C122.4162434 91.52295101 116.93900089 90.85585317 111.28295898 89.60205078 C106.78782119 88.81033073 102.25361073 88.62280698 97.70092773 88.37548828 C94.59936523 88.12939453 94.59936523 88.12939453 92.64233398 87.60205078 C88.35421532 86.60996214 83.80042348 87.12108621 79.42358398 87.19189453 C74.66288309 87.11408941 70.15017429 86.40854016 65.47436523 85.56689453 C62.6412293 85.06200905 62.6412293 85.06200905 59.91186523 85.12939453 C57.59936523 85.12939453 57.59936523 85.12939453 54.59936523 84.12939453 C50.84964488 84.05971332 47.11080678 84.13219745 43.36108398 84.19189453 C39.59936523 84.12939453 39.59936523 84.12939453 36.67358398 83.63330078 C32.66697604 82.97656327 28.77548926 83.0222635 24.72436523 83.06689453 C23.54874023 83.07366211 23.54874023 83.07366211 22.34936523 83.08056641 C20.43266509 83.0922536 18.51600475 83.11018545 16.59936523 83.12939453 C16.59936523 82.46939453 16.59936523 81.80939453 16.59936523 81.12939453 C15.70797852 81.23767578 15.70797852 81.23767578 14.79858398 81.34814453 C-0.38066014 83.04784216 -0.38066014 83.04784216 -6.62329102 81.62158203 C-10.75472312 80.88942951 -14.84021481 81.06597908 -19.02563477 81.12939453 C-20.72609154 81.15492692 -22.42662355 81.17595165 -24.12719727 81.19189453 C-25.24989014 81.20929688 -25.24989014 81.20929688 -26.39526367 81.22705078 C-28.40063477 81.12939453 -28.40063477 81.12939453 -31.40063477 80.12939453 C-33.93090542 80.29836085 -36.41456967 80.63953974 -38.92797852 80.97314453 C-41.39483801 81.12902823 -43.03372396 80.73290964 -45.40063477 80.12939453 C-47.60256213 80.257756 -47.60256213 80.257756 -49.83813477 80.62939453 C-53.36278741 81.08788593 -55.91686586 80.82614831 -59.40063477 80.12939453 C-61.78751005 80.32692904 -64.14018254 80.62787169 -66.51000977 80.97314453 C-67.13391602 81.02470703 -67.75782227 81.07626953 -68.40063477 81.12939453 C-68.73063477 80.79939453 -69.06063477 80.46939453 -69.40063477 80.12939453 C-71.57056839 80.24605763 -73.73744066 80.42248031 -75.90063477 80.62939453 C-78.06382887 80.83630875 -80.23070114 81.01273143 -82.40063477 81.12939453 C-82.73063477 80.79939453 -83.06063477 80.46939453 -83.40063477 80.12939453 C-86.90637576 80.31294118 -90.38943732 80.65137636 -93.88500977 80.97314453 C-97.0357123 81.11317576 -99.35503827 80.77481896 -102.40063477 80.12939453 C-104.90681445 80.25501164 -104.90681445 80.25501164 -107.40063477 80.62939453 C-111.06128008 81.06196709 -113.79470575 80.90905486 -117.40063477 80.12939453 C-118.98080629 80.36473923 -120.56046011 80.60507649 -122.13500977 80.87548828 C-125.13164341 81.21131791 -128.07334112 81.15927685 -131.08813477 81.12939453 C-136.78028121 81.07466235 -142.31850506 81.38832213 -147.97485352 82.00830078 C-150.40063477 82.12939453 -150.40063477 82.12939453 -153.40063477 81.12939453 C-156.27485833 81.38121472 -159.10482693 81.69388275 -161.96313477 82.06689453 C-167.61577179 82.75245081 -173.0949279 83.27456217 -178.79516602 83.13720703 C-188.2435281 83.10887611 -197.7737986 84.13481169 -207.18579102 84.87939453 C-210.61054525 85.14571807 -214.03645426 85.38918911 -217.46313477 85.62939453 C-229.00407237 86.42464728 -229.00407237 86.42464728 -240.50610352 87.63720703 C-241.23273193 87.7281665 -241.95936035 87.81912598 -242.70800781 87.9128418 C-244.11011296 88.09128587 -245.51143646 88.27605866 -246.91162109 88.46899414 C-250.82085585 88.96833688 -254.54667393 89.11966289 -258.48657227 89.00048828 C-268.56668951 88.91688541 -278.56787336 90.72879058 -288.52563477 92.12939453 C-291.63402347 92.55916556 -294.74271031 92.98670318 -297.85153198 93.41333008 C-299.77497121 93.67808251 -301.69810089 93.94509576 -303.62088013 94.21459961 C-304.4829306 94.33472412 -305.34498108 94.45484863 -306.2331543 94.57861328 C-306.99193878 94.68520264 -307.75072327 94.79179199 -308.53250122 94.90161133 C-310.40063477 95.12939453 -310.40063477 95.12939453 -312.40063477 95.12939453 C-312.40063477 94.46939453 -312.40063477 93.80939453 -312.40063477 93.12939453 C-313.37417404 93.30956619 -314.34771332 93.48973785 -315.35075378 93.67536926 C-327.28097687 95.8499942 -339.25387246 97.59728829 -351.26391602 99.26611328 C-353.31514567 99.55310127 -355.36634859 99.84028039 -357.41752625 100.12763977 C-361.67716769 100.72369631 -365.93710074 101.31760865 -370.19726562 101.90991211 C-375.6573562 102.66920403 -381.11669403 103.43376463 -386.57583332 104.19986248 C-390.79365806 104.79121771 -395.01184704 105.37993966 -399.23015404 105.96784401 C-401.24491567 106.24894276 -403.25956656 106.53083639 -405.27410316 106.81354332 C-408.07543846 107.20624191 -410.87724071 107.59541922 -413.67919922 107.98364258 C-414.50772903 108.10048904 -415.33625885 108.21733551 -416.18989563 108.33772278 C-419.64085179 108.81256612 -422.9095321 109.12939453 -426.40063477 109.12939453 C-426.40063477 109.78939453 -426.40063477 110.44939453 -426.40063477 111.12939453 C-430.55888562 111.80657106 -434.71742731 112.4819271 -438.8762207 113.15576172 C-440.28417501 113.3841305 -441.69205555 113.6129546 -443.09985352 113.84228516 C-450.38960703 115.02947359 -457.68274035 116.19584964 -464.98657227 117.29345703 C-466.59218018 117.53636475 -466.59218018 117.53636475 -468.23022461 117.78417969 C-471.64300258 118.15578511 -474.97035708 118.18722338 -478.40063477 118.12939453 C-478.40063477 118.78939453 -478.40063477 119.44939453 -478.40063477 120.12939453 C-484.77098832 121.6108721 -491.11977922 122.7946688 -497.58813477 123.75439453 C-498.45116211 123.88845703 -499.31418945 124.02251953 -500.20336914 124.16064453 C-504.64607477 124.82688042 -508.89289332 125.29170273 -513.40063477 125.12939453 C-513.40063477 125.78939453 -513.40063477 126.44939453 -513.40063477 127.12939453 C-514.51180664 127.32275391 -515.62297852 127.51611328 -516.76782227 127.71533203 C-521.31403027 128.50924421 -525.85786432 129.31606009 -530.40063477 130.12939453 C-531.4615332 130.31888672 -532.52243164 130.50837891 -533.61547852 130.70361328 C-534.47270508 130.86474609 -535.32993164 131.02587891 -536.21313477 131.19189453 C-536.94145508 131.32724609 -537.66977539 131.46259766 -538.42016602 131.60205078 C-540.43494024 132.05721979 -540.43494024 132.05721979 -542.23535156 133.11352539 C-544.56670113 134.2073066 -546.47807944 134.58079005 -549.02563477 134.91064453 C-549.89704102 135.03052734 -550.76844727 135.15041016 -551.66625977 135.27392578 C-553.48917643 135.51090495 -555.3120931 135.74788411 -557.13500977 135.98486328 C-558.00641602 136.10474609 -558.87782227 136.22462891 -559.77563477 136.34814453 C-560.96286133 136.50186523 -560.96286133 136.50186523 -562.17407227 136.65869141 C-564.52332132 137.1553309 -566.28775841 138.01021267 -568.40063477 139.12939453 C-574.37918373 140.61258738 -580.24954678 141.40277622 -586.40063477 141.12939453 C-586.73063477 142.11939453 -587.06063477 143.10939453 -587.40063477 144.12939453 C-588.66520508 144.32275391 -589.92977539 144.51611328 -591.23266602 144.71533203 C-592.89288362 144.97796532 -594.55303658 145.24100748 -596.21313477 145.50439453 C-597.04651367 145.63072266 -597.87989258 145.75705078 -598.73852539 145.88720703 C-599.5409668 146.01611328 -600.3434082 146.14501953 -601.17016602 146.27783203 C-601.90855713 146.39304199 -602.64694824 146.50825195 -603.40771484 146.62695312 C-605.69831088 147.08628819 -605.69831088 147.08628819 -608.40063477 149.12939453 C-610.64025126 149.50922899 -612.89331735 149.81258302 -615.15063477 150.06689453 C-620.45597082 150.75582876 -624.50881133 151.95525078 -629.40063477 154.12939453 C-632.50198668 154.7195468 -635.59962819 155.18509797 -638.72875977 155.60205078 C-641.61251671 155.99397339 -641.61251671 155.99397339 -644.40063477 158.12939453 C-646.36773643 158.52779487 -648.35005587 158.85415988 -650.33813477 159.12939453 C-654.17646125 159.66209907 -656.97284948 160.39174496 -660.40063477 162.12939453 C-663.23707024 162.71456174 -666.07603878 163.13696189 -668.93969727 163.56689453 C-671.56268351 163.93693119 -671.56268351 163.93693119 -673.40063477 166.12939453 C-676.43969727 166.54345703 -676.43969727 166.54345703 -680.02563477 166.75439453 C-681.8084082 166.86654297 -681.8084082 166.86654297 -683.62719727 166.98095703 C-685.00004883 167.05443359 -685.00004883 167.05443359 -686.40063477 167.12939453 C-686.73063477 168.11939453 -687.06063477 169.10939453 -687.40063477 170.12939453 C-691.69063477 170.45939453 -695.98063477 170.78939453 -700.40063477 171.12939453 C-700.40063477 171.78939453 -700.40063477 172.44939453 -700.40063477 173.12939453 C-704.9376497 174.58123931 -708.58124953 175.36448649 -713.40063477 175.12939453 C-713.73063477 176.11939453 -714.06063477 177.10939453 -714.40063477 178.12939453 C-719.02063477 178.45939453 -723.64063477 178.78939453 -728.40063477 179.12939453 C-728.40063477 177.47939453 -728.40063477 175.82939453 -728.40063477 174.12939453 C-726.48913809 173.11954723 -724.57121907 172.12184958 -722.65063477 171.12939453 C-721.58329102 170.57251953 -720.51594727 170.01564453 -719.41625977 169.44189453 C-716.40063477 168.12939453 -716.40063477 168.12939453 -712.40063477 168.12939453 C-712.40063477 167.46939453 -712.40063477 166.80939453 -712.40063477 166.12939453 C-711.69036133 165.86384766 -710.98008789 165.59830078 -710.24829102 165.32470703 C-708.86963867 164.79490234 -708.86963867 164.79490234 -707.46313477 164.25439453 C-706.08834961 163.73232422 -706.08834961 163.73232422 -704.68579102 163.19970703 C-702.25122421 162.34748593 -702.25122421 162.34748593 -701.40063477 160.12939453 C-699.40555409 159.44814747 -697.40424784 158.78512245 -695.40063477 158.12939453 C-693.35136018 157.10672391 -691.33686633 156.03808419 -689.33032227 154.93408203 C-687.40063477 154.12939453 -687.40063477 154.12939453 -683.40063477 154.12939453 C-683.40063477 153.46939453 -683.40063477 152.80939453 -683.40063477 152.12939453 C-681.42063477 151.79939453 -679.44063477 151.46939453 -677.40063477 151.12939453 C-677.40063477 150.46939453 -677.40063477 149.80939453 -677.40063477 149.12939453 C-676.16313477 148.75814453 -674.92563477 148.38689453 -673.65063477 148.00439453 C-669.74316129 146.71211098 -666.18227659 145.07749965 -662.52563477 143.19189453 C-657.71062082 140.71049988 -652.90211435 138.72811082 -647.77563477 136.98876953 C-645.53966662 136.17970211 -643.5150564 135.2099106 -641.40063477 134.12939453 C-640.01124309 133.55116644 -638.6146454 132.99009604 -637.21313477 132.44189453 C-626.52671935 128.20855193 -615.86184411 123.89574435 -605.40063477 119.12939453 C-600.44874803 116.87399738 -595.58246491 114.81348933 -590.40063477 113.12939453 C-590.07063477 112.79939453 -589.74063477 112.46939453 -589.40063477 112.12939453 C-587.06766043 112.08846516 -584.73358252 112.0869773 -582.40063477 112.12939453 C-582.07063477 111.13939453 -581.74063477 110.14939453 -581.40063477 109.12939453 C-578.21313477 108.06689453 -578.21313477 108.06689453 -574.40063477 107.12939453 C-573.34875977 106.75814453 -572.29688477 106.38689453 -571.21313477 106.00439453 C-568.40063477 105.12939453 -568.40063477 105.12939453 -564.40063477 105.12939453 C-564.40063477 104.46939453 -564.40063477 103.80939453 -564.40063477 103.12939453 C-559.90063477 101.62939453 -555.40063477 100.12939453 -550.90063477 98.62939453 C-550.16329102 98.38318359 -549.42594727 98.13697266 -548.66625977 97.88330078 C-547.11520638 97.3671744 -545.5630647 96.85431025 -544.01000977 96.34423828 C-540.83463817 95.29804797 -537.72196857 94.26815231 -534.65063477 92.94189453 C-532.10916353 92.02414103 -530.08239694 91.97615098 -527.40063477 92.12939453 C-527.40063477 91.46939453 -527.40063477 90.80939453 -527.40063477 90.12939453 C-521.18374036 88.2279149 -514.95630105 86.46086176 -508.65063477 84.87548828 C-506.23255193 84.26038591 -506.23255193 84.26038591 -504.40063477 82.12939453 C-502.41235352 81.56689453 -502.41235352 81.56689453 -500.08813477 81.12939453 C-497.44570361 80.59837966 -495.26373189 80.07072187 -492.77563477 79.00439453 C-489.59872614 77.83395451 -486.75487515 77.99785569 -483.40063477 78.12939453 C-483.40063477 77.46939453 -483.40063477 76.80939453 -483.40063477 76.12939453 C-482.63879883 75.94763672 -481.87696289 75.76587891 -481.09204102 75.57861328 C-475.59808692 74.24113382 -470.22056559 72.80342784 -464.88110352 70.94580078 C-461.72610019 69.90738236 -458.53694055 69.02342845 -455.33813477 68.12939453 C-451.55065255 67.06695305 -447.85608798 65.98856066 -444.21313477 64.50439453 C-440.25283945 62.92539748 -436.21617568 62.29528714 -432.01391602 61.65673828 C-429.37328471 61.20564479 -429.37328471 61.20564479 -426.90063477 60.12939453 C-424.26973041 59.07703279 -421.88471846 58.61684574 -419.08813477 58.19189453 C-415.6784191 57.61374515 -412.59969446 56.94199841 -409.40063477 55.62939453 C-405.35365357 53.97569996 -401.28504393 53.30870675 -396.98657227 52.59033203 C-393.70936466 52.0061772 -390.58978069 51.08054332 -387.40063477 50.12939453 C-384.46491661 49.37400506 -381.52330022 48.64502765 -378.58032227 47.91845703 C-376.4997574 47.40214978 -374.42149048 46.87646979 -372.34594727 46.34033203 C-366.4198613 44.81648136 -360.52294737 43.54419229 -354.48266602 42.55908203 C-352.42033787 42.33229519 -352.42033787 42.33229519 -351.40063477 41.12939453 C-349.90372074 40.83265684 -348.39570004 40.59140434 -346.88500977 40.37548828 C-345.96333008 40.24335937 -345.04165039 40.11123047 -344.09204102 39.97509766 C-342.63604492 39.77303711 -342.63604492 39.77303711 -341.15063477 39.56689453 C-340.19543945 39.42832031 -339.24024414 39.28974609 -338.25610352 39.14697266 C-333.92486605 38.53553927 -329.7827119 38.05152794 -325.40063477 38.12939453 C-325.40063477 37.46939453 -325.40063477 36.80939453 -325.40063477 36.12939453 C-315.5553543 34.16590861 -305.71522264 32.52832542 -295.76123047 31.2199707 C-294.92035889 31.1062915 -294.0794873 30.9926123 -293.21313477 30.87548828 C-292.47708008 30.77937256 -291.74102539 30.68325684 -290.98266602 30.58422852 C-288.24827317 30.14215268 -288.24827317 30.14215268 -285.02323914 29.21743774 C-279.36923955 27.79534079 -273.62634493 27.06143703 -267.85693359 26.26586914 C-266.61843658 26.09161911 -265.37993958 25.91736908 -264.10391235 25.73783875 C-260.72595864 25.26357949 -257.34751161 24.79319449 -253.9687407 24.32481456 C-250.41504412 23.83146197 -246.86195155 23.33379292 -243.3087616 22.83680725 C-237.33843028 22.00245151 -231.36760675 21.17169177 -225.39648438 20.34301758 C-218.52375465 19.38916727 -211.65187475 18.42937405 -204.78041631 17.46641153 C-198.13879078 16.53582517 -191.49653784 15.60978996 -184.85400963 14.68567085 C-182.04275154 14.29446898 -179.23172345 13.90167229 -176.42087746 13.50752068 C-172.47832101 12.95490011 -168.53487034 12.40892582 -164.59130859 11.86352539 C-163.44437027 11.70194946 -162.29743195 11.54037354 -161.11573792 11.37390137 C-154.52781018 10.46911416 -147.9653497 9.80488995 -141.32996655 9.36080265 C-136.65320166 8.99135274 -132.03689188 8.2685688 -127.40063477 7.56689453 C-120.34917314 6.54590351 -113.6156546 5.94188412 -106.47875977 6.15673828 C-101.65359862 6.11387517 -96.95884633 5.32893009 -92.20141602 4.56689453 C-89.28511794 4.23120554 -86.67850093 4.10287695 -83.76586914 4.14306641 C-78.73285485 4.1641929 -73.77097547 3.87296229 -68.75610352 3.47314453 C-66.92474029 3.3361985 -65.09335946 3.19948765 -63.26196289 3.06298828 C-60.4434288 2.84881174 -57.62512356 2.63229752 -54.80712891 2.41113281 C-43.63491371 1.54072439 -32.56460459 0.95686923 -21.35404968 1.14074707 C-20.13827995 1.15736389 -20.13827995 1.15736389 -18.89794922 1.17431641 C-17.84508476 1.19649231 -17.84508476 1.19649231 -16.77095032 1.21911621 C-14.23284673 1.16653413 -14.23284673 1.16653413 -11.08209229 0.63467407 C-7.33719256 0.1206871 -3.7784874 0.00237979 0 0 Z " fill="#028AFE" transform="translate(1922.400634765625,1216.87060546875)"/>
<path d="M0 0 C0 0.66 0 1.32 0 2 C1.10794922 2.39832031 1.10794922 2.39832031 2.23828125 2.8046875 C4.96750819 3.98593707 6.88245498 5.2653952 9.1875 7.125 C9.96222656 7.74503906 10.73695313 8.36507813 11.53515625 9.00390625 C12.75525391 9.99197266 12.75525391 9.99197266 14 11 C14.84433594 11.66902344 15.68867187 12.33804687 16.55859375 13.02734375 C20.42172207 16.09079863 24.23595667 19.18014187 27.9375 22.4375 C30.77283744 25.12775961 30.77283744 25.12775961 34 26 C34.433125 26.61875 34.86625 27.2375 35.3125 27.875 C37.49469597 30.62295049 39.86113556 31.46134096 43 33 C44.44784706 34.19003954 45.8936271 35.3828583 47.32055664 36.59790039 C50.22476042 39.02250314 53.2653245 41.25947567 56.3125 43.5 C56.96895508 43.98339844 57.62541016 44.46679688 58.30175781 44.96484375 C62.46428032 47.98989703 66.64621612 50.70820024 71.265625 53 C73.18142409 54.10460488 74.45042676 55.43389798 76 57 C77.97620986 58.04622875 79.9737129 59.05439935 82 60 C82 60.66 82 61.32 82 62 C82.845625 62.226875 83.69125 62.45375 84.5625 62.6875 C87.98014875 63.99242043 90.24084837 65.51994609 93.12109375 67.69140625 C96.22816882 69.85537746 99.58273415 71.38129512 103 73 C103 73.66 103 74.32 103 75 C105.97 75.99 108.94 76.98 112 78 C112 78.66 112 79.32 112 80 C112.886875 80.28875 113.77375 80.5775 114.6875 80.875 C117.50382424 81.83148748 120.25083156 82.86798946 123 84 C123 84.66 123 85.32 123 86 C123.54140625 86.11214844 124.0828125 86.22429687 124.640625 86.33984375 C127.50028221 87.13997963 130.05743708 88.3123815 132.75 89.5625 C133.73484375 90.01753906 134.7196875 90.47257812 135.734375 90.94140625 C136.48203125 91.29074219 137.2296875 91.64007812 138 92 C138 92.66 138 93.32 138 94 C138.804375 94.185625 138.804375 94.185625 139.625 94.375 C142.4638286 95.12206016 145.22223202 96.05303364 148 97 C148 97.66 148 98.32 148 99 C150.97 99.495 150.97 99.495 154 100 C154 100.66 154 101.32 154 102 C155.175625 102.0928125 155.175625 102.0928125 156.375 102.1875 C160.45700058 103.10243116 163.6091193 104.68904861 167.30078125 106.609375 C177.22359015 111.72156019 187.63990729 115.86918154 198 120 C198.79019531 120.31839844 199.58039063 120.63679688 200.39453125 120.96484375 C206.43437646 123.39444223 212.49087441 125.75196277 218.625 127.93359375 C222.8955633 129.45794759 227.08731708 130.99695541 231.1875 132.9375 C236.04122045 135.16285198 241.08401561 136.65522895 246.18164062 138.20800781 C251.77312895 139.91195425 257.20700729 141.77380808 262.5625 144.125 C265.67068868 145.24076004 268.73165716 145.54919409 272 146 C274.36189561 146.59392697 276.66996839 147.28672502 279 148 C279 148.66 279 149.32 279 150 C280.7634375 150.185625 280.7634375 150.185625 282.5625 150.375 C286.52681752 150.87487892 290.17648218 151.81339102 294 153 C300.29433691 154.95124444 306.55147612 156.64479358 313 158 C315.32898133 158.51839846 317.65685415 159.04149333 319.984375 159.56640625 C321.64693367 159.92404968 323.32254725 160.22042454 325 160.5 C325.66 160.665 326.32 160.83 327 161 C327.33 161.66 327.66 162.32 328 163 C330.18726266 163.43213009 330.18726266 163.43213009 332.75 163.5625 C336.23832531 163.84236564 339.5838437 164.20289686 343 165 C343 165.66 343 166.32 343 167 C343.72445313 167.06058594 344.44890625 167.12117188 345.1953125 167.18359375 C350.17116533 167.61483433 355.08680391 168.07047641 360 169 C360 169.66 360 170.32 360 171 C361.65 170.67 363.3 170.34 365 170 C365 170.66 365 171.32 365 172 C366.98 171.67 368.96 171.34 371 171 C371 171.66 371 172.32 371 173 C371.72703125 173.04898437 372.4540625 173.09796875 373.203125 173.1484375 C392.10843373 174.55421687 392.10843373 174.55421687 397 177 C399.3966165 177.27602713 401.79333314 177.44523586 404.19921875 177.62109375 C407 178 407 178 410.08398438 178.93383789 C414.48323875 180.21400625 418.9239642 180.82463164 423.45703125 181.4375 C424.35886642 181.56310303 425.2607016 181.68870605 426.18986511 181.81811523 C428.09654399 182.08262322 430.0035612 182.34470242 431.91088867 182.60449219 C434.76627456 182.99369918 437.62048988 183.39068683 440.47460938 183.7890625 C451.29349765 185.28806403 462.11851157 186.63196191 472.97964478 187.78436279 C476.10606385 188.11805276 479.23061372 188.46841734 482.35546875 188.81640625 C498.80636479 190.63142686 498.80636479 190.63142686 515.3125 191.7890625 C518 192 518 192 519.89453125 192.5234375 C523.1350058 193.25690298 526.38501401 193.06284464 529.6875 193 C532.13175518 192.95427025 534.55426954 192.95279652 537 193 C537.33 193.33 537.66 193.66 538 194 C539.9649542 194 541.93046179 193.99645893 543.89453125 193.9375 C546 194 546 194 547.76953125 194.5 C551.76560766 195.39579296 555.90373375 195.03657266 559.98046875 194.9609375 C562.99683507 194.92685426 565.8521155 194.97458056 568.8293457 195.48632812 C572.14378647 196.02329458 575.32036468 196.19171507 578.67578125 196.28125 C579.91521484 196.31863281 581.15464844 196.35601563 582.43164062 196.39453125 C585.0383971 196.46537415 587.64516825 196.53567877 590.25195312 196.60546875 C591.48494141 196.64285156 592.71792969 196.68023438 593.98828125 196.71875 C595.11790283 196.74904297 596.24752441 196.77933594 597.41137695 196.81054688 C600 197 600 197 601 198 C603.50154753 197.81773788 605.97005798 197.47951979 608.45703125 197.15625 C611 197 611 197 612.86547852 197.48632812 C615.225454 198.05425543 617.27027136 198.09748356 619.6953125 198.0625 C620.57574219 198.05476563 621.45617188 198.04703125 622.36328125 198.0390625 C623.27464844 198.02617188 624.18601562 198.01328125 625.125 198 C626.94004522 197.97454355 628.75515923 197.95349254 630.5703125 197.9375 C631.37227051 197.92589844 632.17422852 197.91429687 633.00048828 197.90234375 C635 198 635 198 637 199 C639.80662034 198.82431172 642.57838758 198.4834912 645.37109375 198.15625 C648 198 648 198 651 199 C652.83756229 198.88930348 654.67185004 198.71623279 656.5 198.5 C659.91102583 198.09654533 661.70536263 197.90178754 665 199 C667.00384246 198.88867542 669.0046372 198.71518618 671 198.5 C676.66666667 197.88888889 676.66666667 197.88888889 680 199 C682.02464904 198.88890815 684.04629847 198.71558413 686.0625 198.5 C691.78021978 197.89010989 691.78021978 197.89010989 694 199 C696.39148479 198.93439817 698.74187231 198.80645927 701.125 198.625 C701.82915039 198.57682129 702.53330078 198.52864258 703.25878906 198.47900391 C706.25819477 198.27350139 709.25656486 198.05473537 712.25488281 197.83398438 C714.41960085 197.67603132 716.58474529 197.52538587 718.75 197.375 C720.69132812 197.23191406 720.69132812 197.23191406 722.671875 197.0859375 C726 197 726 197 727.97265625 197.5390625 C731.24513626 198.28309456 734.41929007 197.52241605 737.6875 197 C740.12597081 196.61677914 742.54630825 196.28414283 745 196 C745.33 196.33 745.66 196.66 746 197 C747.41145274 197.02892013 748.8244934 196.98665103 750.234375 196.9140625 C751.11246826 196.87087891 751.99056152 196.82769531 752.89526367 196.78320312 C753.83732666 196.73099609 754.77938965 196.67878906 755.75 196.625 C756.70559814 196.57537109 757.66119629 196.52574219 758.64575195 196.47460938 C768.41909828 195.9527036 778.16427301 195.29821888 787.87890625 194.0859375 C790 194 790 194 791.80249023 194.53173828 C794.49559852 195.10560582 796.56036692 194.81352203 799.28125 194.40625 C800.28800781 194.26316406 801.29476562 194.12007812 802.33203125 193.97265625 C803.90017578 193.73869141 803.90017578 193.73869141 805.5 193.5 C807.57187883 193.19087874 809.64477989 192.888514 811.71875 192.59375 C812.63591797 192.45646484 813.55308594 192.31917969 814.49804688 192.17773438 C817 192 817 192 818.87695312 192.51367188 C822.10839012 193.25389985 824.97988306 192.64023531 828.25 192.1875 C828.94512695 192.0949292 829.64025391 192.0023584 830.35644531 191.90698242 C832.57199276 191.61175849 834.78606431 191.30706325 837 191 C839.91559108 190.59562019 842.83226306 190.20105815 845.75 189.8125 C847.04421875 189.63332031 848.3384375 189.45414063 849.671875 189.26953125 C853 189 853 189 854.94007874 189.51048279 C857.27929168 190.06637054 858.91484033 189.91458883 861.28686523 189.56274414 C862.54484169 189.38244408 862.54484169 189.38244408 863.82823181 189.19850159 C864.72925125 189.06209763 865.63027069 188.92569366 866.55859375 188.78515625 C868.49153217 188.50843355 870.42447502 188.23174187 872.35742188 187.95507812 C875.38539924 187.5121202 878.41291006 187.06613681 881.44018555 186.6184082 C884.374435 186.18717742 887.31014216 185.76711797 890.24609375 185.34765625 C891.12889511 185.21327652 892.01169647 185.07889679 892.92124939 184.94044495 C897.56091984 184.28035256 901.96226034 183.97893868 906.64794922 184.11645508 C917.31344328 184.22253588 927.85560943 182.30063586 938.38671875 180.7890625 C940.73981687 180.45700587 943.09299311 180.12550244 945.44624329 179.79452515 C950.35132038 179.10255864 955.25543197 178.40419958 960.15893555 177.70117188 C966.45337323 176.79921846 972.74991756 175.91306384 979.04724407 175.03153419 C983.89409977 174.3513714 988.73978842 173.66317861 993.58515358 172.97248459 C995.90812434 172.6423066 998.23144837 172.31460444 1000.55512047 171.98939896 C1003.78756678 171.53574264 1007.01829064 171.07136868 1010.2487793 170.60400391 C1011.21234344 170.47093338 1012.17590759 170.33786285 1013.16867065 170.20075989 C1014.04453323 170.07179825 1014.92039581 169.94283661 1015.82279968 169.80996704 C1016.58575191 169.70119547 1017.34870413 169.5924239 1018.13477612 169.48035622 C1020.22951773 169.10942525 1020.22951773 169.10942525 1022 167 C1024.04258728 166.4937439 1024.04258728 166.4937439 1026.58569336 166.13037109 C1027.53685532 165.99037689 1028.48801727 165.85038269 1029.46800232 165.70614624 C1030.49820999 165.56335236 1031.52841766 165.42055847 1032.58984375 165.2734375 C1034.17304161 165.04462387 1034.17304161 165.04462387 1035.78822327 164.81118774 C1038.02289267 164.48970946 1040.25813935 164.17222269 1042.49389648 163.85839844 C1045.92097936 163.3773191 1049.34631213 162.88510669 1052.77148438 162.390625 C1054.94001112 162.08007876 1057.10862811 161.77016185 1059.27734375 161.4609375 C1060.30552719 161.31409515 1061.33371063 161.16725281 1062.39305115 161.01596069 C1063.34736526 160.88227081 1064.30167938 160.74858093 1065.28491211 160.61083984 C1066.54494301 160.43335709 1066.54494301 160.43335709 1067.83042908 160.25228882 C1070 160 1070 160 1073 160 C1073 159.34 1073 158.68 1073 158 C1073.95366455 157.85900879 1074.9073291 157.71801758 1075.88989258 157.57275391 C1079.43012219 157.04732325 1082.96879313 156.51197712 1086.50708008 155.97363281 C1088.03824869 155.74208471 1089.56982597 155.51322234 1091.10180664 155.28710938 C1093.30468062 154.96149818 1095.50590092 154.62623436 1097.70703125 154.2890625 C1098.73374687 154.14049301 1098.73374687 154.14049301 1099.78120422 153.98892212 C1103.17369468 153.45945814 1105.08822437 152.94118376 1108 151 C1109.95592067 150.59184483 1111.93035454 150.2694467 1113.91015625 150 C1115.06451172 149.835 1116.21886719 149.67 1117.40820312 149.5 C1119.84823556 149.16614201 1122.28834007 148.83281031 1124.72851562 148.5 C1125.88158203 148.335 1127.03464844 148.17 1128.22265625 148 C1129.81219116 147.7834375 1129.81219116 147.7834375 1131.43383789 147.5625 C1134.15086653 147.20867041 1134.15086653 147.20867041 1136 145 C1138.04370117 144.54516602 1138.04370117 144.54516602 1140.54296875 144.25390625 C1141.45240234 144.13853516 1142.36183594 144.02316406 1143.29882812 143.90429688 C1145.20489263 143.67876524 1147.11114009 143.45477386 1149.01757812 143.23242188 C1154.54684962 142.52813043 1158.87516595 141.28564027 1164 139 C1166.85176232 138.31722196 1169.72597861 137.87030443 1172.625 137.4375 C1177.39488897 136.70784041 1181.5134268 135.82244164 1186 134 C1189.37082555 133.41868398 1192.74365649 132.99287709 1196.13671875 132.5625 C1199.11867215 132.25301899 1199.11867215 132.25301899 1201 130 C1203.77758029 129.41952345 1206.51126561 128.92591868 1209.3125 128.5 C1214.13881921 127.75497023 1218.50903276 127.01635264 1223 125 C1227.03285528 123.93872229 1230.84107959 123.91845254 1235 124 C1235.33 123.01 1235.66 122.02 1236 121 C1237.28583984 120.83564453 1237.28583984 120.83564453 1238.59765625 120.66796875 C1244.92628222 119.79038026 1250.15577111 118.64644327 1256 116 C1258.54684271 115.42298095 1261.0918096 114.95332282 1263.66796875 114.52734375 C1266.00184648 114.10003178 1266.00184648 114.10003178 1267.95703125 113.00390625 C1271.24603454 111.38770387 1274.74839224 111.11563196 1278.34375 110.5625 C1280.9035643 110.02042168 1282.68758358 109.17456072 1285 108 C1287.5100662 107.42075395 1290.02366856 106.99595903 1292.5625 106.5625 C1294.98777553 106.00282103 1296.79383567 105.12281922 1299 104 C1300.46832429 103.62175546 1301.9490217 103.28892473 1303.4375 103 C1305.97468859 102.47606024 1308.10765794 101.95424537 1310.5 100.9375 C1314.23122208 99.53829172 1318.0480133 99.32717973 1322 99 C1322.33 100.65 1322.66 102.3 1323 104 C1319.79663178 106.83374881 1317.21912747 107.5205537 1313 108 C1313 108.66 1313 109.32 1313 110 C1312.030625 110.309375 1311.06125 110.61875 1310.0625 110.9375 C1307.15934208 111.69523342 1307.15934208 111.69523342 1306 113 C1304.33382885 113.04063832 1302.66611905 113.042721 1301 113 C1300.67 113.99 1300.34 114.98 1300 116 C1298.35 116 1296.7 116 1295 116 C1295 116.66 1295 117.32 1295 118 C1293.73308493 118.67408308 1292.46129251 119.33900497 1291.1875 120 C1290.47980469 120.37125 1289.77210937 120.7425 1289.04296875 121.125 C1287 122 1287 122 1284 122 C1284 122.66 1284 123.32 1284 124 C1281.69 124.33 1279.38 124.66 1277 125 C1277 125.66 1277 126.32 1277 127 C1275.02 127.33 1273.04 127.66 1271 128 C1271 128.66 1271 129.32 1271 130 C1269.865625 130.309375 1268.73125 130.61875 1267.5625 130.9375 C1264.21224901 131.62924531 1264.21224901 131.62924531 1263 133 C1261.33382885 133.04063832 1259.66611905 133.042721 1258 133 C1258 133.66 1258 134.32 1258 135 C1255.69 135.33 1253.38 135.66 1251 136 C1250.67 136.99 1250.34 137.98 1250 139 C1248.35 139 1246.7 139 1245 139 C1245 139.66 1245 140.32 1245 141 C1243.824375 141.433125 1242.64875 141.86625 1241.4375 142.3125 C1234.75331079 144.41530552 1234.75331079 144.41530552 1229 148 C1227.00041636 148.04080783 1224.99954746 148.04254356 1223 148 C1222.67 148.99 1222.34 149.98 1222 151 C1218.8125 152.0625 1218.8125 152.0625 1215 153 C1211.72435637 153.92414941 1211.72435637 153.92414941 1209 155 C1208.67 155.66 1208.34 156.32 1208 157 C1206.36469422 157.47696419 1204.72669068 157.94610486 1203.078125 158.375 C1200.86197618 159.04151092 1198.8515247 159.9073915 1196.75 160.875 C1191.60734031 163.2309535 1186.33430535 165.12758392 1181 167 C1179.9275 167.391875 1178.855 167.78375 1177.75 168.1875 C1174.52205447 169.14121118 1171.33786128 169.59945665 1168 170 C1168 170.66 1168 171.32 1168 172 C1167.43410156 172.12117188 1166.86820313 172.24234375 1166.28515625 172.3671875 C1165.55167969 172.53476563 1164.81820313 172.70234375 1164.0625 172.875 C1163.33160156 173.03742188 1162.60070313 173.19984375 1161.84765625 173.3671875 C1159.79299706 173.82961523 1159.79299706 173.82961523 1159 176 C1157.28515625 176.4921875 1157.28515625 176.4921875 1155.0625 176.875 C1150.61225869 177.77069041 1146.66091438 179.24480858 1142.48046875 180.98828125 C1137.55171928 182.99859009 1132.50339903 184.58526923 1127.375 186 C1123.76718774 187.06898141 1120.44658771 188.49603445 1117 190 C1115 190.66666667 1113 191.33333333 1111 192 C1110.67 192.33 1110.34 192.66 1110 193 C1108.59123173 193.34637071 1107.17246146 193.65253669 1105.75 193.9375 C1102.30983573 194.67002709 1099.24645979 195.63306956 1096 197 C1094.41623224 197.46193226 1092.83175896 197.92173362 1091.2421875 198.36328125 C1088.19263001 199.22927057 1085.15885514 200.14304937 1082.125 201.0625 C1080.42730469 201.57490234 1080.42730469 201.57490234 1078.6953125 202.09765625 C1076.11146432 202.73985332 1076.11146432 202.73985332 1075 204 C1072.5578516 204.53817715 1070.10246222 204.96378293 1067.640625 205.40234375 C1064.93430466 206.01486892 1062.56749578 206.95858205 1060 208 C1058.23675349 208.46713882 1056.46494929 208.90270618 1054.6875 209.3125 C1049.65318745 210.53067933 1044.74147547 211.98333608 1039.8125 213.5625 C1035.51060632 214.94044241 1031.23776846 216.25819362 1026.8125 217.1875 C1023.17160444 217.84493279 1023.17160444 217.84493279 1020.5625 219 C1017.34805494 220.25441758 1014.13868927 220.79409486 1010.75390625 221.4296875 C1007.89657717 222.02141806 1005.11952753 222.76711118 1002.3125 223.5625 C999.25717938 224.42502731 996.47091876 225.07173983 993.3125 225.5 C990.04714301 225.99288407 987.35856603 227.0174423 984.30859375 228.2421875 C980.54114202 229.47888062 976.66171452 229.94350943 972.75 230.53515625 C969.69033364 231.05234417 966.92752146 231.98173167 964 233 C958.26492544 234.40254755 952.90360956 235.25667868 947 235 C947 235.66 947 236.32 947 237 C946.25838623 237.11069824 945.51677246 237.22139648 944.75268555 237.33544922 C941.3964022 237.84087714 938.04198797 238.35779628 934.6875 238.875 C933.52025391 239.04902344 932.35300781 239.22304687 931.15039062 239.40234375 C930.03212891 239.57636719 928.91386719 239.75039062 927.76171875 239.9296875 C926.73006592 240.08679199 925.69841309 240.24389648 924.63549805 240.40576172 C921.78844405 240.8824067 921.78844405 240.8824067 919 243 C916.06368819 243.57297919 913.16950781 244.05505576 910.2109375 244.47265625 C909.35190826 244.60063095 908.49287903 244.72860565 907.6078186 244.86045837 C904.86454443 245.2682887 902.11994406 245.66607744 899.375 246.0625 C896.62311679 246.46367642 893.87160391 246.8670226 891.12075806 247.2752533 C889.40865639 247.52897361 887.69591132 247.77839486 885.98251343 248.02320862 C882.17488848 248.27288355 882.17488848 248.27288355 879 250 C877.37980922 250.31219509 875.74838304 250.56629783 874.11457825 250.796875 C873.0564241 250.94825928 871.99826996 251.09964355 870.90805054 251.25561523 C869.73674591 251.41876221 868.56544128 251.58190918 867.35864258 251.75 C865.51947014 252.01115601 865.51947014 252.01115601 863.6431427 252.27758789 C860.26677291 252.75599911 856.88990735 253.23057097 853.51272416 253.70318604 C850.68792369 254.09901411 847.86350121 254.49750216 845.03907794 254.89601135 C838.36194701 255.83809557 831.68422459 256.77589978 825.00610352 257.7109375 C818.14426961 258.67175918 811.28336389 259.63900182 804.42291147 260.6096344 C798.52002732 261.44458978 792.61662186 262.27578342 786.71278685 263.10398865 C783.19314777 263.59774915 779.67370159 264.09278529 776.15473366 264.59130859 C772.21173788 265.14967027 768.26767867 265.70015424 764.32348633 266.25 C763.1784967 266.41314697 762.03350708 266.57629395 760.8538208 266.74438477 C753.91731596 267.7035247 747.00833981 268.35300487 740.01945877 268.7942791 C736.32026359 269.04631161 732.69840558 269.48893275 729.02734375 270.0078125 C727.6829703 270.1916082 726.33856849 270.37519653 724.99414062 270.55859375 C722.94657426 270.8431498 720.89944737 271.13040999 718.8527832 271.42138672 C716.82855169 271.7073341 714.80313404 271.9831595 712.77734375 272.2578125 C711.59390381 272.4242627 710.41046387 272.59071289 709.19116211 272.76220703 C706.14261684 272.98937275 703.95669748 272.63446114 701 272 C698.50250214 272.11312437 698.50250214 272.11312437 695.921875 272.5234375 C694.93815918 272.6570166 693.95444336 272.7905957 692.94091797 272.92822266 C691.88791504 273.07565918 690.83491211 273.2230957 689.75 273.375 C677.73474771 274.94588625 665.82424511 275.54544897 653.72167969 275.90283203 C649.97237459 276.03668774 646.24180909 276.28989315 642.5 276.5625 C638.03718834 276.88734071 633.6510056 277.03426382 629.1796875 276.96875 C626.73957906 277.00373363 624.36477327 277.24671931 621.9375 277.5 C614.50979765 278.19184291 607.08029479 278.05148258 599.62866211 277.96289062 C595.1855708 277.92552655 590.86103256 277.93145253 586.453125 278.53125 C582.9406208 279.00806052 580.46394696 278.57732449 577 278 C575.66253861 278.12943175 574.32854654 278.29870507 573 278.5 C570.35708491 278.8996847 568.75636544 278.95853029 566.0625 278.5 C563.20796154 278.0339529 561.32504703 278.12269823 558.5 278.5 C554.73304316 279.00226091 551.75574937 278.62595823 548 278 C545.72909971 278.19430163 543.49753491 278.49058276 541.24609375 278.84375 C539 279 539 279 536.79296875 278.53125 C532.8125999 277.77414488 528.91521004 277.93514912 524.875 278 C523.26829715 278.02554377 521.66151437 278.04656453 520.0546875 278.0625 C519.34812012 278.07410156 518.64155273 278.08570313 517.91357422 278.09765625 C516 278 516 278 513 277 C510.73884736 277.13174146 510.73884736 277.13174146 508.375 277.5 C506.92183224 277.70692356 505.46318863 277.88341126 504 278 C503.67 277.67 503.34 277.34 503 277 C500.91449709 276.8534634 498.82432866 276.77249983 496.734375 276.71875 C495.45175781 276.68136719 494.16914062 276.64398437 492.84765625 276.60546875 C491.48178389 276.56980885 490.11589816 276.5346576 488.75 276.5 C486.09875894 276.43201946 483.44789416 276.35820651 480.796875 276.28125 C479.61448242 276.25095703 478.43208984 276.22066406 477.21386719 276.18945312 C474.36569238 276.02155707 471.78098727 275.59808782 469 275 C468.113125 275 467.22625 275 466.3125 275 C464 275 464 275 462 274 C460.00978479 274.09723451 460.00978479 274.09723451 457.875 274.4375 C456.59625 274.623125 455.3175 274.80875 454 275 C454 274.34 454 273.68 454 273 C452.94941406 273.01160156 451.89882813 273.02320313 450.81640625 273.03515625 C432.53012341 273.1767078 432.53012341 273.1767078 426 271 C423.95846813 270.82298544 421.91325689 270.68729647 419.8671875 270.57421875 C411.56466681 270.02461527 403.36278244 268.95579629 395.125 267.8125 C393.53752685 267.59538168 391.95004288 267.37834245 390.36254883 267.16137695 C371.8824737 264.61927 353.4396576 261.81812258 335 259 C335 258.34 335 257.68 335 257 C334.319375 257.185625 333.63875 257.37125 332.9375 257.5625 C329.42767809 258.08523943 326.47811937 257.61378577 323 257 C323 256.34 323 255.68 323 255 C322.34515625 254.95101563 321.6903125 254.90203125 321.015625 254.8515625 C313.932835 254.27133394 306.9928416 253.25700294 300 252 C300 251.34 300 250.68 300 250 C299.278125 250.20625 298.55625 250.4125 297.8125 250.625 C294.43538989 251.07528135 293.09161533 250.36606259 290 249 C284.3401062 247.39636342 278.85544786 246.51506254 273 246 C273 245.34 273 244.68 273 244 C269.7 243.67 266.4 243.34 263 243 C263 242.34 263 241.68 263 241 C262.360625 241.226875 261.72125 241.45375 261.0625 241.6875 C256.62479709 242.14032683 253.10486859 240.58292318 249 239 C249 238.34 249 237.68 249 237 C247.02 237.33 245.04 237.66 243 238 C243 237.34 243 236.68 243 236 C240.03 235.67 237.06 235.34 234 235 C234 234.34 234 233.68 234 233 C233.01 233.33 232.02 233.66 231 234 C228.97669589 233.40781343 226.9812585 232.72045764 225 232 C219.04693884 230.12533417 213.06737247 228.46066374 207 227 C207 226.34 207 225.68 207 225 C204.36 224.67 201.72 224.34 199 224 C199 223.34 199 222.68 199 222 C197.845 221.896875 196.69 221.79375 195.5 221.6875 C191.7554689 221.22439545 188.53640169 220.24346078 185.0546875 218.81640625 C182.40442729 217.76335609 179.70846756 216.89314942 177 216 C174.20352877 215.05532211 171.413619 214.09258132 168.625 213.125 C167.90828125 212.88136719 167.1915625 212.63773438 166.453125 212.38671875 C162.83945595 211.12780516 159.4198359 209.76019875 156.0234375 207.9921875 C152.5245215 206.17913244 149.0036453 204.94732943 145.25439453 203.75537109 C141.54360051 202.51200996 138.00193113 200.92109855 134.4375 199.3125 C133.66881592 198.96872314 132.90013184 198.62494629 132.1081543 198.27075195 C126.12379261 195.56843384 120.23356037 192.69708702 114.39038086 189.70239258 C110.32443397 187.62328264 106.1977916 185.79433162 102 184 C99.70001202 182.87096262 97.40832261 181.72487171 95.125 180.5625 C89.81505646 177.87630162 84.46498519 175.35559706 79 173 C79 172.34 79 171.68 79 171 C78.01 171.33 77.02 171.66 76 172 C74.30327614 170.70513179 72.6396721 169.36639342 71 168 C70.0925 167.649375 69.185 167.29875 68.25 166.9375 C67.5075 166.628125 66.765 166.31875 66 166 C65.67 165.01 65.34 164.02 65 163 C64.113125 162.9175 63.22625 162.835 62.3125 162.75 C58.47959508 161.88217247 57.02312831 160.46068583 54 158 C51.05440352 156.53217743 48.04482549 155.24711807 45 154 C45 153.34 45 152.68 45 152 C44.34 152 43.68 152 43 152 C43 151.34 43 150.68 43 150 C42.34 149.938125 41.68 149.87625 41 149.8125 C36.8783325 148.69621505 33.34249498 146.66238434 30 144 C30 143.34 30 142.68 30 142 C29.175 141.95875 28.35 141.9175 27.5 141.875 C23.35306843 140.83826711 21.01816061 139.02239305 17.734375 136.375 C16.03790226 134.93344495 16.03790226 134.93344495 14 134 C14 133.34 14 132.68 14 132 C13.01 132 12.02 132 11 132 C11 131.34 11 130.68 11 130 C9.97326172 129.65195313 9.97326172 129.65195313 8.92578125 129.296875 C5.34390053 127.70917887 2.32781822 125.55692935 -0.8125 123.25 C-1.4327002 122.80043945 -2.05290039 122.35087891 -2.69189453 121.88769531 C-6.55076515 119.08362976 -10.39202548 116.25535485 -14.19140625 113.37109375 C-15.50503334 112.3752339 -16.82640798 111.38956797 -18.15234375 110.41015625 C-18.86519531 109.88292969 -19.57804687 109.35570312 -20.3125 108.8125 C-21.26576172 108.11060547 -21.26576172 108.11060547 -22.23828125 107.39453125 C-24 106 -24 106 -25.41796875 104.51171875 C-27.00749457 102.8790525 -27.00749457 102.8790525 -29.29296875 101.640625 C-32.57819669 99.64957776 -35.41450939 97.25199455 -38.3125 94.75 C-38.88355469 94.26200928 -39.45460938 93.77401855 -40.04296875 93.27124023 C-43.8437902 90.01700185 -47.61915053 86.73392716 -51.359375 83.41015625 C-52.76472007 82.2022287 -54.25130844 81.0899575 -55.75 80 C-58.72985926 77.35123621 -60.08915497 74.49223402 -62 71 C-62.66 70.67 -63.32 70.34 -64 70 C-67.78091738 57.08816713 -72.02039169 39.37911104 -67.8125 26.3125 C-67.214375 25.219375 -66.61625 24.12625 -66 23 C-65.566875 22.20078125 -65.13375 21.4015625 -64.6875 20.578125 C-63.48131699 18.37135836 -62.25142371 16.1813354 -61 14 C-60.34 14 -59.68 14 -59 14 C-58.731875 13.360625 -58.46375 12.72125 -58.1875 12.0625 C-57 10 -57 10 -54 9 C-54 8.34 -54 7.68 -54 7 C-53.34 7 -52.68 7 -52 7 C-52 6.34 -52 5.68 -52 5 C-38.63072534 -4.11705253 -14.79327936 -6.2759367 0 0 Z " fill="#30BF00" transform="translate(497,1579)"/>
<path d="M0 0 C53.46 0 106.92 0 162 0 C161.38355553 5.54800023 160.85843006 10.22929135 159.5 15.5 C159.2421875 16.5209375 158.984375 17.541875 158.71875 18.59375 C158 21 158 21 157 22 C155.36776544 22.09605864 153.7313561 22.12187821 152.09629822 22.12025452 C150.50396111 22.12231651 150.50396111 22.12231651 148.87945557 22.12442017 C147.1175589 22.11902725 147.1175589 22.11902725 145.32006836 22.11352539 C144.09097244 22.11367142 142.86187653 22.11381744 141.59553528 22.1139679 C138.21551328 22.11338892 134.83555171 22.10835964 131.45554042 22.10139394 C127.92678806 22.09515988 124.39803497 22.09455656 120.86927795 22.09336853 C114.18276881 22.09025537 107.49627594 22.08204218 100.80977398 22.07201904 C93.19925697 22.06085744 85.5887392 22.05534733 77.97821605 22.05032361 C62.31880126 22.03985956 46.65940273 22.02226041 31 22 C30.80464661 23.20135086 30.80464661 23.20135086 30.60534668 24.42697144 C30.43071899 25.4898941 30.25609131 26.55281677 30.07617188 27.64794922 C29.90468628 28.69634979 29.73320068 29.74475037 29.55651855 30.82492065 C28.71366457 35.63361619 27.61825282 40.37411984 26.5 45.125 C26.07159964 46.96063063 25.64450815 48.79656723 25.21875 50.6328125 C25.03248047 51.42574707 24.84621094 52.21868164 24.65429688 53.03564453 C23.70355726 57.34306258 22.86508684 61.67456582 22 66 C60.28 66 98.56 66 138 66 C138 74 138 74 134 88 C95.06 88 56.12 88 16 88 C15.67 90.64 15.34 93.28 15 96 C14.74667263 97.42878341 14.47443128 98.85461305 14.16796875 100.27294922 C14.01110596 101.00665741 13.85424316 101.7403656 13.69262695 102.49630737 C13.52593506 103.25807281 13.35924316 104.01983826 13.1875 104.8046875 C13.01371826 105.60987823 12.83993652 106.41506897 12.66088867 107.24465942 C12.29612148 108.93072493 11.92964489 110.61642147 11.56152344 112.30175781 C10.99723454 114.88767301 10.43965924 117.47497316 9.8828125 120.0625 C9.5264372 121.70581499 9.1696801 123.34904725 8.8125 124.9921875 C8.64580811 125.76609833 8.47911621 126.54000916 8.30737305 127.33737183 C7.1153125 132.769375 7.1153125 132.769375 6 135 C49.56 135 93.12 135 138 135 C137 144 137 144 134 157 C78.23 157 22.46 157 -35 157 C-33.86449958 150.75474771 -32.73990756 144.57341633 -31.40625 138.37890625 C-31.25912567 137.69470108 -31.11200134 137.01049591 -30.9604187 136.30555725 C-30.47590731 134.05736849 -29.98823262 131.80988339 -29.5 129.5625 C-29.32704407 128.76390564 -29.15408813 127.96531128 -28.97589111 127.14251709 C-25.99748477 113.40143993 -22.90657657 99.68728593 -19.77005005 85.98153687 C-16.8954927 73.41965428 -14.06990032 60.84767476 -11.28515625 48.265625 C-10.96362533 46.81371003 -10.64209213 45.36179556 -10.32055664 43.90988159 C-8.88353644 37.41887242 -7.44856133 30.92742419 -6.01916981 24.43473053 C-5.56835384 22.38879527 -5.11638301 20.34311912 -4.66392517 18.29754639 C-4.10460733 15.76827826 -3.54736165 13.23855078 -2.9924469 10.70831299 C-2.7441362 9.58753357 -2.4958255 8.46675415 -2.23999023 7.31201172 C-2.0236644 6.32997772 -1.80733856 5.34794373 -1.5844574 4.33615112 C-1 2 -1 2 0 0 Z " fill="#000000" transform="translate(608,1429)"/>
<path d="M0 0 C11.22 0 22.44 0 34 0 C34 5.40361198 33.74542598 8.89779955 32.49609375 13.9609375 C32.3373024 14.61700989 32.17851105 15.27308228 32.01490784 15.94903564 C31.67309408 17.35965625 31.32794067 18.7694711 30.97973633 20.17852783 C30.05046187 23.94280068 29.14800763 27.71346795 28.24609375 31.484375 C28.059935 32.26120636 27.87377625 33.03803772 27.68197632 33.83840942 C25.64305284 42.40303283 23.80681872 51.00889024 22 59.625 C21.84675262 60.3546698 21.69350525 61.0843396 21.53561401 61.83612061 C20.68510192 65.88965194 19.83994087 69.94426277 19 74 C19.93457031 73.48050781 20.86914062 72.96101563 21.83203125 72.42578125 C48.61916621 58.00779621 82.66590875 54.71553687 112 63 C127.23799898 67.6333248 140.48115451 74.96485291 149 89 C151.66979378 94.577948 152.52333076 99.60012594 152.4375 105.75 C152.42775146 106.53785889 152.41800293 107.32571777 152.40795898 108.13745117 C151.98066065 122.31651369 145.23616124 133.38296592 135.875 143.6875 C120.78363618 157.66869453 101.74531889 164.66194537 82 169 C80.88882813 169.2475 79.77765625 169.495 78.6328125 169.75 C56.04166994 173.806265 26.31191941 173.44209673 6.5 160.34765625 C4.60955428 158.95279612 2.78429152 157.52714362 1 156 C0.71125 156.86625 0.4225 157.7325 0.125 158.625 C-0.91666667 161.75 -1.95833333 164.875 -3 168 C-14.22 168 -25.44 168 -37 168 C-33.48009196 149.99431654 -29.50511603 132.10541829 -25.46864319 114.20983887 C-24.73209461 110.94426011 -23.99575961 107.67863327 -23.25961304 104.41296387 C-22.87658542 102.71380619 -22.49346698 101.01466899 -22.11026001 99.31555176 C-19.0058183 85.54532262 -15.96230731 71.76245873 -12.9473877 57.97238159 C-8.71690823 38.62900315 -4.36634944 19.31309645 0 0 Z M17.0625 99 C10.8031362 106.78676837 7.10874754 114.83972191 8 125 C9.84653737 133.22286174 13.38446091 138.47623354 20.375 143.125 C37.28345068 152.49119717 59.81881019 152.75358153 78.27709961 147.9050293 C92.46856186 143.67391364 104.99674111 136.03744457 112.8828125 123.18359375 C116.26722963 116.56859663 117.25634977 108.94108032 115.41796875 101.7109375 C112.55275809 94.09654205 107.15139496 89.11597622 99.98046875 85.4609375 C74.79914326 75.04737847 36.41340024 77.80420461 17.0625 99 Z " fill="#000000" transform="translate(2082,1418)"/>
<path d="M0 0 C13.91819477 -0.07048168 27.83636135 -0.12297775 41.75469875 -0.15543652 C48.21909761 -0.17102322 54.6833757 -0.1921324 61.14770508 -0.22631836 C67.39823133 -0.25916288 73.64864216 -0.27690547 79.89924812 -0.28463173 C82.27159502 -0.29013052 84.64393634 -0.30086684 87.01623344 -0.31719017 C109.19191548 -0.46356435 134.02940217 0.27634775 151.8046875 15.55078125 C157.30883764 21.28769396 160.11968304 29.05226169 160.5 36.9375 C159.93828284 48.38928217 154.54167125 59.29399583 146.62890625 67.44140625 C125.45081616 86.03910498 95.00176907 89.19688581 68.05078125 89.09765625 C66.54192655 89.09578667 65.03307123 89.09436532 63.5242157 89.09336853 C59.59028388 89.08958586 55.65639013 89.07979289 51.72247314 89.06866455 C47.69324254 89.05835805 43.66400567 89.05385129 39.63476562 89.04882812 C31.75649312 89.03816596 23.87825132 89.02114188 16 89 C15.87361649 89.70723206 15.74723297 90.41446411 15.61701965 91.14312744 C14.63335281 96.60733396 13.60570064 102.05355088 12.44921875 107.484375 C12.31007553 108.13984314 12.17093231 108.79531128 12.02757263 109.47064209 C11.58263416 111.56413921 11.13526498 113.65710576 10.6875 115.75 C10.37674699 117.20637095 10.06603781 118.66275126 9.75537109 120.11914062 C9.13382174 123.03085096 8.51096138 125.94227691 7.88720703 128.85351562 C7.07490013 132.64610995 6.26959446 136.44016979 5.46484375 140.234375 C5.01856553 142.32298857 4.57197457 144.41153534 4.125 146.5 C3.92221436 147.4600293 3.71942871 148.42005859 3.51049805 149.40917969 C3.32398682 150.27446289 3.13747559 151.13974609 2.9453125 152.03125 C2.78562988 152.77955078 2.62594727 153.52785156 2.46142578 154.29882812 C2 156 2 156 1 157 C-1.6662603 157.08855161 -4.30647114 157.11524673 -6.97265625 157.09765625 C-7.77029892 157.0962413 -8.56794159 157.09482635 -9.38975525 157.09336853 C-11.94737435 157.08775316 -14.50490718 157.07519812 -17.0625 157.0625 C-18.79231645 157.05748698 -20.52213426 157.05292373 -22.25195312 157.04882812 C-26.50133553 157.03777875 -30.75065312 157.02050386 -35 157 C-33.9065834 149.46822463 -32.69038375 142.03134905 -30.9375 134.625 C-30.62594971 133.2778894 -30.62594971 133.2778894 -30.30810547 131.90356445 C-29.54357053 128.60123558 -28.77186649 125.30062293 -28 122 C-26.53676978 115.73030254 -25.07878969 109.45939304 -23.625 103.1875 C-23.4300293 102.34667877 -23.23505859 101.50585754 -23.03417969 100.63955688 C-20.39010814 89.2197106 -17.84303209 77.78493 -15.4375 66.3125 C-13.11688848 55.25340713 -10.76469199 44.20245208 -8.33108521 33.16757202 C-7.99230263 31.62904496 -7.65505659 30.09017852 -7.31954956 28.55093384 C-6.8489384 26.39363934 -6.37244196 24.23771898 -5.89453125 22.08203125 C-5.62487549 20.85718018 -5.35521973 19.6323291 -5.07739258 18.37036133 C-3.62545416 12.18603564 -1.77420722 6.09775522 0 0 Z M32 20 C29.15636261 29.46509001 26.7796513 38.95715704 24.70751953 48.61816406 C24.24122688 50.79087881 23.76758278 52.96190173 23.29296875 55.1328125 C21.68768194 61.512591 21.68768194 61.512591 21 68 C28.62729296 68.07705984 36.25448294 68.12901596 43.88208008 68.16479492 C46.46838125 68.17973535 49.05465776 68.20009506 51.64086914 68.22631836 C83.97966026 69.30648681 83.97966026 69.30648681 113 57 C117.84212754 51.82004961 121.0978905 47.24613195 121.5 40.0625 C121.34092949 35.65492136 120.44633019 32.83174975 117.58984375 29.4609375 C102.73131033 15.80715003 73.10517787 19.86311033 54.5625 19.9375 C52.36653748 19.94252731 50.17057385 19.94708803 47.97460938 19.95117188 C42.64971472 19.96207466 37.32486276 19.97871426 32 20 Z " fill="#000000" transform="translate(1416,1429)"/>
<path d="M0 0 C7.12512491 7.25830482 10.77580149 16.29905832 11.15234375 26.44140625 C10.44544708 41.88151773 2.4508711 52.78775381 -8.33984375 63.2109375 C-34.28027572 86.46007061 -72.03713025 91.62023928 -105.41015625 89.87890625 C-125.9306598 88.19541399 -147.14175403 81.28258821 -161.41015625 65.87890625 C-168.66072576 56.75916706 -171.33695256 47.24996973 -170.046875 35.59765625 C-167.03012098 20.05119381 -156.22856976 8.08663422 -143.48950195 -0.75439453 C-103.16146288 -27.17760764 -38.10476778 -33.53466597 0 0 Z M-124.87890625 17.85546875 C-131.19979549 26.20807239 -134.35636301 34.41806487 -133.41015625 44.87890625 C-132.09126229 50.92569973 -129.14950052 55.89673532 -124.41015625 59.87890625 C-113.01082628 67.07315006 -100.98218416 69.44006307 -87.66015625 69.31640625 C-86.52779541 69.3102832 -85.39543457 69.30416016 -84.22875977 69.29785156 C-71.88461905 69.06901188 -60.38623102 66.77001983 -49.41015625 60.87890625 C-48.59160156 60.45996094 -47.77304688 60.04101562 -46.9296875 59.609375 C-36.35153247 53.80019153 -30.10169353 45.54978749 -26.16015625 34.31640625 C-24.48600993 26.6432356 -25.54980552 20.6700615 -29.41015625 13.87890625 C-37.74447815 3.74044878 -50.93551263 0.48046531 -63.41015625 -1.12109375 C-84.42465123 -2.50334214 -109.87526434 1.60152335 -124.87890625 17.85546875 Z " fill="#000000" transform="translate(1320.41015625,1499.12109375)"/>
<path d="M0 0 C3.92031682 3.83230971 6.68223933 8.66394245 7.0836792 14.21765137 C7.1336398 20.73245489 6.40689902 26.58436759 4.8671875 32.90234375 C4.65471375 33.81834351 4.44223999 34.73434326 4.22332764 35.67810059 C3.54822245 38.57855706 2.85684111 41.47481342 2.1640625 44.37109375 C1.26966228 48.1722947 0.38111599 51.97485995 -0.5078125 55.77734375 C-0.72602661 56.70764404 -0.94424072 57.63794434 -1.16906738 58.59643555 C-2.61723021 64.79124906 -4.01979194 70.99392874 -5.3515625 77.21484375 C-5.59480255 78.33082947 -5.59480255 78.33082947 -5.84295654 79.46936035 C-6.93279266 84.63851463 -7.4962364 89.56378385 -8.0859375 94.87109375 C-18.3159375 94.87109375 -28.5459375 94.87109375 -39.0859375 94.87109375 C-38.7559375 90.58109375 -38.4259375 86.29109375 -38.0859375 81.87109375 C-39.2615625 82.73734375 -40.4371875 83.60359375 -41.6484375 84.49609375 C-63.40146964 98.91855863 -94.73977139 101.31825663 -119.8984375 96.80859375 C-130.24836809 94.46334352 -141.81413384 89.88184964 -148.0859375 80.87109375 C-151.10868325 74.65022109 -151.29715515 67.68859222 -149.2109375 61.11328125 C-143.53887017 48.91087325 -132.57095741 42.11002056 -120.37109375 37.359375 C-97.56041904 29.38880346 -74.35958093 28.56048002 -50.4609375 28.74609375 C-48.18229564 28.75615326 -45.90364944 28.76527381 -43.625 28.7734375 C-38.11188229 28.79519327 -32.59893106 28.82843086 -27.0859375 28.87109375 C-27.0197811 27.12030506 -26.97269009 25.3687894 -26.93359375 23.6171875 C-26.90531494 22.64193115 -26.87703613 21.6666748 -26.84790039 20.66186523 C-27.1721846 16.8599239 -28.50696768 14.93802009 -31.171875 12.3046875 C-43.6034189 2.99371483 -62.26663611 4.5951818 -76.86767578 6.17138672 C-86.39216087 7.64812399 -95.11944172 10.7898018 -103.8515625 14.796875 C-107.64749947 16.05760286 -109.29875726 16.13673239 -113.0859375 14.87109375 C-115.7149192 13.21176525 -118.07827337 11.30077952 -120.4609375 9.30859375 C-121.10160156 8.78845703 -121.74226563 8.26832031 -122.40234375 7.73242188 C-123.97198565 6.45562362 -125.53015196 5.16474008 -127.0859375 3.87109375 C-126.0859375 0.87109375 -126.0859375 0.87109375 -124.4855957 -0.12451172 C-122.12929315 -1.1029926 -119.77471733 -2.07457019 -117.3984375 -3.00390625 C-116.50358643 -3.35469238 -115.60873535 -3.70547852 -114.68676758 -4.06689453 C-82.44917953 -16.24311299 -28.83038912 -23.68574371 0 0 Z M-113.8359375 59.68359375 C-115.47957096 63.87485908 -116.03393549 67.43581743 -115.0859375 71.87109375 C-110.25304131 77.79528908 -101.29646191 79.03476333 -94.0859375 79.87109375 C-74.89377589 81.08414766 -57.36412213 78.44651625 -41.48046875 66.9921875 C-36.01699245 62.08223413 -33.15968244 55.85004307 -31.0859375 48.87109375 C-31.0859375 47.55109375 -31.0859375 46.23109375 -31.0859375 44.87109375 C-75.24543273 42.53341837 -75.24543273 42.53341837 -113.8359375 59.68359375 Z " fill="#000000" transform="translate(1847.0859375,1491.12890625)"/>
<path d="M0 0 C4.7333295 4.79466854 6.93980632 10.31822995 6.9831543 17.01708984 C6.92375245 21.80379232 6.09806257 26.22211335 5.015625 30.87109375 C4.82916916 31.70696014 4.64271332 32.54282654 4.4506073 33.40402222 C3.84940514 36.09038505 3.23522361 38.77359766 2.62109375 41.45703125 C2.20535505 43.30771271 1.79064562 45.15862569 1.37695312 47.00976562 C0.37373243 51.49232933 -0.6383315 55.97283345 -1.65325928 60.45275879 C-2.84961292 65.74211546 -4.0250415 71.03598219 -5.19140625 76.33203125 C-5.48374146 77.62488037 -5.48374146 77.62488037 -5.78198242 78.94384766 C-5.95834229 79.74226074 -6.13470215 80.54067383 -6.31640625 81.36328125 C-6.46335937 82.01876953 -6.6103125 82.67425781 -6.76171875 83.34960938 C-7.41955775 87.15012468 -7.76546871 90.99859338 -8.19140625 94.83203125 C-18.42140625 94.83203125 -28.65140625 94.83203125 -39.19140625 94.83203125 C-38.86140625 90.54203125 -38.53140625 86.25203125 -38.19140625 81.83203125 C-39.73828125 82.88390625 -41.28515625 83.93578125 -42.87890625 85.01953125 C-64.55223085 98.73857943 -95.06400299 101.23998113 -120.00390625 96.76953125 C-130.35383684 94.42428102 -141.91960259 89.84278714 -148.19140625 80.83203125 C-151.214152 74.61115859 -151.4026239 67.64952972 -149.31640625 61.07421875 C-143.64433892 48.87181075 -132.67642616 42.07095806 -120.4765625 37.3203125 C-97.66588779 29.34974096 -74.46504968 28.52141752 -50.56640625 28.70703125 C-48.28776439 28.71709076 -46.00911819 28.72621131 -43.73046875 28.734375 C-38.21735104 28.75613077 -32.70439981 28.78936836 -27.19140625 28.83203125 C-27.12524985 27.08124256 -27.07815884 25.3297269 -27.0390625 23.578125 C-27.01078369 22.60286865 -26.98250488 21.6276123 -26.95336914 20.62280273 C-27.27765335 16.8208614 -28.61243643 14.89895759 -31.27734375 12.265625 C-43.88960665 2.81929748 -63.12552738 4.50528076 -77.92236328 6.13232422 C-87.06127962 7.61242517 -95.53157058 10.93731005 -103.921875 14.7578125 C-107.73481121 16.01056932 -109.3929668 16.10306633 -113.19140625 14.83203125 C-115.82028523 13.17254013 -118.18373898 11.26171964 -120.56640625 9.26953125 C-121.20707031 8.74939453 -121.84773438 8.22925781 -122.5078125 7.69335938 C-124.0774544 6.41656112 -125.63562071 5.12567758 -127.19140625 3.83203125 C-126.19140625 0.83203125 -126.19140625 0.83203125 -124.59106445 -0.16357422 C-122.2347619 -1.1420551 -119.88018608 -2.11363269 -117.50390625 -3.04296875 C-116.60905518 -3.39375488 -115.7142041 -3.74454102 -114.79223633 -4.10595703 C-82.95168741 -16.13221281 -28.31692929 -23.8485698 0 0 Z M-113.4765625 59.20703125 C-116.17269193 63.33413598 -116.09551891 67.06929492 -115.19140625 71.83203125 C-110.46900129 77.77312136 -101.34019835 79.00286101 -94.19140625 79.83203125 C-76.11730112 80.97441762 -57.55534013 79.17076325 -42.96875 67.41796875 C-37.01634199 62.10658929 -33.39656877 56.57604314 -31.19140625 48.83203125 C-31.19140625 47.51203125 -31.19140625 46.19203125 -31.19140625 44.83203125 C-75.06256547 42.41989616 -75.06256547 42.41989616 -113.4765625 59.20703125 Z " fill="#000000" transform="translate(2424.19140625,1491.16796875)"/>
<path d="M0 0 C11.22 0 22.44 0 34 0 C32.87984589 12.32169516 32.87984589 12.32169516 31.203125 18.54296875 C30.84165952 19.92068434 30.48169289 21.29879385 30.12304688 22.67724609 C29.93766357 23.38347107 29.75228027 24.08969604 29.5612793 24.81732178 C28.01182932 30.84275466 26.65320127 36.916043 25.28027344 42.98364258 C24.92446526 44.54628263 24.56372235 46.10780664 24.19824219 47.66821289 C20.08784671 62.69741366 20.08784671 62.69741366 22.6875 77.4375 C28.70199394 84.1022095 34.45461477 86.48816648 43.41650391 87.18896484 C60.15869554 88.03849536 74.5751205 86.1955449 89 77 C89.928125 76.4225 90.85625 75.845 91.8125 75.25 C99.91580279 66.91517427 102.7474724 55.86172574 105.15625 44.828125 C105.34465454 43.98384949 105.53305908 43.13957397 105.72717285 42.26971436 C106.32254701 39.59743782 106.91147505 36.92379238 107.5 34.25 C107.89408527 32.47385932 108.28861331 30.69781682 108.68359375 28.921875 C108.97278687 27.62098938 108.97278687 27.62098938 109.26782227 26.29382324 C109.45787842 25.43889282 109.64793457 24.5839624 109.84375 23.703125 C110.21614768 22.02669312 110.58854356 20.35026084 110.9609375 18.67382812 C111.13657227 17.88403564 111.31220703 17.09424316 111.49316406 16.28051758 C111.82002418 14.80980448 112.14624421 13.33894891 112.47167969 11.86791992 C112.88367373 10.01008145 113.30100029 8.15342773 113.71875 6.296875 C114.0580957 4.77852051 114.0580957 4.77852051 114.40429688 3.22949219 C115 1 115 1 116 0 C118.44830426 -0.08843793 120.86820599 -0.11528752 123.31640625 -0.09765625 C124.04746078 -0.0962413 124.77851532 -0.09482635 125.53172302 -0.09336853 C127.87535632 -0.08775408 130.21889539 -0.07519922 132.5625 -0.0625 C134.14778508 -0.05748686 135.73307166 -0.05292363 137.31835938 -0.04882812 C141.2122761 -0.03777997 145.10612205 -0.02050572 149 0 C148.54506136 8.68011165 147.08963149 16.76349199 145 25.1875 C144.36456391 27.82753364 143.73136777 30.46800197 143.1015625 33.109375 C142.85063339 34.15767738 142.85063339 34.15767738 142.59463501 35.22715759 C140.40121669 44.43697589 138.39355734 53.68811137 136.375 62.9375 C136.18310089 63.8153717 135.99120178 64.69324341 135.79348755 65.59771729 C134.69019253 70.64510654 133.58972942 75.69310648 132.49139404 80.74157715 C132.03257975 82.85026508 131.57329485 84.95884973 131.11376953 87.06738281 C129.73875702 93.37745249 128.36823768 99.68845197 127 106 C115.78 106 104.56 106 93 106 C93 98.125 93 98.125 94 94 C93.41734375 94.37511719 92.8346875 94.75023437 92.234375 95.13671875 C69.07369092 109.59393821 39.82909518 112.89084407 13.30859375 106.90234375 C3.460112 104.21639418 -5.88357742 100.2879299 -11.703125 91.3984375 C-17.26223675 80.56775427 -16.23631078 71.8365205 -13.625 60.25 C-13.36895996 59.08436523 -13.11291992 57.91873047 -12.84912109 56.71777344 C-11.91176104 52.47566671 -10.95768706 48.23755338 -10 44 C-9.79729492 43.10152344 -9.59458984 42.20304687 -9.38574219 41.27734375 C-6.2799203 27.51301165 -3.14650663 13.75508433 0 0 Z " fill="#000000" transform="translate(819,1480)"/>
<path d="M0 0 C11.22 0 22.44 0 34 0 C32 12 32 12 28 28 C49.78 28.495 49.78 28.495 72 29 C70.84026258 39.43763676 70.84026258 39.43763676 70.0625 43.5 C69.83240234 44.75296875 69.83240234 44.75296875 69.59765625 46.03125 C69.40042969 46.6809375 69.20320313 47.330625 69 48 C66.6699002 49.1650499 65.32752923 49.1209358 62.73388672 49.11352539 C61.41274368 49.11341209 61.41274368 49.11341209 60.06491089 49.11329651 C59.11278717 49.10813522 58.16066345 49.10297394 57.1796875 49.09765625 C56.20589142 49.0962413 55.23209534 49.09482635 54.22879028 49.09336853 C51.11082927 49.08775973 47.9929394 49.07520573 44.875 49.0625 C42.76432395 49.05748613 40.65364678 49.05292303 38.54296875 49.04882812 C33.36195479 49.03778745 28.18098248 49.02104073 23 49 C22.62234497 50.93069336 22.62234497 50.93069336 22.23706055 52.90039062 C20.07225727 63.89183973 17.7176772 74.80365141 15.02539062 85.6796875 C13.08155668 93.8166668 11.32560498 102.19493547 12.5 110.5625 C14.59486942 113.9666628 17.27651117 114.96592966 21 116 C24.59326453 116.39524482 28.13873254 116.37890846 31.75 116.3125 C32.72340332 116.30412109 33.69680664 116.29574219 34.69970703 116.28710938 C41.27356168 116.1770867 47.62270396 115.70874918 54 114 C53.39700836 121.23589973 51.8849413 127.99370876 50 135 C48.68911318 135.31919939 47.37614752 135.62985947 46.0625 135.9375 C45.33160156 136.11152344 44.60070313 136.28554687 43.84765625 136.46484375 C24.21964288 140.15351019 -1.69406256 141.43549199 -19 130 C-23.3081124 125.79959041 -24.91515209 121.36255339 -25.13037109 115.36987305 C-25.07063235 114.02042899 -24.99231463 112.67171831 -24.8984375 111.32421875 C-24.85036957 110.58862228 -24.80230164 109.85302582 -24.7527771 109.09513855 C-24.02821705 100.12170018 -21.83430382 91.5146829 -19.625 82.8125 C-19.01743244 80.36101853 -18.41414016 77.90851939 -17.81185913 75.45573425 C-17.44076765 73.95075215 -17.0660618 72.44665289 -16.68643188 70.94380188 C-14.94258672 63.98884175 -13.5061664 57.02877653 -12 50 C-23.55 49.67 -35.1 49.34 -47 49 C-46 39 -46 39 -43 29 C-31.12 28.67 -19.24 28.34 -7 28 C-5.06762598 19.53408659 -5.06762598 19.53408659 -3.14086914 11.06689453 C-2.89973389 10.01614746 -2.65859863 8.96540039 -2.41015625 7.8828125 C-2.16402588 6.80402832 -1.91789551 5.72524414 -1.66430664 4.61376953 C-1 2 -1 2 0 0 Z " fill="#000000" transform="translate(1941,1451)"/>
<path d="M0 0 C10.89 0 21.78 0 33 0 C34.20497115 3.61491344 33.7108691 5.22576665 32.8828125 8.921875 C32.47397827 10.77087402 32.47397827 10.77087402 32.05688477 12.65722656 C31.74647795 14.02153478 31.43584232 15.38579095 31.125 16.75 C30.80535812 18.17923907 30.48627888 19.60860407 30.16772461 21.03808594 C27.31595417 33.78581761 24.35797304 46.50992244 21.40649414 59.23486328 C17.87379761 74.47565145 14.47444086 89.74439268 11.10058594 105.02099609 C9.1911966 113.66341484 7.27151574 122.30355369 5.3522644 130.94378662 C4.70506529 133.8583961 4.05865816 136.77318034 3.41235352 139.68798828 C3.00800544 141.5094468 2.60362851 143.33089892 2.19921875 145.15234375 C1.93245834 146.35664787 1.93245834 146.35664787 1.66030884 147.58528137 C0.14599828 154.39994112 -1.43009545 161.1970803 -3 168 C-14.22 168 -25.44 168 -37 168 C-36.34608283 162.11474546 -35.61228752 156.60075403 -34.3203125 150.875 C-34.15208481 150.11180954 -33.98385712 149.34861908 -33.81053162 148.56230164 C-33.25332352 146.0404817 -32.68926578 143.52024934 -32.125 141 C-31.72354034 139.19123679 -31.32242575 137.38239696 -30.92163086 135.57348633 C-29.84413935 130.71793395 -28.7600065 125.86388972 -27.67364502 121.01031494 C-27.00140241 118.00626693 -26.33038273 115.00194807 -25.65966797 111.99755859 C-20.49041088 88.85026164 -15.2647917 65.71597351 -9.99029541 42.59243774 C-7.37233033 31.11391453 -4.77991751 19.63228422 -2.35595703 8.11083984 C-1.10197289 2.20394579 -1.10197289 2.20394579 0 0 Z " fill="#000000" transform="translate(1638,1418)"/>
<path d="M0 0 C-1.61088355 7.78593716 -3.76543688 15.37428218 -6 23 C-6.76965088 22.98428955 -7.53930176 22.9685791 -8.33227539 22.95239258 C-39.78871828 22.04373278 -39.78871828 22.04373278 -67.0625 36.25 C-73.65016838 43.95347657 -75.9715178 53.79641715 -77.9375 63.5 C-78.43982768 65.86334003 -78.9424409 68.22661939 -79.4453125 70.58984375 C-79.69829102 71.8001123 -79.95126953 73.01038086 -80.21191406 74.25732422 C-81.53392031 80.53562525 -82.92395053 86.79864588 -84.3125 93.0625 C-84.69426392 94.81046875 -84.69426392 94.81046875 -85.08374023 96.59375 C-85.32036377 97.66753906 -85.5569873 98.74132813 -85.80078125 99.84765625 C-86.00872314 100.79648682 -86.21666504 101.74531738 -86.4309082 102.72290039 C-87 105 -87 105 -88 107 C-99.22 107 -110.44 107 -122 107 C-121.36299376 101.26694381 -120.72746324 96.2493097 -119.43359375 90.73046875 C-119.20197037 89.73111046 -119.20197037 89.73111046 -118.96566772 88.71156311 C-118.63357197 87.28078989 -118.2992264 85.85053727 -117.96279907 84.42077637 C-117.0504798 80.54210765 -116.15571126 76.65937101 -115.2578125 72.77734375 C-115.07146744 71.97390533 -114.88512238 71.17046692 -114.69313049 70.34268188 C-112.68125652 61.65658691 -110.74156029 52.95480042 -108.8125 44.25 C-108.64562683 43.49819458 -108.47875366 42.74638916 -108.30682373 41.97180176 C-105.98837051 31.52505448 -103.69338657 21.07334386 -101.45825195 10.60839844 C-101.27738037 9.76696289 -101.09650879 8.92552734 -100.91015625 8.05859375 C-100.75683838 7.33986084 -100.60352051 6.62112793 -100.44555664 5.88061523 C-100 4 -100 4 -99 1 C-87.78 1 -76.56 1 -65 1 C-65.33 4.96 -65.66 8.92 -66 13 C-65.12859375 12.46890625 -64.2571875 11.9378125 -63.359375 11.390625 C-47.60148172 1.97062944 -18.21414787 -9.10707394 0 0 Z " fill="#000000" transform="translate(1130,1479)"/>
<path d="M0 0 C0.33 0 0.66 0 1 0 C1.17602846 76.65265089 1.33837046 153.30532858 1.49095565 229.95802939 C1.49696877 232.97871103 1.50299082 235.99939265 1.50902146 239.02007425 C1.66668708 317.99998582 1.8116675 396.97992663 2.0660501 716.84031654 C2.06640045 719.37211878 2.066767 721.90392101 2.06713971 724.43572325 C2.06726077 725.26407935 2.06738183 726.09243545 2.06750655 726.94589326 C2.06772721 728.45291848 2.06794994 729.95994371 2.06817583 731.46696894 C2.08895613 874.97797462 2.03275011 1018.48900999 2 1162 C401.96 1162 801.92 1162 1214 1162 C1214 1162.66 1214 1163.32 1214 1164 C813.38 1164 412.76 1164 0 1164 C0 779.88 0 395.76 0 0 Z " fill="#6DCA5E" transform="translate(0,1836)"/>
<path d="M0 0 C517.44 0 1034.88 0 1568 0 C1568 0.33 1568 0.66 1568 1 C1484.40354105 1.18146647 1400.80704733 1.34235235 1317.21052402 1.49095565 C1313.82974446 1.49696559 1310.44896491 1.50298767 1307.06818539 1.50902146 C1214.4988563 1.67421314 1121.92948889 1.81809537 688.37890625 2.06640625 C687.7112427 2.06645826 687.04357916 2.06651028 686.35568338 2.06656387 C619.86617109 2.07170511 553.37665891 2.07135768 436.72547381 2.06299336 C432.01981814 2.06260729 427.31416247 2.0622296 422.6085068 2.06185675 C383.89108788 2.05878746 345.17366902 2.05526214 306.45625019 2.05117548 C301.78399601 2.05068285 297.11174182 2.0501957 292.43948763 2.04970914 C195.29299041 2.03938909 98.1464963 2.01865531 1 2 C1 276.23 1 550.46 1 833 C0.67 833 0.34 833 0 833 C0 558.11 0 283.22 0 0 Z " fill="#63C659" transform="translate(0,0)"/>
<path d="M0 0 C0.33 0 0.66 0 1 0 C1 297.33 1 594.66 1 901 C-435.92 901 -872.84 901 -1323 901 C-1323 900.67 -1323 900.34 -1323 900 C-1236.20404398 899.79706865 -1149.40805465 899.60943546 -518.50327396 898.8772967 C-498.94735862 898.876216 -479.39144455 898.87339401 -459.83552969 898.86892268 C-423.50102914 898.86063688 -387.16653195 898.85817945 -350.83203125 898.8671875 C-349.8133543 898.86743791 -349.8133543 898.86743791 -348.77409801 898.86769338 C-257.99164731 898.89042666 -167.21183221 899.1510463 0 900 C-0.00590806 898.80628267 -0.01181612 897.61256534 -0.01790321 896.38267475 C-0.13752687 872.18149569 -0.25524437 847.98031909 -0.35595703 823.77905273 C-0.36021068 822.75811909 -0.36021068 822.75811909 -0.36455026 821.71656053 C-0.41105955 810.5402124 -0.45607647 799.36385858 -0.5 788.1875 C-0.50294646 787.43808083 -0.50589291 786.68866166 -0.50892866 785.91653281 C-0.85407087 697.93351995 -1.0274467 609.95040009 -1.1227033 365.7264153 C-1.12359208 350.24371539 -1.12507253 334.76101607 -1.12857056 319.2783165 C-1.12873414 318.55189832 -1.12889772 317.82548014 -1.12906625 317.07704929 C-1.12972837 314.14807486 -1.13039632 311.21910042 -1.13106861 308.29012599 C-1.13743587 280.54369398 -1.13992707 252.7972659 -1.13556135 225.05083334 C-1.13514104 222.32540552 -1.13472825 219.59997769 -1.13431931 216.87454987 C-1.13421605 216.2048418 -1.13411279 215.53513373 -1.1340064 214.84513148 C-1.13255118 205.01644089 -1.13362958 195.18775256 -1.13615799 185.35906219 C-1.1508267 123.56557593 -0.88726299 61.78758708 0 0 Z " fill="#56A9F6" transform="translate(2999,2099)"/>
<path d="M0 0 C299.97 0 599.94 0 909 0 C909 266.97 909 533.94 909 809 C908.34 809.33 907.68 809.66 907 810 C907 543.36 907 276.72 907 2 C663.50427133 2.03945073 663.50427133 2.03945073 420.00854492 2.09008789 C372.43029785 2.09460449 372.43029785 2.09460449 350.00971985 2.09544373 C335.66664849 2.09629925 321.32358095 2.09923872 306.98051063 2.10448648 C282.47162555 2.11343932 257.96274403 2.11780277 233.45385742 2.11352539 C232.52403684 2.11337045 231.59421626 2.1132155 230.6362193 2.11305586 C153.75479057 2.09904336 76.87843669 1.6585665 0 1 C0 0.67 0 0.34 0 0 Z " fill="#4D81F7" transform="translate(2091,0)"/>
<path d="M0 0 C1.98 0 3.96 0 6 0 C6 2.31 6 4.62 6 7 C1.2 4.53846154 1.2 4.53846154 0.1875 1.8125 C0.125625 1.214375 0.06375 0.61625 0 0 Z " fill="#83E16A" transform="translate(67,895)"/>
</svg>
