<?xml version="1.0" encoding="UTF-8"?>
<svg version="1.1" xmlns="http://www.w3.org/2000/svg" width="431" height="127">
<path d="M0 0 C2.35628248 2.74180211 2.45444889 6.104799 2.359375 9.58178711 C1.359375 12.45678711 1.359375 12.45678711 -0.640625 14.58178711 C-3.953125 16.08178711 -3.953125 16.08178711 -7.640625 16.58178711 C-12.27040245 14.65431406 -16.14636557 11.87485624 -20.140625 8.89428711 C-55.89295184 -17.01881773 -100.1473936 -23.63944907 -143.390625 -23.66821289 C-144.30936401 -23.66888763 -145.22810303 -23.66956238 -146.17468262 -23.67025757 C-187.33073334 -23.62267472 -228.51046906 -17.64412697 -268.015625 -5.98461914 C-270.640625 -5.41821289 -270.640625 -5.41821289 -273.640625 -6.41821289 C-198.32345372 -41.68513378 -92.29253283 -59.5672405 0 0 Z " fill="#018AFE" transform="translate(428.640625,39.418212890625)"/>
<path d="M0 0 C23.93313212 19.92622764 55.39950207 28.26747797 85.625 32.5 C86.45918457 32.61859375 87.29336914 32.7371875 88.15283203 32.859375 C140.82937095 39.92920407 195.5024669 31.50924116 246.48583984 18.25268555 C249.52105636 17.52492287 252.54084893 16.97334484 255.625 16.5 C212.62964728 50.99851848 129.22119096 55.04847036 76.5 49.375 C42.5392984 45.28493488 6.50880714 34.11767016 -18.375 9.5 C-19.92524464 6.39951072 -19.66492015 3.92105782 -19.375 0.5 C-17.6986826 -2.25395002 -16.43672747 -3.95083062 -13.5625 -5.4375 C-7.72136758 -5.6043895 -4.34752528 -3.65990649 0 0 Z " fill="#30BF00" transform="translate(19.375,76.5)"/>
<path d="M0 0 C2.31 0 4.62 0 7 0 C6.34 4.62 5.68 9.24 5 14 C6.32 13.34 7.64 12.68 9 12 C12.27734375 11.69921875 12.27734375 11.69921875 15.9375 11.6875 C17.14277344 11.67074219 18.34804688 11.65398438 19.58984375 11.63671875 C24.10777432 12.11801032 26.65332134 13.69821063 29.875 16.8125 C31.49452469 19.96157579 31.02466813 21.65275077 30 25 C27.27957318 29.49916743 23.99463763 31.62315122 19 33 C12.82013523 34.20219234 7.89776422 34.25871821 2 32 C1.67 31.67 1.34 31.34 1 31 C0.67 31.66 0.34 32.32 0 33 C-2.31 33 -4.62 33 -7 33 C-4.69 22.11 -2.38 11.22 0 0 Z M5 19 C2.99135641 21.3726974 2.99135641 21.3726974 2 24 C2.67139766 27.04874731 2.67139766 27.04874731 4.78515625 28.16796875 C8.50163768 29.56410728 12.08928801 29.46788876 16 29 C18.96912882 27.61019502 20.69657028 26.30342972 23 24 C23.58350505 21.54290625 23.58350505 21.54290625 23 19 C20.19801811 16.53765228 18.26943558 16.02939297 14.5625 15.625 C10.61740588 16.04027307 8.30690528 16.82044879 5 19 Z " fill="#FFFFFF" transform="translate(330,40)"/>
<path d="M0 0 C1.34888732 0.00015905 2.69778075 0.00584927 4.04663086 0.01586914 C5.10991859 0.01799156 5.10991859 0.01799156 6.19468689 0.02015686 C8.46699173 0.02577096 10.73919936 0.03832576 13.01147461 0.05102539 C14.54858257 0.05603858 16.08569206 0.0606018 17.62280273 0.06469727 C21.39823103 0.07574497 25.17358632 0.09301898 28.94897461 0.11352539 C28.61897461 1.43352539 28.28897461 2.75352539 27.94897461 4.11352539 C15.57397461 4.60852539 15.57397461 4.60852539 2.94897461 5.11352539 C2.28897461 7.75352539 1.62897461 10.39352539 0.94897461 13.11352539 C8.53897461 13.11352539 16.12897461 13.11352539 23.94897461 13.11352539 C23.61897461 14.43352539 23.28897461 15.75352539 22.94897461 17.11352539 C15.35897461 17.11352539 7.76897461 17.11352539 -0.05102539 17.11352539 C-0.71102539 20.41352539 -1.37102539 23.71352539 -2.05102539 27.11352539 C6.52897461 27.11352539 15.10897461 27.11352539 23.94897461 27.11352539 C23.61897461 28.43352539 23.28897461 29.75352539 22.94897461 31.11352539 C12.05897461 31.11352539 1.16897461 31.11352539 -10.05102539 31.11352539 C-8.83444502 23.81404318 -7.60898154 16.62873731 -5.98852539 9.42602539 C-5.81514648 8.6300293 -5.64176758 7.8340332 -5.46313477 7.01391602 C-3.93244129 0.14632193 -3.93244129 0.14632193 0 0 Z " fill="#FFFFFF" transform="translate(39.051025390625,41.886474609375)"/>
<path d="M0 0 C6.001875 -0.0928125 6.001875 -0.0928125 12.125 -0.1875 C13.37555176 -0.21481201 14.62610352 -0.24212402 15.91455078 -0.27026367 C26.52595349 -0.34975944 26.52595349 -0.34975944 31 3 C32.1875 6.375 32.1875 6.375 32 10 C28.99089369 13.86885097 25.72536934 16.60469432 20.80175781 17.31884766 C20.02670898 17.35026855 19.25166016 17.38168945 18.453125 17.4140625 C17.18662109 17.47207031 17.18662109 17.47207031 15.89453125 17.53125 C15.02183594 17.5621875 14.14914063 17.593125 13.25 17.625 C11.91775391 17.68300781 11.91775391 17.68300781 10.55859375 17.7421875 C8.3726002 17.83620873 6.18660938 17.92186143 4 18 C3.79503906 18.85464844 3.59007812 19.70929687 3.37890625 20.58984375 C3.10949219 21.69457031 2.84007812 22.79929687 2.5625 23.9375 C2.16224609 25.59072266 2.16224609 25.59072266 1.75390625 27.27734375 C1 30 1 30 0 31 C-2.31 31 -4.62 31 -7 31 C-4.69 20.77 -2.38 10.54 0 0 Z M7 4 C6.34 6.97 5.68 9.94 5 13 C7.0622048 13.054348 9.12482816 13.09294961 11.1875 13.125 C12.33605469 13.14820313 13.48460937 13.17140625 14.66796875 13.1953125 C17.9537171 13.00271295 20.11894142 12.56763482 23 11 C23.89386164 8.45224694 23.89386164 8.45224694 24 6 C20.07142246 4.14868517 17.01224888 3.77995057 12.6875 3.875 C11.61886719 3.89304688 10.55023438 3.91109375 9.44921875 3.9296875 C8.23685547 3.96449219 8.23685547 3.96449219 7 4 Z " fill="#FFFFFF" transform="translate(197,42)"/>
<path d="M0 0 C1.77697266 -0.02513672 1.77697266 -0.02513672 3.58984375 -0.05078125 C8.09477744 0.42048853 11.26230831 2.05236582 14.9375 4.625 C16.75304038 7.34831058 16.56415605 9.11444267 16.0625 12.3125 C12.94331114 17.13306461 9.7162445 19.85655452 4.0625 21.3125 C-3.07602409 22.70775698 -9.40380076 22.81607786 -15.9375 19.3125 C-18.9750455 16.63656706 -19.86745708 15.40983906 -20.125 11.375 C-18.17946255 6.35756132 -14.37844077 3.53504249 -9.63671875 1.16015625 C-6.32990757 0.12169312 -3.46385053 0.0112829 0 0 Z M-11.9375 9.3125 C-12.43764953 11.76991537 -12.43764953 11.76991537 -11.9375 14.3125 C-9.0363657 17.08146417 -6.96861702 17.72418983 -3 17.6875 C1.12440496 17.54779262 3.90415409 17.17475098 7.0625 14.3125 C8.40939915 11.74150598 8.40939915 11.74150598 9.0625 9.3125 C6.16370485 5.68900607 4.81379751 4.40790286 0.125 3.8125 C-4.73871149 4.12510149 -8.48395911 5.85895911 -11.9375 9.3125 Z " fill="#FFFFFF" transform="translate(163.9375,51.6875)"/>
<path d="M0 0 C1.04800781 -0.03673828 1.04800781 -0.03673828 2.1171875 -0.07421875 C7.05434491 -0.10216492 9.50470611 0.92066658 13 4.375 C12.68853528 6.27100369 12.37578283 8.16679587 12.0625 10.0625 C11.80146484 11.64611328 11.80146484 11.64611328 11.53515625 13.26171875 C11.06832879 15.97749604 10.55577384 18.67624235 10 21.375 C8.02 21.375 6.04 21.375 4 21.375 C4 20.715 4 20.055 4 19.375 C3.19949219 19.71724609 3.19949219 19.71724609 2.3828125 20.06640625 C-3.61773453 22.38149619 -8.70048375 22.88733874 -15 21.375 C-15.99 20.715 -16.98 20.055 -18 19.375 C-18.4375 16.4375 -18.4375 16.4375 -18 13.375 C-15.13892674 10.17059795 -11.15884654 8.99455419 -7 8.375 C-2.66087037 8.21785862 1.66026807 8.25753357 6 8.375 C5.67 7.385 5.34 6.395 5 5.375 C0.09873048 2.92436524 -6.75242023 4.50040337 -12 5.375 C-12.33 4.385 -12.66 3.395 -13 2.375 C-8.70047487 0.2756225 -4.70288385 0.00867691 0 0 Z M-11 14.375 C-11 15.365 -11 16.355 -11 17.375 C-4.90393443 18.5214408 -4.90393443 18.5214408 1 17.125 C3.25657828 15.44813101 3.25657828 15.44813101 4 12.375 C2.25034642 12.32070041 0.50020213 12.28207177 -1.25 12.25 C-2.22453125 12.22679687 -3.1990625 12.20359375 -4.203125 12.1796875 C-7.0196498 12.37637219 -8.60949036 12.92931084 -11 14.375 Z " fill="#FFFFFF" transform="translate(272,51.625)"/>
<path d="M0 0 C1.93746094 -0.00773437 1.93746094 -0.00773437 3.9140625 -0.015625 C9.1820801 0.38869238 9.1820801 0.38869238 11.375 2.25 C12.81962872 6.88625032 12.11949119 10.49159452 10.9375 15.125 C10.65003906 16.27742188 10.36257813 17.42984375 10.06640625 18.6171875 C9.83824219 19.48601562 9.61007812 20.35484375 9.375 21.25 C7.395 21.25 5.415 21.25 3.375 21.25 C3.375 20.59 3.375 19.93 3.375 19.25 C2.57449219 19.59224609 2.57449219 19.59224609 1.7578125 19.94140625 C-4.13140005 22.21354189 -9.45379619 23.01001841 -15.625 21.25 C-17.421875 19.8515625 -17.421875 19.8515625 -18.625 18.25 C-18.49024826 15.55496522 -17.99887634 13.84380359 -16.5625 11.5625 C-9.89696535 7.04713782 -1.28895588 8.03970853 6.375 8.25 C6.045 6.93 5.715 5.61 5.375 4.25 C-0.43399896 4.15697333 -5.89090227 4.22080297 -11.625 5.25 C-12.285 4.92 -12.945 4.59 -13.625 4.25 C-13.625 3.59 -13.625 2.93 -13.625 2.25 C-8.94839485 0.42568963 -5.00832981 -0.02007347 0 0 Z M-11.625 15.25 C-10.40522457 16.84631844 -10.40522457 16.84631844 -8.625 18.25 C-4.20761862 18.69743274 -0.55456478 17.97551398 2.9375 15.25 C4.47227267 13.52516537 4.47227267 13.52516537 4.375 12.25 C-4.17334085 11.60093509 -4.17334085 11.60093509 -11.625 15.25 Z " fill="#FFFFFF" transform="translate(387.625,51.75)"/>
<path d="M0 0 C1.98 0 3.96 0 6 0 C5.67 5.28 5.34 10.56 5 16 C6.794375 16.3403125 6.794375 16.3403125 8.625 16.6875 C9.63433594 16.87892578 9.63433594 16.87892578 10.6640625 17.07421875 C14.16960671 16.96283858 16.11299096 15.97697358 19 14 C20.58152177 10.63583305 20.58152177 10.63583305 21.375 6.8125 C21.69210938 5.54019531 22.00921875 4.26789062 22.3359375 2.95703125 C22.55507812 1.98121094 22.77421875 1.00539062 23 0 C24.98 0 26.96 0 29 0 C28.54034292 7.30696249 27.11670277 13.99757448 25 21 C23.02 21 21.04 21 19 21 C19 20.34 19 19.68 19 19 C18.18208984 19.34224609 18.18208984 19.34224609 17.34765625 19.69140625 C10.67296173 22.23577698 5.08818638 22.79481353 -1.5625 19.875 C-3.28597831 17.62698481 -3.49063536 15.98831769 -3.33984375 13.18359375 C-2.64029594 8.68879803 -1.32026478 4.34587158 0 0 Z " fill="#FFFFFF" transform="translate(78,52)"/>
<path d="M0 0 C1.98 0 3.96 0 6 0 C7.24546405 2.49092811 6.7767578 3.41080733 6 6 C8.64 6 11.28 6 14 6 C14 7.32 14 8.64 14 10 C9.545 10.495 9.545 10.495 5 11 C4.63896464 12.81114432 4.28634496 14.62396823 3.9375 16.4375 C3.74027344 17.44683594 3.54304688 18.45617187 3.33984375 19.49609375 C3.22769531 20.32238281 3.11554688 21.14867188 3 22 C4.18424326 23.41577477 4.18424326 23.41577477 7.5625 23.0625 C8.696875 23.041875 9.83125 23.02125 11 23 C10.67 24.32 10.34 25.64 10 27 C-0.01565753 28.61472474 -0.01565753 28.61472474 -4 26 C-5.54567602 22.34274471 -4.57409997 19.47268791 -3.5625 15.75 C-3.27503906 14.67234375 -2.98757813 13.5946875 -2.69140625 12.484375 C-2.46324219 11.66453125 -2.23507812 10.8446875 -2 10 C-4.31 10 -6.62 10 -9 10 C-8.67 8.68 -8.34 7.36 -8 6 C-5.69 6 -3.38 6 -1 6 C-0.67 4.02 -0.34 2.04 0 0 Z " fill="#FFFFFF" transform="translate(302,46)"/>
<path d="M0 0 C1.4540625 0.0309375 1.4540625 0.0309375 2.9375 0.0625 C1.38756601 11.23590476 -1.37160577 22.12055524 -4.0625 33.0625 C-6.3725 33.0625 -8.6825 33.0625 -11.0625 33.0625 C-10.08863714 28.52248566 -9.10994882 23.98354945 -8.12670898 19.44555664 C-7.79268595 17.90059851 -7.45999979 16.35535072 -7.12866211 14.80981445 C-6.65306453 12.59249179 -6.17271962 10.37624424 -5.69140625 8.16015625 C-5.54345108 7.4653566 -5.39549591 6.77055695 -5.24305725 6.05470276 C-3.93671598 0.08034114 -3.93671598 0.08034114 0 0 Z " fill="#FFFFFF" transform="translate(245.0625,39.9375)"/>
<path d="M0 0 C2.31 0 4.62 0 7 0 C7 0.66 7 1.32 7 2 C7.56203125 1.67257813 8.1240625 1.34515625 8.703125 1.0078125 C11.26859964 -0.11785494 12.96842277 -0.2068111 15.75 -0.125 C16.54921875 -0.10695312 17.3484375 -0.08890625 18.171875 -0.0703125 C18.77515625 -0.04710937 19.3784375 -0.02390625 20 0 C19.67 1.32 19.34 2.64 19 4 C18.24074219 4.08636719 17.48148438 4.17273437 16.69921875 4.26171875 C10.74829324 4.91561054 10.74829324 4.91561054 5.9375 8.0625 C4.878424 11.38093813 4.07561343 14.68710079 3.4296875 18.109375 C3 20 3 20 2 21 C0.00041636 21.04080783 -2.00045254 21.04254356 -4 21 C-2.87723429 13.94090922 -1.62436599 6.96156852 0 0 Z " fill="#FFFFFF" transform="translate(120,52)"/>
</svg>
