<?xml version="1.0" encoding="UTF-8"?>
<svg version="1.1" xmlns="http://www.w3.org/2000/svg" width="720" height="122">
<path d="M0 0 C6.22820471 4.38496656 10.3902511 8.82319053 13 16 C13.495 20.95 13.495 20.95 14 26 C5.75 26 -2.5 26 -11 26 C-11.99 23.69 -12.98 21.38 -14 19 C-16.7110077 17.64449615 -18.91339169 17.83082793 -21.9375 17.8125 C-22.99839844 17.79832031 -24.05929688 17.78414062 -25.15234375 17.76953125 C-28.20277669 17.78434933 -28.20277669 17.78434933 -31 20 C-31.66680368 22.95720628 -31.66680368 22.95720628 -31 26 C-26.71695108 29.42643913 -21.66300959 30.16220609 -16.4375 31.3125 C-6.29048327 33.71656242 4.35544932 36.34010557 10.88671875 45.1640625 C15.290673 52.4267239 16.21479936 59.83845008 14.56640625 68.19921875 C12.27904346 75.43069491 7.16595179 81.06611714 0.6875 84.875 C-12.1526283 90.62285713 -29.37217874 90.43072816 -42.453125 85.76953125 C-51.85245028 81.45186089 -56.41025079 76.23557737 -60.3359375 66.8203125 C-61 64 -61 64 -61 55 C-53.08 55 -45.16 55 -37 55 C-35.68 57.97 -34.36 60.94 -33 64 C-27.4098128 66.7950936 -23.14880001 67.45055484 -17.125 66.1875 C-13.95331745 65.2265274 -13.95331745 65.2265274 -12 63 C-11.52277514 60.01272813 -11.52277514 60.01272813 -13 57 C-18.38984669 53.39028616 -25.26380286 52.44664826 -31.5 51.0625 C-42.26553915 48.64795344 -50.55252722 45.43624296 -57 36 C-60.06305637 30.00706362 -59.83784935 22.81811883 -58.41796875 16.34765625 C-55.80248932 8.59676059 -50.65732388 3.566736 -43.5546875 -0.34765625 C-31.23207601 -6.02093778 -11.82075081 -7.28060084 0 0 Z " fill="#6ADF90" transform="translate(220,6)"/>
<path d="M0 0 C21.45 0 42.9 0 65 0 C65 6.93 65 13.86 65 21 C51.8 21 38.6 21 25 21 C25 25.62 25 30.24 25 35 C37.21 35 49.42 35 62 35 C62 42.26 62 49.52 62 57 C49.79 57 37.58 57 25 57 C25 61.62 25 66.24 25 71 C38.2 71 51.4 71 65 71 C65 78.26 65 85.52 65 93 C43.55 93 22.1 93 0 93 C0 62.31 0 31.62 0 0 Z " fill="#6ADF90" transform="translate(0,2)"/>
<path d="M0 0 C1.47583955 0.0001591 2.95168467 0.00585225 4.42749023 0.01586914 C5.20293686 0.01728409 5.97838348 0.01869904 6.77732849 0.02015686 C9.26361893 0.02577194 11.74982059 0.03832693 14.23608398 0.05102539 C15.91772331 0.05603845 17.59936405 0.06060169 19.28100586 0.06469727 C23.41189965 0.07574626 27.54272674 0.09302094 31.67358398 0.11352539 C34.12600913 7.71368147 36.57825665 15.31389483 39.030303 22.91417313 C40.17002396 26.44679566 41.30979666 29.97940147 42.44970703 33.51196289 C42.66836615 34.18960442 42.88702526 34.86724594 43.11231041 35.56542206 C43.55343294 36.93247885 43.99457602 38.299529 44.43573952 39.66657257 C45.53797671 43.0824626 46.63949337 46.49858221 47.73959351 49.91516113 C49.71219032 56.04034964 51.68761841 62.16448927 53.68321514 68.28223038 C54.32838276 70.26108596 54.97175974 72.24051421 55.61451721 74.22015381 C56.40977862 76.66795414 57.20839893 79.11466649 58.010849 81.56011963 C58.36240555 82.64476501 58.7139621 83.7294104 59.07617188 84.84692383 C59.38599503 85.79581482 59.69581818 86.74470581 60.01502991 87.72235107 C60.67358398 90.11352539 60.67358398 90.11352539 60.67358398 93.11352539 C51.76358398 93.11352539 42.85358398 93.11352539 33.67358398 93.11352539 C31.92416752 88.44841482 30.27115759 84.01967677 28.88012695 79.2800293 C28.40481033 77.66893784 28.40481033 77.66893784 27.91989136 76.02529907 C27.5885318 74.89167938 27.25717224 73.75805969 26.91577148 72.59008789 C26.39299118 70.81630264 26.39299118 70.81630264 25.85964966 69.00668335 C24.75317801 65.25144299 23.65056604 61.49508546 22.54858398 57.73852539 C21.43934372 53.96058072 20.32872345 50.1830459 19.21609497 46.40609741 C18.52527367 44.06065303 17.83631652 41.71465865 17.14938354 39.36807251 C16.83881012 38.3129245 16.52823669 37.25777649 16.20825195 36.1706543 C15.9352829 35.23992096 15.66231384 34.30918762 15.381073 33.35025024 C14.73604889 31.10791233 14.73604889 31.10791233 13.67358398 29.11352539 C7.40358398 50.23352539 1.13358398 71.35352539 -5.32641602 93.11352539 C-14.56641602 93.11352539 -23.80641602 93.11352539 -33.32641602 93.11352539 C-29.95170609 80.73958898 -29.95170609 80.73958898 -28.13745117 75.15185547 C-27.73338043 73.9029805 -27.32930969 72.65410553 -26.91299438 71.36738586 C-26.4805163 70.03926726 -26.04801029 68.71115776 -25.61547852 67.38305664 C-25.16067322 65.97987198 -24.70611915 64.57660586 -24.25180054 63.17326355 C-23.06240339 59.50123232 -21.87013112 55.83014167 -20.67706299 52.15930176 C-18.77502259 46.30551606 -16.87736699 40.45030781 -14.97980881 34.59506798 C-14.32670291 32.58121098 -13.67233241 30.56776878 -13.01773071 28.55439758 C-11.29742385 23.25514402 -9.5807507 17.95637642 -7.93988037 12.63192749 C-7.59809785 11.52491627 -7.59809785 11.52491627 -7.24941063 10.39554119 C-6.80965245 8.96684952 -6.37266663 7.53730085 -5.93877602 6.10681629 C-4.10297179 0.14002803 -4.10297179 0.14002803 0 0 Z " fill="#6ADF90" transform="translate(101.326416015625,1.886474609375)"/>
<path d="M0 0 C9.24 0 18.48 0 28 0 C33.84631559 11.58633454 39.4840567 23.25308371 45 35 C50.86126881 23.42119921 56.47395436 11.74284698 62 0 C71.57 0 81.14 0 91 0 C86.9698538 8.73198344 82.87233257 17.37483004 78.375 25.875 C77.7711145 27.04095703 77.7711145 27.04095703 77.1550293 28.23046875 C74.68056679 32.97330618 72.06118758 37.57885157 69.28515625 42.15234375 C58.99160352 59.67403233 57.03317944 73.15255508 58 93 C49.75 93 41.5 93 33 93 C33.1134375 91.19402344 33.226875 89.38804688 33.34375 87.52734375 C34.00614288 66.76349757 28.48661671 53.05724415 18.00146484 35.41064453 C15.28268613 30.77764397 12.82475626 26.0287053 10.375 21.25 C7.32165219 15.42973239 4.19306791 9.656786 0.9609375 3.93359375 C0 2 0 2 0 0 Z " fill="#6ADF90" transform="translate(228,2)"/>
<path d="M0 0 C2.16587145 1.74717076 3.94294047 3.24525594 5.19921875 5.7578125 C5.52921875 2.7878125 5.85921875 -0.1821875 6.19921875 -3.2421875 C9.82921875 -3.2421875 13.45921875 -3.2421875 17.19921875 -3.2421875 C17.29208211 7.05027349 17.36306654 17.34263407 17.40646744 27.63542938 C17.42730247 32.41530707 17.45554515 37.19489717 17.50097656 41.97460938 C17.54458046 46.5911795 17.56838656 51.20747378 17.57872772 55.82423401 C17.58609306 57.58163289 17.60047581 59.33901743 17.62213898 61.09629822 C17.65136713 63.56647844 17.65516679 66.03553283 17.65332031 68.50585938 C17.67489197 69.58480469 17.67489197 69.58480469 17.69689941 70.68554688 C17.6468837 76.908381 15.59222918 82.09833148 11.41015625 86.74609375 C1.51118392 93.88599081 -8.91287939 94.80290277 -20.80078125 93.7578125 C-28.3520554 92.20504132 -34.85570052 88.78710879 -39.80078125 82.7578125 C-40.13078125 81.4378125 -40.46078125 80.1178125 -40.80078125 78.7578125 C-37.83078125 76.7778125 -34.86078125 74.7978125 -31.80078125 72.7578125 C-30.83140625 73.8509375 -29.86203125 74.9440625 -28.86328125 76.0703125 C-23.96929877 80.95440815 -19.00279524 82.4207584 -12.23828125 83.1328125 C-5.24162706 82.36954113 -0.37299293 80.29988726 4.19921875 74.7578125 C5.45355333 70.99480876 5.30617297 67.48570341 5.26171875 63.5703125 C5.25720703 62.82072266 5.25269531 62.07113281 5.24804688 61.29882812 C5.23628229 59.45178867 5.2183474 57.60479037 5.19921875 55.7578125 C4.85890625 56.22832031 4.51859375 56.69882813 4.16796875 57.18359375 C0.43994857 61.9725133 -2.79210997 64.57104646 -8.80078125 65.7578125 C-16.9349021 66.70457083 -24.71583075 65.60079678 -31.51171875 60.87109375 C-38.59062262 54.92356895 -42.38487346 48.88976822 -43.80078125 39.7578125 C-44.50596063 26.37296534 -44.10405839 14.33523412 -34.80078125 3.7578125 C-24.96667528 -4.74686803 -11.19843124 -7.72473131 0 0 Z M-27.05078125 13.0703125 C-32.14789428 19.45833927 -33.24380245 27.32670072 -32.58984375 35.34375 C-31.36224942 42.87145108 -28.68033369 48.40715744 -22.73828125 53.2578125 C-17.70471955 55.70865149 -12.23405975 55.57316505 -6.80078125 54.7578125 C-1.79773503 52.99823222 1.17863747 50.37528931 3.63671875 45.6953125 C7.38297664 37.21163431 7.45580356 27.61489332 4.63671875 18.8203125 C2.59582755 13.82741796 -0.19122866 10.55990711 -4.80078125 7.7578125 C-13.30002048 4.92473276 -20.96589687 6.45885158 -27.05078125 13.0703125 Z " fill="#0F0F39" transform="translate(702.80078125,28.2421875)"/>
<path d="M0 0 C3.63 0 7.26 0 11 0 C11 30.69 11 61.38 11 93 C7.37 93 3.74 93 0 93 C-0.495 88.545 -0.495 88.545 -1 84 C-2.299375 85.6396875 -2.299375 85.6396875 -3.625 87.3125 C-6.31876574 90.71177582 -8.96153711 92.3933519 -13 94 C-22.88197574 95.0979973 -31.48417406 94.53596319 -39.625 88.5625 C-46.85044177 81.88268656 -50.40649223 71.63503034 -51 62 C-51.09666653 49.14335177 -49.32112134 38.31526483 -40.12109375 28.87890625 C-33.30750015 22.84329203 -26.00422842 21.72447281 -17 22 C-10.85784576 23.01918272 -7.06852046 25.19174855 -3 30 C-2.34 30.66 -1.68 31.32 -1 32 C-0.67 21.44 -0.34 10.88 0 0 Z M-33 38 C-38.86907969 47.05975144 -40.31417592 56.12608158 -38.5390625 66.76171875 C-37.01804239 72.60422542 -34.65323734 77.07689592 -30 81 C-25.22035731 83.69398043 -21.45786897 84.67026461 -16 84 C-9.11927868 81.59433427 -5.53612287 78.12913919 -2.3125 71.5625 C1.12014362 62.24532446 1.12876238 51.90527635 -3 42.79296875 C-5.70017306 38.00549087 -8.63799158 34.61966859 -14 33 C-21.30256303 31.85385782 -27.67317034 32.55238055 -33 38 Z " fill="#0F0F39" transform="translate(561,2)"/>
<path d="M0 0 C18.48 0 36.96 0 56 0 C56 3.63 56 7.26 56 11 C41.48 11 26.96 11 12 11 C12 20.9 12 30.8 12 41 C25.2 41 38.4 41 52 41 C52 44.63 52 48.26 52 52 C38.8 52 25.6 52 12 52 C12 65.53 12 79.06 12 93 C8.04 93 4.08 93 0 93 C0 62.31 0 31.62 0 0 Z " fill="#0F0F39" transform="translate(332,2)"/>
<path d="M0 0 C3.96 0 7.92 0 12 0 C12.01401855 2.22484131 12.01401855 2.22484131 12.02832031 4.49462891 C12.0682495 10.00762758 12.1340176 15.52006996 12.20751953 21.03271484 C12.23571195 23.41675663 12.25693503 25.80089158 12.27099609 28.18505859 C12.29244869 31.61604452 12.33911364 35.04591224 12.390625 38.4765625 C12.39185364 39.53928375 12.39308228 40.602005 12.39434814 41.69692993 C12.51374765 47.75563177 12.94618968 51.38791473 17 56 C20.16008495 58.27363714 23.46860191 59.0842269 27.34375 58.87109375 C32.12146456 57.98721656 35.59807218 56.60204122 39 53 C42.5697964 47.51110457 42.47113756 42.46520496 42.51171875 36.1328125 C42.52966995 35.09808807 42.54762115 34.06336365 42.56611633 32.99728394 C42.62010969 29.70656353 42.65408042 26.41598729 42.6875 23.125 C42.72068269 20.88800082 42.75517323 18.65102064 42.79101562 16.4140625 C42.87583017 10.94281251 42.94269411 5.47160447 43 0 C46.96 0 50.92 0 55 0 C55 23.1 55 46.2 55 70 C51.04 70 47.08 70 43 70 C42.505 66.04 42.505 66.04 42 62 C41.50371094 62.48210937 41.00742187 62.96421875 40.49609375 63.4609375 C34.24245495 69.27551627 28.84812016 71.48382866 20.26953125 71.25 C13.67874684 70.52399277 9.32113811 68.06190464 5 63 C4.443125 62.38125 3.88625 61.7625 3.3125 61.125 C-0.73624589 54.56988761 -0.26507016 47.38380002 -0.1953125 39.94140625 C-0.1924826 38.79711655 -0.18965271 37.65282684 -0.18673706 36.47386169 C-0.17558578 32.83663257 -0.15049014 29.19965409 -0.125 25.5625 C-0.11496369 23.08919628 -0.10583898 20.61588868 -0.09765625 18.14257812 C-0.07566292 12.09495623 -0.0411676 6.04752054 0 0 Z " fill="#0F0F39" transform="translate(389,25)"/>
<path d="M0 0 C0 0.99 0 1.98 0 3 C-37.38525731 20.19843811 -78.23311261 25.32449252 -119 25.4375 C-120.06727325 25.44376404 -121.13454651 25.45002808 -122.23416138 25.45648193 C-155.12783743 25.57877621 -155.12783743 25.57877621 -167 18 C-169 16 -169 16 -169.375 13.125 C-169 10 -169 10 -167.1875 7.6875 C-163.0740661 4.51427956 -158.97259011 4.65074234 -154 5 C-148.70990019 5.69577202 -143.45011822 6.56209697 -138.1875 7.4375 C-96.58745469 14.30473321 -49.00464369 14.40568996 -8.59765625 0.859375 C-5.6168671 -0.12675073 -3.11912549 -0.14852979 0 0 Z " fill="#6ADF90" transform="translate(237,97)"/>
<path d="M0 0 C6.69797906 7.33588183 7.19027324 14.96710003 7.015625 24.56640625 C7.00996521 25.75225815 7.00430542 26.93811005 6.99847412 28.15989685 C6.97621801 31.9195216 6.9260393 35.67816694 6.875 39.4375 C6.8549212 41.99803304 6.83667286 44.55858113 6.8203125 47.11914062 C6.77638811 53.3714668 6.70743331 59.62306777 6.625 65.875 C2.995 65.875 -0.635 65.875 -4.375 65.875 C-4.3843457 64.46283203 -4.39369141 63.05066406 -4.40332031 61.59570312 C-4.44333663 56.33236708 -4.50912852 51.06960837 -4.58251953 45.80664062 C-4.6106616 43.53327884 -4.63190961 41.25982045 -4.64599609 38.98632812 C-4.66751882 35.7091347 -4.71421885 32.43309469 -4.765625 29.15625 C-4.76685364 28.14759888 -4.76808228 27.13894775 -4.76934814 26.09973145 C-4.89587192 19.93741593 -5.70558049 14.96703449 -9.375 9.875 C-14.01511019 6.42189474 -18.78685479 6.1426219 -24.375 6.875 C-29.09378688 8.56664058 -31.58082817 10.73548618 -34.375 14.875 C-35.33017533 17.740526 -35.52554198 19.64021321 -35.58032227 22.62182617 C-35.60026749 23.58259567 -35.62021271 24.54336517 -35.64076233 25.5332489 C-35.66583107 27.08493523 -35.66583107 27.08493523 -35.69140625 28.66796875 C-35.71218735 29.72913406 -35.73296844 30.79029938 -35.75437927 31.88362122 C-35.81981238 35.27651437 -35.87873093 38.6694855 -35.9375 42.0625 C-35.98069114 44.36133622 -36.02430562 46.66016453 -36.06835938 48.95898438 C-36.17548745 54.59757615 -36.27677268 60.23624643 -36.375 65.875 C-40.335 65.875 -44.295 65.875 -48.375 65.875 C-48.375 42.775 -48.375 19.675 -48.375 -4.125 C-44.745 -4.125 -41.115 -4.125 -37.375 -4.125 C-37.045 -1.485 -36.715 1.155 -36.375 3.875 C-35.8903125 3.39289062 -35.405625 2.91078125 -34.90625 2.4140625 C-24.73830975 -7.16726581 -11.78330434 -7.41911755 0 0 Z " fill="#0F0F39" transform="translate(499.375,29.125)"/>
<path d="M0 0 C5.51658159 5.35075431 7.36743442 12.93265484 7.64160156 20.43041992 C7.64097964 22.5305427 7.61906716 24.63074501 7.578125 26.73046875 C7.57246521 27.84690262 7.56680542 28.96333649 7.56097412 30.11360168 C7.53879198 33.63869241 7.48862917 37.16272257 7.4375 40.6875 C7.41741156 43.09438624 7.39916493 45.5012886 7.3828125 47.90820312 C7.33898667 53.77253679 7.27008582 59.63608932 7.1875 65.5 C3.2275 65.5 -0.7325 65.5 -4.8125 65.5 C-4.82708252 64.04706543 -4.84166504 62.59413086 -4.85668945 61.09716797 C-4.91475118 55.69604129 -4.99198439 50.29532805 -5.07495117 44.89453125 C-5.10816333 42.55898763 -5.13620676 40.22336447 -5.15893555 37.88769531 C-5.19254901 34.52634855 -5.24487003 31.16572831 -5.30078125 27.8046875 C-5.30717117 26.76384003 -5.3135611 25.72299255 -5.32014465 24.65060425 C-5.4299746 19.20984508 -5.69966956 15.16854551 -8.8125 10.5 C-12.31079855 7.25767452 -15.08226725 6.21281456 -19.75 6 C-24.84729231 6.22262271 -27.74659073 7.42982361 -31.8125 10.5 C-35.07469052 14.84958736 -35.91503566 18.83185406 -36.01782227 24.17675781 C-36.03776749 25.09741028 -36.05771271 26.01806274 -36.07826233 26.96661377 C-36.10333107 28.44493683 -36.10333107 28.44493683 -36.12890625 29.953125 C-36.14968735 30.96848328 -36.17046844 31.98384155 -36.19187927 33.02996826 C-36.25720597 36.26991073 -36.31618137 39.50993348 -36.375 42.75 C-36.41820126 44.94792493 -36.46181607 47.14584178 -36.50585938 49.34375 C-36.61287012 54.72908461 -36.71418522 60.1144999 -36.8125 65.5 C-40.4425 65.5 -44.0725 65.5 -47.8125 65.5 C-47.8125 42.4 -47.8125 19.3 -47.8125 -4.5 C-44.1825 -4.5 -40.5525 -4.5 -36.8125 -4.5 C-36.4825 -1.86 -36.1525 0.78 -35.8125 3.5 C-34.7296875 2.3553125 -34.7296875 2.3553125 -33.625 1.1875 C-24.10902253 -7.90554514 -10.45727977 -7.73123675 0 0 Z " fill="#0F0F39" transform="translate(647.8125,29.5)"/>
<path d="M0 0 C3.63 0 7.26 0 11 0 C11 23.1 11 46.2 11 70 C7.37 70 3.74 70 0 70 C0 46.9 0 23.8 0 0 Z " fill="#0F0F39" transform="translate(581,25)"/>
<path d="M0 0 C2.16796875 0.4140625 2.16796875 0.4140625 4.79296875 2.5390625 C6.49310036 6.09388314 6.38007487 7.69693706 5.16796875 11.4140625 C3.40932916 14.24742628 2.06400675 14.44294083 -1.20703125 15.3515625 C-4.83203125 15.4140625 -4.83203125 15.4140625 -7.76953125 13.9765625 C-9.92326632 11.30070984 -10.19339572 10.6185388 -10.33203125 7.3515625 C-9.83203125 3.4140625 -9.83203125 3.4140625 -8.578125 1.69921875 C-5.79381686 -0.35008187 -3.35784385 -0.12050989 0 0 Z " fill="#6ADF90" transform="translate(588.83203125,-0.4140625)"/>
</svg>
