<?xml version="1.0" encoding="UTF-8"?>
<svg version="1.1" xmlns="http://www.w3.org/2000/svg" width="580" height="586">
<path d="M0 0 C62.37 0 124.74 0 189 0 C189 88.11 189 176.22 189 267 C126.63 267 64.26 267 0 267 C0 178.89 0 90.78 0 0 Z M13 13 C13 18.28 13 23.56 13 29 C15.26054271 25.98594306 17.46220415 22.95813451 19.625 19.875 C20.23601562 19.00617187 20.84703125 18.13734375 21.4765625 17.2421875 C23.00739428 15.09584033 23.00739428 15.09584033 24 13 C20.37 13 16.74 13 13 13 Z M36 18 C35.06542969 18.65226562 34.13085938 19.30453125 33.16796875 19.9765625 C30.72931759 22.25263691 29.07567425 24.54599682 27.3125 27.375 C26.73113281 28.29023438 26.14976562 29.20546875 25.55078125 30.1484375 C20.9597986 38.59029476 20.43165701 48.14395538 22.91015625 57.3984375 C27.45080784 68.99096922 34.23947396 75.00663718 45.4765625 80.12890625 C48.14538421 81.05018681 50.50308298 81.40024664 53.3125 81.625 C54.19550781 81.69976562 55.07851562 81.77453125 55.98828125 81.8515625 C56.98408203 81.92503906 56.98408203 81.92503906 58 82 C57.62488281 81.5875 57.24976563 81.175 56.86328125 80.75 C46.56855435 69.1327767 42.84454751 57.75919987 42.75 42.3125 C42.729375 41.45849609 42.70875 40.60449219 42.6875 39.72460938 C42.68234375 38.90412109 42.6771875 38.08363281 42.671875 37.23828125 C42.6625293 36.49618408 42.65318359 35.75408691 42.64355469 34.98950195 C43.11878775 32.33698535 43.85178464 31.6200835 46 30 C48.72315979 29.61904907 48.72315979 29.61904907 52.05688477 29.61181641 C53.30570938 29.60235992 54.554534 29.59290344 55.84120178 29.5831604 C57.20793981 29.58853421 58.57467495 29.59468818 59.94140625 29.6015625 C61.3480596 29.59954016 62.75471192 29.59662739 64.16136169 29.59286499 C67.11459298 29.58843897 70.06755229 29.59487452 73.02075195 29.60888672 C76.78086908 29.62586926 80.54033858 29.61620977 84.30043125 29.59816933 C87.20980051 29.5872444 90.11902054 29.59081919 93.0283947 29.5985527 C94.41288265 29.60053652 95.79738471 29.59816029 97.18185616 29.59111404 C107.03320655 29.55202135 115.99251021 29.83514049 124.125 35.875 C128.13007342 38.7560919 132.24320769 40.19815171 136.9375 41.5625 C152.79082582 46.19516763 166.04404993 54.87715567 175 69 C175.33 69 175.66 69 176 69 C176 50.52 176 32.04 176 13 C159.07514057 12.88698446 142.15060486 12.7949416 125.22547245 12.74093914 C117.36624167 12.71519462 109.50726256 12.68011646 101.64819336 12.62280273 C94.79549832 12.57285215 87.94298562 12.54068172 81.09011358 12.52955753 C77.46392479 12.52305829 73.83825749 12.50786321 70.2122364 12.47134972 C66.15696542 12.43084774 62.10259192 12.43005799 58.04711914 12.43237305 C56.85452988 12.41439667 55.66194061 12.39642029 54.43321228 12.37789917 C47.00021891 12.42373459 42.08110967 13.68815642 36 18 Z M54 41 C53.95590335 43.23159195 53.92450612 45.46343715 53.8984375 47.6953125 C53.87958496 48.93812988 53.86073242 50.18094727 53.84130859 51.46142578 C54.23244822 60.18323765 59.56700913 67.93489219 65.8828125 73.7265625 C75.27820409 81.2060311 85.12313795 82.1871117 96.8125 82.25 C97.75931641 82.270625 98.70613281 82.29125 99.68164062 82.3125 C106.86411869 82.35204565 113.16353907 81.45143351 119.3046875 77.52734375 C123.8180586 72.9578362 126.23263075 68.43409601 127 62 C126.61190783 54.90019609 123.79458364 49.51512528 118.5 44.75 C114.21497582 41.75048308 111.50966786 40.74995797 106.22167969 40.77294922 C105.0607782 40.77310028 103.89987671 40.77325134 102.70379639 40.77340698 C101.45576233 40.78372955 100.20772827 40.79405212 98.921875 40.8046875 C97.64016418 40.8075174 96.35845337 40.81034729 95.03790283 40.81326294 C91.63810361 40.82088212 88.23847654 40.84051566 84.83874512 40.8626709 C81.36647876 40.88316642 77.89418447 40.89227256 74.421875 40.90234375 C67.61451283 40.92376334 60.80726469 40.95787844 54 41 Z M137 53 C137.03480469 53.82242188 137.06960938 54.64484375 137.10546875 55.4921875 C137.38090593 66.85069229 135.41203005 74.64190209 129 84 C131.64 86.31 134.28 88.62 137 91 C141.39933953 89.53355349 144.68059895 87.12100539 148.25 84.25 C153.34286537 80.23585451 158.52297366 76.48152062 164 73 C157.78560133 62.99699863 148.4249054 55.85622635 137 53 Z M13 64 C13 97.33 13 130.66 13 165 C23.89 165 34.78 165 46 165 C47.32 162.03 48.64 159.06 50 156 C54.58341195 149.49795049 59.34097787 146.50134522 67.0144043 144.46557617 C71.3469942 143.78994865 75.63696439 143.84381925 80.015625 143.82421875 C82.0091251 143.80101663 84.00261471 143.77689913 85.99609375 143.75195312 C89.12067661 143.71690878 92.24487377 143.68752206 95.36962891 143.67407227 C98.39792962 143.65850691 101.42512109 143.61824372 104.453125 143.57421875 C105.83639984 143.57708138 105.83639984 143.57708138 107.24761963 143.58000183 C115.52744617 143.42556265 123.03420406 140.96579594 129 135 C133.71232775 128.72147585 136.56120622 122.19265053 136.3125 114.171875 C135.11917848 105.87829045 130.8755899 98.65933645 124.19921875 93.6484375 C120.74598021 91.43844778 120.74598021 91.43844778 116.7890625 91.40625 C116.19867188 91.6021875 115.60828125 91.798125 115 92 C114.85304688 92.83402344 114.70609375 93.66804688 114.5546875 94.52734375 C112.72239785 103.72038321 110.14588794 111.10158996 102.5 116.9375 C96.51674838 120.71776791 90.04563304 122.17849617 83 121 C81 118 81 118 81.3125 115.375 C82 113 82 113 83 112 C84.51931095 111.78084014 86.04052625 111.57483167 87.5625 111.375 C93.43996368 110.26190788 97.13244762 107.49318585 101 103 C103.21520603 99.63459084 103.06747448 96.96007736 103 93 C102.36487991 92.99635437 101.72975983 92.99270874 101.07539368 92.98895264 C94.40659255 92.94682535 87.73846044 92.87727224 81.07006836 92.79248047 C78.58836592 92.76442406 76.10657666 92.7431341 73.62475586 92.72900391 C70.03715044 92.7073614 66.45057224 92.66060174 62.86328125 92.609375 C61.22496086 92.60753204 61.22496086 92.60753204 59.55354309 92.60565186 C46.63684118 92.36539591 34.07395892 88.64996769 24.5234375 79.671875 C19.94413685 74.80916486 16.61556783 70.14089838 14 64 C13.67 64 13.34 64 13 64 Z M164.5859375 85.4140625 C163.90660156 85.92839844 163.22726562 86.44273438 162.52734375 86.97265625 C161.81707031 87.51792969 161.10679687 88.06320313 160.375 88.625 C158.98697917 89.6796875 157.59895833 90.734375 156.2109375 91.7890625 C155.52354492 92.3140332 154.83615234 92.83900391 154.12792969 93.37988281 C150.7663742 95.93923139 147.38269501 98.46867991 144 101 C144.99 104.3 145.98 107.6 147 111 C156.57 111 166.14 111 176 111 C176 105.29728839 175.86046768 101.25260569 174.6875 95.875 C174.44386719 94.71742187 174.20023438 93.55984375 173.94921875 92.3671875 C172.99108329 88.96836955 171.68049948 86.09739119 170 83 C167.39943213 83 166.64050419 83.84663308 164.5859375 85.4140625 Z M147 122 C142.20299374 131.64463907 142.20299374 131.64463907 144 136 C145.50435381 137.41519952 145.50435381 137.41519952 147.37890625 138.69921875 C148.05244141 139.18583984 148.72597656 139.67246094 149.41992188 140.17382812 C150.12697266 140.67333984 150.83402344 141.17285156 151.5625 141.6875 C152.27341797 142.19861328 152.98433594 142.70972656 153.71679688 143.23632812 C155.47309098 144.49755946 157.23593636 145.74965887 159 147 C166.86936578 139.356995 170.12764055 132.64898848 174 122 C165.09 122 156.18 122 147 122 Z M130.875 147 C129.78832031 147.8353125 129.78832031 147.8353125 128.6796875 148.6875 C128.12539063 149.120625 127.57109375 149.55375 127 150 C127.44962196 151.96035175 127.90998248 153.91824309 128.375 155.875 C128.63023437 156.96554688 128.88546875 158.05609375 129.1484375 159.1796875 C129.78906215 162.10408455 129.78906215 162.10408455 132 164 C134.06473432 163.23517162 136.1267021 162.46287235 138.1875 161.6875 C139.33605469 161.25824219 140.48460937 160.82898438 141.66796875 160.38671875 C144.67636306 159.13469064 147.3349064 157.87209023 150 156 C150 155.34 150 154.68 150 154 C147.9102773 152.20460444 145.82157918 150.52938558 143.625 148.875 C143.02171875 148.40707031 142.4184375 147.93914062 141.796875 147.45703125 C136.82226249 143.66527105 135.76346371 143.21538294 130.875 147 Z M175 146 C173.64618612 147.671114 172.31769709 149.36276226 171 151.0625 C167.27340967 155.69830659 163.48112939 159.30750071 158.65234375 162.7578125 C158.10707031 163.16773438 157.56179688 163.57765625 157 164 C157 164.33 157 164.66 157 165 C163.27 165 169.54 165 176 165 C176 158.73 176 152.46 176 146 C175.67 146 175.34 146 175 146 Z M58 163 C58 163.66 58 164.32 58 165 C67.9 165 77.8 165 88 165 C88 161.7 88 158.4 88 155 C84.79075291 154.89162017 81.5851973 154.81250732 78.375 154.75 C77.47136719 154.71648437 76.56773437 154.68296875 75.63671875 154.6484375 C67.78444973 154.53380584 63.19817075 157.00211067 58 163 Z M105.8125 154.5 C103.90404297 154.63921875 103.90404297 154.63921875 101.95703125 154.78125 C100.49330078 154.88953125 100.49330078 154.88953125 99 155 C99 158.3 99 161.6 99 165 C105.6 165 112.2 165 119 165 C117.93760529 159.34463234 117.93760529 159.34463234 116 154 C112.58224994 154 109.22118827 154.24982104 105.8125 154.5 Z M45 178 C48.15275848 179.60366676 51.33509682 180.9479275 54.625 182.25 C72.88276608 189.84629684 84.40124126 201.69690287 92 220 C95.34166927 229.71823162 96.68694524 239.31449895 97.60546875 249.4921875 C97.61033764 252.81821924 97.61033764 252.81821924 99 254 C101.67058851 254.14115161 104.32432238 254.04247107 107 254 C108.14320411 232.02507649 101.74335857 208.63893325 87 192 C78.52237023 182.33360372 78.52237023 182.33360372 67.01391602 177.60400391 C63.66197398 177.50922987 60.35078785 177.56275704 57 177.6875 C55.84371094 177.71005859 54.68742187 177.73261719 53.49609375 177.75585938 C50.66269566 177.81440066 47.83204636 177.89634965 45 178 Z M92 178 C93.98 180.31 95.96 182.62 98 185 C103.33639048 191.85638695 107.31649242 199.14724758 111 207 C114.710674 205.67069725 117.98448532 203.89066742 121.36669922 201.87719727 C129.66206322 196.96310673 137.69580304 193.55811448 147 191 C147.82242188 190.76667969 148.64484375 190.53335938 149.4921875 190.29296875 C158.09335787 188.22452121 167.1979642 188.34340591 176 188 C176 184.7 176 181.4 176 178 C148.28 178 120.56 178 92 178 Z M13 189 C13 190.65 13 192.3 13 194 C14.26972656 194.08636719 15.53945312 194.17273438 16.84765625 194.26171875 C31.69461078 195.41459904 44.92404953 197.59876663 57 207 C58.299375 207.86625 58.299375 207.86625 59.625 208.75 C70.97226882 219.50004415 75.44366376 234.99096641 76.75390625 250.15234375 C76.910271 252.09155094 76.910271 252.09155094 78 254 C80.31 254 82.62 254 85 254 C86.28985005 237.4110952 80.85927104 219.84706611 70.1875 207.0625 C59.52894903 196.05683146 45.05378404 189.40784521 29.67138672 188.92724609 C24.1121699 188.83997259 18.55860068 188.89631626 13 189 Z M117 220 C115.72648692 222.54702616 116.19808075 223.4282945 116.9375 226.125 C117.13214844 226.84945312 117.32679688 227.57390625 117.52734375 228.3203125 C117.68332031 228.87460938 117.83929688 229.42890625 118 230 C118.70125 229.55269531 119.4025 229.10539062 120.125 228.64453125 C122.10542262 227.38254999 124.08866884 226.12499249 126.07421875 224.87109375 C127.73962833 223.80603208 129.39576319 222.72518572 131.01953125 221.59765625 C144.45777922 212.43388367 160.18689965 210.58447328 176 211 C176.02689216 209.52093108 176.04634621 208.04172517 176.0625 206.5625 C176.07410156 205.73878906 176.08570313 204.91507813 176.09765625 204.06640625 C176.23267348 202.00836062 176.23267348 202.00836062 175 201 C153.811296 199.33653675 133.34123091 206.28967021 117 220 Z M13 207 C13 222.51 13 238.02 13 254 C30.16 254 47.32 254 65 254 C62.887561 239.21292702 60.72311889 225.64706125 48.45703125 216 C37.15591265 208.34903113 26.51371691 207 13 207 Z M123 243 C122.38898438 243.50660156 121.77796875 244.01320312 121.1484375 244.53515625 C119.61068569 246.49657437 119.69159728 247.72914469 119.8125 250.1875 C119.874375 251.445625 119.93625 252.70375 120 254 C124.16373026 253.46210183 126.7593498 250.95776592 129.875 248.375 C143.84107124 237.20374807 158.16478049 232.73642533 176 233 C176 230.03 176 227.06 176 224 C156.14466104 219.03616526 137.56853751 230.69098455 123 243 Z M145 253 C145 253.33 145 253.66 145 254 C155.23 254 165.46 254 176 254 C176 251.36 176 248.72 176 246 C165.46410951 242.62851504 153.86788848 247.22556099 145 253 Z " fill="#000000" transform="translate(194,0)"/>
<path d="M0 0 C5.30226045 0.05660776 8.34265738 0.54114951 12.3125 4.3125 C16.15713816 9.40404783 17.40170247 13.21190429 17.875 19.5 C18.00068359 21.13001953 18.00068359 21.13001953 18.12890625 22.79296875 C18.18949219 23.62441406 18.25007813 24.45585937 18.3125 25.3125 C18.73660156 24.67183594 19.16070312 24.03117187 19.59765625 23.37109375 C26.6192479 13.01617508 33.24822325 5.71750982 45.87890625 2.69921875 C53.22325801 1.53213878 59.12774503 1.87617787 65.3125 6.3125 C72.11844134 12.53331516 74.94509836 19.89332583 75.5625 29 C75.4497949 36.45262441 73.00036993 43.52160185 68.3125 49.3125 C62.81149028 54.15862761 59.4718009 54.64881176 52.2421875 54.60546875 C48.52135855 54.23338586 46.73053398 53.14743639 44.3125 50.3125 C42.57603331 46.83956662 42.84987197 43.10990506 43.3125 39.3125 C45.14843391 35.84462484 47.48916003 33.10297299 50 30.125 C53.35615553 26.04318922 53.731858 22.65664567 53.6484375 17.54296875 C53.42726583 15.02444055 53.42726583 15.02444055 51.3125 12.25 C47.55914888 9.82596073 44.60671591 9.42140777 40.3125 10.3125 C29.12078846 15.79415463 24.21113353 27.57134989 19.3125 38.3125 C18.03421602 42.14735194 18.15904867 45.762922 18.15428162 49.75956726 C18.14687465 51.06810715 18.14687465 51.06810715 18.13931805 52.40308219 C18.12391344 55.33732302 18.1155744 58.27154191 18.10717773 61.20581055 C18.09760154 63.30475051 18.08759161 65.40368853 18.07717896 67.50262451 C18.0500958 73.21093012 18.02910471 78.91924403 18.00917697 84.6275785 C17.98733844 90.58936568 17.95993933 96.55112719 17.93312073 102.51289368 C17.88316496 113.80693171 17.83823683 125.10098397 17.79509836 136.39504987 C17.74575062 149.25099821 17.69082337 162.10692081 17.63541877 174.96284425 C17.52155445 201.41270566 17.41492302 227.86259203 17.3125 254.3125 C9.3925 254.3125 1.4725 254.3125 -6.6875 254.3125 C-7.0175 212.7325 -7.3475 171.1525 -7.6875 128.3125 C-19.99426224 158.27396014 -19.99426224 158.27396014 -32.16021729 188.29092407 C-38.45522062 203.93958667 -44.81758565 219.5581859 -51.3125 235.125 C-51.6347757 235.89774261 -51.95705139 236.67048523 -52.28909302 237.46664429 C-57.46552261 249.86854522 -57.46552261 249.86854522 -58.6875 252.3125 C-60.3375 252.3125 -61.9875 252.3125 -63.6875 252.3125 C-69.39779895 241.64826238 -73.96140456 230.48444828 -78.65859985 219.35003662 C-81.18256173 213.36881793 -83.72013207 207.39337681 -86.2578125 201.41796875 C-86.5188936 200.80290718 -86.77997471 200.18784561 -87.04896736 199.55414581 C-93.12857673 185.23454344 -99.30385103 170.95701029 -105.5 156.6875 C-106.00135468 155.53154327 -106.50270935 154.37558655 -107.01925659 153.18460083 C-108.43459903 149.92192915 -109.8516594 146.66001064 -111.26953125 143.3984375 C-111.68931244 142.43114212 -112.10909363 141.46384674 -112.54159546 140.46723938 C-112.9285257 139.57876816 -113.31545593 138.69029694 -113.71411133 137.77490234 C-114.04888992 137.00512054 -114.38366852 136.23533875 -114.72859192 135.44223022 C-115.6620652 133.36899056 -116.66505634 131.3429821 -117.6875 129.3125 C-117.60246342 130.22414508 -117.60246342 130.22414508 -117.51570892 131.15420723 C-116.13558421 145.95205999 -114.7585153 160.75019474 -113.38483429 175.54864693 C-112.72045557 182.70509755 -112.05504831 189.86144973 -111.38720703 197.01757812 C-110.8050243 203.25587675 -110.22478426 209.49435251 -109.64686251 215.73304737 C-109.34087771 219.03543437 -109.03364066 222.33769704 -108.72465515 225.63980484 C-108.37963303 229.32881074 -108.03804534 233.01811965 -107.69726562 236.70751953 C-107.5944075 237.79868576 -107.49154938 238.88985199 -107.38557434 240.01408386 C-107.2467408 241.52838234 -107.2467408 241.52838234 -107.10510254 243.07327271 C-106.98342587 244.38129695 -106.98342587 244.38129695 -106.85929108 245.71574593 C-106.67009095 248.57565118 -106.6875 251.44634321 -106.6875 254.3125 C-112.2975 254.3125 -117.9075 254.3125 -123.6875 254.3125 C-124.0175 213.7225 -124.3475 173.1325 -124.6875 131.3125 C-127.9875 140.5525 -131.2875 149.7925 -134.6875 159.3125 C-137.07754833 165.52466055 -139.48231839 171.7157473 -142 177.875 C-142.31188263 178.64157928 -142.62376526 179.40815857 -142.94509888 180.19796753 C-147.23658422 190.71851838 -151.73443203 201.11866425 -156.625 211.375 C-157.1197583 212.41922119 -157.6145166 213.46344238 -158.12426758 214.53930664 C-166.30935976 231.27081858 -175.75445792 245.37584254 -193.9375 251.6875 C-207.96025108 255.91600999 -220.26168869 254.74796981 -233.2109375 247.8828125 C-246.29669975 239.58553107 -254.01238091 228.12512917 -258.23168945 213.4152832 C-260.66965165 202.16827279 -259.60668154 188.63630863 -254.6875 178.3125 C-254.336875 177.53132812 -253.98625 176.75015625 -253.625 175.9453125 C-250.41104855 169.4950905 -245.70871881 164.41839366 -240.6875 159.3125 C-240.03652344 158.64863281 -239.38554687 157.98476563 -238.71484375 157.30078125 C-229.71743943 148.78373117 -219.3005807 145.91177376 -207.16796875 146.03515625 C-197.73865894 146.78653784 -190.12983037 150.70378726 -182.6875 156.3125 C-181.82125 156.89 -180.955 157.4675 -180.0625 158.0625 C-172.49017091 165.23628545 -168.18682611 174.31519555 -165.6875 184.3125 C-165.6875 187.6125 -165.6875 190.9125 -165.6875 194.3125 C-188.1275 194.3125 -210.5675 194.3125 -233.6875 194.3125 C-232.62841399 211.25787614 -230.72691881 227.43214064 -217.6875 239.3125 C-210.44088007 244.01264414 -203.2291596 245.12814919 -194.6875 244.3125 C-191.12507579 243.36252021 -187.9587795 242.00162883 -184.6875 240.3125 C-184.07261719 240.00828125 -183.45773438 239.7040625 -182.82421875 239.390625 C-160.94474985 226.31324129 -150.39014262 183.0920983 -142.14501953 161.20385742 C-140.93052874 157.98150347 -139.70611898 154.76304565 -138.48046875 151.54492188 C-134.92239303 142.16837643 -131.42097071 132.77974327 -128.234375 123.26953125 C-128.0004303 122.57292892 -127.7664856 121.8763266 -127.52545166 121.15861511 C-126.01640513 116.56404839 -124.86679032 112.02966126 -123.6875 107.3125 C-116.0975 107.3125 -108.5075 107.3125 -100.6875 107.3125 C-96.28125 117.59375 -96.28125 117.59375 -94.74879456 121.16966248 C-92.42366799 126.59519786 -90.0983561 132.02065346 -87.77231312 137.44579601 C-86.3884585 140.6734502 -85.00474239 143.90116376 -83.62109375 147.12890625 C-83.339438 147.78594103 -83.05778225 148.44297581 -82.76759148 149.11992073 C-78.71677504 158.57020842 -74.67294733 168.023461 -70.63376236 177.47872543 C-68.97433907 181.36251905 -67.31364587 185.24576983 -65.65289497 189.1289959 C-64.31806862 192.25047921 -62.98419313 195.3723624 -61.65234375 198.49511719 C-60.16751515 201.97553309 -58.6797847 205.45469477 -57.19140625 208.93359375 C-56.74773209 209.97571518 -56.30405792 211.01783661 -55.84693909 212.09153748 C-55.44313522 213.0338472 -55.03933136 213.97615692 -54.62329102 214.94702148 C-54.09566917 216.18258034 -54.09566917 216.18258034 -53.55738831 217.44309998 C-52.83105478 219.28320347 -52.83105478 219.28320347 -51.6875 220.3125 C-48.72881438 212.77097151 -45.77058508 205.22926407 -42.8125 197.6875 C-42.14272125 195.97995544 -42.14272125 195.97995544 -41.45941162 194.23791504 C-36.48845283 181.56433535 -31.52008042 168.88975727 -26.5625 156.2109375 C-26.15836884 155.17750214 -25.75423767 154.14406677 -25.33786011 153.07931519 C-23.42511731 148.18779426 -21.51306068 143.29600677 -19.60205078 138.40380859 C-18.90399018 136.6181567 -18.20591169 134.83251181 -17.5078125 133.046875 C-17.2085083 132.27991302 -16.9092041 131.51295105 -16.60083008 130.7227478 C-16.30474854 129.96571564 -16.00866699 129.20868347 -15.70361328 128.42871094 C-15.39955063 127.62450714 -15.09548798 126.82030334 -14.7822113 125.99172974 C-13.6875 123.3125 -13.6875 123.3125 -12.14173889 120.24240112 C-6.47593581 108.2348993 -6.84441389 96.55872584 -6.91796875 83.4765625 C-6.90924246 81.10141869 -6.89774635 78.72628361 -6.88362122 76.35116577 C-6.8534194 70.14717977 -6.85761988 63.94371324 -6.87023926 57.73968506 C-6.8797269 50.16234695 -6.85124607 42.58507337 -6.82517719 35.0077877 C-6.80516798 29.12341148 -6.79191766 23.23930057 -6.79936218 17.35488892 C-6.79904495 16.28084305 -6.79872772 15.20679718 -6.79840088 14.10020447 C-6.79788392 12.087018 -6.80113892 10.07382591 -6.80873108 8.06065369 C-6.80761322 7.18064194 -6.80649536 6.30063019 -6.80534363 5.39395142 C-6.80735417 4.24097533 -6.80735417 4.24097533 -6.80940533 3.0647068 C-6.53622533 -0.86184725 -3.24047697 0.0757307 0 0 Z M-225.23828125 160.140625 C-231.22437207 169.11169372 -233.6875 179.6518807 -233.6875 190.3125 C-219.1675 190.3125 -204.6475 190.3125 -189.6875 190.3125 C-191.58323651 169.92324834 -191.58323651 169.92324834 -202.6875 153.3125 C-211.812255 147.9147576 -219.25703454 152.79358179 -225.23828125 160.140625 Z " fill="#000000" transform="translate(258.6875,331.6875)"/>
<path d="M0 0 C44.88 0 89.76 0 136 0 C139 14 139 14 139 17 C119.41969513 15.04196951 100.26434034 10.01340424 81 6 C80.67 52.2 80.34 98.4 80 146 C72.08 146 64.16 146 56 146 C56 99.47 56 52.94 56 5 C50.72 6.32 45.44 7.64 40 9 C36.76847347 9.73499375 33.54264134 10.45794059 30.30078125 11.140625 C29.49182907 11.31253357 28.68287689 11.48444214 27.84941101 11.66156006 C26.17735464 12.01580629 24.50497759 12.36854248 22.83227539 12.71972656 C20.27556748 13.25777226 17.72080885 13.80450589 15.16601562 14.3515625 C13.52354774 14.69843906 11.8809735 15.0448125 10.23828125 15.390625 C9.48307693 15.55306702 8.72787262 15.71550903 7.94978333 15.88287354 C4.2453545 16.65251424 0.78716632 17.19189676 -3 17 C-2.88444496 15.29100181 -2.75706997 13.58280131 -2.625 11.875 C-2.55539063 10.92367188 -2.48578125 9.97234375 -2.4140625 8.9921875 C-2 6 -2 6 0 0 Z " fill="#000000" transform="translate(22,294)"/>
<path d="M0 0 C8.6030661 7.12441411 11.96119765 15.65377307 13 26.65625 C13.08166725 29.19167567 13.11792945 31.72888822 13.11352539 34.265625 C13.11367142 34.97880386 13.11381744 35.69198273 13.1139679 36.42677307 C13.11327853 38.75329776 13.10553253 41.07973953 13.09765625 43.40625 C13.09578859 45.0314937 13.09436633 46.65673796 13.09336853 48.28198242 C13.08957073 52.53653549 13.07976413 56.79105382 13.06866455 61.04559326 C13.05839127 65.39627615 13.05385829 69.7469647 13.04882812 74.09765625 C13.03813913 82.61720335 13.02109599 91.13672234 13 99.65625 C10.62374823 99.76508596 8.25256024 99.84391696 5.875 99.90625 C5.20984375 99.93976563 4.5446875 99.97328125 3.859375 100.0078125 C-1.27578482 100.10850191 -4.09270769 98.93464876 -8 95.65625 C-10.08816811 91.69593116 -11.18345335 88.02365087 -12 83.65625 C-12.62261719 84.40068359 -12.62261719 84.40068359 -13.2578125 85.16015625 C-22.44642138 95.29069365 -34.1682142 99.77269043 -47.5859375 100.8671875 C-54.7975619 101.15565248 -61.47304748 99.84072146 -67.3125 95.40625 C-72.72472175 89.86816263 -75.10114538 84.17763168 -75.3125 76.46875 C-75.18328945 66.75211675 -70.71342113 60.35441336 -64 53.65625 C-56.13459194 46.39587333 -46.78434553 44.38630008 -36.625 42.09375 C-28.33153011 40.18540565 -20.10940711 38.25092899 -12 35.65625 C-11.47013914 15.6831721 -11.47013914 15.6831721 -20 -1.34375 C-24.32165496 -3.50457748 -29.86807659 -2.94744999 -34.4140625 -1.66015625 C-45.46046739 2.91404234 -51.15264519 11.05819339 -56 21.65625 C-57.95275002 26.56540445 -59.52313634 31.58663147 -61 36.65625 C-61.66 36.65625 -62.32 36.65625 -63 36.65625 C-64.37174861 34.10185598 -65.72225408 31.53960569 -67.0625 28.96875 C-67.64741211 27.8869043 -67.64741211 27.8869043 -68.24414062 26.78320312 C-71.00112772 21.44001575 -71.00112772 21.44001575 -70.99609375 17.94140625 C-66.54786586 7.73664815 -55.32252586 -0.23064662 -45.3125 -4.21875 C-30.52681882 -9.6708571 -13.03666995 -9.49814525 0 0 Z M-23.8125 44.90625 C-24.60720703 45.20660156 -25.40191406 45.50695312 -26.22070312 45.81640625 C-36.18669214 49.69069478 -43.12138659 55.07325938 -48 64.65625 C-50.3877182 70.824522 -49.21666096 77.59716384 -46.96484375 83.60546875 C-45.43862692 86.84945189 -43.94987289 88.60416451 -41 90.65625 C-35.86501487 92.46620516 -31.79263268 91.92681947 -26.875 89.71875 C-21.85087824 86.91368047 -18.32587576 83.31424046 -15 78.65625 C-14.22100342 77.58661011 -14.22100342 77.58661011 -13.42626953 76.49536133 C-11.6002066 72.8604271 -11.65853464 70.22551865 -11.70703125 66.16796875 C-11.71339851 65.1131707 -11.71339851 65.1131707 -11.71989441 64.0370636 C-11.7365994 61.80555869 -11.77423386 59.57497887 -11.8125 57.34375 C-11.82755752 55.8248829 -11.84124406 54.30600154 -11.85351562 52.78710938 C-11.88647527 49.07652566 -11.93819984 45.36647822 -12 41.65625 C-16.33477844 41.65625 -19.81039513 43.33867895 -23.8125 44.90625 Z " fill="#000000" transform="translate(366,485.34375)"/>
<path d="M0 0 C6.75805105 5.70737517 11.26337575 13.81682373 12.25340271 22.67049789 C12.59156112 28.13488509 12.4947509 33.60289916 12.42578125 39.07421875 C12.41830627 40.82969005 12.41261929 42.58516978 12.40863037 44.34065247 C12.39347278 48.92582885 12.3542782 53.51048566 12.30981445 58.09545898 C12.26864668 62.78817724 12.25057376 67.48098073 12.23046875 72.17382812 C12.18777267 81.35569505 12.1196435 90.53717906 12.03515625 99.71875 C9.77883355 99.76439109 7.52224607 99.79707899 5.265625 99.82421875 C4.00903076 99.84379639 2.75243652 99.86337402 1.45776367 99.88354492 C-3.14416191 99.66196708 -4.7434743 98.94011945 -7.96484375 95.71875 C-10.75942832 92.0259061 -11.82833956 88.17734337 -12.96484375 83.71875 C-13.58359375 84.585 -14.20234375 85.45125 -14.83984375 86.34375 C-22.80573278 95.88927708 -36.06518193 99.6055073 -47.96484375 100.71875 C-55.89495365 100.82434401 -62.61335688 99.52630101 -68.68359375 94.21484375 C-73.58086402 89.04150187 -75.49860357 83.31545998 -76.40234375 76.34375 C-75.16247708 66.07056899 -70.86786253 58.39977021 -62.96484375 51.71875 C-53.30803975 45.02423587 -42.6992887 43.08422442 -31.3828125 40.8515625 C-26.0537146 39.78555881 -21.07717702 38.30184536 -15.9765625 36.41796875 C-13.96484375 35.71875 -13.96484375 35.71875 -11.96484375 35.71875 C-12.18824745 31.94586109 -12.44856339 28.17633603 -12.71484375 24.40625 C-12.77671875 23.35373047 -12.83859375 22.30121094 -12.90234375 21.21679688 C-13.76213204 9.00341391 -13.76213204 9.00341391 -19.94555664 -1.06005859 C-23.93368575 -3.47193404 -28.47999532 -2.83807329 -32.96484375 -2.28125 C-36.96280709 -1.0621401 -40.61409238 0.35825764 -43.58984375 3.35546875 C-44.96484375 4.71875 -44.96484375 4.71875 -46.96484375 4.71875 C-47.23683594 5.2859375 -47.50882812 5.853125 -47.7890625 6.4375 C-49.00156215 8.78999101 -50.36420457 10.98159035 -51.77734375 13.21875 C-56.25124222 20.6132619 -59.29687203 28.52080054 -61.96484375 36.71875 C-67.15221172 32.15636613 -70.5850809 24.86535646 -71.40234375 18.09375 C-67.23915412 8.31930479 -57.62762702 0.66005944 -48.0625 -3.5625 C-32.43910122 -9.43438142 -13.99550269 -10.07083792 0 0 Z M-42.75390625 55.47265625 C-48.65523693 61.94733896 -49.41228116 67.59515822 -49.28515625 76.2578125 C-48.76613888 81.86573188 -46.95987761 85.5861276 -43.15234375 89.65625 C-38.7178642 91.81014007 -34.70453511 92.20736493 -30.02734375 90.71875 C-25.24493738 88.66518285 -21.41434198 85.58795904 -17.96484375 81.71875 C-17.44873535 81.16872314 -16.93262695 80.61869629 -16.40087891 80.05200195 C-10.51332153 72.79288172 -11.28012694 64.97928329 -11.58984375 56.15625 C-11.6199951 54.65565274 -11.64736177 53.15499682 -11.671875 51.65429688 C-11.73743077 48.00787902 -11.84066016 44.36369746 -11.96484375 40.71875 C-21.81032726 40.71875 -35.96787888 48.81997876 -42.75390625 55.47265625 Z " fill="#000000" transform="translate(509.96484375,340.28125)"/>
<path d="M0 0 C4.92006067 2.32584686 7.31231435 5.32143608 10 10 C11.10514766 13.31544299 11.32107631 16.20410111 11.5625 19.6875 C11.68818359 21.45673828 11.68818359 21.45673828 11.81640625 23.26171875 C11.87699219 24.16535156 11.93757813 25.06898438 12 26 C12.40089844 25.29875 12.80179687 24.5975 13.21484375 23.875 C19.42884285 13.50424413 26.20119882 6.45759571 38 3 C45.08053659 1.40874819 51.63855054 1.19038673 58 5 C64.79728114 10.88366808 68.34543373 16.95976193 69.30859375 25.84765625 C69.65284375 33.93231525 68.59132358 41.98992525 63.0234375 48.20703125 C57.22300912 53.38523185 53.70365336 54.33957526 45.9296875 54.29296875 C42.20885855 53.92088586 40.41803398 52.83493639 38 50 C36.19507318 46.39014636 36.15275233 42.91629867 37 39 C38.81117961 36.1738997 40.81273451 33.75679547 43.0546875 31.26171875 C46.90646731 26.78344463 47.51243705 23.23327408 47.375 17.41796875 C47.12900136 14.72369196 47.12900136 14.72369196 44.9375 11.875 C41.19281715 9.4847769 39.37932215 9.32045001 35 10 C23.94258088 14.42296765 18.88292413 25.47469097 14.34765625 35.77734375 C12.44952979 40.3163418 11.85907075 43.58789863 11.79467773 48.4909668 C11.77982834 49.47185776 11.77982834 49.47185776 11.76467896 50.4725647 C11.73312217 52.6314127 11.70832968 54.79028271 11.68359375 56.94921875 C11.66301919 58.44709338 11.64202258 59.94496228 11.62062073 61.44282532 C11.56545191 65.3833857 11.51601979 69.32399803 11.46777344 73.26464844 C11.41752049 77.28650531 11.36185423 81.30828684 11.30664062 85.33007812 C11.19912252 93.21999008 11.0981638 101.10996611 11 109 C3.08 109 -4.84 109 -13 109 C-13 73.36 -13 37.72 -13 1 C-9.04877519 -0.97561241 -4.30659535 -0.43248694 0 0 Z " fill="#000000" transform="translate(409,477)"/>
<path d="M0 0 C3.39496314 2.41205197 6.32648987 4.96144823 9.125 8.0625 C9.60582031 8.53945313 10.08664063 9.01640625 10.58203125 9.5078125 C19.01767467 18.34922105 21.125 29.23374634 21.125 41.0625 C-1.645 41.0625 -24.415 41.0625 -47.875 41.0625 C-44.82211132 66.86825282 -44.82211132 66.86825282 -29.9375 86.4375 C-23.44320939 90.95526738 -16.62328202 91.93474812 -8.875 91.0625 C1.35489227 88.88499436 8.70170926 82.77692803 14.875 74.5 C17.125 72.0625 17.125 72.0625 20.4375 71.6875 C21.7678125 71.873125 21.7678125 71.873125 23.125 72.0625 C15.85986732 86.01155475 4.81194338 93.85100396 -9.875 99.0625 C-21.60291963 102.38893178 -35.31265094 100.9124164 -45.875 95.0625 C-49.13906256 92.97106333 -52.00598747 90.66373802 -54.875 88.0625 C-55.90560547 87.20398438 -55.90560547 87.20398438 -56.95703125 86.328125 C-66.82578419 77.49719503 -71.82144043 64.04823419 -72.875 51.0625 C-72.94074219 50.42054688 -73.00648438 49.77859375 -73.07421875 49.1171875 C-73.90867461 33.9818846 -67.1343934 19.99612917 -57.5625 8.75 C-41.79137976 -7.84697282 -19.88140855 -12.65477814 0 0 Z M-37.5703125 4.94140625 C-44.46299675 14.34524431 -45.8390219 24.66674095 -46.875 36.0625 C-32.685 36.0625 -18.495 36.0625 -3.875 36.0625 C-3.875 24.19502963 -5.69900578 12.87545595 -12.875 3.0625 C-17.03696252 -0.80909304 -19.87535913 -2.38473016 -25.65625 -2.26953125 C-30.66241333 -1.52036948 -34.23986636 1.25028968 -37.5703125 4.94140625 Z " fill="#000000" transform="translate(215.875,339.9375)"/>
<path d="M0 0 C13 0 13 0 16.5625 1.5625 C23.45918536 8.45918536 24.0049111 15.55974872 25 25 C25.38671875 24.40832031 25.7734375 23.81664062 26.171875 23.20703125 C27.76336193 20.79222559 29.37808399 18.39444956 31 16 C31.598125 15.113125 32.19625 14.22625 32.8125 13.3125 C39.71747327 6.01295683 48.667161 2.03329904 58.6875 1.625 C65.12805105 1.87489792 70.41642715 4.53704749 75 9 C81.54792899 17.97103265 81.59013339 26.20592387 81 37 C79.7068222 43.82227657 75.96741639 48.88041687 70.375 52.875 C65.06571257 54.64476248 59.28666706 55.38116748 53.9921875 53.15625 C50.94294265 50.97611358 49.60320705 48.63810177 48.9375 45.0625 C48.61167825 38.37062245 52.46407433 34.38410182 56.63671875 29.65234375 C60.12309417 25.42673687 60.47814237 21.35519458 60 16 C58.25271222 12.27196535 58.25271222 12.27196535 55 10 C50.57666112 9.63138843 48.01526373 9.51351946 44 11.4375 C34.34549888 19.68405304 25.83509308 31.20849933 24.7215271 44.2651062 C24.70820343 45.44203033 24.69487976 46.61895447 24.68115234 47.83154297 C24.67110672 48.48590836 24.6610611 49.14027374 24.65071106 49.81446838 C24.62005338 51.95703325 24.60289317 54.0994742 24.5859375 56.2421875 C24.56721177 57.73577935 24.54763731 59.22936078 24.5272522 60.72293091 C24.47607322 64.63877194 24.43637173 68.55464721 24.39910889 72.47064209 C24.3589796 76.47270073 24.30792812 80.47461866 24.2578125 84.4765625 C24.16122185 92.31761899 24.07777403 100.15873427 24 108 C16.08 108 8.16 108 0 108 C0 72.36 0 36.72 0 0 Z " fill="#000000" transform="translate(346,332)"/>
<path d="M0 0 C11.01447972 7.43960472 18.63290552 17.29151243 21.2265625 30.50390625 C21.2265625 34.13390625 21.2265625 37.76390625 21.2265625 41.50390625 C-1.2134375 41.50390625 -23.6534375 41.50390625 -46.7734375 41.50390625 C-44.65188595 65.6367792 -44.65188595 65.6367792 -31.859375 85.31640625 C-24.57427439 91.16698898 -16.9394811 92.45638312 -7.7734375 91.50390625 C1.40851174 89.59580243 9.22244803 84.40787082 14.52734375 76.5859375 C14.84058594 76.04324219 15.15382813 75.50054688 15.4765625 74.94140625 C16.0540625 74.13703125 16.6315625 73.33265625 17.2265625 72.50390625 C20.4765625 72.12890625 20.4765625 72.12890625 23.2265625 72.50390625 C19.78402617 82.63325397 9.70135449 91.16437019 0.37890625 95.97265625 C-12.30052655 101.60068836 -24.99320892 103.23795387 -38.3984375 98.94140625 C-50.98665608 93.83659087 -61.33049706 84.12840601 -67.2109375 71.94140625 C-73.00110689 58.11557241 -74.17407692 42.68312094 -69.02734375 28.390625 C-63.09756807 14.73920996 -52.4658221 1.87871224 -38.4609375 -3.87109375 C-25.23784367 -8.76853591 -12.0724468 -7.14535279 0 0 Z M-35.62890625 4.38671875 C-44.07057883 14.4303292 -45.01800776 24.33818322 -46.7734375 37.50390625 C-32.2534375 37.50390625 -17.7334375 37.50390625 -2.7734375 37.50390625 C-3.80332687 24.11534447 -4.98897343 10.56423413 -15.4609375 1.06640625 C-22.75774361 -3.86386815 -29.77261692 -1.55587379 -35.62890625 4.38671875 Z " fill="#000000" transform="translate(556.7734375,484.49609375)"/>
<path d="M0 0 C0.928125 0.20625 1.85625 0.4125 2.8125 0.625 C4.96967092 5.89808448 4.96967092 5.89808448 4.3125 8.9375 C2.8125 10.625 2.8125 10.625 -0.0625 11.625 C-3.1875 11.625 -3.1875 11.625 -5.625 10.0625 C-7.1875 7.625 -7.1875 7.625 -7.125 4.5 C-5.76628785 0.33328275 -4.33243034 -0.50969769 0 0 Z " fill="#000000" transform="translate(273.1875,48.375)"/>
</svg>
