<?xml version="1.0" encoding="UTF-8"?>
<svg version="1.1" xmlns="http://www.w3.org/2000/svg" width="571" height="678">
<path d="M0 0 C0 1.32 0 2.64 0 4 C0.99 4 1.98 4 3 4 C3 13.9 3 23.8 3 34 C-10.94225727 36.73377594 -24.95093322 38.89049836 -39 41 C-39 47.27 -39 53.54 -39 60 C-36.89238281 59.6390625 -34.78476562 59.278125 -32.61328125 58.90625 C-30.56144475 58.55776996 -28.50937392 58.21070281 -26.45727539 57.86376953 C-25.03612587 57.62273222 -23.61522278 57.38023711 -22.19458008 57.13623047 C-20.14728527 56.78485588 -18.09914849 56.43881068 -16.05078125 56.09375 C-14.20480347 55.77954102 -14.20480347 55.77954102 -12.3215332 55.45898438 C-9.48403385 55.06688597 -6.85628383 54.9051856 -4 55 C-4 56.32 -4 57.64 -4 59 C-2.68 59 -1.36 59 0 59 C0 67.58 0 76.16 0 85 C-4.91078933 85.85760146 -9.82184548 86.71314872 -14.73388672 87.56347656 C-16.40434381 87.85328612 -18.07459384 88.14429182 -19.74462891 88.43652344 C-22.14692436 88.85667505 -24.54993475 89.27250107 -26.953125 89.6875 C-27.69806213 89.81874268 -28.44299927 89.94998535 -29.21051025 90.08520508 C-32.54886688 90.65774164 -35.59935113 91 -39 91 C-39 98.26 -39 105.52 -39 113 C-36.73125 112.566875 -34.4625 112.13375 -32.125 111.6875 C-25.883486 110.51378133 -19.6346776 109.38519823 -13.375 108.3125 C-12.63008301 108.18125732 -11.88516602 108.05001465 -11.11767578 107.91479492 C-7.03166088 107.22515849 -3.14280191 106.86277785 1 107 C1 108.32 1 109.64 1 111 C2.32 111 3.64 111 5 111 C5 120.9 5 130.8 5 141 C-4.54395543 142.56967 -14.08855197 144.13528493 -23.63433266 145.69381714 C-28.06702429 146.41770457 -32.49941319 147.14334903 -36.93115234 147.87304688 C-41.20984889 148.57747885 -45.48928483 149.27724572 -49.76926804 149.97381592 C-51.40016109 150.24007962 -53.0307831 150.50800913 -54.66112137 150.77764893 C-56.94867361 151.15568937 -59.23712714 151.52773856 -61.52587891 151.8984375 C-62.82715729 152.11161621 -64.12843567 152.32479492 -65.46914673 152.54443359 C-68.69779543 152.96100822 -71.75014093 153.08833671 -75 153 C-75 151.68 -75 150.36 -75 149 C-76.32 149 -77.64 149 -79 149 C-79.33 115.67 -79.66 82.34 -80 48 C-86.27 48.99 -92.54 49.98 -99 51 C-100.98 51 -102.96 51 -105 51 C-105 86.31 -105 121.62 -105 158 C-109.39212692 159.25489341 -113.32299249 160.32672703 -117.7578125 161.0703125 C-118.79550781 161.24433594 -119.83320313 161.41835938 -120.90234375 161.59765625 C-121.96582031 161.77167969 -123.02929688 161.94570313 -124.125 162.125 C-125.19621094 162.30675781 -126.26742187 162.48851562 -127.37109375 162.67578125 C-128.92376953 162.93294922 -128.92376953 162.93294922 -130.5078125 163.1953125 C-131.90990967 163.42758545 -131.90990967 163.42758545 -133.34033203 163.66455078 C-135.92627259 163.99070117 -138.3968867 164.06070199 -141 164 C-141 162.68 -141 161.36 -141 160 C-142.32 160 -143.64 160 -145 160 C-145 126.34 -145 92.68 -145 58 C-155.395 59.98 -155.395 59.98 -166 62 C-166.99 62 -167.98 62 -169 62 C-169.495 60.02 -169.495 60.02 -170 58 C-170.00364563 59.02571106 -170.00729126 60.05142212 -170.01104736 61.10821533 C-170.0481337 70.81731887 -170.10605414 80.52610924 -170.18390274 90.23497391 C-170.22326019 95.22534673 -170.2555059 100.21554618 -170.27099609 105.20605469 C-170.28624035 110.03032812 -170.32082224 114.85412456 -170.36830902 119.67818451 C-170.38304316 121.51034121 -170.39103639 123.34256605 -170.39188385 125.1747818 C-170.40541811 139.77581599 -171.55046339 151.86242805 -182 163 C-182.58523438 163.62648438 -183.17046875 164.25296875 -183.7734375 164.8984375 C-196.82190278 177.50644826 -218.29479897 181.43228501 -235.84765625 181.2109375 C-246.36318632 180.50729608 -254.85745422 177.30494196 -262.2265625 169.703125 C-269.61600135 161.05076388 -271.46312949 153.18569712 -271.34057617 141.97241211 C-271.34101425 140.90795868 -271.34145233 139.84350525 -271.34190369 138.74679565 C-271.33982719 135.25678648 -271.31654958 131.76726817 -271.29296875 128.27734375 C-271.28736876 125.84640261 -271.28310056 123.41545807 -271.28010559 120.98451233 C-271.26868866 114.60749858 -271.23924845 108.23069204 -271.20599365 101.85375977 C-271.17522483 95.33808189 -271.16158571 88.82237032 -271.14648438 82.30664062 C-271.11437586 69.53767237 -271.06379984 56.76884724 -271 44 C-267.68427423 43.35582028 -264.36761546 42.71657079 -261.05078125 42.078125 C-260.1230188 41.89781738 -259.19525635 41.71750977 -258.23937988 41.53173828 C-250.52278507 40.05031443 -242.80606723 38.91130739 -235 38 C-235 39.65 -235 41.3 -235 43 C-234.01 42.67 -233.02 42.34 -232 42 C-231.98969254 43.24392517 -231.97938507 44.48785034 -231.96876526 45.76947021 C-231.87108285 57.48232531 -231.76835359 69.19512667 -231.66066074 80.90789413 C-231.60545536 86.92978839 -231.55203907 92.95168753 -231.50268555 98.97363281 C-231.45500697 104.7832286 -231.40266273 110.59276519 -231.34705925 116.40229034 C-231.32665157 118.62067443 -231.30793586 120.83907474 -231.29092598 123.05748749 C-231.266847 126.16045503 -231.23679697 129.26331084 -231.20532227 132.36621094 C-231.19668907 133.74725006 -231.19668907 133.74725006 -231.18788147 135.15618896 C-231.17809265 136.00310303 -231.16830383 136.85001709 -231.15821838 137.72259521 C-231.15176583 138.45634243 -231.14531328 139.19008965 -231.1386652 139.94607162 C-230.99547018 142.06709637 -230.57762885 143.95794226 -230 146 C-224.31345526 147.27657127 -221.08857867 146.88032755 -216 144 C-211.91385583 139.80632572 -210.89155876 136.40189139 -210.84178162 130.68463135 C-210.8319928 129.82930313 -210.82220398 128.97397491 -210.81211853 128.09272766 C-210.80636307 127.16268417 -210.8006076 126.23264069 -210.79467773 125.27441406 C-210.78477814 124.28871933 -210.77487854 123.3030246 -210.76467896 122.28746033 C-210.73309786 119.0302063 -210.70831983 115.77293769 -210.68359375 112.515625 C-210.6630213 110.25689312 -210.64202475 107.99816507 -210.62062073 105.73944092 C-210.56543011 99.79485166 -210.5160075 93.85022784 -210.46777344 87.90557861 C-210.41753648 81.83936486 -210.36186186 75.77320131 -210.30664062 69.70703125 C-210.19909585 57.80473038 -210.09764265 45.90238593 -210 34 C-207.62653685 33.5181686 -205.25271751 33.0382234 -202.87866211 32.55932617 C-201.88166416 32.35662739 -201.88166416 32.35662739 -200.86452484 32.14983368 C-195.12103846 30.99374376 -189.36688055 30.09410533 -183.5625 29.3125 C-182.62857422 29.18294922 -181.69464844 29.05339844 -180.73242188 28.91992188 C-178.48879977 28.60926651 -176.24471947 28.30260414 -174 28 C-174 29.65 -174 31.3 -174 33 C-173.34 33 -172.68 33 -172 33 C-172 31.35 -172 29.7 -172 28 C-166.61893597 26.59391009 -161.2853568 25.45821613 -155.7956543 24.57958984 C-155.01901932 24.45250137 -154.24238434 24.3254129 -153.44221497 24.19447327 C-150.90341613 23.77993867 -148.36385594 23.37030187 -145.82421875 22.9609375 C-144.04918246 22.67256229 -142.27418405 22.38395386 -140.4992218 22.09512329 C-136.79369059 21.49290165 -133.08778944 20.89302809 -129.3815918 20.29492188 C-124.62841012 19.52772627 -119.87608635 18.75535978 -115.12401104 17.98134422 C-111.46552949 17.38590629 -107.80666986 16.79281999 -104.1476841 16.20048904 C-102.3944642 15.91645069 -100.64134939 15.63176284 -98.8883419 15.34641647 C-96.44505679 14.94914563 -94.0012949 14.55495316 -91.55737305 14.16162109 C-90.83266815 14.04320358 -90.10796326 13.92478607 -89.36129761 13.80278015 C-86.53415487 13.35051173 -83.86897141 13 -81 13 C-80.67 14.32 -80.34 15.64 -80 17 C-79.8134787 16.20942703 -79.6269574 15.41885406 -79.43478394 14.60432434 C-78 12 -78 12 -74.9770813 10.94316101 C-73.67898529 10.74108536 -72.38088928 10.5390097 -71.04345703 10.33081055 C-70.32782593 10.21303757 -69.61219482 10.09526459 -68.87487793 9.97392273 C-66.50543408 9.58963891 -64.13234642 9.23805604 -61.7578125 8.88671875 C-60.11085436 8.62672051 -58.46419906 8.36479721 -56.81784058 8.10102844 C-52.47895988 7.41160771 -48.13623756 6.7501974 -43.79223633 6.09393311 C-40.24941265 5.55407812 -36.70975392 4.99500655 -33.17010689 4.43475628 C-25.85499991 3.27714074 -18.53782549 2.1322091 -11.21533203 1.0222168 C-9.26580124 0.72507027 -9.26580124 0.72507027 -7.27688599 0.42192078 C-4 0 -4 0 0 0 Z " fill="#0E5E4D" transform="translate(566,197)"/>
<path d="M0 0 C0 1.65 0 3.3 0 5 C1.32 5 2.64 5 4 5 C4 49.88 4 94.76 4 141 C-0.81199322 142.20299831 -5.29885049 143.29851821 -10.14453125 144.0703125 C-11.23314453 144.24433594 -12.32175781 144.41835938 -13.44335938 144.59765625 C-14.55517578 144.77167969 -15.66699219 144.94570313 -16.8125 145.125 C-18.50922852 145.39763672 -18.50922852 145.39763672 -20.24023438 145.67578125 C-28.59874295 147 -28.59874295 147 -32 147 C-32.33 145.68 -32.66 144.36 -33 143 C-33.66 143 -34.32 143 -35 143 C-35.33 124.85 -35.66 106.7 -36 88 C-42.93 118.69 -42.93 118.69 -50 150 C-68.57142857 153.48214286 -68.57142857 153.48214286 -76 154 C-76.1546875 153.0409375 -76.1546875 153.0409375 -76.3125 152.0625 C-76.539375 151.381875 -76.76625 150.70125 -77 150 C-77.99 149.67 -78.98 149.34 -80 149 C-80.89225769 146.67784119 -80.89225769 146.67784119 -81.62573242 143.56225586 C-81.90579636 142.40112778 -82.18586029 141.23999969 -82.47441101 140.04368591 C-82.76516006 138.780168 -83.05590912 137.51665009 -83.35546875 136.21484375 C-83.66392852 134.91562841 -83.97353903 133.61668579 -84.28425598 132.31800842 C-85.0996612 128.8962282 -85.89934249 125.47095715 -86.69586182 122.04473877 C-87.51112779 118.55038026 -88.34113175 115.05953006 -89.16992188 111.56835938 C-90.79443203 104.715611 -92.40236531 97.8590683 -94 91 C-94.01030746 91.82463242 -94.02061493 92.64926483 -94.03123474 93.49888611 C-94.1290388 101.25405684 -94.23152834 109.00914453 -94.33933926 116.76418209 C-94.39460473 120.75153216 -94.44803037 124.73888952 -94.49731445 128.72631836 C-94.54490476 132.57131601 -94.59724536 136.41622182 -94.65294075 140.26111031 C-94.67338857 141.73116342 -94.69209756 143.20124174 -94.70907402 144.67133904 C-94.73306464 146.72361276 -94.7631259 148.77571147 -94.79467773 150.82788086 C-94.81022202 151.99814316 -94.8257663 153.16840546 -94.84178162 154.37413025 C-95 157 -95 157 -96 158 C-98.43838692 158.44418685 -100.86482978 158.83493576 -103.31640625 159.19140625 C-104.04746078 159.30097153 -104.77851532 159.4105368 -105.53172302 159.52342224 C-107.87475587 159.87366466 -110.21859616 160.21813952 -112.5625 160.5625 C-114.14784282 160.79844973 -115.7331301 161.03477297 -117.31835938 161.27148438 C-121.21160749 161.85199787 -125.10558944 162.42733896 -129 163 C-129.66 161.68 -130.32 160.36 -131 159 C-131.66 159 -132.32 159 -133 159 C-133 113.79 -133 68.58 -133 22 C-94.82758621 14.72906404 -94.82758621 14.72906404 -88 15 C-87.8453125 15.9590625 -87.8453125 15.9590625 -87.6875 16.9375 C-87.460625 17.618125 -87.23375 18.29875 -87 19 C-86.01 19.33 -85.02 19.66 -84 20 C-82.94271136 22.21518931 -82.09498011 24.31320766 -81.29296875 26.62109375 C-81.04676788 27.30452347 -80.80056702 27.98795319 -80.54690552 28.6920929 C-79.7458048 30.93568962 -78.96522104 33.18570037 -78.1875 35.4375 C-77.92021088 36.20010132 -77.65292175 36.96270264 -77.37753296 37.74841309 C-71.86200575 53.53311057 -67.69834841 69.48219923 -65 86 C-64.85079102 85.11892578 -64.70158203 84.23785156 -64.54785156 83.33007812 C-61.29533714 64.53025477 -57.23716301 46.20322798 -51.6875 27.9375 C-51.28839417 26.61733887 -51.28839417 26.61733887 -50.88122559 25.27050781 C-50.12105711 22.76995053 -49.35087422 20.27282506 -48.57421875 17.77734375 C-48.34423691 17.03205917 -48.11425507 16.2867746 -47.87730408 15.51890564 C-46.86121304 12.31906132 -45.87611737 9.81417606 -44 7 C-42.1337738 6.37348938 -42.1337738 6.37348938 -39.84155273 6.0168457 C-38.98403915 5.87692703 -38.12652557 5.73700836 -37.24302673 5.59284973 C-36.31591385 5.45521713 -35.38880096 5.31758453 -34.43359375 5.17578125 C-33.00975121 4.94909004 -33.00975121 4.94909004 -31.55714417 4.71781921 C-28.51903668 4.23715334 -25.47845853 3.77474873 -22.4375 3.3125 C-20.38327877 2.99010746 -18.32923933 2.66655423 -16.27539062 2.34179688 C-1.38302014 0 -1.38302014 0 0 0 Z " fill="#0F604E" transform="translate(133,267)"/>
<path d="M0 0 C0 1.65 0 3.3 0 5 C0.99 4.67 1.98 4.34 3 4 C3 49.21 3 94.42 3 141 C-30.13761468 147.31192661 -30.13761468 147.31192661 -37 147 C-37.103125 146.360625 -37.20625 145.72125 -37.3125 145.0625 C-37.539375 144.381875 -37.76625 143.70125 -38 143 C-38.99 142.67 -39.98 142.34 -41 142 C-42.38315562 139.30868028 -43.5806339 136.68096128 -44.73046875 133.890625 C-45.08458328 133.0540033 -45.43869781 132.21738159 -45.80354309 131.35540771 C-46.55748052 129.56850973 -47.30615787 127.7793849 -48.05004883 125.98828125 C-49.15593164 123.32599714 -50.27642771 120.67031836 -51.40039062 118.015625 C-52.13631934 116.26600441 -52.87136812 114.5160134 -53.60546875 112.765625 C-53.92662155 112.00219788 -54.24777435 111.23877075 -54.57865906 110.45220947 C-58.61534564 100.71696466 -62.24389821 90.8597672 -66 81 C-66 104.43 -66 127.86 -66 152 C-70.51078131 153.28879466 -74.4898748 154.34833083 -79.046875 155.0703125 C-80.13871094 155.24433594 -81.23054688 155.41835938 -82.35546875 155.59765625 C-83.47566406 155.77167969 -84.59585938 155.94570313 -85.75 156.125 C-87.45349609 156.39763672 -87.45349609 156.39763672 -89.19140625 156.67578125 C-97.58476269 158 -97.58476269 158 -101 158 C-101.33 156.68 -101.66 155.36 -102 154 C-102.66 154 -103.32 154 -104 154 C-104 108.79 -104 63.58 -104 17 C-86.41633858 13.48326772 -86.41633858 13.48326772 -78.9375 12.3125 C-78.14923828 12.18294922 -77.36097656 12.05339844 -76.54882812 11.91992188 C-72.31870425 11.25088973 -68.29909506 10.85555041 -64 11 C-63.8453125 11.9590625 -63.8453125 11.9590625 -63.6875 12.9375 C-63.460625 13.618125 -63.23375 14.29875 -63 15 C-62.01 15.33 -61.02 15.66 -60 16 C-58.616211 18.77652779 -57.41789149 21.48982346 -56.26953125 24.36328125 C-55.91541672 25.22447067 -55.56130219 26.0856601 -55.19645691 26.97294617 C-54.0580913 29.74868333 -52.93521909 32.53040257 -51.8125 35.3125 C-51.07586268 37.11433853 -50.33824243 38.91577554 -49.59960938 40.71679688 C-44.66336788 52.78338214 -39.84199092 64.8950227 -35 77 C-35 53.57 -35 30.14 -35 6 C-30.27672724 4.81918181 -25.830446 3.72083679 -21.07421875 2.9296875 C-20.03072266 2.75566406 -18.98722656 2.58164063 -17.91210938 2.40234375 C-16.31592773 2.14130859 -16.31592773 2.14130859 -14.6875 1.875 C-13.60404297 1.69324219 -12.52058594 1.51148438 -11.40429688 1.32421875 C-3.39426692 0 -3.39426692 0 0 0 Z " fill="#0E5F4D" transform="translate(288,242)"/>
<path d="M0 0 C0.495 1.98 0.495 1.98 1 4 C1.66 4 2.32 4 3 4 C3 47.89 3 91.78 3 137 C-25.29268293 142.30487805 -25.29268293 142.30487805 -32 142 C-32 140.68 -32 139.36 -32 138 C-32.99 138 -33.98 138 -35 138 C-35 121.83 -35 105.66 -35 89 C-40.28 89.99 -45.56 90.98 -51 92 C-52.32 92 -53.64 92 -55 92 C-55 109.82 -55 127.64 -55 146 C-59.39212692 147.25489341 -63.32299249 148.32672703 -67.7578125 149.0703125 C-68.79550781 149.24433594 -69.83320313 149.41835938 -70.90234375 149.59765625 C-71.96582031 149.77167969 -73.02929688 149.94570313 -74.125 150.125 C-75.73181641 150.39763672 -75.73181641 150.39763672 -77.37109375 150.67578125 C-78.92376953 150.93294922 -78.92376953 150.93294922 -80.5078125 151.1953125 C-81.44254395 151.35016113 -82.37727539 151.50500977 -83.34033203 151.66455078 C-85.92627259 151.99070117 -88.3968867 152.06070199 -91 152 C-91 150.68 -91 149.36 -91 148 C-91.99 148 -92.98 148 -94 148 C-94 104.11 -94 60.22 -94 15 C-64 10 -64 10 -59 10 C-59 11.32 -59 12.64 -59 14 C-57.68 14 -56.36 14 -55 14 C-54.67 28.52 -54.34 43.04 -54 58 C-48.06 57.01 -42.12 56.02 -36 55 C-35.67 38.83 -35.34 22.66 -35 6 C-30.48921869 4.71120534 -26.5101252 3.65166917 -21.953125 2.9296875 C-20.86128906 2.75566406 -19.76945312 2.58164062 -18.64453125 2.40234375 C-17.52433594 2.22832031 -16.40414062 2.05429687 -15.25 1.875 C-14.11433594 1.69324219 -12.97867188 1.51148438 -11.80859375 1.32421875 C-3.41523731 0 -3.41523731 0 0 0 Z " fill="#0E5F4D" transform="translate(286,393)"/>
<path d="M0 0 C0.97839844 0.59167969 1.95679688 1.18335938 2.96484375 1.79296875 C13.04196972 9.12060861 17.9909361 20.52717413 20.078125 32.45703125 C21.39135992 41.36273986 21.33565675 50.2865559 21.31567383 59.27294922 C21.31252077 62.23052107 21.33602349 65.18708276 21.36132812 68.14453125 C21.43268935 89.40795369 19.31070639 108.7196395 4.23046875 124.8984375 C-7.93799675 136.63140002 -26.64464588 140.43843981 -43.0703125 140.2109375 C-53.2247132 139.47982065 -61.94245694 136.41879614 -68.96875 128.890625 C-81.38713774 113.63074176 -81.49250186 97.10428989 -81.39111328 78.19921875 C-81.37506867 74.64023308 -81.39100098 71.08238812 -81.41015625 67.5234375 C-81.43036738 46.11929449 -79.80532022 26.62341327 -64.41796875 10.32421875 C-49.90153158 -3.34454326 -17.86260938 -11.10841735 0 0 Z M-37 33 C-40.88062258 38.36073183 -42.12017331 43.09969356 -42.14526367 49.60717773 C-42.15164352 50.73192001 -42.15802338 51.85666229 -42.16459656 53.01548767 C-42.16570938 54.22596268 -42.1668222 55.43643768 -42.16796875 56.68359375 C-42.17129715 57.93125015 -42.17462555 59.17890656 -42.17805481 60.46437073 C-42.18311752 63.10299244 -42.18589592 65.74151112 -42.18530273 68.38012695 C-42.1852011 71.75382484 -42.19885934 75.12731232 -42.21607494 78.50096035 C-42.22989466 81.72849689 -42.22928429 84.95603164 -42.23046875 88.18359375 C-42.23765427 89.39204453 -42.24483978 90.6004953 -42.25224304 91.8455658 C-42.24916641 92.97346024 -42.24608978 94.10135468 -42.24291992 95.26342773 C-42.24434494 96.25285873 -42.24576996 97.24228973 -42.24723816 98.26170349 C-41.98406169 101.17652536 -41.21743226 103.35272003 -40 106 C-34.25353844 107.23138462 -30.89517533 107.18810107 -25.7578125 104.2265625 C-21.25925594 101.0875697 -19.64906756 97.68943625 -18.40588379 92.43362427 C-17.60105467 87.60797778 -17.71634999 82.75109689 -17.734375 77.87109375 C-17.73246155 76.72262466 -17.7305481 75.57415558 -17.72857666 74.3908844 C-17.72722084 71.97290832 -17.73087499 69.55492482 -17.73925781 67.13696289 C-17.74997544 63.44595946 -17.73933664 59.75544163 -17.7265625 56.06445312 C-17.72788401 53.70833226 -17.73044622 51.35221171 -17.734375 48.99609375 C-17.73032654 47.89800888 -17.72627808 46.79992401 -17.72210693 45.66856384 C-17.75610143 40.08893193 -17.94169968 35.2232771 -20 30 C-25.91774624 27.04112688 -32.30338449 28.74027896 -37 33 Z " fill="#0F5F4D" transform="translate(372,385)"/>
<path d="M0 0 C0.07023042 14.18674542 0.12285693 28.37346369 0.15543652 42.56034756 C0.1710751 49.14828469 0.19228071 55.73610481 0.22631836 62.32397461 C0.25897574 68.68468942 0.27686661 75.04529186 0.28463173 81.40608406 C0.29016374 83.82970002 0.30096639 86.25331001 0.31719017 88.67687798 C0.33904874 92.07825768 0.34196334 95.4791763 0.34057617 98.88061523 C0.351362 99.87683899 0.36214783 100.87306274 0.3732605 101.8994751 C0.32470035 112.94361835 -3.39962129 122.4928933 -10.640625 130.90625 C-20.47427485 140.31234985 -32.81873253 144.93936258 -46 147 C-47.18251343 147.25583862 -47.18251343 147.25583862 -48.38891602 147.5168457 C-52.68172221 148.31118544 -56.9576941 148.22568845 -61.3125 148.25 C-62.68051758 148.2809375 -62.68051758 148.2809375 -64.07617188 148.3125 C-73.85490261 148.36857874 -81.40902118 145.18577854 -89 139 C-95.84112102 131.77697174 -96.29583665 123.70882012 -96.22705078 114.19946289 C-96.22734283 113.13530151 -96.22763489 112.07114014 -96.22793579 110.97473145 C-96.22654774 107.4739554 -96.21101105 103.9733949 -96.1953125 100.47265625 C-96.19158051 98.03885515 -96.18873442 95.60505254 -96.18673706 93.17124939 C-96.17911528 86.77782006 -96.15947919 80.38448217 -96.1373291 73.99108887 C-96.11683938 67.46217078 -96.10772865 60.93323787 -96.09765625 54.40429688 C-96.076232 41.60282566 -96.04250015 28.8014177 -96 16 C-92.68427423 15.35582028 -89.36761546 14.71657079 -86.05078125 14.078125 C-85.1230188 13.89781738 -84.19525635 13.71750977 -83.23937988 13.53173828 C-75.52278507 12.05031443 -67.80606723 10.91130739 -60 10 C-60 11.65 -60 13.3 -60 15 C-59.01 14.67 -58.02 14.34 -57 14 C-56.98969254 15.24392517 -56.97938507 16.48785034 -56.96876526 17.76947021 C-56.87108285 29.48232531 -56.76835359 41.19512667 -56.66066074 52.90789413 C-56.60545536 58.92978839 -56.55203907 64.95168753 -56.50268555 70.97363281 C-56.45500697 76.7832286 -56.40266273 82.59276519 -56.34705925 88.40229034 C-56.32665157 90.62067443 -56.30793586 92.83907474 -56.29092598 95.05748749 C-56.266847 98.16045503 -56.23679697 101.26331084 -56.20532227 104.36621094 C-56.19668907 105.74725006 -56.19668907 105.74725006 -56.18788147 107.15618896 C-56.17809265 108.00310303 -56.16830383 108.85001709 -56.15821838 109.72259521 C-56.15176583 110.45634243 -56.14531328 111.19008965 -56.1386652 111.94607162 C-55.99547018 114.06709637 -55.57762885 115.95794226 -55 118 C-49.31345526 119.27657127 -46.08857867 118.88032755 -41 116 C-36.91385583 111.80632572 -35.89155876 108.40189139 -35.84178162 102.68463135 C-35.8319928 101.82930313 -35.82220398 100.97397491 -35.81211853 100.09272766 C-35.80636307 99.16268417 -35.8006076 98.23264069 -35.79467773 97.27441406 C-35.78477814 96.28871933 -35.77487854 95.3030246 -35.76467896 94.28746033 C-35.73309786 91.0302063 -35.70831983 87.77293769 -35.68359375 84.515625 C-35.6630213 82.25689312 -35.64202475 79.99816507 -35.62062073 77.73944092 C-35.56543011 71.79485166 -35.5160075 65.85022784 -35.46777344 59.90557861 C-35.41753648 53.83936486 -35.36186186 47.77320131 -35.30664062 41.70703125 C-35.19909585 29.80473038 -35.09764265 17.90238593 -35 6 C-32.6165761 5.5187528 -30.23292117 5.03870345 -27.84912109 4.55932617 C-26.84618263 4.35662739 -26.84618263 4.35662739 -25.82298279 4.14983368 C-20.44146538 3.06910816 -15.05077833 2.13718225 -9.625 1.3125 C-8.79484375 1.18294922 -7.9646875 1.05339844 -7.109375 0.91992188 C-1.17125496 0 -1.17125496 0 0 0 Z " fill="#0E5E4C" transform="translate(391,225)"/>
<path d="M0 0 C8.63174714 7.45469071 14.75595123 15.69492699 15.75 27.375 C15.76689701 28.93611516 15.77127639 30.49739737 15.765625 32.05859375 C15.76336914 32.8673999 15.76111328 33.67620605 15.75878906 34.50952148 C15.75443848 35.43293335 15.75443848 35.43293335 15.75 36.375 C12.46031008 37.34020574 9.16791312 38.29585401 5.875 39.25 C4.9571875 39.51941406 4.039375 39.78882813 3.09375 40.06640625 C-2.97501675 41.8186558 -9.03580821 43.2416152 -15.25 44.375 C-15.745 42.395 -15.745 42.395 -16.25 40.375 C-16.91 40.375 -17.57 40.375 -18.25 40.375 C-18.91 36.415 -19.57 32.455 -20.25 28.375 C-29.34747496 27.6812926 -29.34747496 27.6812926 -37.25 31.375 C-38.32593308 34.3351281 -38.87055459 37.25438861 -39.25 40.375 C-35.38737587 41.95357859 -31.48510168 43.37605073 -27.55078125 44.765625 C-25.56832278 45.474516 -23.58653588 46.18526534 -21.60473633 46.89599609 C-20.25344839 47.37835662 -18.90091898 47.85725461 -17.54711914 48.33251953 C-3.48177139 53.27816044 8.91556058 58.81092154 16.1875 72.625 C20.71610995 82.12898858 20.18286759 96.09142012 17.125 105.9375 C12.28764229 118.2260859 3.72214073 127.74561258 -8.25 133.375 C-22.75786293 138.93286835 -40.97151849 142.9511051 -56.1171875 137.40625 C-64.59958227 133.30487231 -71.24684366 126.22439015 -75.125 117.625 C-76.84750465 112.64887545 -77.37035603 108.32739836 -77.3125 103.0625 C-77.30347656 101.99386719 -77.29445313 100.92523437 -77.28515625 99.82421875 C-77.27355469 99.01597656 -77.26195313 98.20773437 -77.25 97.375 C-70.65837434 95.11074764 -64.01532546 93.09519101 -57.3125 91.1875 C-56.36826172 90.91486328 -55.42402344 90.64222656 -54.45117188 90.36132812 C-53.10055664 89.97557617 -53.10055664 89.97557617 -51.72265625 89.58203125 C-50.50461304 89.23362183 -50.50461304 89.23362183 -49.26196289 88.87817383 C-47.25 88.375 -47.25 88.375 -45.25 88.375 C-45.25 90.025 -45.25 91.675 -45.25 93.375 C-43.27 92.88 -43.27 92.88 -41.25 92.375 C-41.05083984 93.76525391 -41.05083984 93.76525391 -40.84765625 95.18359375 C-40.67105469 96.38113281 -40.49445313 97.57867188 -40.3125 98.8125 C-40.13847656 100.00746094 -39.96445313 101.20242188 -39.78515625 102.43359375 C-39.56014787 105.25455676 -39.56014787 105.25455676 -38.25 106.375 C-33.19016629 106.90080895 -28.02163801 107.39167634 -23.625 104.5 C-21.20980151 102.60157332 -21.20980151 102.60157332 -20.25 100.375 C-20.18049459 98.83476004 -20.16547643 97.29165012 -20.1875 95.75 C-20.19652344 94.93273437 -20.20554688 94.11546875 -20.21484375 93.2734375 C-20.22644531 92.64695312 -20.23804688 92.02046875 -20.25 91.375 C-20.94061523 91.09881836 -21.63123047 90.82263672 -22.34277344 90.53808594 C-23.3021582 90.15426758 -24.26154297 89.77044922 -25.25 89.375 C-26.26868164 88.96797852 -27.28736328 88.56095703 -28.33691406 88.14160156 C-31.402313 86.9114258 -34.46378656 85.67232292 -37.52294922 84.42675781 C-38.83234409 83.89575599 -40.1432073 83.36835949 -41.45556641 82.84472656 C-56.03588476 77.0214113 -68.58810765 70.26790811 -75.25 55.375 C-78.10648797 45.59937829 -77.71658313 31.52645791 -73.25 22.375 C-71.48438074 19.15943281 -69.5142317 16.2591999 -67.25 13.375 C-66.77046875 12.75753906 -66.2909375 12.14007813 -65.796875 11.50390625 C-57.98030565 2.6411799 -45.54585828 -1.55767601 -34.25 -3.625 C-33.54488281 -3.75519531 -32.83976562 -3.88539063 -32.11328125 -4.01953125 C-21.1148382 -5.69272238 -10.05906827 -5.02953414 0 0 Z " fill="#105F4D" transform="translate(172.25,417.625)"/>
<path d="M0 0 C9.67862349 9.67862349 12.81034618 19.13596624 12.89648438 32.61328125 C12.89221436 33.28439941 12.88794434 33.95551758 12.88354492 34.64697266 C12.87507058 36.67064563 12.90381605 38.69145052 12.93554688 40.71484375 C12.92893824 54.20967776 10.34384212 65.27862116 0.84765625 75.078125 C-10.93865222 86.06019124 -27.18768661 87.90001866 -42.5625 89.4375 C-42.5625 104.6175 -42.5625 119.7975 -42.5625 135.4375 C-47.595 136.2625 -52.6275 137.0875 -57.8125 137.9375 C-59.39450195 138.19853516 -60.97650391 138.45957031 -62.60644531 138.72851562 C-64.47961426 139.03305664 -64.47961426 139.03305664 -66.390625 139.34375 C-68.3072998 139.65795898 -68.3072998 139.65795898 -70.26269531 139.97851562 C-73.5625 140.4375 -73.5625 140.4375 -77.5625 140.4375 C-77.5625 139.1175 -77.5625 137.7975 -77.5625 136.4375 C-78.8825 136.4375 -80.2025 136.4375 -81.5625 136.4375 C-81.5625 92.8775 -81.5625 49.3175 -81.5625 4.4375 C-74.81175022 2.18725007 -74.81175022 2.18725007 -71.0769043 1.58374023 C-70.24551437 1.44697372 -69.41412445 1.31020721 -68.55754089 1.16929626 C-67.67616959 1.02963943 -66.79479828 0.8899826 -65.88671875 0.74609375 C-64.96212357 0.595923 -64.03752838 0.44575226 -63.08491516 0.29103088 C-61.1345457 -0.02472717 -59.18378548 -0.33807986 -57.23266602 -0.64916992 C-54.26942295 -1.12190142 -51.30750087 -1.60228919 -48.34570312 -2.08398438 C-46.44278146 -2.39107849 -44.53978885 -2.69773337 -42.63671875 -3.00390625 C-41.76142014 -3.14558731 -40.88612152 -3.28726837 -39.98429871 -3.4332428 C-26.2892609 -5.6094471 -12.42887159 -7.57858024 0 0 Z M-42.5625 29.4375 C-42.5625 38.6775 -42.5625 47.9175 -42.5625 57.4375 C-31.51345028 56.55921163 -31.51345028 56.55921163 -27.375 53 C-24.01837433 48.25442577 -24.37935894 43.95007907 -24.375 38.375 C-24.35663086 37.13266602 -24.35663086 37.13266602 -24.33789062 35.86523438 C-24.33595703 35.07310547 -24.33402344 34.28097656 -24.33203125 33.46484375 C-24.32586792 32.37804321 -24.32586792 32.37804321 -24.31958008 31.26928711 C-24.40670394 29.18795491 -24.40670394 29.18795491 -26.5625 27.4375 C-32.60599839 27.2884288 -32.60599839 27.2884288 -42.5625 29.4375 Z " fill="#0F604E" transform="translate(475.5625,371.5625)"/>
<path d="M0 0 C4.00130621 2.94570314 6.96791811 6.24889665 9.9375 10.1875 C14.18866587 15.71460363 18.54613013 21.13491775 23 26.5 C27.35458117 31.75107775 31.63069352 37.04794621 35.8125 42.4375 C46.1627381 55.67922131 56.56132735 67.23979466 74 70 C89.35636889 70.99730292 104.04446347 69.15432041 119.12890625 66.5 C121.26318879 66.1394052 123.39779505 65.7807219 125.53269958 65.42382812 C131.08508339 64.49190079 136.63394604 63.54065214 142.1819458 62.58300781 C151.08775578 61.04711858 159.99711153 59.53268121 168.90940666 58.03491211 C171.99128212 57.5127288 175.0705303 56.97678311 178.14979553 56.43945312 C195.34057214 53.48627182 209.91546242 54.16286563 227.01171875 57.2109375 C228.91636138 57.54318034 230.82113381 57.87467991 232.72602844 58.20547485 C236.68994961 58.89629826 240.65244039 59.59466861 244.61401367 60.29882812 C249.6971855 61.20190892 254.78317303 62.08781255 259.87027264 62.96846581 C263.79085784 63.64872556 267.71002933 64.33685072 271.62879372 65.02751541 C273.50515151 65.3574399 275.38190094 65.68514492 277.25903893 66.01060104 C279.86906109 66.46455101 282.47703918 66.92879247 285.0847168 67.39599609 C285.86126617 67.52906662 286.63781555 67.66213715 287.43789673 67.79924011 C292.77129098 68.77129098 292.77129098 68.77129098 295 71 C261.40543312 76.78060776 227.7942306 82.4589236 194.16824722 88.05387688 C184.73733573 89.6234748 175.30772832 91.20023162 165.88085938 92.79394531 C157.54355114 94.20344411 149.20412712 95.59956019 140.86197829 96.98013222 C136.48437603 97.70503333 132.1080014 98.43594109 127.73413849 99.18310165 C69.22434613 109.16311296 69.22434613 109.16311296 46 94 C33.58552651 84.93039634 26.99548815 73.14101958 21.6796875 58.9140625 C21.21313751 57.69528412 20.74658752 56.47650574 20.26589966 55.22079468 C19.03732749 52.01100324 17.82323817 48.79593259 16.61242676 45.57940674 C15.38965202 42.33867922 14.15329692 39.10314575 12.91796875 35.8671875 C10.68490713 30.01284137 8.46452296 24.15378833 6.25286865 18.2913208 C5.37041832 15.97309923 4.4763026 13.65930148 3.5737915 11.34881592 C3.11518738 10.17458069 2.65658325 9.00034546 2.18408203 7.79052734 C1.76563019 6.72764496 1.34717834 5.66476257 0.91604614 4.56967163 C0 2 0 2 0 0 Z " fill="#FDCB18" transform="translate(34,574)"/>
<path d="M0 0 C1.37348651 4.12045954 -0.05062241 6.96662526 -1.39453125 10.91796875 C-1.65742447 11.71515823 -1.92031769 12.51234772 -2.19117737 13.33369446 C-3.05694425 15.9543596 -3.93468783 18.57084754 -4.8125 21.1875 C-6.02346498 24.83594229 -7.22862806 28.48629137 -8.43359375 32.13671875 C-8.73755066 33.05480316 -9.04150757 33.97288757 -9.35467529 34.91879272 C-11.93674426 42.74176758 -14.36147477 50.60745238 -16.76016235 58.48809814 C-21.5947647 74.30812068 -26.27798712 89.06933278 -37 102 C-38.03253906 103.27617188 -38.03253906 103.27617188 -39.0859375 104.578125 C-49.87517818 117.27593172 -64.62999219 126.85161388 -80.65307617 131.4987793 C-81.37933543 131.70992465 -82.10559469 131.92107 -82.85386181 132.1386137 C-92.2177112 134.74984881 -101.77629838 136.23627122 -111.36328125 137.76953125 C-113.37300913 138.09801793 -115.38262521 138.42718935 -117.39213562 138.75700378 C-121.57030487 139.44026818 -125.7496086 140.11593136 -129.92993164 140.78588867 C-135.25874973 141.64045169 -140.58437369 142.51333423 -145.9092989 143.39178944 C-150.04595207 144.07228446 -154.1840694 144.74350568 -158.32268333 145.41196251 C-160.28651234 145.73017988 -162.24990649 146.05109428 -164.21282387 146.37488747 C-181.76282868 149.26012866 -196.43468992 148.89638764 -213.9140625 145.7890625 C-215.82014744 145.45689408 -217.72634877 145.12539291 -219.63265991 144.79452515 C-223.60246309 144.10320307 -227.57094212 143.40484437 -231.53857422 142.70117188 C-236.62972476 141.79869255 -241.72357176 140.91263475 -246.81846046 140.03153419 C-250.74332321 139.35120483 -254.66678806 138.66308609 -258.58985519 137.97248459 C-260.46899641 137.64251319 -262.34853712 137.31480861 -264.22847366 136.98939896 C-266.84338492 136.53541431 -269.4562637 136.07116945 -272.06884766 135.60400391 C-273.23602829 135.40439812 -273.23602829 135.40439812 -274.42678833 135.20075989 C-279.77133889 134.22866111 -279.77133889 134.22866111 -282 132 C-257.66553086 127.59382581 -233.27592778 123.54444282 -208.86395979 119.59522486 C-206.45957878 119.20617934 -204.0552589 118.81675825 -201.65095901 118.42721176 C-186.68153886 116.00191441 -171.71158004 113.57998212 -156.73950195 111.17114258 C-149.26952832 109.96926228 -141.8004682 108.76186181 -134.33235842 107.54845256 C-129.6626033 106.7900122 -124.99186732 106.03807442 -120.32023513 105.29128802 C-117.41464664 104.8251163 -114.510144 104.35243276 -111.60589218 103.8780117 C-109.65501417 103.56120574 -107.70292081 103.25191106 -105.7507782 102.94299316 C-93.63324724 100.94993671 -81.5377831 98.34030357 -70.4375 92.9375 C-69.24797729 92.36539795 -69.24797729 92.36539795 -68.03442383 91.78173828 C-52.3640196 83.92839365 -42.49798551 73.20304014 -34 58.0625 C-33.00957088 56.32138459 -32.01912615 54.58027772 -31.02752686 52.83982849 C-30.3511691 51.65185764 -29.67575852 50.46334704 -29.00128174 49.27430725 C-25.63495319 43.34065784 -22.19705817 37.44956751 -18.75 31.5625 C-15.39231754 25.81973129 -12.0386486 20.07496058 -8.71484375 14.3125 C-8.20276367 13.4248999 -7.69068359 12.5372998 -7.16308594 11.62280273 C-6.20271147 9.95644817 -5.2436571 8.28933186 -4.28613281 6.62133789 C-1.10923146 1.10923146 -1.10923146 1.10923146 0 0 Z " fill="#106450" transform="translate(543,491)"/>
<path d="M0 0 C0 9.9 0 19.8 0 30 C-3.8775 30.66 -7.755 31.32 -11.75 32 C-12.96655273 32.20882812 -14.18310547 32.41765625 -15.43652344 32.6328125 C-16.88333496 32.87644531 -16.88333496 32.87644531 -18.359375 33.125 C-19.83615723 33.37636719 -19.83615723 33.37636719 -21.34277344 33.6328125 C-24 34 -24 34 -28 34 C-28 69.31 -28 104.62 -28 141 C-30.24229301 142.1211465 -31.9893177 142.3541738 -34.47265625 142.68359375 C-35.82327148 142.86825195 -35.82327148 142.86825195 -37.20117188 143.05664062 C-39.08134535 143.30690262 -40.96155269 143.55691037 -42.84179688 143.80664062 C-47.97871449 144.50928067 -52.99154781 145.36652332 -58.02514648 146.61743164 C-60 147 -60 147 -64 147 C-64 113.34 -64 79.68 -64 45 C-74.395 46.98 -74.395 46.98 -85 49 C-85.99 49 -86.98 49 -88 49 C-88.495 47.02 -88.495 47.02 -89 45 C-89.00364563 46.02571106 -89.00729126 47.05142212 -89.01104736 48.10821533 C-89.0481337 57.81731887 -89.10605414 67.52610924 -89.18390274 77.23497391 C-89.22326019 82.22534673 -89.2555059 87.21554618 -89.27099609 92.20605469 C-89.28624035 97.03032812 -89.32082224 101.85412456 -89.36830902 106.67818451 C-89.38304316 108.51034121 -89.39103639 110.34256605 -89.39188385 112.1747818 C-89.40541811 126.77581599 -90.55046339 138.86242805 -101 150 C-101.58523438 150.62648438 -102.17046875 151.25296875 -102.7734375 151.8984375 C-115.82190278 164.50644826 -137.29479897 168.43228501 -154.84765625 168.2109375 C-164.02510978 167.5968328 -171.96589695 165.0562681 -179 159 C-179.66 158.01 -180.32 157.02 -181 156 C-178.22215463 157.06211735 -175.58957226 158.20940191 -172.9375 159.5625 C-159.9264766 165.92959656 -140.39079541 162.27441032 -127.2109375 158.12109375 C-114.11300913 153.27526576 -103.3607012 145.6394346 -97 133 C-95.02814008 126.57811599 -94.69561083 120.68609409 -94.68115234 113.99414062 C-94.67110672 112.92007965 -94.6610611 111.84601868 -94.65071106 110.7394104 C-94.61997678 107.21169539 -94.60287092 103.68405595 -94.5859375 100.15625 C-94.56721803 97.70145014 -94.54764404 95.24665666 -94.5272522 92.79187012 C-94.47600749 86.34757251 -94.43634067 79.90325407 -94.39910889 73.4588623 C-94.35902125 66.87616858 -94.30795061 60.29356099 -94.2578125 53.7109375 C-94.16114389 40.80735332 -94.07633679 27.90371966 -94 15 C-93.67 15 -93.34 15 -93 15 C-93 16.65 -93 18.3 -93 20 C-92.34 20 -91.68 20 -91 20 C-91 18.35 -91 16.7 -91 15 C-85.61893597 13.59391009 -80.2853568 12.45821613 -74.7956543 11.57958984 C-74.01901932 11.45250137 -73.24238434 11.3254129 -72.44221497 11.19447327 C-69.90341613 10.77993867 -67.36385594 10.37030187 -64.82421875 9.9609375 C-63.04918246 9.67256229 -61.27418405 9.38395386 -59.4992218 9.09512329 C-55.79369059 8.49290165 -52.08778944 7.89302809 -48.3815918 7.29492188 C-43.62841012 6.52772627 -38.87608635 5.75535978 -34.12401104 4.98134422 C-30.46552949 4.38590629 -26.80666986 3.79281999 -23.1476841 3.20048904 C-21.3944642 2.91645069 -19.64134939 2.63176284 -17.8883419 2.34641647 C-15.44505679 1.94914563 -13.0012949 1.55495316 -10.55737305 1.16162109 C-9.83266815 1.04320358 -9.10796326 0.92478607 -8.36129761 0.80278015 C-5.53415487 0.35051173 -2.86897141 0 0 0 Z " fill="#0E604D" transform="translate(485,210)"/>
<path d="M0 0 C0 1.65 0 3.3 0 5 C0.99 5 1.98 5 3 5 C3 49.88 3 94.76 3 141 C-1.81199322 142.20299831 -6.29885049 143.29851821 -11.14453125 144.0703125 C-12.23314453 144.24433594 -13.32175781 144.41835938 -14.44335938 144.59765625 C-15.55517578 144.77167969 -16.66699219 144.94570313 -17.8125 145.125 C-19.50922852 145.39763672 -19.50922852 145.39763672 -21.24023438 145.67578125 C-29.59874295 147 -29.59874295 147 -33 147 C-33.33 145.68 -33.66 144.36 -34 143 C-34.99 143 -35.98 143 -37 143 C-37 97.79 -37 52.58 -37 6 C-2 0 -2 0 0 0 Z " fill="#0E5E4C" transform="translate(177,260)"/>
<path d="M0 0 C0.72058594 -0.00386719 1.44117188 -0.00773438 2.18359375 -0.01171875 C6.72161372 -0.00351257 11.02268939 0.38270903 15.5 1.125 C15.17 1.785 14.84 2.445 14.5 3.125 C12.32999097 3.73296369 10.13696924 4.25919039 7.9375 4.75 C-13.56378658 10.00424998 -33.93415587 24.18593024 -45.5 43.125 C-53.38654962 56.81610899 -58.57540777 70.98989471 -58.70532227 86.96630859 C-58.72017166 88.10879059 -58.72017166 88.10879059 -58.73532104 89.27435303 C-58.76672861 91.774017 -58.79161078 94.27369994 -58.81640625 96.7734375 C-58.83699373 98.51364618 -58.85799066 100.25385006 -58.87937927 101.99404907 C-58.93441477 106.56093444 -58.98390528 111.12786354 -59.03222656 115.69482422 C-59.08257733 120.36039088 -59.13819235 125.02589449 -59.19335938 129.69140625 C-59.30071419 138.83588356 -59.40220897 147.98041576 -59.5 157.125 C-63.35255857 157.8011872 -67.20726957 158.46423092 -71.0625 159.125 C-72.14853516 159.31578125 -73.23457031 159.5065625 -74.35351562 159.703125 C-75.41376953 159.88359375 -76.47402344 160.0640625 -77.56640625 160.25 C-78.53521729 160.41757813 -79.50402832 160.58515625 -80.50219727 160.7578125 C-83.85877095 161.16894426 -87.12163607 161.18404295 -90.5 161.125 C-90.54676274 152.04825619 -90.58208878 142.97155515 -90.60362434 133.89471626 C-90.61397096 129.67797656 -90.62795874 125.4613205 -90.65087891 121.24462891 C-90.67293865 117.15970945 -90.68463676 113.07486938 -90.68975449 108.98989487 C-90.69339186 107.44733305 -90.7004901 105.90477456 -90.71146011 104.36224747 C-90.76822774 96.03303344 -90.5135952 87.82901067 -89.62060547 79.54248047 C-89.54394213 78.82014284 -89.46727879 78.09780521 -89.38829231 77.35357857 C-87.21025586 59.00706965 -78.85824644 42.67851725 -66.5 29.125 C-65.82582031 28.35800781 -65.15164062 27.59101562 -64.45703125 26.80078125 C-48.06545962 9.17907291 -23.85463906 -0.12802132 0 0 Z " fill="#106450" transform="translate(278.5,15.875)"/>
<path d="M0 0 C2.95485857 2.16236776 5.80050261 4.40413989 8.62109375 6.73828125 C9.89339844 7.76501953 9.89339844 7.76501953 11.19140625 8.8125 C32.89513067 27.21644187 47.03597195 55.53739349 49.62109375 83.73828125 C49.74623065 87.13519753 49.73825707 90.52694522 49.71875 93.92578125 C49.71662758 95.34044678 49.71662758 95.34044678 49.71446228 96.78369141 C49.70890615 99.76858822 49.69636198 102.75340746 49.68359375 105.73828125 C49.67857307 107.77343641 49.67401116 109.80859276 49.66992188 111.84375 C49.65895112 116.80862322 49.64171714 121.77343912 49.62109375 126.73828125 C46.20559079 127.41100472 42.78851923 128.07539924 39.37109375 128.73828125 C38.40300781 128.9290625 37.43492187 129.11984375 36.4375 129.31640625 C35.50292969 129.496875 34.56835938 129.67734375 33.60546875 129.86328125 C32.74663086 130.03085938 31.88779297 130.1984375 31.00292969 130.37109375 C28.62109375 130.73828125 28.62109375 130.73828125 24.62109375 130.73828125 C24.60651123 129.49965332 24.59192871 128.26102539 24.5769043 126.98486328 C24.51803271 122.29905211 24.4408238 117.61367806 24.35864258 112.92822266 C24.32580413 110.91722821 24.29765107 108.90615065 24.2746582 106.89501953 C24.08719369 90.91666138 23.36481365 74.89959518 17.99609375 59.67578125 C17.74883545 58.95245605 17.50157715 58.22913086 17.24682617 57.48388672 C14.00170121 48.43277801 9.65354245 39.09707621 3.8515625 31.38671875 C2.62109375 29.73828125 2.62109375 29.73828125 2.62109375 27.73828125 C1.96109375 27.73828125 1.30109375 27.73828125 0.62109375 27.73828125 C-0.46484375 26.41015625 -0.46484375 26.41015625 -1.75390625 24.48828125 C-20.36690458 -0.97502155 -48.51329978 -12.13807206 -78.37890625 -18.26171875 C-78.37890625 -18.59171875 -78.37890625 -18.92171875 -78.37890625 -19.26171875 C-52.31993012 -25.20163243 -21.40975688 -14.70123861 0 0 Z " fill="#FCCB18" transform="translate(341.37890625,20.26171875)"/>
<path d="M0 0 C0.33 0 0.66 0 1 0 C1 1.65 1 3.3 1 5 C1.66 5 2.32 5 3 5 C3 12.92 3 20.84 3 29 C3.66 29.33 4.32 29.66 5 30 C4.96180892 40.7451967 4.90225331 51.4900486 4.81609726 62.23497391 C4.77673981 67.22534673 4.7444941 72.21554618 4.72900391 77.20605469 C4.71375965 82.03032812 4.67917776 86.85412456 4.63169098 91.67818451 C4.61695684 93.51034121 4.60896361 95.34256605 4.60811615 97.1747818 C4.59458189 111.77581599 3.44953661 123.86242805 -7 135 C-7.58523438 135.62648438 -8.17046875 136.25296875 -8.7734375 136.8984375 C-21.82190278 149.50644826 -43.29479897 153.43228501 -60.84765625 153.2109375 C-70.02510978 152.5968328 -77.96589695 150.0562681 -85 144 C-85.66 143.01 -86.32 142.02 -87 141 C-84.22215463 142.06211735 -81.58957226 143.20940191 -78.9375 144.5625 C-65.9264766 150.92959656 -46.39079541 147.27441032 -33.2109375 143.12109375 C-20.11300913 138.27526576 -9.3607012 130.6394346 -3 118 C-1.02814008 111.57811599 -0.69561083 105.68609409 -0.68115234 98.99414062 C-0.67110672 97.92007965 -0.6610611 96.84601868 -0.65071106 95.7394104 C-0.61997678 92.21169539 -0.60287092 88.68405595 -0.5859375 85.15625 C-0.56721803 82.70145014 -0.54764404 80.24665666 -0.5272522 77.79187012 C-0.47600749 71.34757251 -0.43634067 64.90325407 -0.39910889 58.4588623 C-0.35902125 51.87616858 -0.30795061 45.29356099 -0.2578125 38.7109375 C-0.16114389 25.80735332 -0.07633679 12.90371966 0 0 Z " fill="#B9BDBB" transform="translate(391,225)"/>
<path d="M0 0 C5.60249338 5.11896234 7.58933221 11.11029867 8.37890625 18.58886719 C8.50936998 21.85129674 8.56274919 25.09566966 8.52148438 28.36035156 C8.50009092 30.36647375 8.52135821 32.36898778 8.546875 34.375 C8.49386393 47.8133075 5.86348023 58.8853521 -3.58984375 68.640625 C-15.37615222 79.62269124 -31.62518661 81.46251866 -47 83 C-47 98.18 -47 113.36 -47 129 C-52.0325 129.825 -57.065 130.65 -62.25 131.5 C-63.83200195 131.76103516 -65.41400391 132.02207031 -67.04394531 132.29101562 C-68.91711426 132.59555664 -68.91711426 132.59555664 -70.828125 132.90625 C-72.7447998 133.22045898 -72.7447998 133.22045898 -74.70019531 133.54101562 C-78 134 -78 134 -82 134 C-82 132.35 -82 130.7 -82 129 C-78.70979189 128.34658992 -75.41760467 127.70371479 -72.125 127.0625 C-70.74828125 126.78889648 -70.74828125 126.78889648 -69.34375 126.50976562 C-68.42851562 126.33251953 -67.51328125 126.15527344 -66.5703125 125.97265625 C-65.74289551 125.81031494 -64.91547852 125.64797363 -64.06298828 125.48071289 C-59.73376662 124.80127423 -55.36046562 124.43604656 -51 124 C-51 108.82 -51 93.64 -51 78 C-44.73 77.01 -38.46 76.02 -32 75 C-20.68457871 72.29972901 -9.21802465 67.3741464 -2.875 57.25 C-1.85253454 55.53667949 -0.900151 53.78062656 0 52 C0.5465625 50.91976562 1.093125 49.83953125 1.65625 48.7265625 C3.87927234 42.57673103 3.4450309 35.87434045 3.39111328 29.41943359 C3.37508485 27.13708256 3.39098555 24.85651464 3.41015625 22.57421875 C3.41985737 14.66392951 3.01489665 7.43308233 0 0 Z " fill="#C0C2C0" transform="translate(480,378)"/>
<path d="M0 0 C0.66 0 1.32 0 2 0 C2 9.9 2 19.8 2 30 C-2.97387325 31.24346831 -7.60745601 32.35588742 -12.625 33.125 C-14.22214844 33.37636719 -14.22214844 33.37636719 -15.8515625 33.6328125 C-19 34 -19 34 -25 34 C-25 69.31 -25 104.62 -25 141 C-29.39212692 142.25489341 -33.32299249 143.32672703 -37.7578125 144.0703125 C-38.79550781 144.24433594 -39.83320313 144.41835938 -40.90234375 144.59765625 C-41.96582031 144.77167969 -43.02929688 144.94570313 -44.125 145.125 C-45.73181641 145.39763672 -45.73181641 145.39763672 -47.37109375 145.67578125 C-48.92376953 145.93294922 -48.92376953 145.93294922 -50.5078125 146.1953125 C-51.44254395 146.35016113 -52.37727539 146.50500977 -53.34033203 146.66455078 C-55.92627259 146.99070117 -58.3968867 147.06070199 -61 147 C-61 145.35 -61 143.7 -61 142 C-57.73095161 141.34491566 -54.45948917 140.70271995 -51.1875 140.0625 C-49.82334961 139.78889648 -49.82334961 139.78889648 -48.43164062 139.50976562 C-47.51962891 139.33251953 -46.60761719 139.15527344 -45.66796875 138.97265625 C-44.84578857 138.81031494 -44.0236084 138.64797363 -43.17651367 138.48071289 C-38.4787914 137.7697902 -33.73169872 137.43015443 -29 137 C-29 101.69 -29 66.38 -29 30 C-19.13561956 27.88620419 -10.82191453 26.50111809 -1 26 C-1.00523682 25.2479126 -1.01047363 24.4958252 -1.01586914 23.72094727 C-1.03657227 20.33480658 -1.04963877 16.94867916 -1.0625 13.5625 C-1.07087891 12.37849609 -1.07925781 11.19449219 -1.08789062 9.97460938 C-1.09111328 8.84990234 -1.09433594 7.72519531 -1.09765625 6.56640625 C-1.10289307 5.52427979 -1.10812988 4.48215332 -1.11352539 3.40844727 C-1 1 -1 1 0 0 Z " fill="#BDBFBE" transform="translate(486,214)"/>
<path d="M0 0 C8.17610407 7.40638716 9.58586331 19.84479633 10.12219238 30.40621948 C10.30439106 36.02818906 10.32818101 41.64842375 10.31567383 47.27294922 C10.31252077 50.23052107 10.33602349 53.18708276 10.36132812 56.14453125 C10.43268935 77.40795369 8.31070639 96.7196395 -6.76953125 112.8984375 C-18.93799675 124.63140002 -37.64464588 128.43843981 -54.0703125 128.2109375 C-62.99077255 127.56866438 -71.28344285 125.1262659 -78 119 C-78.33 118.01 -78.66 117.02 -79 116 C-76.65720173 117.17139913 -74.32334276 118.35242565 -72 119.5625 C-60.35852207 125.14070817 -42.87500591 122.76646657 -31 119 C-16.30462941 113.14457124 -6.6385994 105.94262357 0.2578125 91.3359375 C5.76611321 77.50398239 5.31872155 62.67226622 5.26074219 48.0402832 C5.24998691 44.80856721 5.26070753 41.57740268 5.2734375 38.34570312 C5.27211628 36.25781129 5.26955468 34.1699198 5.265625 32.08203125 C5.26967346 31.13278275 5.27372192 30.18353424 5.27789307 29.20552063 C5.21917023 20.68278325 3.96828514 12.44598522 1.375 4.3125 C0.98441406 3.06919922 0.98441406 3.06919922 0.5859375 1.80078125 C0.39257812 1.20652344 0.19921875 0.61226563 0 0 Z " fill="#C1C2C0" transform="translate(383,397)"/>
<path d="M0 0 C0.99 0 1.98 0 3 0 C3 1.65 3 3.3 3 5 C3.99 4.67 4.98 4.34 6 4 C6 49.21 6 94.42 6 141 C-27.13761468 147.31192661 -27.13761468 147.31192661 -34 147 C-34.33 145.35 -34.66 143.7 -35 142 C-30.69598263 141.28177235 -26.39097392 140.56990954 -22.08496094 139.86376953 C-20.62211144 139.62297791 -19.15954017 139.38048933 -17.69726562 139.13623047 C-15.58795986 138.78420056 -13.47770861 138.43840913 -11.3671875 138.09375 C-10.09987793 137.88427734 -8.83256836 137.67480469 -7.52685547 137.45898438 C-4 137 -4 137 2 137 C2 92.12 2 47.24 2 1 C1.34 0.67 0.68 0.34 0 0 Z " fill="#B5BAB8" transform="translate(285,242)"/>
<path d="M0 0 C1.32 0 2.64 0 4 0 C4 44.88 4 89.76 4 136 C-0.81199322 137.20299831 -5.29885049 138.29851821 -10.14453125 139.0703125 C-11.23314453 139.24433594 -12.32175781 139.41835938 -13.44335938 139.59765625 C-14.55517578 139.77167969 -15.66699219 139.94570313 -16.8125 140.125 C-18.50922852 140.39763672 -18.50922852 140.39763672 -20.24023438 140.67578125 C-28.59874295 142 -28.59874295 142 -32 142 C-32 140.35 -32 138.7 -32 137 C-26.32061529 135.51223407 -20.66612628 134.33204954 -14.875 133.375 C-13.71677734 133.17390625 -13.71677734 133.17390625 -12.53515625 132.96875 C-11.77847656 132.84242188 -11.02179688 132.71609375 -10.2421875 132.5859375 C-9.5704248 132.4729834 -8.89866211 132.3600293 -8.20654297 132.24365234 C-5.48635683 131.94328215 -2.73671973 132 0 132 C0 88.44 0 44.88 0 0 Z " fill="#C3C4C3" transform="translate(133,272)"/>
<path d="M0 0 C1.32 0 2.64 0 4 0 C4 44.88 4 89.76 4 136 C-0.81199322 137.20299831 -5.29885049 138.29851821 -10.14453125 139.0703125 C-11.23314453 139.24433594 -12.32175781 139.41835938 -13.44335938 139.59765625 C-14.55517578 139.77167969 -15.66699219 139.94570313 -16.8125 140.125 C-18.50922852 140.39763672 -18.50922852 140.39763672 -20.24023438 140.67578125 C-28.59874295 142 -28.59874295 142 -32 142 C-32 140.35 -32 138.7 -32 137 C-26.32061529 135.51223407 -20.66612628 134.33204954 -14.875 133.375 C-13.71677734 133.17390625 -13.71677734 133.17390625 -12.53515625 132.96875 C-11.77847656 132.84242188 -11.02179688 132.71609375 -10.2421875 132.5859375 C-9.5704248 132.4729834 -8.89866211 132.3600293 -8.20654297 132.24365234 C-5.48635683 131.94328215 -2.73671973 132 0 132 C0 88.44 0 44.88 0 0 Z " fill="#BDBFBE" transform="translate(176,265)"/>
<path d="M0 0 C0 43.89 0 87.78 0 133 C-28.29268293 138.30487805 -28.29268293 138.30487805 -35 138 C-34.67 136.35 -34.34 134.7 -34 133 C-24.43 131.35 -14.86 129.7 -5 128 C-4.67 86.09 -4.34 44.18 -4 1 C-2 0 -2 0 0 0 Z " fill="#B6BAB8" transform="translate(289,397)"/>
<path d="M0 0 C5.21866639 4.67880435 7.62228768 9.9545175 8.1418457 16.89477539 C8.83899227 32.14198863 6.42512887 43.9395267 -3.58984375 55.8984375 C-14.25639831 67.39321865 -30.67550666 72.60319386 -46.05078125 73.203125 C-58.04386901 73.42323278 -67.84986799 72.61188895 -77 64 C-77.66 63.01 -78.32 62.02 -79 61 C-78.43418213 61.28665527 -77.86836426 61.57331055 -77.28540039 61.86865234 C-69.36554715 65.78923774 -62.94439316 67.62792603 -54.0625 67.375 C-53.09248047 67.35775879 -52.12246094 67.34051758 -51.12304688 67.32275391 C-34.3135054 66.90110042 -19.06471055 62.3913543 -7.07421875 50.01171875 C0.85187532 40.72783555 3.42573003 31.17922238 3.5 19.25 C3.50954712 17.93757324 3.50954712 17.93757324 3.51928711 16.59863281 C3.40201442 10.60469543 2.20946231 5.56419636 0 0 Z " fill="#BFC0BE" transform="translate(183,484)"/>
<path d="M0 0 C0.66 0 1.32 0 2 0 C1.63777403 11.97142645 0.04478437 23.19901927 -2.5625 34.875 C-2.91758259 36.50907858 -3.27173139 38.14336033 -3.625 39.77783203 C-4.72856209 44.85674049 -5.8602101 49.9291128 -7 55 C-7.19132507 55.85190918 -7.38265015 56.70381836 -7.57977295 57.58154297 C-10.01207503 68.39723589 -12.48704274 79.20276803 -15 90 C-17.54117817 90.48835439 -20.08289059 90.97356856 -22.625 91.45703125 C-23.69427734 91.66301941 -23.69427734 91.66301941 -24.78515625 91.87316895 C-30.16959193 92.89355655 -35.52973763 93.61865959 -41 94 C-41.495 91.525 -41.495 91.525 -42 89 C-34.74 87.68 -27.48 86.36 -20 85 C-17.11899251 73.03945377 -14.32132718 61.06601522 -11.625 49.0625 C-9.31523416 38.78326552 -6.97958805 28.51060634 -4.59051514 18.2494812 C-4.13317225 16.28510146 -3.6771696 14.32040985 -3.22119141 12.35571289 C-2.94452637 11.17098389 -2.66786133 9.98625488 -2.3828125 8.765625 C-2.13934082 7.72180664 -1.89586914 6.67798828 -1.64501953 5.60253906 C-1 3 -1 3 0 0 Z " fill="#C0C1C0" transform="translate(98,327)"/>
<path d="M0 0 C1.32 0 2.64 0 4 0 C4 9.9 4 19.8 4 30 C-5.54395543 31.56967 -15.08855197 33.13528493 -24.63433266 34.69381714 C-29.06702429 35.41770457 -33.49941319 36.14334903 -37.93115234 36.87304688 C-42.20984889 37.57747885 -46.48928483 38.27724572 -50.76926804 38.97381592 C-52.40016109 39.24007962 -54.0307831 39.50800913 -55.66112137 39.77764893 C-57.94867361 40.15568937 -60.23712714 40.52773856 -62.52587891 40.8984375 C-64.47779648 41.21820557 -64.47779648 41.21820557 -66.46914673 41.54443359 C-69.69779543 41.96100822 -72.75014093 42.08833671 -76 42 C-75.67 40.35 -75.34 38.7 -75 37 C-56.33340775 33.74164068 -37.65458158 30.58089672 -18.9375 27.625 C-17.6800296 27.42568878 -17.6800296 27.42568878 -16.39715576 27.22235107 C-14.02418947 26.84678753 -11.65086022 26.47363148 -9.27734375 26.1015625 C-8.21254539 25.93324921 -8.21254539 25.93324921 -7.12623596 25.76153564 C-2.23219592 25 -2.23219592 25 0 25 C0 16.75 0 8.5 0 0 Z " fill="#C1C2C1" transform="translate(567,308)"/>
<path d="M0 0 C0 1.65 0 3.3 0 5 C-2.58252893 5.50449402 -5.16588703 6.00374301 -7.75 6.5 C-8.84441406 6.71462891 -8.84441406 6.71462891 -9.9609375 6.93359375 C-13.39343532 7.58888879 -16.49169491 8 -20 8 C-20 25.82 -20 43.64 -20 62 C-24.39212692 63.25489341 -28.32299249 64.32672703 -32.7578125 65.0703125 C-34.31435547 65.33134766 -34.31435547 65.33134766 -35.90234375 65.59765625 C-37.49755859 65.85869141 -37.49755859 65.85869141 -39.125 66.125 C-40.19621094 66.30675781 -41.26742187 66.48851562 -42.37109375 66.67578125 C-43.92376953 66.93294922 -43.92376953 66.93294922 -45.5078125 67.1953125 C-46.44254395 67.35016113 -47.37727539 67.50500977 -48.34033203 67.66455078 C-50.92627259 67.99070117 -53.3968867 68.06070199 -56 68 C-56 66.35 -56 64.7 -56 63 C-52.08641574 62.28344971 -48.17202369 61.5715076 -44.25683594 60.86376953 C-42.92587836 60.62251323 -41.59514559 60.38001315 -40.26464844 60.13623047 C-38.3489079 59.78544091 -36.43227474 59.43953732 -34.515625 59.09375 C-33.36352539 58.88427734 -32.21142578 58.67480469 -31.02441406 58.45898438 C-28 58 -28 58 -24 58 C-24 39.85 -24 21.7 -24 3 C-5 0 -5 0 0 0 Z " fill="#C2C3C2" transform="translate(251,477)"/>
<path d="M0 0 C0.66 0 1.32 0 2 0 C10.34799682 13.95714954 6.23168474 37.98950839 6.1373291 53.83105469 C6.11657077 57.69333683 6.10767244 61.55564645 6.09765625 65.41796875 C6.07644759 72.94538584 6.04248484 80.47266963 6 88 C1.65672199 89.29809263 -2.56165867 90.3597038 -7.046875 91.0703125 C-8.68462891 91.33134766 -8.68462891 91.33134766 -10.35546875 91.59765625 C-11.47566406 91.77167969 -12.59585938 91.94570313 -13.75 92.125 C-14.88566406 92.30675781 -16.02132812 92.48851562 -17.19140625 92.67578125 C-25.58476269 94 -25.58476269 94 -29 94 C-29 92.35 -29 90.7 -29 89 C-23.30009383 87.50515574 -17.62577538 86.3300729 -11.8125 85.375 C-10.64170898 85.17390625 -10.64170898 85.17390625 -9.44726562 84.96875 C-8.68736328 84.84242188 -7.92746094 84.71609375 -7.14453125 84.5859375 C-6.46753174 84.4729834 -5.79053223 84.3600293 -5.09301758 84.24365234 C-2.7146503 83.96678187 -0.39264751 83.98462093 2 84 C1.89181677 74.96720242 1.77905518 65.93447637 1.66066074 56.90180683 C1.60580794 52.70629003 1.55245421 48.51076598 1.50268555 44.31518555 C1.45447914 40.25617954 1.40212719 36.19724515 1.34705925 32.13832664 C1.32688715 30.60003665 1.30813741 29.06172723 1.29092598 27.52340126 C1.18680827 18.3152305 0.84559476 9.17613552 0 0 Z " fill="#BABDBB" transform="translate(216,306)"/>
<path d="M0 0 C0.66 0 1.32 0 2 0 C4.97893184 10.30964794 5.41614626 19.77951233 5.328125 30.421875 C5.32505966 32.05999578 5.32318944 33.69811919 5.32244873 35.33624268 C5.31788525 38.73826353 5.30360065 42.14004241 5.28125 45.54199219 C5.25269892 49.91010276 5.24200721 54.27802608 5.2375679 58.64622116 C5.23342557 62.0141182 5.22362248 65.38197729 5.21169281 68.74985504 C5.20598894 70.36227364 5.20123062 71.97469586 5.19742584 73.58712006 C5.19059152 75.82474819 5.17698006 78.06222457 5.16113281 80.29980469 C5.15430481 81.57297546 5.14747681 82.84614624 5.14044189 84.15789795 C5 87 5 87 4 88 C1.56161308 88.44418685 -0.86482978 88.83493576 -3.31640625 89.19140625 C-4.04746078 89.30097153 -4.77851532 89.4105368 -5.53172302 89.52342224 C-7.87475587 89.87366466 -10.21859616 90.21813952 -12.5625 90.5625 C-14.14784282 90.79844973 -15.7331301 91.03477297 -17.31835938 91.27148438 C-21.21160749 91.85199787 -25.10558944 92.42733896 -29 93 C-29.495 90.525 -29.495 90.525 -30 88 C-24.30009383 86.50515574 -18.62577538 85.3300729 -12.8125 84.375 C-11.64170898 84.17390625 -11.64170898 84.17390625 -10.44726562 83.96875 C-9.68736328 83.84242188 -8.92746094 83.71609375 -8.14453125 83.5859375 C-7.46753174 83.4729834 -6.79053223 83.3600293 -6.09301758 83.24365234 C-3.74315266 82.97009989 -1.36573373 83 1 83 C0.67 55.61 0.34 28.22 0 0 Z " fill="#B8BCBA" transform="translate(33,337)"/>
<path d="M0 0 C0.495 1.98 0.495 1.98 1 4 C1.99 4 2.98 4 4 4 C4 13.9 4 23.8 4 34 C-9.94225727 36.73377594 -23.95093322 38.89049836 -38 41 C-38 47.6 -38 54.2 -38 61 C-39.98 61.495 -39.98 61.495 -42 62 C-42 53.42 -42 44.84 -42 36 C-37.14449864 35.139985 -32.28862903 34.28368306 -27.4309082 33.43652344 C-25.78079455 33.14763641 -24.13104661 32.85665189 -22.48168945 32.56347656 C-20.10202093 32.14087158 -17.72111106 31.72598905 -15.33984375 31.3125 C-14.61039047 31.18125732 -13.88093719 31.05001465 -13.12937927 30.91479492 C-12.42918167 30.79467041 -11.72898407 30.6745459 -11.00756836 30.55078125 C-10.09822792 30.39089722 -10.09822792 30.39089722 -9.17051697 30.2277832 C-6.12943545 29.90863929 -3.05778181 30 0 30 C0 20.1 0 10.2 0 0 Z " fill="#BEC0BE" transform="translate(565,197)"/>
<path d="M0 0 C0.99 0 1.98 0 3 0 C3 1.65 3 3.3 3 5 C3.99 4.67 4.98 4.34 6 4 C6.33 38.32 6.66 72.64 7 108 C3.24498222 105.49665481 3.03006743 104.34305996 2 100 C1.735283 96.74051886 1.74695413 93.49962057 1.77294922 90.23095703 C1.77265717 89.26447739 1.77236511 88.29799774 1.77206421 87.30223083 C1.77345301 84.12066544 1.78899316 80.93933678 1.8046875 77.7578125 C1.80841922 75.54678475 1.81126544 73.33575534 1.81326294 71.12472534 C1.82088681 65.31489469 1.84052468 59.50516456 1.8626709 53.69537354 C1.88315612 47.76307536 1.89227039 41.83076088 1.90234375 35.8984375 C1.92377168 24.26558091 1.95789265 12.63279883 2 1 C1.34 0.67 0.68 0.34 0 0 Z " fill="#B2B7B5" transform="translate(328,235)"/>
<path d="M0 0 C2.9375 1.3125 2.9375 1.3125 5 3 C5.33 3.99 5.66 4.98 6 6 C5.27554687 5.95359375 4.55109375 5.9071875 3.8046875 5.859375 C-0.88512699 5.68428859 -4.18803056 5.62301419 -8.5 7.625 C-12.87297462 11.77932589 -14.83730704 16.6543548 -15.12698364 22.61131287 C-15.12777924 23.59994827 -15.12857483 24.58858368 -15.12939453 25.60717773 C-15.13254669 26.73192001 -15.13569885 27.85666229 -15.13894653 29.01548767 C-15.1369223 30.22596268 -15.13489807 31.43643768 -15.1328125 32.68359375 C-15.13376923 33.93125015 -15.13472595 35.17890656 -15.13571167 36.46437073 C-15.1363922 39.10299142 -15.1350491 41.7415195 -15.13037109 44.38012695 C-15.12467993 47.75376562 -15.12795179 51.12732462 -15.13394356 54.50096035 C-15.13843741 57.72850762 -15.13528555 60.95604543 -15.1328125 64.18359375 C-15.13483673 65.39204453 -15.13686096 66.6004953 -15.13894653 67.8455658 C-15.13579437 68.97346024 -15.13264221 70.10135468 -15.12939453 71.26342773 C-15.12859894 72.25285873 -15.12780334 73.24228973 -15.12698364 74.26170349 C-15.0027948 76.93973245 -14.59934452 79.39084908 -14 82 C-17.80044422 78.83296315 -19.1680851 75.77017283 -20 71 C-20.28232978 66.92693921 -20.28037923 62.86673665 -20.265625 58.78515625 C-20.26753845 57.61544785 -20.2694519 56.44573944 -20.27142334 55.24058533 C-20.27278069 52.77375065 -20.26911576 50.30690873 -20.26074219 47.84008789 C-20.25004628 44.0787743 -20.26064815 40.31793935 -20.2734375 36.55664062 C-20.27211564 34.15364479 -20.26955269 31.75064924 -20.265625 29.34765625 C-20.26967346 28.22972183 -20.27372192 27.11178741 -20.27789307 25.9599762 C-20.18639635 10.60599397 -20.18639635 10.60599397 -15.125 5.125 C-14.63257813 4.57070313 -14.14015625 4.01640625 -13.6328125 3.4453125 C-9.54442886 -0.17359168 -5.33567748 -0.69871967 0 0 Z " fill="#C0C2C1" transform="translate(346,409)"/>
<path d="M0 0 C1.32 0 2.64 0 4 0 C4 8.58 4 17.16 4 26 C-0.91078933 26.85760146 -5.82184548 27.71314872 -10.73388672 28.56347656 C-12.40434381 28.85328612 -14.07459384 29.14429182 -15.74462891 29.43652344 C-18.14692436 29.85667505 -20.54993475 30.27250107 -22.953125 30.6875 C-23.69806213 30.81874268 -24.44299927 30.94998535 -25.21051025 31.08520508 C-28.54886688 31.65774164 -31.59935113 32 -35 32 C-35 39.26 -35 46.52 -35 54 C-36.98 54.495 -36.98 54.495 -39 55 C-39 45.76 -39 36.52 -39 27 C-26.46 25.02 -13.92 23.04 -1 21 C-0.67 14.07 -0.34 7.14 0 0 Z " fill="#C0C1C0" transform="translate(562,256)"/>
<path d="M0 0 C5.97246764 5.16537742 8.20120951 11.17185322 9 19 C9.02104201 20.56367406 9.0266201 22.12760668 9.01953125 23.69140625 C9.01530151 24.90292358 9.01530151 24.90292358 9.01098633 26.13891602 C9.00736084 26.75307373 9.00373535 27.36723145 9 28 C5.71031008 28.96520574 2.41791312 29.92085401 -0.875 30.875 C-1.7928125 31.14441406 -2.710625 31.41382813 -3.65625 31.69140625 C-9.72501675 33.4436558 -15.78580821 34.8666152 -22 36 C-22 34.35 -22 32.7 -22 31 C-16.23676746 28.74625883 -10.47253467 26.92236073 -4.5 25.3125 C-3.67757812 25.08755859 -2.85515625 24.86261719 -2.0078125 24.63085938 C-0.00612177 24.08388575 1.99681088 23.54146031 4 23 C4.3365828 15.72470108 3.4323444 9.86853729 1 3 C0.67 2.01 0.34 1.02 0 0 Z " fill="#C0C1C0" transform="translate(179,426)"/>
<path d="M0 0 C0 34.98 0 69.96 0 106 C-0.33 106 -0.66 106 -1 106 C-1 72.67 -1 39.34 -1 5 C-7.93 6.32 -14.86 7.64 -22 9 C-22.99 9 -23.98 9 -25 9 C-25 7.35 -25 5.7 -25 4 C-21.58449704 3.32727653 -18.16742548 2.66288201 -14.75 2 C-13.78191406 1.80921875 -12.81382812 1.6184375 -11.81640625 1.421875 C-10.88183594 1.24140625 -9.94726562 1.0609375 -8.984375 0.875 C-8.12553711 0.70742187 -7.26669922 0.53984375 -6.38183594 0.3671875 C-4 0 -4 0 0 0 Z " fill="#A1AFA9" transform="translate(422,250)"/>
<path d="M0 0 C0.81210937 -0.03738281 1.62421875 -0.07476562 2.4609375 -0.11328125 C4.625 0.3125 4.625 0.3125 6.4140625 2.33203125 C6.81367188 2.98558594 7.21328125 3.63914062 7.625 4.3125 C7.295 4.9725 6.965 5.6325 6.625 6.3125 C6.295 5.9825 5.965 5.6525 5.625 5.3125 C2.92151552 5.40349676 0.2578265 5.54998601 -2.4375 5.75 C-5.056875 5.935625 -7.67625 6.12125 -10.375 6.3125 C-10.375 15.5525 -10.375 24.7925 -10.375 34.3125 C-12.355 34.8075 -12.355 34.8075 -14.375 35.3125 C-14.375 24.0925 -14.375 12.8725 -14.375 1.3125 C-3.54278523 0.10892058 -3.54278523 0.10892058 0 0 Z " fill="#C1C3C2" transform="translate(443.375,394.6875)"/>
<path d="M0 0 C0.99 0.33 1.98 0.66 3 1 C4.05728864 3.21518931 4.90501989 5.31320766 5.70703125 7.62109375 C5.95323212 8.30452347 6.19943298 8.98795319 6.45309448 9.6920929 C7.2541952 11.93568962 8.03477896 14.18570037 8.8125 16.4375 C9.07978912 17.20010132 9.34707825 17.96270264 9.62246704 18.74841309 C22.29701011 55.0212517 22.29701011 55.0212517 22.0625 72.375 C22.05347656 73.24898438 22.04445313 74.12296875 22.03515625 75.0234375 C22.02355469 75.67570312 22.01195313 76.32796875 22 77 C21.34 77 20.68 77 20 77 C18.9375716 71.73373396 17.89417707 66.46457896 16.88671875 61.1875 C13.62594535 44.25133125 9.93252418 27.97753012 3.32275391 12.01000977 C1.67758324 8.00054135 0.51906618 4.34376439 0 0 Z " fill="#BEC0BE" transform="translate(46,286)"/>
<path d="M0 0 C1.32 0 2.64 0 4 0 C4 14.85 4 29.7 4 45 C2.02 45.495 2.02 45.495 0 46 C0 30.82 0 15.64 0 0 Z " fill="#C4C5C4" transform="translate(227,407)"/>
<path d="M0 0 C0.99 0.33 1.98 0.66 3 1 C4.383789 3.77652779 5.58210851 6.48982346 6.73046875 9.36328125 C7.26164055 10.65506538 7.26164055 10.65506538 7.80354309 11.97294617 C8.9419087 14.74868333 10.06478091 17.53040257 11.1875 20.3125 C11.92413732 22.11433853 12.66175757 23.91577554 13.40039062 25.71679688 C16.40175573 33.05391901 19.38087862 40.39826806 22.26416016 47.78271484 C22.62753983 48.70811569 22.99091949 49.63351654 23.36531067 50.58695984 C24.05894278 52.35690491 24.74676029 54.12914254 25.42802429 55.90388489 C25.73706192 56.6912352 26.04609955 57.47858551 26.36450195 58.28979492 C26.63309525 58.9844133 26.90168854 59.67903168 27.17842102 60.3946991 C27.90096486 62.19734197 27.90096486 62.19734197 30 63 C30 66.63 30 70.26 30 74 C29.34 74 28.68 74 28 74 C27.75354736 73.23969482 27.50709473 72.47938965 27.25317383 71.69604492 C26.11286229 68.19101732 24.9627461 64.68927934 23.8125 61.1875 C23.42513672 59.99189453 23.03777344 58.79628906 22.63867188 57.56445312 C20.49778496 51.07101926 18.13960662 44.84875037 15.2253418 38.66479492 C13.10313477 34.0495549 11.3201364 29.30307899 9.5 24.5625 C6.68928561 17.30153656 3.84086631 10.0725967 0.77734375 2.9140625 C0 1 0 1 0 0 Z " fill="#B7BBB6" transform="translate(225,257)"/>
<path d="M0 0 C3 1.3125 3 1.3125 5 3 C5.33 3.99 5.66 4.98 6 6 C5.27554688 5.96519531 4.55109375 5.93039062 3.8046875 5.89453125 C-4.14819613 5.5049393 -4.14819613 5.5049393 -11 9 C-12.07593308 11.9601281 -12.62055459 14.87938861 -13 18 C-16.330022 15.5024835 -16.95940148 14.25577069 -17.625 10.0625 C-17.51293847 7.55979259 -17.2985773 6.37140104 -15.71875 4.40625 C-10.51919077 0.02230791 -6.59228686 -0.64898161 0 0 Z " fill="#BCBFBD" transform="translate(146,440)"/>
<path d="M0 0 C1.9380039 0.96473205 3.87242599 1.93371222 5.79345703 2.93188477 C11.02720359 5.62656261 16.39031035 7.81030444 21.875 9.9375 C42.22261424 17.99052266 42.22261424 17.99052266 46 24 C44.3332797 23.33346743 42.66662805 22.66676319 41 22 C39.98131836 21.59297852 38.96263672 21.18595703 37.91308594 20.76660156 C34.847687 19.5364258 31.78621344 18.29732292 28.72705078 17.05175781 C27.41765591 16.52075599 26.1067927 15.99335949 24.79443359 15.46972656 C5.34892264 7.70327469 5.34892264 7.70327469 0 0 Z " fill="#BDBFBC" transform="translate(106,485)"/>
<path d="M0 0 C0.99 0.33 1.98 0.66 3 1 C4.04004769 3.5342007 4.89978397 5.95185202 5.6875 8.5625 C5.91244141 9.27341797 6.13738281 9.98433594 6.36914062 10.71679688 C6.92358017 12.47448819 7.46320189 14.23684098 8 16 C7.01 16.33 6.02 16.66 5 17 C4.16080602 14.73117913 3.32848276 12.46022973 2.5 10.1875 C2.26152344 9.54490234 2.02304687 8.90230469 1.77734375 8.24023438 C0.72931254 5.35066261 0 3.09923939 0 0 Z " fill="#B7BBB6" transform="translate(46,286)"/>
<path d="M0 0 C0.33 4.29 0.66 8.58 1 13 C-3.77195308 8.22804692 -3.58136589 7.27951163 -4 1 C-2 0 -2 0 0 0 Z " fill="#B5BAB6" transform="translate(131,510)"/>
<path d="M0 0 C1.39195915 4.17587745 -0.17676781 6.13474776 -2 10 C-3.32 9.67 -4.64 9.34 -6 9 C-4.02 6.03 -2.04 3.06 0 0 Z " fill="#34735B" transform="translate(543,491)"/>
</svg>
